<?xml version="1.0" encoding="utf-8"?>
<!-- Generator: Adobe Illustrator 23.0.2, SVG Export Plug-In . SVG Version: 6.00 Build 0)  -->
<svg version="1.1" xmlns="http://www.w3.org/2000/svg" xmlns:xlink="http://www.w3.org/1999/xlink" x="0px" y="0px"
	 viewBox="0 0 1480 1600" style="enable-background:new 0 0 1480 1600;" xml:space="preserve">
<style type="text/css">
	.st0{fill:#6C7B7F;}
	.st1{fill:#17313B;}
	.st2{fill:#6A797D;}
	.st3{fill:#FC3D2E;}
</style>
<g id="Layer_1">
	<g>
		<path class="st0" d="M1481.4,1202.1c-9.7,3.9-18.6,9.5-27.8,14.5c-186.5,100.7-373,201.5-559.5,302.2c-49.3,26.7-98.7,53.3-148,80
			c-1.3,0.7-2.5,1.6-3.8,2.3c-0.7,0-1.3,0-2,0c-18.4-10-36.7-20.2-55.2-30.1c-160.3-86.6-320.6-173.3-481-259.9
			c-66.3-35.8-132.6-71.7-199-107.4c-2.9-1.6-3.9-3.2-3.9-6.5c0.1-264,0.1-528,0-792c0-3.6,1.3-5.2,4.3-6.8
			c120.1-64.8,240.2-129.6,360.2-194.5C488.9,137.3,612.1,70.8,735.1,4.1c4.7-2.5,8-2.4,12.6,0.1c197.4,106.8,395,213.5,592.5,320.3
			c45.7,24.7,91.4,49.4,137.1,74c1.3,0.7,2.5,1.7,4.1,1.6C1481.4,667.5,1481.4,934.8,1481.4,1202.1z M1469.4,801.2
			c0-129,0-258,0.1-387c0-4.2-1.1-6.4-4.9-8.5c-58.3-31.4-116.6-62.9-174.9-94.4c-181.4-98-362.8-196-544.2-294.1
			c-2.9-1.6-5.2-1.7-8.2,0c-83.5,45.3-167.1,90.5-250.7,135.7C330.5,237.2,174.4,321.5,18.3,405.7c-3.8,2-5,4.2-5,8.4
			c0.1,258,0.1,516,0,774c0,4.6,1.6,6.7,5.4,8.7c79,42.6,157.9,85.2,236.8,127.9c160.6,86.8,321.3,173.6,481.8,260.4
			c2.9,1.6,5.2,1.7,8.2,0c83.5-45.3,167.1-90.5,250.7-135.7c156.1-84.3,312.2-168.7,468.3-252.8c3.8-2,5-4.2,5-8.4
			C1469.4,1059.2,1469.4,930.2,1469.4,801.2z"/>
		<path class="st1" d="M1441.3,581.2c0,1.3,0.1,2.7,0.1,4c0,144,0,287.9,0,431.9c0,1.3-0.1,2.7-0.1,4c-19.3,0-38.7,0.2-58,0
			c-4.9-0.1-6,1.4-6,6.1c0.2,39,0.1,78,0.1,117c0,2.6-0.1,4.6-2.9,6.1c-45,24.5-89.9,49.2-134.9,73.8
			c-33.1,18.1-66.3,36.2-99.5,54.3c-48.2,26.4-96.3,52.8-144.5,79.2c-47.7,26.2-95.4,52.3-143.2,78.5c-35,19.2-70.1,38.3-105.1,57.7
			c-3.6,2-6.2,0.9-9.2-0.8c-22.2-12.2-44.3-24.5-66.5-36.6c-33.7-18.5-67.5-36.8-101.2-55.3c-57.5-31.5-115-63.1-172.5-94.6
			c-40.4-22.2-80.9-44.2-121.4-66.3c-54.3-29.7-108.6-59.6-162.9-89.2c-3.2-1.8-4.3-3.7-4.3-7.3c0.1-39,0-78,0.2-117
			c0-4.3-0.9-5.7-5.5-5.6c-20.8,0.2-41.7,0.1-62.5,0c0-1.3-0.1-2.7-0.1-4c0-144,0-287.9,0-431.9c0-1.3,0.1-2.7,0.1-4
			c20.7,0,41.3-0.2,62,0c4.9,0.1,6-1.4,6-6.1c-0.2-39-0.1-78-0.1-117c0-2.6,0.1-4.6,2.9-6.1c45-24.5,89.9-49.2,134.9-73.8
			c33.1-18.1,66.3-36.2,99.5-54.3c48.2-26.4,96.3-52.8,144.5-79.2c47.7-26.2,95.4-52.3,143.2-78.5c35-19.2,70.1-38.3,105.1-57.7
			c3.6-2,6.2-0.9,9.2,0.8c22.2,12.2,44.3,24.5,66.5,36.6c37.4,20.5,74.8,40.8,112.2,61.3c53.9,29.5,107.7,59.1,161.5,88.6
			c40.4,22.2,80.9,44.2,121.4,66.3c54.5,29.8,108.9,59.7,163.4,89.4c2.9,1.6,3.9,3.3,3.9,6.6c-0.1,39.3,0,78.7-0.2,118
			c0,3.8,0.9,5.1,4.9,5.1C1401.9,581,1421.6,581.2,1441.3,581.2z M743.4,621.1c207,0,414,0,620.9,0.1c4,0,5.2-0.7,5.2-5
			c-0.2-51-0.1-102,0-153c0-3.4-0.9-5.3-4-6.9c-34.6-18.8-69.1-37.8-103.7-56.7C1094,307.7,926.2,215.8,758.4,124
			c-4.9-2.7-10-7.3-15-7.3c-5,0-10,4.6-15,7.3C526.3,234.6,324.1,345.4,121.9,456c-3.3,1.8-4.6,3.7-4.6,7.6
			c0.2,50.5,0.2,101,0,151.5c0,5,1.1,6.2,6.1,6.2C330.1,621.1,536.7,621.1,743.4,621.1z M743.7,981.1c-207,0-414,0-620.9-0.1
			c-4.1,0-5.5,0.6-5.5,5.3c0.2,50.8,0.2,101.7,0,152.5c0,3.6,0.9,5.5,4.2,7.3c49.8,27.1,99.5,54.3,149.2,81.6
			c156.3,85.6,312.6,171.2,468.8,256.8c3.1,1.7,5.3,1.4,8.1-0.2c17.4-9.7,35-19.2,52.5-28.8c188.3-103.1,376.7-206.3,565.1-309.4
			c3.2-1.7,4.3-3.5,4.3-7.2c-0.1-50.7-0.2-101.3,0-152c0-4.8-1-5.9-5.9-5.9C1157,981.1,950.4,981.1,743.7,981.1z M380.9,804.3
			c0,19.3,4.9,37.2,15.8,53.2c33.8,49.9,109.6,52.9,150.9,9.9c2-2.1,0.8-3-0.5-4.3c-5.1-4.8-10.4-9.4-15.1-14.5
			c-3.3-3.6-5.1-3.8-8.9-0.3c-21.6,19.9-46.6,25-73.9,14.2c-24.7-9.7-38.5-34.8-36.7-63.9c1.8-28.9,21.8-51.7,50.3-56.7
			c23.5-4.1,44.1,2.4,61.3,19.1c2.3,2.2,3.6,2.5,5.9,0.2c5.3-5.3,10.8-10.4,16.4-15.4c2.6-2.3,2.2-3.4-0.1-5.7
			c-17.3-17.1-38.1-26.5-62.2-28.5C427.3,707,381.2,746.9,380.9,804.3z M1013.6,776.7c-0.1-1.4-0.2-2-0.2-2.7
			c0-21.7-0.1-43.3,0.1-65c0-2.9-0.4-4.1-3.7-4c-8.3,0.3-16.7,0.2-25,0c-2.5,0-3.4,0.5-3.4,3.2c0.1,60.5,0.1,120.9,0,181.4
			c0,3,1,3.5,3.7,3.5c7.7-0.2,15.3-0.3,23,0c4.2,0.2,5.6-0.6,5.5-5.3c-0.3-19.7-0.4-39.3-0.1-59c0.3-20.9,11.9-32.2,32.8-32.7
			c10.5-0.3,18.1,5.3,21.3,15.3c1.7,5.5,1.8,11.1,1.9,16.8c0,20.3,0,40.6,0,61c0,2.5,0.2,3.9,3.4,3.8c8.5-0.2,17-0.2,25.5,0
			c2.8,0.1,3.3-0.9,3.2-3.4c-0.1-24,0.3-48-0.1-72c-0.4-24.3-13.1-41.7-34.9-48C1048.2,764.4,1030.6,766.5,1013.6,776.7z
			 M713.4,888.2c-0.9,4.8,1.6,5,4.9,4.9c7.7-0.2,15.3-0.2,23,0c3.1,0.1,4.2-0.5,4.2-4c-0.1-38.6-0.1-77.3,0-115.9
			c0-3.7-1.1-4.4-4.5-4.2c-7.3,0.3-14.7,0.3-22,0c-4.3-0.2-5.8,0.7-5.8,5.5c0.3,21,0.3,42-0.1,62.9c-0.3,17.2-9.6,27.4-26.4,30.5
			c-15.8,2.9-26.4-2.1-31.1-14.6c-1.9-5.1-2.3-10.3-2.3-15.7c0-21.5-0.1-43,0.1-64.5c0-3.2-0.6-4.3-4-4.2c-6.6,0.3-13.3,0.3-20,0
			c-3.2-0.1-4.2,0.8-4.1,4.1c0.1,24.1-0.6,48.3,0.2,72.4c1.4,41.7,33.5,55.9,62.7,51.9C697.1,896.3,705,892.5,713.4,888.2z
			 M910.8,764.9c-4.5-0.1-12.4,1-20.1,3.3c-51.2,15.4-59.7,74.2-30.7,105.9c27.2,29.8,77.4,31,106.7,3.1c2.2-2.1,1.5-2.9-0.3-4.5
			c-5.9-5.2-11.7-10.4-17.2-15.9c-2.4-2.4-3.8-2-6.1,0.1c-10.5,9.3-22.7,12.5-36.6,10.3c-17.9-2.8-30.4-16.8-31.4-35.4
			c-0.9-16.9,10.1-31.5,27.4-35.7c14.8-3.6,28.4-1.3,40.3,8.7c2.5,2.1,4.2,2.9,7,0.1c5.3-5.5,11-10.6,16.7-15.8
			c1.9-1.8,2.1-2.7,0-4.5C951.4,771.6,934.1,765,910.8,764.9z M777.4,843.1c0,15.3,0.1,30.7-0.1,46c0,3.3,0.9,4.2,4.1,4.1
			c9-0.2,18-0.3,27,0c4.3,0.2,5.1-1.1,5.1-5.2c-0.2-30,0-60-0.2-90c0-3.6,0.4-5.4,4.7-5.1c5.3,0.4,10.7,0,16,0.2
			c2.4,0.1,3.6-0.4,3.5-3.2c-0.2-5.8-0.3-11.7,0-17.5c0.1-3.1-1.2-3.5-3.8-3.4c-5.5,0.2-11-0.1-16.5,0.1c-3.1,0.1-3.9-0.7-3.9-3.8
			c0.2-12.2,0-24.3,0.2-36.5c0.1-3.1-0.8-3.9-3.9-3.8c-9.5,0.2-19,0.2-28.5,0c-3.2-0.1-3.8,0.9-3.8,3.9c0.2,11.8-0.1,23.7,0.1,35.5
			c0.1,3.4-0.4,5.2-4.5,4.8c-4.1-0.4-8.3,0-12.5-0.1c-2.3-0.1-3.3,0.4-3.2,3c0.2,6,0.2,12,0,18c-0.1,2.3,0.5,3.2,3,3.1
			c4.3-0.2,8.7,0.2,13-0.1c3.3-0.2,4.2,0.8,4.1,4.1C777.3,812.5,777.4,827.8,777.4,843.1z M561.4,799.2c0,29.8,0.1,59.6-0.1,89.5
			c0,3.8,0.9,4.7,4.6,4.6c9.2-0.3,18.3-0.2,27.5,0c2.7,0,4.1-0.2,4.1-3.6c-0.1-60.3-0.1-120.6,0-180.9c0-2.8-0.8-3.6-3.6-3.6
			c-9.3,0.2-18.7,0.3-28,0c-3.9-0.1-4.6,1-4.6,4.7C561.5,739.5,561.4,769.3,561.4,799.2z M913,853.3c13.5,0.1,24.2-9.7,24.2-22
			c0-12.4-10.7-22.3-24-22.3c-13.1,0-23.7,9.7-23.9,21.8C889.2,843.2,899.7,853.2,913,853.3z"/>
		<path class="st2" d="M41.6,1021.1c20.8,0,41.7,0.2,62.5,0c4.5-0.1,5.5,1.3,5.5,5.6c-0.2,39,0,78-0.2,117c0,3.6,1.1,5.5,4.3,7.3
			c54.4,29.6,108.6,59.5,162.9,89.2c40.4,22.1,80.9,44.2,121.4,66.3c57.5,31.5,115,63.1,172.5,94.6c33.7,18.5,67.5,36.8,101.2,55.3
			c22.2,12.1,44.3,24.4,66.5,36.6c3,1.6,5.6,2.8,9.2,0.8c35-19.3,70-38.5,105.1-57.7c47.7-26.2,95.5-52.3,143.2-78.5
			c48.2-26.4,96.3-52.8,144.5-79.2c33.1-18.1,66.3-36.2,99.5-54.3c45-24.6,89.9-49.3,134.9-73.8c2.8-1.5,2.9-3.5,2.9-6.1
			c0-39,0.1-78-0.1-117c0-4.7,1-6.2,6-6.1c19.3,0.3,38.7,0.1,58,0c0,1.8,0.1,3.7,0.1,5.5c0,48-0.1,96,0.1,144c0,4.6-1.6,6.7-5.4,8.7
			c-64.3,34.3-128.6,68.7-192.8,103.1c-165.7,88.8-331.5,177.6-497.2,266.5c-3.5,1.9-6.1,1.9-9.5,0
			c-227-121.7-454-243.5-681.3-364.7c-11-5.9-14.5-11.9-14.3-24.1c0.9-44.3,0.3-88.7,0.3-133C41.4,1025,41.5,1023,41.6,1021.1z"/>
		<path class="st2" d="M1441.3,581.2c-19.7,0-39.3-0.2-59,0c-4.1,0-5-1.3-4.9-5.1c0.1-39.3,0-78.7,0.2-118c0-3.3-0.9-5-3.9-6.6
			c-54.5-29.7-108.9-59.6-163.4-89.4c-40.4-22.1-80.9-44.2-121.4-66.3c-53.9-29.5-107.7-59.1-161.5-88.6
			c-37.4-20.5-74.8-40.8-112.2-61.3c-22.2-12.1-44.3-24.4-66.5-36.6c-3-1.6-5.6-2.8-9.2-0.8c-35,19.3-70,38.5-105.1,57.7
			c-47.7,26.2-95.5,52.3-143.2,78.5c-48.2,26.4-96.3,52.8-144.5,79.2c-33.1,18.1-66.3,36.2-99.5,54.3c-45,24.6-89.9,49.3-134.9,73.8
			c-2.8,1.5-2.9,3.5-2.9,6.1c0,39-0.1,78,0.1,117c0,4.7-1,6.2-6,6.1c-20.7-0.3-41.3-0.1-62,0c0-16-0.1-32-0.1-48
			c0-33.8,0.1-67.7-0.1-101.5c0-4.6,1.6-6.7,5.4-8.7c54.8-29.2,109.5-58.5,164.2-87.8c154.9-83,309.8-166,464.7-249
			c20.5-11,41.1-21.9,61.6-33.1c3.2-1.7,5.5-1.7,8.6,0C885.3,128,1025,202.8,1164.6,277.6c90.1,48.2,180.1,96.5,270.3,144.6
			c4.8,2.5,6.7,5.2,6.7,11c-0.3,47.3-0.2,94.6-0.2,142C1441.4,577.2,1441.3,579.2,1441.3,581.2z"/>
		<g>
			<path class="st1" d="M656.4,284.5h-18.6v-10h49.4v10h-18.8v55.4h-11.9V284.5z"/>
			<path class="st1" d="M761.7,306.5c0,21.9-13.3,34.4-31.3,34.4c-18.4,0-30.1-14.1-30.1-33.3c0-20.1,12.6-34.2,31-34.2
				C750.5,273.4,761.7,287.9,761.7,306.5z M713,307.5c0,13.3,6.7,23.9,18.1,23.9c11.5,0,18-10.7,18-24.3c0-12.3-6.1-24-18-24
				C719.3,283,713,294,713,307.5z"/>
			<path class="st1" d="M783.7,275.4c4.3-0.8,10.2-1.4,18.2-1.4c8.7,0,15.1,1.8,19.3,5.3c3.9,3.2,6.4,8.3,6.4,14.5
				c0,6.2-1.9,11.3-5.6,14.8c-4.8,4.8-12.2,7-20.7,7c-2.2,0-4.3-0.1-5.8-0.4v24.6h-11.8V275.4z M795.5,305.8
				c1.5,0.4,3.4,0.5,5.8,0.5c8.9,0,14.4-4.4,14.4-12c0-7.3-5-11.2-13.3-11.2c-3.3,0-5.6,0.3-6.9,0.6V305.8z"/>
			<path class="st1" d="M465.8,488.9c3.9,2.2,9.7,4.2,15.8,4.2c7.7,0,11.9-3.6,11.9-8.9c0-4.9-3.3-7.9-11.6-10.9
				c-10.8-3.9-17.7-9.6-17.7-19c0-10.7,8.9-18.8,23.1-18.8c7.1,0,12.3,1.6,15.7,3.3l-2.9,9.6c-2.3-1.3-6.9-3.1-13-3.1
				c-7.6,0-10.9,4.1-10.9,7.9c0,5,3.8,7.4,12.5,10.8c11.3,4.3,16.9,10,16.9,19.4c0,10.5-8,19.6-24.8,19.6c-6.9,0-14.1-1.9-17.7-4.1
				L465.8,488.9z"/>
			<path class="st1" d="M586.1,468.5c0,21.9-13.3,34.4-31.3,34.4c-18.4,0-30.1-14.1-30.1-33.3c0-20.1,12.6-34.2,31-34.2
				C574.9,435.4,586.1,449.9,586.1,468.5z M537.3,469.5c0,13.3,6.7,23.9,18.1,23.9c11.5,0,18-10.7,18-24.3c0-12.3-6.1-24-18-24
				C543.6,445,537.3,456,537.3,469.5z"/>
			<path class="st1" d="M608,436.5h37.7v9.8H620v18H644v9.8H620v27.7H608V436.5z"/>
			<path class="st1" d="M681.6,446.5h-18.6v-10h49.4v10h-18.8v55.4h-11.9V446.5z"/>
			<path class="st1" d="M745.5,501.9l-16-65.4h12.7l6.2,29.7c1.6,8,3.2,16.3,4.3,22.8h0.2c1.1-6.9,2.9-14.6,4.8-22.9l7.1-29.6h12.5
				l6.5,30.1c1.6,7.8,3,15,4,22.1h0.2c1.2-7.2,2.7-14.6,4.5-22.6l6.8-29.6h12.1l-17.6,65.4h-12.8l-6.8-30.7
				c-1.6-7.5-2.8-13.7-3.6-20.8h-0.2c-1.2,7-2.4,13.3-4.4,20.8l-7.6,30.7H745.5z"/>
			<path class="st1" d="M838.6,483.4l-5.6,18.5h-12.3l21-65.4h15.2l21.2,65.4h-12.8l-5.9-18.5H838.6z M857.3,474.3l-5.1-16.1
				c-1.3-4-2.3-8.4-3.3-12.2h-0.2c-1,3.8-1.9,8.3-3.1,12.2l-5,16.1H857.3z"/>
			<path class="st1" d="M898.9,437.4c4.5-0.8,11.2-1.4,18-1.4c9.4,0,15.8,1.6,20.2,5.2c3.6,3,5.6,7.6,5.6,13.1
				c0,8.4-5.7,14.2-11.8,16.4v0.3c4.7,1.7,7.5,6.3,9.1,12.6c2,8.1,3.8,15.7,5.1,18.2h-12.3c-1-1.9-2.5-7.3-4.4-15.4
				c-1.8-8.5-4.9-11.3-11.7-11.4h-6v26.9h-11.8V437.4z M910.7,466.3h7.1c8.1,0,13.1-4.3,13.1-10.8c0-7.2-5-10.5-12.8-10.5
				c-3.8,0-6.2,0.3-7.4,0.6V466.3z"/>
			<path class="st1" d="M1002.3,472.9h-24.6v19.2h27.5v9.8h-39.5v-65.4h38v9.8h-26.1v16.9h24.6V472.9z"/>
		</g>
		<g>
			<path class="st1" d="M414.9,1102.8c5.2-0.9,11.9-1.4,19-1.4c12.2,0,20.7,2.5,26.7,7.6c6.3,5.1,10.2,12.9,10.2,24.1
				c0,11.6-4,20.4-10.2,26c-6.5,5.9-16.9,8.9-29.6,8.9c-7,0-12.2-0.4-16.1-0.9V1102.8z M426.8,1158.1c1.6,0.3,4.2,0.3,6.6,0.3
				c15.5,0.1,24.7-8.4,24.7-25c0.1-14.5-8.2-22.7-23.2-22.7c-3.8,0-6.5,0.3-8.1,0.7V1158.1z"/>
			<path class="st1" d="M529.3,1138.3h-24.6v19.2h27.5v9.8h-39.5v-65.4h38v9.8h-26.1v16.9h24.6V1138.3z"/>
			<path class="st1" d="M570.1,1167.3l-21.1-65.4h13l8.9,29.7c2.5,8.2,4.7,15.9,6.4,23.9h0.2c1.7-7.8,4.1-15.7,6.7-23.7l9.5-29.9
				h12.7l-22.6,65.4H570.1z"/>
			<path class="st1" d="M661.6,1138.3H637v19.2h27.5v9.8h-39.5v-65.4h38v9.8H637v16.9h24.6V1138.3z"/>
			<path class="st1" d="M686.7,1101.9h11.9v55.4h26.9v10h-38.8V1101.9z"/>
			<path class="st1" d="M800.3,1133.9c0,21.9-13.3,34.4-31.3,34.4c-18.4,0-30.1-14.1-30.1-33.3c0-20.1,12.6-34.2,31-34.2
				C789.1,1100.8,800.3,1115.3,800.3,1133.9z M751.6,1134.9c0,13.3,6.7,23.9,18.1,23.9c11.5,0,18-10.7,18-24.3c0-12.3-6.1-24-18-24
				C757.9,1110.4,751.6,1121.4,751.6,1134.9z"/>
			<path class="st1" d="M822.3,1102.8c4.3-0.8,10.2-1.4,18.2-1.4c8.7,0,15.1,1.8,19.3,5.3c3.9,3.2,6.4,8.3,6.4,14.5
				c0,6.2-1.9,11.3-5.6,14.8c-4.8,4.8-12.2,7-20.7,7c-2.2,0-4.3-0.1-5.8-0.4v24.6h-11.8V1102.8z M834.1,1133.2
				c1.5,0.4,3.4,0.5,5.8,0.5c8.9,0,14.4-4.4,14.4-12c0-7.3-5-11.2-13.3-11.2c-3.3,0-5.6,0.3-6.9,0.6V1133.2z"/>
			<path class="st1" d="M924.7,1138.3h-24.6v19.2h27.5v9.8h-39.5v-65.4h38v9.8h-26.1v16.9h24.6V1138.3z"/>
			<path class="st1" d="M949.7,1102.8c4.5-0.8,11.2-1.4,18-1.4c9.4,0,15.8,1.6,20.2,5.2c3.6,3,5.6,7.6,5.6,13.1
				c0,8.4-5.7,14.2-11.8,16.4v0.3c4.7,1.7,7.5,6.3,9.1,12.6c2,8.1,3.8,15.7,5.1,18.2h-12.3c-1-1.9-2.5-7.3-4.4-15.4
				c-1.8-8.5-4.9-11.3-11.7-11.4h-6v26.9h-11.8V1102.8z M961.6,1131.7h7.1c8.1,0,13.1-4.3,13.1-10.8c0-7.2-5-10.5-12.8-10.5
				c-3.8,0-6.2,0.3-7.4,0.6V1131.7z"/>
			<path class="st1" d="M1016.3,1154.3c3.9,2.2,9.7,4.2,15.8,4.2c7.7,0,11.9-3.6,11.9-8.9c0-4.9-3.3-7.9-11.6-10.9
				c-10.8-3.9-17.7-9.6-17.7-19c0-10.7,8.9-18.8,23.1-18.8c7.1,0,12.3,1.6,15.7,3.3l-2.9,9.6c-2.3-1.3-6.9-3.1-13-3.1
				c-7.6,0-10.9,4.1-10.9,7.9c0,5,3.8,7.4,12.5,10.8c11.3,4.3,16.9,10,16.9,19.4c0,10.5-8,19.6-24.8,19.6c-6.9,0-14.1-1.9-17.7-4.1
				L1016.3,1154.3z"/>
			<path class="st1" d="M616.7,1329.3v-7.3l7.5-6.9c14.8-13.8,21.8-21.3,21.9-29.7c0-5.6-3-10.6-11.3-10.6c-5.5,0-10.3,2.8-13.5,5.2
				l-3.5-8.4c4.6-3.7,11.4-6.5,19.4-6.5c14,0,20.8,8.8,20.8,19.1c0,11.1-8,20-18.9,30.2l-5.5,4.8v0.2h25.9v9.9H616.7z"/>
			<path class="st1" d="M724.9,1297.3c0,20.3-8,33-23,33c-14.6,0-22.3-13.2-22.4-32.4c0-19.6,8.3-32.8,23.1-32.8
				C717.8,1265.1,724.9,1278.7,724.9,1297.3z M691.5,1297.9c-0.1,15.3,4.2,23.3,10.8,23.3c7,0,10.7-8.5,10.7-23.7
				c0-14.6-3.5-23.3-10.7-23.3C695.9,1274.3,691.4,1282.1,691.5,1297.9z"/>
			<path class="st1" d="M762.7,1277h-0.2l-11.5,5.8l-2-9l15.3-7.6h10v63h-11.5V1277z"/>
			<path class="st1" d="M806.7,1313.1c0-7.9,4.6-13.2,11.8-16.4v-0.3c-6.6-3.2-9.6-8.4-9.6-14c0-10.3,9.1-17.3,21-17.3
				c13.6,0,19.8,8.1,19.8,15.9c0,5.3-2.8,10.9-9.7,14.3v0.3c6.9,2.6,12,8.1,12,15.9c0,11.3-9.5,18.8-23,18.8
				C814.4,1330.3,806.7,1321.9,806.7,1313.1z M840,1312.5c0-6.4-4.8-9.9-11.7-11.8c-5.9,1.7-9.3,5.8-9.3,11.1
				c-0.2,5.3,3.9,10.2,10.6,10.2C835.8,1321.9,840,1317.9,840,1312.5z M820.3,1281.9c0,5.1,4.3,8.2,10.3,9.9
				c4.3-1.3,7.9-4.8,7.9-9.5c0-4.4-2.6-8.9-9-8.9C823.4,1273.4,820.3,1277.4,820.3,1281.9z"/>
		</g>
		<path class="st3" d="M913,853.3c-13.3-0.1-23.8-10-23.6-22.5c0.2-12.1,10.8-21.8,23.9-21.8c13.2,0,23.9,10,24,22.3
			C937.3,843.6,926.5,853.3,913,853.3z"/>
		<path class="st1" d="M742.9,585.1c-174.2,0-348.3,0-522.5,0c-1.2,0-2.3,0.1-3.5,0c-1.4-0.2-3.6,1-3.5-2c0-3,2.2-1.7,3.6-2
			c1-0.1,2,0,3,0c349,0,698,0,1046.9,0c1,0,2-0.1,3,0c1.4,0.2,3.6-1,3.5,2c0,3-2.2,1.8-3.6,1.9c-1.1,0.2-2.3,0-3.5,0
			C1091.9,585.1,917.4,585.1,742.9,585.1z"/>
		<path class="st1" d="M742.9,1025.1c-174.2,0-348.3,0-522.5,0c-1.2,0-2.3,0.1-3.5,0c-1.4-0.2-3.6,1-3.5-2c0-3,2.2-1.7,3.6-1.9
			c1-0.1,2,0,3,0c349,0,698,0,1046.9,0c1,0,2-0.1,3,0c1.4,0.2,3.6-1,3.5,2c0,3-2.2,1.8-3.6,1.9c-1.1,0.2-2.3,0-3.5,0
			C1091.9,1025.1,917.4,1025.1,742.9,1025.1z"/>
	</g>
</g>
<g id="Layer_2">
</g>
</svg>
