<?xml version="1.0" encoding="UTF-8"?>
<svg width="112px" height="98px" viewBox="0 0 112 98" version="1.1" xmlns="http://www.w3.org/2000/svg" xmlns:xlink="http://www.w3.org/1999/xlink">
    <!-- Generator: Sketch 62 (91390) - https://sketch.com -->
    <title>goodfirms-badge</title>
    <desc>Created with Sketch.</desc>
    <g id="01-Home-+" stroke="none" stroke-width="1" fill="none" fill-rule="evenodd">
        <g id="1_1024_Main" transform="translate(-60.000000, -6081.000000)" fill-rule="nonzero">
            <g id="Group-6" transform="translate(26.000000, 6060.000000)">
                <g id="goodfirms-badge" transform="translate(34.000000, 23.000000)">
                    <g id="Group" transform="translate(9.000000, 0.000000)" fill="#FFFFFF">
                        <g id="tchla-link">
                            <path d="M0.64,47.05 C0.64,21.25 21.41,0.32 47.04,0.32 C72.66,0.32 93.43,21.24 93.43,47.05 C93.43,72.85 72.66,93.78 47.03,93.78 C21.41,93.78 0.64,72.86 0.64,47.05 Z" id="tchla"></path>
                        </g>
                        <g id="tchla-link" fill-opacity="0" stroke="#4385F4" stroke-width="2.78">
                            <path d="M0.64,47.05 C0.64,21.25 21.41,0.32 47.04,0.32 C72.66,0.32 93.43,21.24 93.43,47.05 C93.43,72.85 72.66,93.78 47.03,93.78 C21.41,93.78 0.64,72.86 0.64,47.05 Z" id="tchla"></path>
                        </g>
                    </g>
                    <g id="Group" transform="translate(12.000000, 3.000000)" fill="#FFFFFF" fill-opacity="0" stroke="#4385F4" stroke-dasharray="0.7" stroke-linecap="round" stroke-width="0.7">
                        <g id="tchlb-link">
                            <path d="M0.77,44.05 C0.77,19.99 20.14,0.48 44.03,0.48 C67.93,0.48 87.29,19.98 87.29,44.05 C87.29,68.11 67.92,87.62 44.03,87.62 C20.13,87.62 0.77,68.12 0.77,44.05 Z" id="tchlb"></path>
                        </g>
                    </g>
                    <g id="Group" transform="translate(31.000000, 35.000000)" fill="#4385F4">
                        <g id="tchlc-link">
                            <path d="M7.2,7.55 C6.80257304,7.8413577 6.37311324,8.086284 5.92,8.28 C5.58,8.43 5.21,8.52 4.83,8.53 C3.80376669,8.56233335 2.80693806,8.18447412 2.06,7.48 C1.33291161,6.805987 0.931980871,5.85104288 0.96,4.86 C0.942761512,3.88321351 1.29654231,2.93622452 1.95,2.21 C2.55,1.49 3.45,1.08 4.38,1.09 C5.35966229,1.0972264 6.30260761,1.46372967 7.03,2.12 L6.39,2.84 C6.09,2.56 5.74,2.36 5.35,2.25 C5.02,2.15 4.67,2.11 4.33,2.12 C3.67,2.12 3.05,2.42 2.65,2.93 C2.19675803,3.48517661 1.95573009,4.18344873 1.97,4.9 C1.95,5.6 2.23,6.3 2.74,6.78 C3.27,7.28 3.98,7.55 4.7,7.53 C5.06,7.52 5.41,7.41 5.71,7.21 C6,6.99 6.15,6.89 6.15,6.87 L6.15,5.3 L4.01,5.3 L4.32,4.32 L7.16,4.32 L7.2,7.55 Z M13.68,5.64 C13.68,6.37 13.4,7.08 12.88,7.6 C12.3777203,8.12958439 11.6798935,8.42950826 10.95,8.42950826 C10.2201065,8.42950826 9.52227971,8.12958439 9.02,7.6 C8.49053914,7.07933476 8.20084029,6.36233012 8.22,5.62 C8.21,4.89 8.48,4.17 8.99,3.64 C9.4632583,3.09105417 10.1552853,2.7798251 10.88,2.79 C11.6302714,2.77610994 12.3536332,3.06941974 12.8823545,3.60191755 C13.4110757,4.13441536 13.6992297,4.85984649 13.68,5.61 L13.68,5.64 Z M12.66,5.64 C12.67,5.15 12.49,4.68 12.16,4.34 C11.8389787,3.98467988 11.3786948,3.78741535 10.9,3.8 C10.44,3.8 10,4 9.7,4.35 C9.39,4.69 9.21,5.15 9.21,5.61 C9.21,6.08 9.39,6.54 9.71,6.88 C10.03,7.23 10.48,7.43 10.95,7.42 C11.41,7.42 11.85,7.23 12.15,6.89 C12.48,6.56 12.66,6.11 12.65,5.64 L12.66,5.64 Z M20.05,5.64 C20.0606777,6.37107892 19.7797785,7.07631349 19.2693818,7.59984538 C18.7589852,8.12337726 18.0611142,8.42210171 17.33,8.43 C16.6,8.43 15.91,8.13 15.4,7.6 C14.8725671,7.07798255 14.5832384,6.36189399 14.6,5.62 C14.59,4.89 14.87,4.17 15.37,3.64 C15.8401549,3.09262127 16.528477,2.78141182 17.25,2.79 C18.0002714,2.77610994 18.7236332,3.06941974 19.2523545,3.60191755 C19.7810757,4.13441536 20.0692297,4.85984649 20.05,5.61 L20.05,5.64 Z M19.05,5.64 C19.0592119,5.15424746 18.8716724,4.68539879 18.53,4.34 C18.2112779,3.98735772 17.7552338,3.79034667 17.28,3.8 C16.82,3.8 16.38,4 16.08,4.35 C15.77,4.69 15.59,5.15 15.59,5.61 C15.59,6.08 15.77,6.54 16.09,6.88 C16.41,7.23 16.86,7.43 17.34,7.42 C17.79,7.42 18.22,7.22 18.53,6.89 C18.86,6.56 19.05,6.11 19.03,5.64 L19.05,5.64 Z M25.95,8.27 L25.03,8.41 L25.03,7.51 L24.83,7.73 C24.3986154,8.14084246 23.8257216,8.37 23.23,8.37 C22.5295652,8.37681699 21.8611082,8.07728982 21.4,7.55 C20.9135509,7.02624455 20.648405,6.33471537 20.66,5.62 C20.6462507,4.8869741 20.9106534,4.17594501 21.4,3.63 C21.8474046,3.10032553 22.5066657,2.79633292 23.2,2.8 C23.58,2.8 23.94,2.86 24.28,3 C24.48,3.1 24.68,3.24 24.83,3.4 L24.98,3.61 L24.98,1.23 L25.97,1.08 L25.95,8.27 Z M25.09,5.69 C25.11,5.19 24.92,4.69 24.56,4.33 C24.2479836,3.9773283 23.8008688,3.77376382 23.33,3.77 C22.8587682,3.75534777 22.4050608,3.94927107 22.09,4.3 C21.79,4.64 21.63,5.08 21.63,5.54 C21.62,6.03 21.78,6.51 22.1,6.89 C22.4,7.23 22.82,7.42 23.28,7.41 C23.74,7.41 24.18,7.24 24.52,6.92 C24.89,6.62 25.09,6.16 25.09,5.69 L25.09,5.69 Z M31.15,2.22 L28.39,2.22 L28.39,4.14 L30.53,4.14 L30.53,5.12 L28.39,5.12 L28.39,8.27 L27.31,8.43 L27.31,1.23 L30.93,1.23 L31.15,2.22 Z M33.35,1.66 L32.69,2.51 L32.05,1.66 L32.72,0.82 L33.35,1.66 Z M33.15,8.26 L32.16,8.41 L32.16,3.09 L33.16,2.94 L33.15,8.26 Z M37.11,3.96 L36.93,3.96 L36.64,3.98 C36.54,4.01 36.44,4.04 36.34,4.09 C36.0961143,4.22164146 35.9053129,4.43364298 35.8,4.69 C35.6335275,5.02555765 35.5479104,5.39542334 35.55,5.77 L35.55,8.27 L34.57,8.42 L34.57,3.09 L35.47,2.92 L35.47,4.03 L35.82,3.45 C35.98,3.26 36.18,3.11 36.4,3.02 C36.62,2.96 36.84,2.92 37.06,2.91 C37.23,2.88 37.4,2.87 37.57,2.88 L37.11,3.96 Z M44.91,8.26 L43.91,8.41 L43.91,4.76 C43.94,4.5 43.86,4.24 43.7,4.03 C43.5218211,3.86444865 43.2824779,3.78104118 43.04,3.8 C42.7207797,3.78928721 42.421356,3.95435412 42.26,4.23 C42.14,4.43 42.08,4.63 42.08,4.86 L42.08,8.26 L41.09,8.44 L41.09,4.79 C41.11,4.52 41.04,4.26 40.88,4.05 C40.7323722,3.88019209 40.5146854,3.78795195 40.29,3.8 L40.2,3.8 C39.8838533,3.78078947 39.5874786,3.95466263 39.45,4.24 C39.32,4.51 39.26,4.8 39.27,5.09 L39.27,8.26 L38.25,8.44 L38.25,3.09 L39.17,2.93 L39.17,3.63 C39.26,3.49 39.36,3.36 39.47,3.25 C39.72,3 40.05,2.87 40.39,2.87 C40.99,2.78 41.55,3.13 41.75,3.69 C42.0363352,3.15904403 42.5969622,2.83426701 43.2,2.85 C43.72,2.81 44.22,3.03 44.54,3.43 C44.8,3.85 44.93,4.33 44.89,4.83 L44.91,8.26 Z M49.39,6.66 C49.4,7.11 49.22,7.56 48.89,7.86 C48.54,8.18 48.08,8.36 47.61,8.33 C47.24,8.33 46.88,8.24 46.57,8.06 C46.2882619,7.90652903 46.0480366,7.68689452 45.87,7.42 L46.57,6.8 L46.71,6.98 C46.94,7.24 47.28,7.38 47.63,7.38 C47.84,7.4 48.05,7.32 48.22,7.18 C48.369848,7.03804156 48.4471043,6.83570386 48.43,6.63 C48.43,6.37 48.26,6.18 47.93,6.08 C47.26,5.88 46.89,5.76 46.85,5.73 C46.59,5.61 46.35,5.43 46.18,5.21 C46.0133144,4.94418186 45.9329727,4.63329451 45.95,4.32 C45.94,3.89 46.12,3.47 46.45,3.18 C46.76,2.88 47.19,2.72 47.62,2.72 C47.96,2.72 48.29,2.8 48.58,2.96 C48.84,3.08 49.05,3.26 49.22,3.49 L48.6,4.14 C48.52,4.04 48.42,3.97 48.32,3.9 C48.12,3.74 47.89,3.65 47.64,3.64 C47.4627307,3.63269207 47.2876994,3.68170084 47.14,3.78 C46.981768,3.89633403 46.8917956,4.0837765 46.9,4.28 C46.89,4.48 46.97,4.65 47.13,4.76 C47.4,4.89 47.69,4.98 47.98,5.03 C48.37,5.11 48.72,5.3 49,5.59 C49.27,5.87 49.41,6.26 49.39,6.65 L49.39,6.66 Z" id="tchlc"></path>
                        </g>
                    </g>
                    <g id="Group" transform="translate(48.000000, 13.000000)" fill="#4385F4">
                        <g id="tchld-link">
                            <path d="M16.4,0.67 L4.43,0.67 C0.1,1.72 0.01,5.32 0.01,5.32 L0.01,17.56 L4.61,17.56 L4.61,6.42 C4.61,5.87 5.01,5.41 5.54,5.3 L16.4,5.3 L16.4,0.67 Z M6.87,6.65 C6.87,6.65 5.94,6.55 5.94,7.39 L5.94,11.08 L12.09,11.08 L12.09,12.18 C12.09,12.34 12.04,12.48 11.93,12.58 C11.83,12.69 11.68,12.75 11.53,12.74 L5.94,12.74 L5.94,17.54 L12.64,17.54 C12.64,17.54 16.71,16.91 16.74,12.74 L16.74,6.64 L6.87,6.65 Z" id="tchld"></path>
                        </g>
                    </g>
                    <g id="Group" transform="translate(99.000000, 56.000000)" fill="#3876DF">
                        <g id="tchle-link">
                            <polygon id="tchle" points="12.86 0.19 0.3 0.19 0.3 19.87 12.86 19.87 8.83 10.63 12.86 0.19"></polygon>
                        </g>
                    </g>
                    <g id="Group" transform="translate(0.000000, 56.000000)" fill="#3876DF">
                        <g id="tchlf-link">
                            <polygon id="tchlf" points="0.21 0.19 12.77 0.19 12.77 19.87 0.2 19.87 4.23 10.63 0.2 0.19"></polygon>
                        </g>
                    </g>
                    <g id="Group" transform="translate(99.000000, 49.000000)" fill="#2354A6">
                        <g id="tchlg-link">
                            <polygon id="tchlg" points="6.58 0.51 0.3 7.16 0.3 26.83 6.58 20.19 6.58 0.51"></polygon>
                        </g>
                    </g>
                    <g id="Group" transform="translate(6.000000, 49.000000)" fill="#2354A6">
                        <g id="tchlh-link">
                            <polygon id="tchlh" points="0.49 0.51 6.77 7.16 6.77 26.83 0.49 20.19 0.49 0.51"></polygon>
                        </g>
                    </g>
                    <g id="Group" transform="translate(41.000000, 74.000000)" fill="#4A4A4A">
                        <g id="tchli-link">
                            <path d="M1.13,5.28 C0.986248392,5.20737152 0.865185355,5.09668532 0.78,4.96 C0.722478805,4.86975678 0.688128975,4.76670729 0.68,4.66 C0.68,4.63 0.69,4.6 0.71,4.58 C0.732082996,4.56052382 0.760555872,4.54984649 0.79,4.55 L1.01,4.55 C1.03501743,4.54763472 1.06000837,4.55477498 1.08,4.57 C1.11,4.59 1.12,4.62 1.13,4.65 C1.23,4.91 1.48,5.08 1.75,5.05 C1.94679733,5.06637761 2.14269819,5.00938827 2.3,4.89 C2.43,4.74 2.5,4.53 2.47,4.33 L2.47,3.98 C2.27802924,4.21660111 1.98422307,4.3467684 1.68,4.33 C1.37828945,4.3485587 1.08671242,4.21772285 0.9,3.98 C0.719746468,3.73367559 0.62493363,3.43519073 0.63,3.13 L0.63,2.86 C0.63,2.56 0.73,2.26 0.9,2.01 C1.08445677,1.76940843 1.37764599,1.63784916 1.68,1.66 C1.99,1.65 2.3,1.79 2.48,2.04 L2.48,1.83 C2.48,1.8 2.5,1.77 2.52,1.75 C2.53979757,1.7259376 2.56887153,1.71140061 2.6,1.71 L2.8,1.71 C2.84,1.71 2.87,1.72 2.89,1.75 C2.91,1.77 2.92,1.8 2.92,1.83 L2.92,4.28 C2.92,5.03 2.54,5.42 1.78,5.42 C1.55486061,5.430468 1.33086741,5.38222331 1.13,5.28 L1.13,5.28 Z M2.28,3.75 C2.40411707,3.59296644 2.47425795,3.40007903 2.48,3.2 L2.48,3.03 L2.48,2.86 C2.47,2.66 2.4,2.48 2.28,2.32 C2.15518335,2.16903537 1.96546239,2.08719495 1.77,2.1 C1.57365589,2.08187513 1.38155211,2.16474342 1.26,2.32 C1.14,2.49 1.08,2.7 1.08,2.9 L1.08,3.17 C1.08,3.37 1.14,3.57 1.26,3.75 C1.38,3.9 1.57,3.99 1.76,3.97 C1.96,3.99 2.16,3.91 2.29,3.75 L2.28,3.75 Z M3.55,3.25 L3.55,2.83 C3.55,2.53 3.66,2.23 3.87,2.02 C4.34351751,1.60980313 5.04648249,1.60980313 5.52,2.02 C5.72,2.24 5.84,2.53 5.83,2.83 L5.83,3.25 C5.83,3.55 5.73,3.85 5.53,4.07 C5.04,4.47 4.34,4.47 3.86,4.07 C3.66292375,3.84659821 3.55599035,3.55787805 3.56,3.26 L3.55,3.25 Z M5.19,3.82 C5.32,3.66 5.39,3.45 5.39,3.24 L5.39,3.05 L5.39,2.86 C5.39690668,2.64865321 5.32570562,2.44217014 5.19,2.28 C5.06085624,2.14304599 4.87796894,2.06989107 4.69,2.08 C4.50225656,2.07124387 4.31991344,2.14418112 4.19,2.28 C4.05746112,2.4439423 3.9866793,2.64920957 3.99,2.86 L3.99,3.23 C3.99,3.45 4.06,3.65 4.19,3.81 C4.32,3.95 4.51,4.02 4.69,4.01 C4.89,4.03 5.06,3.96 5.19,3.82 L5.19,3.82 Z M6.35,3.26 L6.35,2.83 C6.35,2.53 6.47,2.24 6.67,2.02 C7.14676541,1.60833225 7.85323459,1.60833225 8.33,2.02 C8.53,2.24 8.65,2.53 8.65,2.83 L8.65,3.25 C8.65,3.55 8.54,3.85 8.34,4.07 C7.85,4.47 7.14,4.47 6.66,4.07 C6.46292375,3.84659821 6.35599035,3.55787805 6.36,3.26 L6.35,3.26 Z M7.99,3.81 C8.13,3.65 8.19,3.44 8.19,3.23 L8.19,3.05 L8.19,2.85 C8.19355183,2.64221103 8.12260565,2.44001441 7.99,2.28 C7.71234618,2.017137 7.27765382,2.017137 7,2.28 C6.86511524,2.44263288 6.79402494,2.64879476 6.8,2.86 L6.8,3.23 C6.8,3.43 6.87,3.64 7,3.8 C7.28,4.07 7.71,4.07 8,3.8 L7.99,3.81 Z M9.42,4.03 C9.24610972,3.78425285 9.15186324,3.49104156 9.15,3.19 L9.15,2.89 C9.15,2.59 9.25,2.29 9.43,2.05 C9.6104055,1.81550628 9.89453763,1.68465595 10.19,1.7 C10.49,1.68 10.79,1.8 10.98,2.05 L10.98,0.91 C10.98,0.88 10.99,0.85 11.01,0.83 C11.031535,0.809629074 11.0603804,0.798812071 11.09,0.8 L11.31,0.8 C11.3398115,0.79753126 11.3691626,0.80853793 11.39,0.83 C11.4114621,0.850837413 11.4224687,0.880188534 11.42,0.91 L11.42,4.18 C11.4224687,4.20981147 11.4114621,4.23916259 11.39,4.26 C11.3691626,4.28146207 11.3398115,4.29246874 11.31,4.29 L11.11,4.29 C11.0768638,4.29577219 11.0430456,4.28449945 11.02,4.26 C11.0048282,4.2362104 10.9978082,4.20813049 11,4.18 L11,3.97 C10.8,4.22 10.5,4.36 10.2,4.34 C9.90988044,4.37071068 9.62287274,4.2588895 9.43,4.04 L9.42,4.03 Z M10.82,3.77 C10.932792,3.60895718 10.9922477,3.41660056 10.99,3.22 L10.99,3.03 L10.99,2.84 C10.99,2.65 10.93,2.47 10.81,2.32 C10.6820534,2.16741626 10.4886051,2.08557278 10.29,2.1 C10.0976796,2.08881192 9.91168367,2.17065016 9.79,2.32 C9.67,2.49 9.6,2.7 9.6,2.91 L9.6,3.05 C9.6,3.69 9.84,4 10.3,4 C10.4957519,4.01450409 10.6862205,3.93234115 10.81,3.78 L10.82,3.77 Z M12.47,4.3 C12.4496291,4.27846496 12.4388121,4.24961961 12.44,4.22 L12.44,2.14 L12,2.14 C11.9705559,2.14015351 11.942083,2.12947618 11.92,2.11 C11.8996291,2.08846496 11.8888121,2.05961961 11.89,2.03 L11.89,1.88 C11.8875313,1.85018853 11.8985379,1.82083741 11.92,1.8 C11.9388854,1.77481942 11.9685243,1.76 12,1.76 L12.43,1.76 L12.43,1.52 C12.4143475,1.29223416 12.4858403,1.06703183 12.63,0.89 C12.7979302,0.728402192 13.0279798,0.648067393 13.26,0.67 L13.99,0.67 C14.0214757,0.67 14.0511146,0.684819416 14.07,0.71 C14.09,0.73 14.1,0.76 14.1,0.79 L14.1,0.95 C14.1024687,0.979811466 14.0914621,1.00916259 14.07,1.03 C14.0474513,1.04786309 14.0183021,1.05515041 13.99,1.05 L13.27,1.05 C13.1503492,1.03707066 13.0316464,1.08158421 12.95,1.17 C12.8819309,1.2808392 12.8504455,1.41027938 12.86,1.54 L12.86,1.76 L14,1.76 C14.03,1.76 14.06,1.77 14.08,1.8 C14.1014621,1.82083741 14.1124687,1.85018853 14.11,1.88 L14.11,4.22 C14.11,4.25 14.1,4.28 14.08,4.3 C14.0591626,4.32146207 14.0298115,4.33246874 14,4.33 L13.79,4.33 C13.7601885,4.33246874 13.7308374,4.32146207 13.71,4.3 C13.6885379,4.27916259 13.6775313,4.24981147 13.68,4.22 L13.68,2.14 L12.88,2.14 L12.88,4.22 C12.8824687,4.24981147 12.8714621,4.27916259 12.85,4.3 C12.8291626,4.32146207 12.7998115,4.33246874 12.77,4.33 L12.55,4.33 C12.52,4.33 12.49,4.33 12.47,4.3 L12.47,4.3 Z M14.87,4.3 C14.851984,4.28098316 14.841346,4.25616113 14.84,4.23 L14.84,1.88 C14.84,1.85 14.85,1.82 14.87,1.8 C14.8897976,1.7759376 14.9188715,1.76140061 14.95,1.76 L15.16,1.76 C15.1949414,1.75661165 15.2291007,1.77179356 15.25,1.8 C15.27,1.82 15.28,1.85 15.28,1.88 L15.28,2.1 C15.4258376,1.8628131 15.69247,1.72756477 15.97,1.75 L16.17,1.75 C16.19,1.75 16.22,1.75 16.24,1.78 C16.2614621,1.80083741 16.2724687,1.83018853 16.27,1.86 L16.27,2.04 C16.2757722,2.07313616 16.2644994,2.10695438 16.24,2.13 C16.2191626,2.15146207 16.1898115,2.16246874 16.16,2.16 L15.87,2.16 C15.71,2.16 15.56,2.21 15.45,2.32 C15.3418072,2.43647689 15.2842618,2.59113021 15.29,2.75 L15.29,4.21 C15.29,4.24 15.29,4.27 15.26,4.29 C15.2394845,4.31314455 15.210825,4.3274743 15.18,4.33 L14.95,4.33 C14.93,4.33 14.9,4.33 14.87,4.31 L14.87,4.3 Z M16.72,4.3 C16.6959376,4.28020243 16.6814006,4.25112847 16.68,4.22 L16.68,1.88 C16.68,1.84852427 16.6948194,1.81888544 16.72,1.8 C16.7388854,1.77481942 16.7685243,1.76 16.8,1.76 L17,1.76 C17.03,1.76 17.06,1.77 17.08,1.8 C17.1014621,1.82083741 17.1124687,1.85018853 17.11,1.88 L17.11,2.04 C17.2831116,1.82079929 17.5509415,1.6980439 17.83,1.71 C18.153014,1.6956617 18.4529019,1.87717281 18.59,2.17 C18.67,2.02 18.79,1.91 18.94,1.84 C19.0887345,1.75354431 19.2579689,1.70864541 19.43,1.71 C19.67,1.71 19.91,1.81 20.08,1.99 C20.27,2.21 20.36,2.49 20.34,2.79 L20.34,4.22 C20.34,4.25 20.33,4.28 20.31,4.3 C20.2860754,4.3230875 20.2529921,4.33411526 20.22,4.33 L20.02,4.33 C19.9870079,4.33411526 19.9539246,4.3230875 19.93,4.3 C19.9096291,4.27846496 19.8988121,4.24961961 19.9,4.22 L19.9,2.82 C19.9215193,2.61653035 19.8642613,2.41254876 19.74,2.25 C19.6271191,2.13513121 19.4709131,2.07337535 19.31,2.08 C19.16,2.08 19.01,2.15 18.91,2.26 C18.7818396,2.41701774 18.7207559,2.61823446 18.74,2.82 L18.74,4.22 C18.7401421,4.24834878 18.7282452,4.2754257 18.7072685,4.29449539 C18.6862919,4.31356508 18.658207,4.32283527 18.63,4.32 L18.41,4.32 C18.3817488,4.3239591 18.3530644,4.31678801 18.33,4.3 C18.3096291,4.27846496 18.2988121,4.24961961 18.3,4.22 L18.3,2.82 C18.3181635,2.61834413 18.2572012,2.41752731 18.13,2.26 C18.0219606,2.14301278 17.8692248,2.07755455 17.71,2.08 C17.56,2.08 17.41,2.14 17.31,2.26 C17.1818396,2.41701774 17.1207559,2.61823446 17.14,2.82 L17.14,4.22 C17.1396243,4.24637693 17.1288414,4.27153695 17.11,4.29 C17.0911146,4.31518058 17.0614757,4.33 17.03,4.33 L16.81,4.33 C16.7788715,4.32859939 16.7497976,4.3140624 16.73,4.29 L16.72,4.3 Z M21.34,4.27 C21.2049362,4.2113244 21.0851813,4.12236358 20.99,4.01 C20.9309256,3.9462161 20.8925728,3.86602378 20.88,3.78 C20.8775313,3.75018853 20.8885379,3.72083741 20.91,3.7 C20.932525,3.68127225 20.960715,3.67070102 20.99,3.67 L21.24,3.67 L21.29,3.72 C21.4378621,3.91754883 21.6734353,4.02972657 21.92,4.02 C22.06,4.02 22.21,3.99 22.34,3.92 C22.44,3.85 22.5,3.74 22.5,3.62 C22.5011855,3.55015195 22.4762182,3.48238352 22.43,3.43 C22.3645725,3.36925186 22.2857898,3.32472249 22.2,3.3 C22.04,3.24 21.89,3.2 21.73,3.17 C21.5090475,3.1366465 21.3014992,3.04324979 21.13,2.9 C21.0088718,2.77821964 20.9436912,2.61164702 20.95,2.44 C20.95,2.31 20.99,2.19 21.05,2.09 C21.13,1.97 21.25,1.87 21.38,1.81 C21.53,1.74 21.71,1.7 21.88,1.71 C22.06,1.7 22.24,1.74 22.41,1.81 C22.54,1.86 22.65,1.95 22.74,2.05 C22.8,2.12 22.84,2.2 22.85,2.28 C22.8524687,2.30981147 22.8414621,2.33916259 22.82,2.36 C22.798465,2.38037093 22.7696196,2.39118793 22.74,2.39 L22.56,2.39 C22.5179354,2.39076916 22.4791164,2.36747779 22.46,2.33 L22.32,2.19 C22.2704824,2.14809792 22.2124911,2.11739663 22.15,2.1 C22.0631514,2.07048217 21.9716764,2.05693032 21.88,2.06 C21.7489748,2.05122832 21.6187679,2.08641937 21.51,2.16 C21.429693,2.22606564 21.3852244,2.32611987 21.39,2.43 C21.39,2.49 21.41,2.56 21.44,2.61 C21.5,2.67 21.57,2.71 21.64,2.74 C21.79,2.79 21.94,2.84 22.1,2.86 C22.34,2.9 22.56,3 22.76,3.15 C22.89,3.27 22.96,3.44 22.95,3.62 C22.95,3.75 22.91,3.89 22.83,4 C22.7429841,4.11891358 22.6255337,4.21218301 22.49,4.27 C22.31,4.34 22.11,4.37 21.92,4.37 C21.72,4.39 21.52,4.35 21.34,4.27 L21.34,4.27 Z M23.52,4.3 C23.4996291,4.27846496 23.4888121,4.24961961 23.49,4.22 L23.49,3.87 L23.52,3.78 C23.5408374,3.75853793 23.5701885,3.74753126 23.6,3.75 L23.95,3.75 C23.9798115,3.74753126 24.0091626,3.75853793 24.03,3.78 L24.06,3.87 L24.06,4.22 C24.0601421,4.24834878 24.0482452,4.2754257 24.0272685,4.29449539 C24.0062919,4.31356508 23.978207,4.32283527 23.95,4.32 L23.6,4.32 C23.57,4.33 23.54,4.32 23.52,4.3 L23.52,4.3 Z M24.95,4.08 C24.7430052,3.85059815 24.635159,3.54862891 24.65,3.24 L24.65,2.84 C24.63,2.54 24.75,2.24 24.95,2.01 C25.17,1.81 25.47,1.69 25.77,1.71 C25.98,1.71 26.18,1.75 26.37,1.84 C26.52,1.91 26.64,2.02 26.74,2.15 C26.81,2.26 26.85,2.39 26.86,2.53 C26.8624687,2.55981147 26.8514621,2.58916259 26.83,2.61 C26.808465,2.63037093 26.7796196,2.64118793 26.75,2.64 L26.54,2.64 C26.51,2.64 26.48,2.64 26.46,2.62 C26.440236,2.59539899 26.4234526,2.5685456 26.41,2.54 C26.3707129,2.40009327 26.2863498,2.27706376 26.17,2.19 C26.04973,2.11726441 25.9103491,2.08241919 25.77,2.09 C25.5904205,2.08313284 25.4162279,2.15208406 25.29,2.28 C25.1559162,2.44308211 25.0849325,2.64893468 25.09,2.86 L25.09,3.21 C25.08,3.43 25.15,3.64 25.29,3.81 C25.42,3.93 25.59,4.01 25.78,3.99 C25.9203491,3.99758081 26.05973,3.96273559 26.18,3.89 C26.28,3.8 26.38,3.69 26.41,3.54 C26.4223432,3.51086327 26.4392185,3.48386283 26.46,3.46 C26.4834669,3.44409252 26.511808,3.43700723 26.54,3.44 L26.75,3.44 C26.78,3.44 26.81,3.45 26.83,3.47 C26.8514621,3.49083741 26.8624687,3.52018853 26.86,3.55 C26.852324,3.68157059 26.8110057,3.80896878 26.74,3.92 C26.6470695,4.05745154 26.5194134,4.16785686 26.37,4.24 C26.18,4.34 25.98,4.37 25.77,4.37 C25.47,4.39 25.17,4.29 24.95,4.09 L24.95,4.08 Z M27.65,4.08 C27.446952,3.85554285 27.3362231,3.56264707 27.34,3.26 L27.34,2.84 C27.34,2.54 27.44,2.24 27.65,2.03 C28.1235175,1.61980313 28.8264825,1.61980313 29.3,2.03 C29.5,2.25 29.62,2.53 29.62,2.84 L29.62,3.26 C29.62,3.56 29.52,3.86 29.31,4.08 C29.0873362,4.29146941 28.786413,4.40023683 28.48,4.38 C28.18,4.4 27.88,4.29 27.66,4.08 L27.65,4.08 Z M28.97,3.82 C29.11,3.65 29.17,3.45 29.17,3.24 L29.17,3.05 L29.17,2.86 C29.1735518,2.65221103 29.1026057,2.45001441 28.97,2.29 C28.6923462,2.027137 28.2576538,2.027137 27.98,2.29 C27.8473943,2.45001441 27.7764482,2.65221103 27.78,2.86 L27.78,3.23 C27.78,3.43 27.85,3.64 27.98,3.8 C28.26,4.07 28.7,4.07 28.98,3.8 L28.97,3.82 Z" id="tchli"></path>
                        </g>
                    </g>
                    <g id="Group" transform="translate(6.000000, 49.000000)" fill="#4385F4">
                        <g id="tchlj-link">
                            <polygon id="tchlj" points="0.4 20.2 0.4 0.52 99.48 0.52 99.48 20.2"></polygon>
                        </g>
                    </g>
                    <g id="Group" transform="translate(19.000000, 53.000000)" fill="#FFFFFF">
                        <g id="tchlk-link" transform="translate(13.000000, 0.000000)">
                            <polygon id="tchlk" points="1.84 4.47 1.84 1 0.63 1 0.63 0.28 3.93 0.28 3.93 1 2.71 1 2.71 4.47"></polygon>
                        </g>
                        <g id="tchll-link" transform="translate(17.000000, 0.000000)">
                            <path d="M0.94,2.38 C0.94,3.25 1.37,3.81 2.05,3.81 C2.73,3.81 3.18,3.26 3.18,2.38 C3.18,1.49 2.74,0.94 2.06,0.94 C1.39,0.94 0.94,1.51 0.94,2.38 Z M4.05,2.38 C4.05,3.71 3.28,4.54 2.05,4.54 C0.82,4.54 0.05,3.71 0.05,2.38 C0.05,1.05 0.82,0.21 2.05,0.21 C3.28,0.21 4.05,1.05 4.05,2.38 Z" id="tchll"></path>
                        </g>
                        <g id="tchlm-link" transform="translate(21.000000, 0.000000)">
                            <path d="M1.48,2.47 L2.11,2.47 C2.37,2.47 2.61,2.33 2.75,2.1 C2.8839746,1.86794919 2.8839746,1.58205081 2.75,1.35 C2.61950141,1.11977951 2.37462834,0.978212266 2.11,0.98 L1.48,0.98 L1.48,2.47 Z M2.34,0.29 C2.73,0.26 3.11,0.41 3.38,0.68 C3.66,0.95 3.8,1.33 3.78,1.72 C3.79529038,2.11260808 3.64250299,2.49311928 3.35994475,2.76613163 C3.07738652,3.03914398 2.69185104,3.17876906 2.3,3.15 L1.48,3.15 L1.48,4.47 L0.61,4.47 L0.61,0.28 L2.34,0.29 Z" id="tchlm"></path>
                        </g>
                        <g id="tchln-link" transform="translate(26.000000, 0.000000)">
                            <polygon id="tchln" points="4.96 4.47 4.19 4.47 4.19 1.65 4.17 1.65 3.04 4.45 2.5 4.45 1.38 1.65 1.35 1.65 1.35 4.47 0.58 4.47 0.58 0.28 1.58 0.28 2.77 3.25 2.79 3.25 3.97 0.28 4.97 0.28"></polygon>
                        </g>
                        <g id="tchlo-link" transform="translate(31.000000, 0.000000)">
                            <path d="M1.4,2.38 C1.4,3.25 1.84,3.81 2.52,3.81 C3.21,3.81 3.64,3.25 3.64,2.38 C3.64,1.5 3.2,0.94 2.52,0.94 C1.84,0.94 1.41,1.51 1.41,2.38 L1.4,2.38 Z M4.53,2.38 C4.53,3.71 3.75,4.54 2.53,4.54 C1.3,4.54 0.52,3.71 0.52,2.38 C0.52,1.05 1.29,0.21 2.52,0.21 C3.76,0.21 4.52,1.05 4.52,2.38 L4.53,2.38 Z" id="tchlo"></path>
                        </g>
                        <g id="tchlp-link" transform="translate(36.000000, 0.000000)">
                            <path d="M0.96,3.82 L0.96,2.6 L1.71,2.6 C2.21,2.6 2.49,2.8 2.49,3.2 C2.49,3.6 2.22,3.82 1.73,3.82 L0.96,3.82 Z M0.96,0.94 L1.7,0.94 C2.1,0.94 2.34,1.12 2.34,1.47 C2.34,1.82 2.07,2.03 1.61,2.03 L0.96,2.03 L0.96,0.94 Z M1.96,4.47 C2.84,4.47 3.39,4.01 3.39,3.27 C3.39,2.72 2.96,2.27 2.41,2.26 L2.41,2.24 C2.85902409,2.17086522 3.19035285,1.78431501 3.19,1.33 C3.19,0.68 2.7,0.28 1.92,0.28 L0.09,0.28 L0.09,4.48 L1.96,4.47 Z" id="tchlp"></path>
                        </g>
                        <g id="tchlq-link" transform="translate(39.000000, 0.000000)">
                            <polygon id="tchlq" points="0.89 4.47 0.89 0.28 1.76 0.28 1.76 4.48"></polygon>
                        </g>
                        <g id="tchlr-link" transform="translate(41.000000, 0.000000)">
                            <polygon id="tchlr" points="3.14 4.47 0.45 4.47 0.45 0.28 1.32 0.28 1.32 3.74 3.14 3.74"></polygon>
                        </g>
                        <g id="tchls-link" transform="translate(44.000000, 0.000000)">
                            <polygon id="tchls" points="3.4 4.47 0.65 4.47 0.65 0.28 3.4 0.28 3.4 1 1.52 1 1.52 2.01 3.3 2.01 3.3 2.68 1.52 2.68 1.52 3.73 3.4 3.73"></polygon>
                        </g>
                        <g id="tchlt-link" transform="translate(49.000000, 0.000000)">
                            <path d="M1.42,2.8 L2.51,2.8 L1.98,1.09 L1.96,1.09 L1.42,2.8 Z M2.7,3.46 L1.24,3.46 L0.92,4.47 L0.03,4.47 L1.47,0.28 L2.49,0.28 L3.94,4.48 L3.02,4.48 L2.7,3.46 Z" id="tchlt"></path>
                        </g>
                        <g id="tchlu-link" transform="translate(53.000000, 0.000000)">
                            <path d="M1.23,2.47 L1.86,2.47 C2.12,2.47 2.36,2.33 2.5,2.1 C2.6339746,1.86794919 2.6339746,1.58205081 2.5,1.35 C2.36796526,1.1213087 2.12406967,0.980306566 1.86,0.98 L1.23,0.98 L1.23,2.47 Z M2.09,0.29 C2.48,0.26 2.86,0.41 3.13,0.68 C3.4,0.95 3.55,1.33 3.53,1.72 C3.54529038,2.11260808 3.39250299,2.49311928 3.10994475,2.76613163 C2.82738652,3.03914398 2.44185104,3.17876906 2.05,3.15 L1.23,3.15 L1.23,4.47 L0.36,4.47 L0.36,0.28 L2.09,0.29 Z" id="tchlu"></path>
                        </g>
                        <g id="tchlv-link" transform="translate(57.000000, 0.000000)">
                            <path d="M0.92,2.47 L1.55,2.47 C1.96421356,2.47 2.3,2.13421356 2.3,1.72 C2.3,1.30578644 1.96421356,0.97 1.55,0.97 L0.91,0.97 L0.92,2.47 Z M1.78,0.29 C2.17,0.26 2.54,0.41 2.82,0.68 C3.09,0.95 3.24,1.33 3.22,1.72 C3.23,2.12 3.08,2.49 2.79,2.77 C2.51,3.04 2.13,3.17 1.74,3.15 L0.92,3.15 L0.92,4.47 L0.05,4.47 L0.05,0.28 L1.78,0.29 Z" id="tchlv"></path>
                        </g>
                        <g id="tchlw-link" transform="translate(0.000000, 7.000000)">
                            <path d="M1.76,3.87 L2.39,3.87 C3.17,3.87 3.59,3.4 3.59,2.49 C3.59,1.59 3.15,1.15 2.39,1.15 L1.76,1.15 L1.76,3.87 Z M2.5,0.41 C3.74,0.41 4.48,1.16 4.48,2.49 C4.48,3.81 3.74,4.59 2.5,4.59 L0.89,4.59 L0.89,0.39 L2.5,0.41 Z" id="tchlw"></path>
                        </g>
                        <g id="tchlx-link" transform="translate(5.000000, 7.000000)">
                            <polygon id="tchlx" points="2.78 4.6 0.03 4.6 0.03 0.4 2.78 0.4 2.78 1.15 0.9 1.15 0.9 2.15 2.68 2.15 2.68 2.83 0.9 2.83 0.9 3.88 2.78 3.88"></polygon>
                        </g>
                        <g id="tchly-link" transform="translate(8.000000, 7.000000)">
                            <polygon id="tchly" points="1.54 4.6 0.15 0.4 1.12 0.4 2.07 3.68 2.1 3.68 3.05 0.4 3.99 0.4 2.6 4.6"></polygon>
                        </g>
                        <g id="tchlz-link" transform="translate(12.000000, 7.000000)">
                            <polygon id="tchlz" points="3.16 4.6 0.41 4.6 0.41 0.4 3.16 0.4 3.16 1.15 1.28 1.15 1.28 2.15 3.06 2.15 3.06 2.83 1.28 2.83 1.28 3.88 3.16 3.88"></polygon>
                        </g>
                        <g id="tchlA-link" transform="translate(15.000000, 7.000000)">
                            <polygon id="tchlA" points="3.48 4.6 0.79 4.6 0.79 0.4 1.66 0.4 1.66 3.86 3.48 3.86"></polygon>
                        </g>
                        <g id="tchlB-link" transform="translate(18.000000, 7.000000)">
                            <path d="M1.57,2.5 C1.57,3.38 2,3.94 2.68,3.94 C3.37,3.94 3.8,3.38 3.8,2.51 C3.8,1.63 3.36,1.07 2.68,1.07 C2,1.07 1.57,1.63 1.57,2.51 L1.57,2.5 Z M4.69,2.5 C4.69,3.84 3.91,4.67 2.69,4.67 C1.46,4.67 0.68,3.84 0.68,2.51 C0.68,1.18 1.45,0.34 2.68,0.34 C3.92,0.34 4.68,1.18 4.68,2.51 L4.69,2.5 Z" id="tchlB"></path>
                        </g>
                        <g id="tchlC-link" transform="translate(23.000000, 7.000000)">
                            <path d="M1.12,2.6 L1.74,2.6 C2.15,2.6 2.48,2.26 2.48,1.85 C2.48267575,1.65201291 2.40589452,1.46121178 2.26682653,1.32026449 C2.12775854,1.1793172 1.93800516,1.09998192 1.74,1.1 L1.11,1.1 L1.12,2.6 Z M1.98,0.41 C2.36780028,0.389623069 2.74602915,0.534781859 3.02062365,0.809376354 C3.29521814,1.08397085 3.44037693,1.46219972 3.42,1.85 C3.43,2.25 3.28,2.63 2.99,2.9 C2.71,3.17 2.33,3.31 1.94,3.29 L1.12,3.29 L1.12,4.61 L0.25,4.61 L0.25,0.41 L1.98,0.41 Z" id="tchlC"></path>
                        </g>
                        <g id="tchlD-link" transform="translate(26.000000, 7.000000)">
                            <polygon id="tchlD" points="5.34 4.6 4.56 4.6 4.56 1.77 4.54 1.77 3.41 4.57 2.85 4.57 1.73 1.77 1.7 1.77 1.7 4.59 0.93 4.59 0.93 0.4 1.93 0.4 3.12 3.37 3.14 3.37 4.32 0.4 5.33 0.4"></polygon>
                        </g>
                        <g id="tchlE-link" transform="translate(32.000000, 7.000000)">
                            <polygon id="tchlE" points="2.77 4.6 0.02 4.6 0.02 0.4 2.77 0.4 2.77 1.15 0.89 1.15 0.89 2.15 2.67 2.15 2.67 2.83 0.89 2.83 0.89 3.88 2.77 3.88"></polygon>
                        </g>
                        <g id="tchlF-link" transform="translate(35.000000, 7.000000)">
                            <polygon id="tchlF" points="0.4 4.6 0.4 0.4 1.13 0.4 3.07 3.13 3.1 3.13 3.1 0.4 3.9 0.4 3.9 4.6 3.21 4.6 1.27 1.85 1.24 1.85 1.24 4.59"></polygon>
                        </g>
                        <g id="tchlG-link" transform="translate(39.000000, 7.000000)">
                            <polygon id="tchlG" points="1.62 4.6 1.62 1.15 0.41 1.15 0.41 0.43 3.72 0.43 3.72 1.15 2.51 1.15 2.51 4.62"></polygon>
                        </g>
                        <g id="tchlH-link" transform="translate(44.000000, 7.000000)">
                            <path d="M0.33,2.5 C0.33,1.16 1.09,0.34 2.29,0.34 C3.29,0.34 4.05,0.98 4.12,1.92 L3.27,1.92 C3.20871576,1.42777198 2.7859483,1.06108592 2.29,1.07 C1.64,1.07 1.21,1.62 1.21,2.5 C1.21,3.39 1.63,3.95 2.3,3.95 C2.78,3.97 3.2,3.63 3.28,3.15 L4.12,3.15 C4.02,4.08 3.32,4.67 2.29,4.67 C1.09,4.67 0.33,3.86 0.33,2.51 L0.33,2.5 Z" id="tchlH"></path>
                        </g>
                        <g id="tchlI-link" transform="translate(48.000000, 7.000000)">
                            <path d="M1.41,2.5 C1.41,3.38 1.85,3.94 2.54,3.94 C3.22,3.94 3.66,3.38 3.66,2.51 C3.66,1.63 3.22,1.07 2.54,1.07 C1.85,1.07 1.41,1.63 1.41,2.51 L1.41,2.5 Z M4.53,2.5 C4.53,3.84 3.76,4.67 2.53,4.67 C1.3,4.67 0.53,3.84 0.53,2.51 C0.53,1.18 1.3,0.34 2.53,0.34 C3.76,0.34 4.53,1.18 4.53,2.51 L4.53,2.5 Z" id="tchlI"></path>
                        </g>
                        <g id="tchlJ-link" transform="translate(53.000000, 7.000000)">
                            <polygon id="tchlJ" points="4.49 4.6 3.71 4.6 3.71 1.77 3.69 1.77 2.56 4.57 2.01 4.57 0.89 1.77 0.86 1.77 0.86 4.59 0.09 4.59 0.09 0.4 1.09 0.4 2.28 3.37 2.3 3.37 3.48 0.4 4.48 0.4"></polygon>
                        </g>
                        <g id="tchlK-link" transform="translate(58.000000, 7.000000)">
                            <path d="M1.05,2.58 L1.68,2.58 C2.08869071,2.58 2.42,2.24869071 2.42,1.84 C2.42,1.43130929 2.08869071,1.1 1.68,1.1 L1.04,1.1 L1.05,2.58 Z M1.91,0.41 C2.3,0.38 2.67,0.53 2.95,0.8 C3.22,1.07 3.37,1.45 3.35,1.84 C3.36,2.24 3.21,2.61 2.92,2.89 C2.64,3.16 2.26,3.29 1.87,3.27 L1.05,3.27 L1.05,4.59 L0.18,4.59 L0.18,0.4 L1.91,0.41 Z" id="tchlK"></path>
                        </g>
                        <g id="tchlL-link" transform="translate(61.000000, 7.000000)">
                            <path d="M1.6,2.93 L2.69,2.93 L2.16,1.23 L2.13,1.23 L1.6,2.93 Z M2.87,3.6 L1.42,3.6 L1.1,4.61 L0.21,4.61 L1.65,0.42 L2.67,0.42 L4.12,4.62 L3.19,4.62 L2.87,3.6 Z" id="tchlL"></path>
                        </g>
                        <g id="tchlM-link" transform="translate(65.000000, 7.000000)">
                            <polygon id="tchlM" points="0.54 4.6 0.54 0.4 1.26 0.4 3.21 3.13 3.23 3.13 3.23 0.4 4.07 0.4 4.07 4.6 3.36 4.6 1.4 1.85 1.37 1.85 1.37 4.59"></polygon>
                        </g>
                        <g id="tchlN-link" transform="translate(69.000000, 7.000000)">
                            <polygon id="tchlN" points="1.94 4.6 1.94 3.03 0.49 0.41 1.44 0.41 2.37 2.2 2.39 2.2 3.32 0.41 4.24 0.41 2.79 3.03 2.79 4.6"></polygon>
                        </g>
                    </g>
                </g>
            </g>
        </g>
    </g>
</svg>