<?xml version="1.0" encoding="UTF-8"?>
<svg width="90px" height="90px" viewBox="0 0 90 90" version="1.1" xmlns="http://www.w3.org/2000/svg" xmlns:xlink="http://www.w3.org/1999/xlink">
    <!-- Generator: Sketch 62 (91390) - https://sketch.com -->
    <title>it-cluster-logo</title>
    <desc>Created with Sketch.</desc>
    <g id="01-Home-+" stroke="none" stroke-width="1" fill="none" fill-rule="evenodd">
        <g id="1_1024_Main" transform="translate(-861.000000, -6085.000000)" fill-rule="nonzero">
            <g id="Group-6" transform="translate(26.000000, 6060.000000)">
                <g id="it-cluster-logo" transform="translate(835.000000, 25.000000)">
                    <g id="Group" transform="translate(0.000000, 35.000000)" fill="#008CC0">
                        <g id="az0ba-link">
                            <polygon id="az0ba" points="0.45 54.55 0.45 0.95 43.42 0.95 43.42 54.55"></polygon>
                        </g>
                    </g>
                    <g id="Group" transform="translate(36.000000, 0.000000)" fill="#008CC0">
                        <g id="az0bb-link">
                            <polygon id="az0bb" points="1.4814816e-12 54.1 1.4814816e-12 0.45 53.55 0.45 53.55 54.1"></polygon>
                        </g>
                    </g>
                    <g id="Group" transform="translate(0.000000, 8.000000)" fill="#007AB5">
                        <g id="az0bc-link" transform="translate(0.000000, -8.000000)">
                            <polygon id="az0bc" points="13 12.95 0.54 25.41 0.54 0.54"></polygon>
                        </g>
                    </g>
                    <g id="Group" transform="translate(64.000000, 77.000000)" fill="#007AB5">
                        <g id="az0bd-link">
                            <polygon id="az0bd" points="13.14 0.09 25.55 12.55 0.68 12.55"></polygon>
                        </g>
                    </g>
                    <g id="Group" transform="translate(0.000000, 35.000000)">
                        <g id="az0be-link" fill="#008CC0">
                            <polygon id="az0be" points="0.45 0.95 27.25 27.75 0.45 54.55"></polygon>
                        </g>
                        <g id="az0bf-link" transform="translate(0.000000, 27.000000)" fill="#0D9DCC">
                            <polygon id="az0bf" points="0.54 27.55 27.34 0.7 54.14 27.5 54.14 27.55"></polygon>
                        </g>
                    </g>
                    <g id="Group" transform="translate(36.000000, 0.000000)">
                        <g id="az0bg-link" fill="#00B8E0">
                            <polygon id="az0bg" points="1.4814816e-12 0.45 26.8 27.3 53.55 0.5 53.55 0.45"></polygon>
                        </g>
                        <g id="az0bh-link" transform="translate(26.000000, 0.000000)" fill="#0D9DCC">
                            <polygon id="az0bh" points="27.55 0.54 0.75 27.34 27.55 54.09"></polygon>
                        </g>
                    </g>
                    <g id="Group" transform="translate(27.000000, 27.000000)" fill="#008CC0">
                        <g id="az0bi-link">
                            <polygon id="az0bi" points="0.12 35.53 35.5 0.15 62.5 27.15 27.12 62.53"></polygon>
                        </g>
                    </g>
                    <g id="Group" fill="#0D9DCC">
                        <g id="az0bj-link">
                            <polygon id="az0bj" points="0.41 35.83 35.79 0.45 62.79 27.45 27.41 62.83"></polygon>
                        </g>
                    </g>
                    <g id="Group" transform="translate(0.000000, 8.000000)" fill="#008CC0">
                        <g id="az0bk-link" transform="translate(0.000000, -8.000000)">
                            <polygon id="az0bk" points="13 12.95 0.54 0.54 25.46 0.54"></polygon>
                        </g>
                    </g>
                    <g id="Group" transform="translate(77.000000, 64.000000)" fill="#008CC0">
                        <g id="az0bl-link">
                            <polygon id="az0bl" points="0.14 13.1 12.55 0.63 12.55 25.55"></polygon>
                        </g>
                    </g>
                    <g id="Group" transform="translate(26.000000, 35.000000)" fill="#FFFFFF">
                        <g id="az0bm-link">
                            <polygon id="az0bm" points="2.99 0.72 2.99 11.2 0.91 11.2 0.91 0.72"></polygon>
                        </g>
                    </g>
                    <g id="Group" transform="translate(46.000000, 35.000000)" fill="#FFFFFF">
                        <g id="az0bn-link">
                            <polygon id="az0bn" points="2.77 0.72 2.77 11.2 0.69 11.2 0.69 0.72"></polygon>
                        </g>
                    </g>
                    <g id="Group" transform="translate(50.000000, 35.000000)" fill="#FFFFFF">
                        <g id="az0bo-link">
                            <polygon id="az0bo" points="8.75 0.65 0.84 0.65 0.84 2.78 3.71 2.78 3.71 11.18 5.83 11.18 5.83 2.78 8.75 2.78"></polygon>
                        </g>
                    </g>
                    <g id="Group" transform="translate(47.000000, 51.000000)" fill="#FFFFFF">
                        <g id="az0bp-link">
                            <polygon id="az0bp" points="8.28 0.48 0.37 0.48 0.37 2.61 3.24 2.61 3.24 11.01 5.36 11.01 5.36 2.61 8.28 2.61"></polygon>
                        </g>
                    </g>
                    <g id="Group" transform="translate(57.000000, 51.000000)" fill="#FFFFFF">
                        <g id="az0bq-link">
                            <polygon id="az0bq" points="6.74 2.6 6.74 0.48 0.41 0.48 0.41 11.16 6.74 11.16 6.74 9.08 2.49 9.08 2.49 7.06 5.8 7.06 5.8 4.93 2.49 4.93 2.49 2.61"></polygon>
                        </g>
                    </g>
                    <g id="Group" transform="translate(19.000000, 51.000000)" fill="#FFFFFF">
                        <g id="az0br-link">
                            <polygon id="az0br" points="2.8 9.09 2.8 0.68 0.73 0.68 0.73 11.16 7.16 11.16 7.16 9.09"></polygon>
                        </g>
                    </g>
                    <g id="Group" transform="translate(8.000000, 35.000000)" fill="#FFFFFF">
                        <g id="az0bs-link">
                            <polygon id="az0bs" points="3.08 9.06 3.08 0.65 0.95 0.65 0.95 11.18 7.38 11.18 7.38 9.06"></polygon>
                        </g>
                    </g>
                    <g id="Group" transform="translate(15.000000, 35.000000)" fill="#FFFFFF">
                        <g id="az0bt-link">
                            <polygon id="az0bt" points="7.6 0.65 4.98 8.66 2.41 0.65 0.18 0.65 3.59 11.23 6.36 11.23 9.77 0.65"></polygon>
                        </g>
                    </g>
                    <g id="Group" transform="translate(30.000000, 35.000000)" fill="#FFFFFF">
                        <g id="az0bu-link">
                            <polygon id="az0bu" points="8.08 0.65 5.51 8.66 2.89 0.65 0.71 0.65 4.12 11.23 6.84 11.23 10.3 0.65"></polygon>
                        </g>
                    </g>
                    <g id="Group" transform="translate(8.000000, 51.000000)" fill="#FFFFFF">
                        <g id="az0bv-link">
                            <path d="M8.22,7.5 C7.64354485,8.48199349 6.58868266,9.08368384 5.45,9.08 C3.65856904,9.05841415 2.21158585,7.61143096 2.19,5.82 C2.21158585,4.02856904 3.65856904,2.58158585 5.45,2.56 C6.59,2.56 7.58,3.15 8.17,4.04 L9.65,2.51 C8.63576296,1.21820869 7.09220464,0.453779808 5.45,0.43 C2.50308192,0.435503129 0.115503129,2.82308192 0.11,5.77 C0.131779649,8.71013188 2.50986812,11.0882204 5.45,11.1100497 C7.14821242,11.1173442 8.74709992,10.3104637 9.75,8.94 L8.22,7.5 Z" id="az0bv"></path>
                        </g>
                    </g>
                    <g id="Group" transform="translate(28.000000, 51.000000)" fill="#FFFFFF">
                        <g id="az0bw-link">
                            <path d="M8.2,6.91 L8.2,0.63 L6.12,0.63 L6.12,7.21 C6.04890081,7.87100886 5.66610793,8.4582057 5.09,8.79 C4.79,8.94 4.49,9.04 4.19,9.04 C3.85,9.04 3.55,8.94 3.26,8.79 C2.66,8.49 2.32,7.89 2.26,7.26 L2.26,0.63 L0.19,0.63 L0.19,7.31 C0.320962315,9.42942265 2.06665079,11.0878267 4.19,11.11 C5.26019188,11.087601 6.283553,10.6668463 7.06,9.93 C7.76,9.23 8.2,8.29 8.25,7.31 L8.25,7.11 C8.25,7.06 8.2,7.01 8.2,6.91 L8.2,6.91 Z" id="az0bw"></path>
                        </g>
                    </g>
                    <g id="Group" transform="translate(66.000000, 51.000000)" fill="#FFFFFF">
                        <g id="az0bx-link">
                            <path d="M2.84,2.85 L4.47,2.85 C5.11,2.85 5.71,3.4 5.71,4.1 C5.71,4.75885602 5.17883314,5.29450953 4.52,5.3 L2.89,5.3 L2.89,2.85 L2.84,2.85 Z M6.1,11.01 L8.42,11.01 L6.55,6.91 C7.82712265,6.04081943 8.38827308,4.44050465 7.93363609,2.96408251 C7.4789991,1.48766037 6.11483562,0.480210524 4.57,0.48 L0.76,0.48 L0.76,10.96 L2.84,10.96 L2.84,7.5 L4.47,7.5 L6.1,11.01 Z" id="az0bx"></path>
                        </g>
                    </g>
                    <g id="Group" transform="translate(37.000000, 51.000000)" fill="#FFFFFF">
                        <g id="az0by-link">
                            <path d="M0.93,9.73 L2.27,8.15 C2.96117965,8.78850992 3.85095513,9.16984227 4.79,9.23 C5.78,9.23 6.22,8.83 6.22,8.25 C6.22,7.6 5.62,7.4 4.74,7.01 L3.4,6.47 C2.36,6.02 1.33,5.17 1.33,3.7 C1.33,2.01 2.86,0.63 4.98,0.63 C6.18,0.63 7.41,1.08 8.3,1.97 L7.11,3.4 C6.41,2.9 5.78,2.6 4.98,2.6 C4.19,2.6 3.7,2.95 3.7,3.55 C3.7,4.19 4.4,4.39 5.28,4.73 L6.57,5.28 C7.8,5.78 8.59,6.61 8.59,8.05 C8.59,9.73 7.16,11.2100262 4.74,11.2100262 C3.32889143,11.2143181 1.96817099,10.6857442 0.93,9.73 L0.93,9.73 Z" id="az0by"></path>
                        </g>
                    </g>
                </g>
            </g>
        </g>
    </g>
</svg>