<svg width="81" height="32" viewBox="0 0 81 32" fill="none" xmlns="http://www.w3.org/2000/svg">
<path d="M4.95938 24.1408C4.95938 24.1408 4.28955 24.0742 4.28955 24.6711V27.3223H8.71296V28.1179C8.71296 28.1179 8.72617 28.5154 8.31083 28.5154H4.28955V31.9622H9.11508C9.11508 31.9622 12.0368 31.5113 12.0638 28.5154V24.1408H4.95938ZM11.9294 19.8984H3.21702C0.0666381 20.6406 0 23.2257 0 23.2257V31.9622H3.35145V24.0081C3.35145 23.332 4.02128 23.2131 4.02128 23.2131H11.93V19.8984H11.9294ZM23.4314 29.4621C23.2016 29.6155 23.0316 29.7281 22.9115 29.7999C22.4818 30.0659 22.0722 30.271 21.6925 30.4347C21.1427 30.6599 20.6527 30.7725 20.2132 30.7725C18.7041 30.7725 17.4546 30.3118 16.4447 29.38C15.4348 28.4482 14.9362 27.2815 14.9362 25.8688C14.9362 24.5074 15.386 23.3297 16.2954 22.3261C17.2047 21.3231 18.3043 20.8313 19.6037 20.8313C20.1437 20.8313 20.7228 20.9233 21.3225 21.1186C22.1021 21.3639 22.7317 21.7327 23.2315 22.2135L22.3617 23.1757C21.9924 22.8178 21.5127 22.5513 20.9526 22.3876C20.5332 22.2646 20.0736 22.2037 19.5635 22.2037C18.6541 22.2037 17.8843 22.5714 17.2748 23.2987C16.6653 24.0357 16.3557 24.906 16.3557 25.9297C16.3557 26.9437 16.705 27.7726 17.4047 28.4384C18.1044 29.1037 18.9936 29.4415 20.0731 29.4415C20.5229 29.4415 20.983 29.2978 21.4524 29.0221C21.8424 28.7251 22.0423 28.5815 22.0521 28.5711V26.4726H19.1338L19.5532 25.1623H23.4314V29.4621ZM32.2466 26.9023C32.2466 27.9157 31.887 28.7963 31.1672 29.5334C30.4474 30.2704 29.5581 30.6496 28.4988 30.6496C27.5193 30.6496 26.6599 30.2808 25.92 29.5541C25.1801 28.8274 24.8205 27.9467 24.8205 26.9127C24.8205 25.889 25.1709 25.0083 25.87 24.2506C26.5691 23.4928 27.4291 23.1246 28.4385 23.1246C29.5581 23.1246 30.4675 23.4831 31.177 24.2098C31.887 24.9164 32.2466 25.8171 32.2466 26.9023ZM30.8771 26.923C30.8771 26.2371 30.6473 25.6534 30.1877 25.1824C29.7281 24.701 29.1583 24.4654 28.4787 24.4654C27.8393 24.4654 27.2993 24.7113 26.8495 25.203C26.3997 25.6942 26.1797 26.2572 26.1797 26.892C26.1797 27.5578 26.4094 28.1208 26.8593 28.5918C27.3091 29.0629 27.8692 29.3082 28.5482 29.3082C29.1784 29.3082 29.7178 29.0727 30.178 28.6016C30.6473 28.1305 30.8777 27.5675 30.8777 26.923H30.8771ZM40.9418 26.9023C40.9418 27.9157 40.5821 28.7963 39.8623 29.5334C39.1425 30.2704 38.2533 30.6496 37.1939 30.6496C36.2145 30.6496 35.3551 30.2808 34.6152 29.5541C33.8758 28.8274 33.5156 27.9467 33.5156 26.9127C33.5156 25.889 33.866 25.0083 34.5652 24.2506C35.2649 23.4928 36.1243 23.1246 37.1336 23.1246C38.2533 23.1246 39.1626 23.4831 39.8721 24.2098C40.5821 24.9164 40.9418 25.8171 40.9418 26.9023ZM39.5722 26.923C39.5722 26.2371 39.3424 25.6534 38.8829 25.1824C38.4233 24.701 37.8534 24.4654 37.1738 24.4654C36.5344 24.4654 35.9944 24.7113 35.5446 25.203C35.0948 25.6942 34.8748 26.2572 34.8748 26.892C34.8748 27.5578 35.1046 28.1208 35.555 28.5918C36.0042 29.0629 36.5643 29.3082 37.2439 29.3082C37.8735 29.3082 38.413 29.0727 38.8731 28.6016C39.3424 28.1305 39.5728 27.5675 39.5728 26.923H39.5722ZM48.9878 30.4445L47.7285 30.6392V29.4208L47.4585 29.7275C47.2207 29.9504 46.9512 30.1368 46.6589 30.2808C46.2298 30.4787 45.7625 30.5801 45.2899 30.5778C44.3104 30.5778 43.4706 30.2193 42.791 29.492C42.1114 28.7647 41.7719 27.9053 41.7719 26.9023C41.7719 25.8683 42.1114 24.9778 42.7812 24.2402C43.451 23.5026 44.2702 23.1344 45.2497 23.1344C45.8098 23.1344 46.2993 23.2263 46.7089 23.4107C46.999 23.544 47.2488 23.718 47.4585 23.9335C47.5286 24.0254 47.5987 24.1276 47.6688 24.2195V21.0255L49.0073 20.8308L48.9878 30.4445ZM47.8084 26.9942C47.8084 26.2779 47.5683 25.6735 47.0788 25.1824C46.5894 24.6803 46.039 24.435 45.41 24.435C44.7103 24.435 44.1507 24.6705 43.721 25.1416C43.3206 25.5914 43.111 26.1446 43.111 26.7897C43.111 27.5164 43.3206 28.1202 43.7406 28.5913C44.1599 29.0623 44.6902 29.2978 45.3399 29.2978C45.9793 29.2978 46.5394 29.083 47.0392 28.643C47.5487 28.192 47.809 27.6394 47.809 26.9942H47.8084ZM56.0537 22.3571H52.3059V24.906H55.2138V26.2164H52.3059V30.4347L50.8467 30.6496V21.0358H55.7636L56.0537 22.3571ZM59.0622 21.6092L58.1626 22.7455L57.3032 21.6092L58.2126 20.4832L59.0622 21.6092ZM58.7922 30.4445L57.4531 30.6289V23.5135L58.7922 23.309V30.4451V30.4445ZM64.8391 23.2372L64.2094 24.6906C64.1267 24.678 64.0432 24.6713 63.9596 24.6705C63.8297 24.6705 63.6999 24.6808 63.5695 24.701C63.4391 24.7211 63.2995 24.7728 63.1501 24.8446C62.8704 24.9675 62.6302 25.2335 62.4206 25.6327C62.1885 26.0859 62.0684 26.588 62.0701 27.0971V30.4347L60.7316 30.6496V23.5135L61.9707 23.2883V24.7728C62.1304 24.5165 62.3005 24.2609 62.4602 23.9949C62.69 23.7284 62.96 23.5342 63.2599 23.421C63.4196 23.3601 63.7097 23.3084 64.1491 23.2677C64.5691 23.2372 64.8092 23.2165 64.8391 23.2372ZM74.813 30.4445L73.4739 30.6392V25.7557C73.4739 25.3047 73.3739 24.9773 73.174 24.7728C72.9741 24.5677 72.6742 24.4654 72.2842 24.4654C71.8148 24.4654 71.4546 24.6602 71.2151 25.0491C71.0548 25.3151 70.9652 25.6017 70.9652 25.8884V30.4341L69.6261 30.68V25.7861C69.6261 25.3564 69.5261 25.0284 69.336 24.8038C69.1361 24.578 68.8764 24.4654 68.5363 24.4654H68.4065C67.9366 24.4654 67.5965 24.6602 67.3868 25.0594C67.2271 25.3564 67.1473 25.735 67.1473 26.1957V30.4341L65.7582 30.68V23.5135L67.0071 23.2987V24.2098C67.1473 23.9944 67.2869 23.8203 67.4173 23.6979C67.7769 23.3601 68.1968 23.1958 68.6662 23.1958C69.1958 23.1958 69.5853 23.278 69.8553 23.4521C70.0851 23.5957 70.3051 23.8818 70.5251 24.2914C70.9847 23.5647 71.6344 23.1958 72.4944 23.1958C73.3136 23.1958 73.9237 23.4521 74.323 23.9743C74.6533 24.404 74.813 25.0387 74.813 25.8683V30.4445ZM80.9311 28.2845C80.9311 28.9394 80.7013 29.4823 80.2417 29.9022C79.7821 30.3319 79.2019 30.537 78.5022 30.537C77.9725 30.537 77.5026 30.414 77.0729 30.1682C76.6432 29.9229 76.3238 29.646 76.1136 29.3185L77.0534 28.4792C77.1229 28.5815 77.1832 28.6631 77.243 28.7245C77.5934 29.083 78.0128 29.2674 78.5022 29.2674C78.8423 29.2674 79.1123 29.1755 79.3019 29.0014C79.5018 28.8274 79.592 28.5815 79.592 28.2638C79.592 27.9059 79.3622 27.66 78.9026 27.5268C77.9927 27.2504 77.5026 27.0971 77.4331 27.066C77.0132 26.8512 76.7133 26.626 76.5232 26.3698C76.3135 26.0728 76.2038 25.6839 76.2038 25.1824C76.2038 24.5677 76.4336 24.0564 76.8834 23.6468C77.3332 23.2372 77.8726 23.0425 78.4919 23.0425C78.9624 23.0425 79.4018 23.1447 79.8017 23.3601C80.2015 23.575 80.491 23.8002 80.6611 24.0667L79.8614 24.9365C79.7413 24.8163 79.611 24.7067 79.4719 24.609C79.1519 24.3838 78.8423 24.2713 78.5528 24.2713C78.2724 24.2713 78.0426 24.3327 77.8628 24.4551C77.6526 24.609 77.5428 24.8342 77.5428 25.1312C77.5428 25.4179 77.6428 25.6327 77.8531 25.766C78.0329 25.8786 78.4126 26.0015 79.0123 26.1343C79.6115 26.2779 80.0717 26.5237 80.4014 26.8719C80.7714 27.2401 80.9311 27.7008 80.9311 28.2845Z" fill="#3A7AF3"/>
<path d="M16 0.898399L17.7634 4.47135L21.7063 5.0443L18.8532 7.82545L19.5267 11.7525L16 9.8984L12.4733 11.7525L13.1468 7.82545L10.2937 5.0443L14.2366 4.47135L16 0.898399Z" fill="#FDC900"/>
<path d="M28 0.898399L29.7634 4.47135L33.7063 5.0443L30.8532 7.82545L31.5267 11.7525L28 9.8984L24.4733 11.7525L25.1468 7.82545L22.2937 5.0443L26.2366 4.47135L28 0.898399Z" fill="#FDC900"/>
<path d="M40 0.898399L41.7634 4.47135L45.7063 5.0443L42.8532 7.82545L43.5267 11.7525L40 9.8984L36.4733 11.7525L37.1468 7.82545L34.2937 5.0443L38.2366 4.47135L40 0.898399Z" fill="#FDC900"/>
<path d="M52 0.898399L53.7634 4.47135L57.7063 5.0443L54.8532 7.82545L55.5267 11.7525L52 9.8984L48.4733 11.7525L49.1468 7.82545L46.2937 5.0443L50.2366 4.47135L52 0.898399Z" fill="#FDC900"/>
<path d="M64 0.898399L65.7634 4.47135L69.7063 5.0443L66.8532 7.82545L67.5267 11.7525L64 9.8984L60.4733 11.7525L61.1468 7.82545L58.2937 5.0443L62.2366 4.47135L64 0.898399Z" fill="#FDC900"/>
</svg>
