<?xml version="1.0" encoding="UTF-8"?>
<svg width="110px" height="70px" viewBox="0 0 110 70" version="1.1" xmlns="http://www.w3.org/2000/svg" xmlns:xlink="http://www.w3.org/1999/xlink">
    <!-- Generator: Sketch 62 (91390) - https://sketch.com -->
    <title>nucc-badge</title>
    <desc>Created with Sketch.</desc>
    <g id="01-Home-+" stroke="none" stroke-width="1" fill="none" fill-rule="evenodd">
        <g id="1_1024_Main" transform="translate(-456.000000, -6095.000000)" fill-rule="nonzero">
            <g id="Group-6" transform="translate(26.000000, 6060.000000)">
                <g id="nucc-badge" transform="translate(430.000000, 35.000000)">
                    <g id="Group" transform="translate(0.000000, 33.000000)">
                        <g transform="translate(0.000000, 10.000000)" fill="#454F71">
                            <g id="rz9da-link" transform="translate(0.000000, 18.000000)">
                                <path d="M2.62,0.75 C3.14,0.75 3.45,0.85 3.66,0.95 L3.66,1.57 C3.35,1.47 3.03,1.37 2.62,1.37 C1.78,1.37 1.36,1.97 1.36,2.99 C1.36,4.11 1.67,4.62 2.62,4.62 C3.03,4.62 3.35,4.52 3.66,4.42 L3.66,5.02 C3.46,5.13 3.14,5.23 2.62,5.23 C1.25,5.23 0.73,4.42 0.73,2.89 C0.73,1.57 1.25,0.75 2.62,0.75 Z" id="rz9da"></path>
                            </g>
                            <g id="rz9db-link" transform="translate(100.000000, 18.000000)">
                                <path d="M2.67,0.75 C3.19,0.75 3.5,0.85 3.71,0.95 L3.71,1.57 C3.4,1.47 3.08,1.37 2.67,1.37 C1.83,1.37 1.41,1.97 1.41,2.99 C1.41,4.11 1.72,4.62 2.67,4.62 C3.08,4.62 3.4,4.52 3.71,4.42 L3.71,5.02 C3.51,5.13 3.19,5.23 2.67,5.23 C1.3,5.23 0.78,4.42 0.78,2.89 C0.78,1.57 1.3,0.75 2.67,0.75 Z" id="rz9db"></path>
                            </g>
                            <g id="rz9dc-link" transform="translate(6.000000, 18.000000)">
                                <polygon id="rz9dc" points="2.7 5.23 2.7 3.19 0.81 3.19 0.81 5.23 0.08 5.23 0.08 0.85 0.81 0.85 0.81 2.68 2.7 2.68 2.7 0.85 3.43 0.85 3.43 5.33 2.7 5.33"></polygon>
                            </g>
                            <g id="rz9dd-link" transform="translate(11.000000, 18.000000)">
                                <path d="M2.62,1.67 L1.99,3.59 L3.15,3.59 L2.62,1.67 Z M3.35,4.21 L1.89,4.21 L1.57,5.33 L0.84,5.33 L2.31,0.85 L3.04,0.85 L4.51,5.33 L3.67,5.33 L3.35,4.21 Z" id="rz9dd"></path>
                            </g>
                            <g id="rz9de-link" transform="translate(17.000000, 18.000000)">
                                <polygon id="rz9de" points="3.22 4.62 2.59 4.62 1.44 1.87 1.44 5.23 0.81 5.23 0.81 0.85 1.65 0.85 2.91 3.91 4.16 0.85 5 0.85 5 5.33 4.27 5.33 4.27 1.97"></polygon>
                            </g>
                            <g id="rz9df-link" transform="translate(24.000000, 18.000000)">
                                <path d="M1.35,3.2 L2.29,3.2 C2.92,3.2 3.13,3.5 3.13,3.9 C3.13,4.31 2.92,4.62 2.29,4.62 L1.35,4.62 L1.35,3.2 Z M3.02,2.07 C3.02,2.37 2.92,2.68 2.4,2.68 L1.45,2.68 L1.45,1.46 L2.29,1.46 C2.82,1.46 2.92,1.76 3.02,2.07 L3.02,2.07 Z M0.82,0.85 L0.82,5.33 L2.4,5.33 C3.55,5.33 3.97,4.73 3.97,4.01 C3.97,3.5 3.65,3.09 3.23,2.99 C3.55,2.79 3.76,2.48 3.76,2.07 C3.76,1.36 3.44,0.85 2.29,0.85 L0.82,0.85 Z" id="rz9df"></path>
                            </g>
                            <g id="rz9dg-link" transform="translate(30.000000, 18.000000)">
                                <polygon id="rz9dg" points="2.9 3.3 1 3.3 1 4.72 3.1 4.72 3.1 5.33 0.27 5.33 0.27 0.85 3.1 0.85 3.1 1.46 1 1.46 1 2.68 2.89 2.68"></polygon>
                            </g>
                            <g id="rz9dh-link" transform="translate(35.000000, 18.000000)">
                                <path d="M1.24,2.89 L2.19,2.89 C2.81,2.89 2.92,2.59 2.92,2.17 C2.92,1.77 2.82,1.47 2.19,1.47 L1.24,1.47 L1.24,2.89 Z M1.24,5.23 L0.51,5.23 L0.51,0.85 L1.98,0.85 C3.13,0.85 3.55,1.35 3.55,2.17 C3.55,2.79 3.34,3.19 2.81,3.4 L3.76,5.33 L2.92,5.33 L2.08,3.5 L1.14,3.5 L1.14,5.23 L1.24,5.23 Z" id="rz9dh"></path>
                            </g>
                            <g id="rz9di-link" transform="translate(47.000000, 18.000000)">
                                <path d="M1.08,3.1 C1.08,4.12 1.29,4.84 2.13,4.84 C2.97,4.84 3.18,4.22 3.18,3.1 C3.18,2.08 2.97,1.36 2.13,1.36 C1.29,1.36 1.08,1.97 1.08,3.1 Z M0.35,3.1 C0.35,1.87 0.66,0.75 2.13,0.75 C3.6,0.75 3.91,1.77 3.91,3.09 C3.91,4.32 3.6,5.44 2.13,5.44 C0.66,5.34 0.35,4.32 0.35,3.09 L0.35,3.1 Z" id="rz9di"></path>
                            </g>
                            <g id="rz9dj-link" transform="translate(53.000000, 18.000000)">
                                <polygon id="rz9dj" points="3.05 3.3 1.16 3.3 1.16 5.23 0.43 5.23 0.43 0.85 3.15 0.85 3.15 1.46 1.05 1.46 1.05 2.68 2.95 2.68 2.95 3.3"></polygon>
                            </g>
                            <g id="rz9dk-link" transform="translate(64.000000, 18.000000)">
                                <path d="M2.74,0.75 C3.26,0.75 3.57,0.85 3.78,0.95 L3.78,1.57 C3.47,1.47 3.15,1.37 2.74,1.37 C1.9,1.37 1.48,1.97 1.48,2.99 C1.48,4.11 1.79,4.62 2.74,4.62 C3.15,4.62 3.47,4.52 3.78,4.42 L3.78,5.02 C3.58,5.13 3.26,5.23 2.74,5.23 C1.37,5.23 0.85,4.42 0.85,2.89 C0.85,1.57 1.37,0.75 2.74,0.75 Z" id="rz9dk"></path>
                            </g>
                            <g id="rz9dl-link" transform="translate(70.000000, 18.000000)">
                                <path d="M0.82,3.1 C0.82,4.12 1.03,4.84 1.87,4.84 C2.71,4.84 2.92,4.22 2.92,3.1 C2.92,2.08 2.71,1.36 1.87,1.36 C1.03,1.36 0.82,1.97 0.82,3.1 Z M0.09,3.1 C0.09,1.87 0.4,0.75 1.87,0.75 C3.34,0.75 3.65,1.77 3.65,3.09 C3.65,4.32 3.34,5.44 1.87,5.44 C0.4,5.34 0.09,4.32 0.09,3.09 L0.09,3.1 Z" id="rz9dl"></path>
                            </g>
                            <g id="rz9dm-link" transform="translate(76.000000, 18.000000)">
                                <polygon id="rz9dm" points="2.67 4.62 2.05 4.62 0.89 1.87 0.89 5.23 0.16 5.23 0.16 0.85 1 0.85 2.26 3.91 3.51 0.85 4.35 0.85 4.35 5.33 3.62 5.33 3.62 1.97"></polygon>
                            </g>
                            <g id="rz9dn-link" transform="translate(82.000000, 18.000000)">
                                <polygon id="rz9dn" points="3.48 4.62 2.86 4.62 1.7 1.87 1.7 5.23 0.97 5.23 0.97 0.85 1.81 0.85 3.07 3.91 4.32 0.85 5.16 0.85 5.16 5.33 4.43 5.33 4.43 1.97"></polygon>
                            </g>
                            <g id="rz9do-link" transform="translate(89.000000, 18.000000)">
                                <polygon id="rz9do" points="3.5 3.3 1.62 3.3 1.62 4.72 3.72 4.72 3.72 5.33 0.89 5.33 0.89 0.85 3.72 0.85 3.72 1.46 1.62 1.46 1.62 2.68 3.51 2.68"></polygon>
                            </g>
                            <g id="rz9dp-link" transform="translate(95.000000, 18.000000)">
                                <path d="M0.85,2.89 L1.8,2.89 C2.42,2.89 2.53,2.59 2.53,2.17 C2.53,1.77 2.43,1.47 1.8,1.47 L0.85,1.47 L0.85,2.89 Z M0.85,5.23 L0.12,5.23 L0.12,0.85 L1.59,0.85 C2.74,0.85 3.16,1.35 3.16,2.17 C3.16,2.79 2.95,3.19 2.42,3.4 L3.37,5.33 L2.53,5.33 L1.69,3.5 L0.75,3.5 L0.75,5.23 L0.85,5.23 Z" id="rz9dp"></path>
                            </g>
                            <g id="rz9dq-link" transform="translate(106.000000, 18.000000)">
                                <polygon id="rz9dq" points="2.95 3.3 1.06 3.3 1.06 4.72 3.16 4.72 3.16 5.33 0.33 5.33 0.33 0.85 3.16 0.85 3.16 1.46 1.06 1.46 1.06 2.68 2.95 2.68"></polygon>
                            </g>
                            <g id="rz9dr-link" transform="translate(0.000000, 15.000000)">
                                <polygon id="rz9dr" points="0.73 0.99 0.73 0.38 109.26 0.38 109.26 0.99"></polygon>
                            </g>
                            <g id="rz9ds-link" transform="translate(0.000000, 25.000000)">
                                <polygon id="rz9ds" points="0.73 1.59 0.73 0.98 109.26 0.98 109.26 1.59"></polygon>
                            </g>
                            <g>
                                <g id="rz9dt-link">
                                    <polygon id="rz9dt" points="5.03 8.01 1.89 3.02 1.89 8.02 0.84 8.02 0.84 0.88 1.78 0.88 4.93 5.88 4.93 0.88 5.97 0.88 5.97 8.01"></polygon>
                                </g>
                                <g id="rz9du-link" transform="translate(7.000000, 0.000000)">
                                    <path d="M1.17,4.45 C1.17,6.08 1.49,7.1 2.85,7.1 C4.21,7.1 4.52,6.08 4.52,4.45 C4.52,2.82 4.21,1.8 2.85,1.8 C1.49,1.8 1.17,2.82 1.17,4.45 Z M0.02,4.45 C0.02,2.41 0.44,0.78 2.85,0.78 C5.15,0.78 5.68,2.41 5.68,4.45 C5.68,6.49 5.26,8.12 2.85,8.12 C0.55,8.12 0.02,6.49 0.02,4.45 Z" id="rz9du"></path>
                                </g>
                                <g id="rz9dv-link" transform="translate(13.000000, 0.000000)">
                                    <path d="M1.88,4.14 L3.34,4.14 C4.39,4.14 4.5,3.64 4.5,3.02 C4.5,2.41 4.4,1.9 3.34,1.9 L1.88,1.9 L1.88,4.14 Z M1.88,8.01 L0.83,8.01 L0.83,0.88 L3.24,0.88 C5.13,0.88 5.75,1.7 5.75,3.02 C5.75,3.94 5.44,4.65 4.6,4.96 L6.17,8.01 L4.92,8.01 L3.55,5.16 L2.09,5.16 L2.09,8.01 L1.88,8.01 Z" id="rz9dv"></path>
                                </g>
                                <g id="rz9dw-link" transform="translate(19.000000, 0.000000)">
                                    <polygon id="rz9dw" points="3.63 0.98 4.99 0.98 6.25 6.58 7.19 0.98 8.34 0.98 6.98 8.11 5.62 8.11 4.26 2.21 2.89 8.11 1.53 8.11 0.17 0.98 1.32 0.98 2.27 6.58"></polygon>
                                </g>
                                <g id="rz9dx-link" transform="translate(28.000000, 0.000000)">
                                    <polygon id="rz9dx" points="4.27 4.85 1.23 4.85 1.23 7.09 4.58 7.09 4.58 8.11 0.18 8.11 0.18 0.98 4.58 0.98 4.58 2 1.23 2 1.23 3.93 4.27 3.93"></polygon>
                                </g>
                                <g id="rz9dy-link" transform="translate(33.000000, 0.000000)">
                                    <path d="M0.31,4.45 C0.31,2.21 1.15,0.78 3.35,0.78 C4.4,0.78 5.02,0.98 5.45,1.18 L5.45,2.21 C4.81,1.91 4.19,1.8 3.45,1.8 C1.99,1.8 1.46,2.82 1.46,4.45 C1.46,6.18 1.99,7.1 3.46,7.1 C3.87,7.1 4.29,7 4.5,7 L4.5,5.06 L3.24,5.06 L3.24,4.14 L5.65,4.14 L5.65,7.71 C5.23,7.91 4.4,8.11 3.35,8.11 C1.15,8.11 0.31,6.69 0.31,4.45 L0.31,4.45 Z" id="rz9dy"></path>
                                </g>
                                <g id="rz9dz-link" transform="translate(39.000000, 0.000000)">
                                    <polygon id="rz9dz" points="0.81 8.01 0.81 0.88 1.86 0.88 1.86 8.01"></polygon>
                                </g>
                                <g id="rz9dA-link" transform="translate(41.000000, 0.000000)">
                                    <path d="M3.72,2.3 L2.79,5.45 L4.66,5.45 L3.72,2.3 Z M4.88,6.28 L2.58,6.28 L2.05,8.01 L0.9,8.01 L3.2,0.88 L4.36,0.88 L6.66,8.01 L5.51,8.01 L4.88,6.28 Z" id="rz9dA"></path>
                                </g>
                                <g id="rz9dB-link" transform="translate(48.000000, 0.000000)">
                                    <polygon id="rz9dB" points="4.59 8.01 1.45 3.02 1.45 8.02 0.4 8.02 0.4 0.88 1.34 0.88 4.49 5.88 4.49 0.88 5.53 0.88 5.53 8.01"></polygon>
                                </g>
                                <g id="rz9dC-link" transform="translate(56.000000, 4.000000)">
                                    <polygon id="rz9dC" points="2.87 1.57 0.36 1.57 0.36 0.65 2.87 0.65"></polygon>
                                </g>
                                <g id="rz9dD-link" transform="translate(61.000000, 0.000000)">
                                    <path d="M0.7,5.77 L0.7,0.98 L1.75,0.98 L1.75,5.77 C1.75,7.09 2.69,7.2 3.32,7.2 C3.95,7.2 4.89,7.1 4.89,5.77 L4.89,0.98 L5.94,0.98 L5.94,5.77 C5.94,7.7 4.26,8.11 3.32,8.11 C2.38,8.11 0.7,7.81 0.7,5.77 Z" id="rz9dD"></path>
                                </g>
                                <g id="rz9dE-link" transform="translate(68.000000, 0.000000)">
                                    <polygon id="rz9dE" points="1.78 4.85 1.15 5.57 1.15 8.01 0.1 8.01 0.1 0.88 1.15 0.88 1.15 4.14 3.77 0.88 5.13 0.88 2.4 4.04 5.34 8.01 3.98 8.01"></polygon>
                                </g>
                                <g id="rz9dF-link" transform="translate(74.000000, 0.000000)">
                                    <path d="M1.33,4.14 L2.79,4.14 C3.84,4.14 3.95,3.64 3.95,3.02 C3.95,2.41 3.85,1.9 2.79,1.9 L1.33,1.9 L1.33,4.14 Z M1.33,8.01 L0.28,8.01 L0.28,0.88 L2.69,0.88 C4.58,0.88 5.2,1.7 5.2,3.02 C5.2,3.94 4.89,4.65 4.05,4.96 L5.62,8.01 L4.37,8.01 L3,5.16 L1.54,5.16 L1.54,8.01 L1.33,8.01 Z" id="rz9dF"></path>
                                </g>
                                <g id="rz9dG-link" transform="translate(80.000000, 0.000000)">
                                    <path d="M2.96,2.3 L2.03,5.45 L3.9,5.45 L2.96,2.3 Z M4.12,6.28 L1.82,6.28 L1.29,8.01 L0.14,8.01 L2.44,0.88 L3.6,0.88 L5.9,8.01 L4.75,8.01 L4.12,6.28 Z" id="rz9dG"></path>
                                </g>
                                <g id="rz9dH-link" transform="translate(89.000000, 0.000000)">
                                    <polygon id="rz9dH" points="4.24 8.01 1.1 3.02 1.1 8.02 0.05 8.02 0.05 0.88 0.99 0.88 4.14 5.88 4.14 0.88 5.18 0.88 5.18 8.01"></polygon>
                                </g>
                                <g id="rz9dI-link" transform="translate(95.000000, 0.000000)">
                                    <polygon id="rz9dI" points="0.44 8.01 0.44 0.88 1.49 0.88 1.49 8.01"></polygon>
                                </g>
                                <g id="rz9dJ-link" transform="translate(86.000000, 0.000000)">
                                    <polygon id="rz9dJ" points="0.64 8.01 0.64 0.88 1.69 0.88 1.69 8.01"></polygon>
                                </g>
                                <g id="rz9dK-link" transform="translate(97.000000, 0.000000)">
                                    <path d="M3.36,2.3 L2.42,5.45 L4.31,5.45 L3.36,2.3 Z M4.52,6.28 L2.22,6.28 L1.69,8.01 L0.43,8.01 L2.73,0.88 L3.89,0.88 L6.19,8.01 L5.04,8.01 L4.52,6.28 Z" id="rz9dK"></path>
                                </g>
                                <g id="rz9dL-link" transform="translate(104.000000, 0.000000)">
                                    <polygon id="rz9dL" points="4.22 8.01 1.08 3.02 1.08 8.02 0.03 8.02 0.03 0.88 0.97 0.88 4.12 5.88 4.12 0.88 5.16 0.88 5.16 8.01"></polygon>
                                </g>
                            </g>
                        </g>
                        <g id="rz9dM-link" fill="#D24C43">
                            <polygon id="rz9dM" points="25.24 0.15 22.42 3.41 0.94 3.41 0.94 0.15"></polygon>
                        </g>
                        <g id="rz9dN-link" transform="translate(41.000000, 0.000000)" fill="#D24C43">
                            <polygon id="rz9dN" points="24.58 0.15 21.86 3.41 0.59 3.41 3.31 0.15"></polygon>
                        </g>
                        <g id="rz9dO-link" transform="translate(62.000000, 0.000000)" fill="#F3C645">
                            <polygon id="rz9dO" points="24.12 3.41 0.86 3.41 3.58 0.15 26.95 0.15"></polygon>
                        </g>
                        <g id="rz9dP-link" transform="translate(86.000000, 0.000000)" fill="#4C70AB">
                            <polygon id="rz9dP" points="23.26 3.41 0.11 3.41 2.94 0.15 23.26 0.15"></polygon>
                        </g>
                        <g id="rz9dQ-link" transform="translate(27.000000, 0.000000)" fill="#47537B">
                            <polygon id="rz9dQ" points="12.08 0.15 11.98 0.15 9.25 3.41 0.87 3.41 3.59 0.15"></polygon>
                        </g>
                        <g id="rz9dR-link" transform="translate(22.000000, 0.000000)" fill="#FFFFFF">
                            <polygon id="rz9dR" points="8.6 0.15 5.87 3.41 0.42 3.41 3.25 0.15"></polygon>
                        </g>
                        <g id="rz9dS-link" transform="translate(36.000000, 0.000000)" fill="#FFFFFF">
                            <polygon id="rz9dS" points="8.32 0.15 5.59 3.41 0.25 3.41 2.97 0.15"></polygon>
                        </g>
                    </g>
                    <g id="Group" fill="#454F71">
                        <g id="rz9dT-link">
                            <path d="M13.84,-9.07718345e-13 C6.7,-9.07718345e-13 0.86,5.8 0.86,12.89 L0.86,25.78 L4.13,25.78 L4.13,12.89 C4.13529557,10.3236177 5.16055485,7.86460015 6.97994814,6.05458518 C8.79934143,4.24457021 11.2636246,3.23203263 13.83,3.24 C16.3998333,3.22670674 18.8692622,4.23689037 20.6929881,6.04748246 C22.516714,7.85807454 23.5447192,10.3201377 23.55,12.89 L23.55,25.78 L26.81,25.78 L26.81,12.89 C26.81,5.8 20.97,-9.07718345e-13 13.84,-9.07718345e-13 Z" id="rz9dT"></path>
                        </g>
                        <g id="rz9dU-link" transform="translate(28.000000, 0.000000)">
                            <path d="M23.57,0.51 L23.57,13.4 C23.57,18.7 19.18,23.05 13.86,23.05 C11.2918952,23.0606285 8.82503996,22.049267 7.00348094,20.2389637 C5.18192192,18.4286605 4.15528954,15.9681213 4.15,13.4 L4.15,0.51 L0.88,0.51 L0.88,13.4 C1.07506284,20.425648 6.82664462,26.019757 13.855,26.019757 C20.8833554,26.019757 26.6349372,20.425648 26.83,13.4 L26.83,0.51 L23.57,0.51 Z" id="rz9dU"></path>
                        </g>
                        <g id="rz9dV-link" transform="translate(56.000000, 0.000000)">
                            <path d="M13.78,3.24 L26.75,3.24 L26.75,-9.07718345e-13 L13.78,-9.07718345e-13 C6.64,-9.07718345e-13 0.8,5.8 0.8,12.89 C0.8,19.98 6.64,25.78 13.78,25.78 L26.75,25.78 L26.75,22.54 L13.78,22.54 C11.2118952,22.5506285 8.74503996,21.539267 6.92348094,19.7289637 C5.10192192,17.9186605 4.07528954,15.4581213 4.07,12.89 C4.07529557,10.3236177 5.10055485,7.86460015 6.91994814,6.05458518 C8.73934143,4.24457021 11.2036246,3.23203263 13.77,3.24 L13.78,3.24 Z" id="rz9dV"></path>
                        </g>
                        <g id="rz9dW-link" transform="translate(83.000000, 0.000000)">
                            <path d="M13.17,3.24 L26.14,3.24 L26.14,-9.07718345e-13 L13.17,-9.07718345e-13 C6.03,-9.07718345e-13 0.19,5.8 0.19,12.89 C0.19,19.98 6.03,25.78 13.17,25.78 L26.14,25.78 L26.14,22.54 L13.17,22.54 C10.6018952,22.5506285 8.13503996,21.539267 6.31348094,19.7289637 C4.49192192,17.9186605 3.46528954,15.4581213 3.46,12.89 C3.46,7.51 7.76,3.24 13.16,3.24 L13.17,3.24 Z" id="rz9dW"></path>
                        </g>
                    </g>
                </g>
            </g>
        </g>
    </g>
</svg>