<?xml version="1.0" encoding="UTF-8"?>
<svg width="100px" height="103px" viewBox="0 0 100 103" version="1.1" xmlns="http://www.w3.org/2000/svg" xmlns:xlink="http://www.w3.org/1999/xlink">
    <!-- Generator: Sketch 62 (91390) - https://sketch.com -->
    <title>wadline-badge</title>
    <desc>Created with Sketch.</desc>
    <g id="01-Home-+" stroke="none" stroke-width="1" fill="none" fill-rule="evenodd">
        <g id="1_1024_Main" transform="translate(-658.000000, -6079.000000)" fill="#000000" fill-rule="nonzero">
            <g id="Group-6" transform="translate(26.000000, 6060.000000)">
                <g id="wadline-badge" transform="translate(632.000000, 19.000000)">
                    <g id="Group">
                        <g transform="translate(6.000000, 0.000000)">
                            <polygon id="qr7ma" points="85.75 74.92 44 100.42 2.24 74.92 2.24 66.18 0.04 66.18 0.04 76.15 44 103 87.95 76.15 87.95 66.18 85.75 66.18"></polygon>
                            <polygon id="qr7mb" points="44 1.0658141e-14 0.04 27.4 0.04 36.82 2.24 36.82 2.24 28.61 44 2.59 85.75 28.61 85.75 36.81 87.95 36.81 87.95 27.39"></polygon>
                        </g>
                        <path d="M87.36,66.18 L87.36,72.48 L50,95.3 L12.64,72.48 L12.64,66.18 L11.54,66.18 L11.54,73.09 L50,96.59 L88.46,73.09 L88.46,66.18 L87.36,66.18 Z M50,6.46 L11.54,30.43 L11.54,36.81 L12.64,36.81 L12.64,31.04 L50,7.75 L87.36,31.04 L87.36,36.81 L88.46,36.81 L88.46,30.43 L50,6.46 Z" id="qr7mc"></path>
                        <path d="M1.76,36.81 L1.76,66.18 L98.24,66.18 L98.24,36.81 L1.76,36.81 Z M0,35.06 L100,35.06 L100,67.93 L0,67.93 L0,35.06 Z" id="qr7md"></path>
                    </g>
                    <g id="Group" transform="translate(14.000000, 20.000000)">
                        <path d="M42.66,0.939999796 L43.79,0.939999796 L41.57,8.07 C41.4258094,8.52849717 41.0006355,8.84029136 40.52,8.8400002 L39.43,8.8400002 L41.61,1.71 C41.7541906,1.25150283 42.1793645,0.939708641 42.66,0.939999796 L42.66,0.939999796 Z M28.31,0.93 L29.86,0.93 C30.02,0.93 30.16,0.96 30.26,1.04 C30.36,1.12 30.43,1.2 30.46,1.32 L31.56,5.46 C31.6339712,5.75765535 31.6973445,6.05784467 31.75,6.36 C31.82,6.03 31.89,5.72 31.99,5.46 L33.28,1.32 C33.31,1.22 33.38,1.12 33.48,1.05 C33.5943613,0.970423691 33.7306853,0.928477845 33.87,0.93 L34.42,0.93 C34.5554597,0.922653693 34.689411,0.961429072 34.8,1.04 C34.9,1.12 34.98,1.2 35.02,1.32 L36.3,5.46 C36.4,5.71 36.47,5.99 36.54,6.32 L36.63,5.86 L36.73,5.46 L37.82,1.32 C37.8535247,1.20962357 37.9241834,1.11423429 38.02,1.05 C38.137446,0.969034294 38.2773805,0.927053962 38.42,0.93 L39.87,0.93 L37.42,8.84 L35.75,8.84 L34.25,3.94 C34.1890234,3.76323085 34.1389297,3.5828933 34.1,3.4 L33.95,3.93 L32.43,8.84 L30.76,8.84 L28.31,0.93 Z" id="qr7me"></path>
                        <path d="M51.11,58.13 L51.11,54.49 L51.91,54.49 L51.91,54.83 L51.92,54.83 C52.02,54.69 52.15,54.58 52.33,54.49 C52.699927,54.3173014 53.1294942,54.3284109 53.49,54.52 C53.69,54.62 53.84,54.76 53.95,54.94 C54.08,54.75 54.25,54.61 54.44,54.52 C54.64,54.42 54.86,54.38 55.11,54.38 C55.56,54.38 55.92,54.52 56.19,54.82 C56.46,55.12 56.59,55.51 56.59,56.02 L56.59,58.12 L55.71,58.12 L55.71,56.2 C55.71,55.87 55.66,55.62 55.54,55.45 C55.4143657,55.2800875 55.2108421,55.1858636 55,55.2 C54.7891579,55.1858636 54.5856343,55.2800875 54.46,55.45 C54.34,55.62 54.29,55.87 54.29,56.2 L54.29,58.13 L53.41,58.13 L53.41,56.2 C53.41,55.87 53.35,55.62 53.23,55.45 C53.1043657,55.2800875 52.9008421,55.1858636 52.69,55.2 C52.4791579,55.1858636 52.2756343,55.2800875 52.15,55.45 C52.03,55.62 51.98,55.87 51.98,56.2 L51.98,58.13 L51.11,58.13 Z M48.65,55.19 C48.3568818,55.1792258 48.0743484,55.3003115 47.88,55.52 C47.68,55.74 47.58,56 47.58,56.31 C47.58,56.61 47.68,56.88 47.87,57.09 C48.07,57.3 48.32,57.4 48.64,57.4 C48.94,57.4 49.21,57.3 49.41,57.09 C49.61,56.87 49.71,56.6 49.71,56.29 C49.71,55.99 49.61,55.73 49.41,55.51 C49.214486,55.2989844 48.937568,55.1823874 48.65,55.19 L48.65,55.19 Z M48.65,54.37 C49.2,54.37 49.66,54.55 50.03,54.94 C50.41,55.32 50.59,55.78 50.59,56.31 C50.59,56.84 50.41,57.31 50.03,57.68 C49.66,58.05 49.2,58.24 48.65,58.24 C48.1322828,58.256722 47.6306048,58.0590958 47.2633874,57.6937712 C46.8961699,57.3284467 46.6959538,56.8277967 46.71,56.31 C46.71,55.77 46.91,55.31 47.26,54.94 C47.63,54.55 48.09,54.37 48.65,54.37 L48.65,54.37 Z M45.35,56.94 L46.35,56.94 C46.2,57.34 45.97,57.65 45.66,57.9 C45.36,58.14 44.98,58.25 44.54,58.25 C44.005793,58.2664366 43.4872306,58.0683745 43.1,57.7 C42.7198884,57.33126 42.5129273,56.8193038 42.53,56.29 C42.53,55.74 42.71,55.29 43.09,54.92 C43.46,54.55 43.93,54.37 44.51,54.37 C45.3563418,54.3370002 46.115881,54.8860149 46.35,55.7 L45.35,55.7 C45.2702482,55.5437312 45.149198,55.4123052 45,55.32 C44.8481497,55.2322639 44.6753541,55.187337 44.5,55.19 C44.2040649,55.1755379 43.9157938,55.2867788 43.7062863,55.4962863 C43.4967788,55.7057938 43.3855379,55.9940649 43.4,56.29 C43.4,56.61 43.5,56.88 43.7,57.09 C43.9001305,57.3064118 44.1855448,57.4235048 44.48,57.41 C44.68,57.41 44.84,57.37 44.98,57.29 C45.1403836,57.2200638 45.2712684,57.0962539 45.35,56.94 L45.35,56.94 Z M40.95,58.13 L40.95,57.25 L41.81,57.25 L41.81,58.13 L40.95,58.13 Z M37.37,55.91 L39.35,55.91 C39.2324724,55.4828625 38.8430055,55.1876876 38.4,55.19 C38.15,55.19 37.95,55.26 37.76,55.39 C37.57,55.52 37.46,55.69 37.37,55.91 L37.37,55.91 Z M40.25,56.69 L37.4,56.69 C37.45,56.91 37.56,57.09 37.74,57.22 C37.9158279,57.3518935 38.1302124,57.4221835 38.35,57.42 C38.53,57.42 38.68,57.39 38.82,57.32 C38.9601304,57.2704497 39.082092,57.1798496 39.17,57.06 L40.15,57.06 C39.8538683,57.7790543 39.1475316,58.2433318 38.37,58.23 C37.8601913,58.2437048 37.3669022,58.0485962 37.0043997,57.6898698 C36.6418972,57.3311433 36.4416341,56.8399242 36.45,56.33 C36.4446599,55.8093713 36.6477459,55.3082276 37.0140223,54.9381946 C37.3802986,54.5681616 37.8793439,54.36 38.4,54.36 C38.95,54.36 39.4,54.54 39.75,54.92 C40.1,55.29 40.27,55.75 40.27,56.3 L40.27,56.52 L40.25,56.69 L40.25,56.69 Z M32.65,58.13 L32.65,54.49 L33.45,54.49 L33.45,54.83 L33.46,54.83 C33.703284,54.5290146 34.0731465,54.3588779 34.46,54.37 C34.89,54.37 35.23,54.51 35.49,54.81 C35.76,55.11 35.89,55.5 35.89,56 L35.89,58.13 L35.01,58.13 L35.01,56.2 C35.01,55.87 34.95,55.62 34.81,55.45 C34.6809531,55.2843285 34.4798163,55.1912096 34.27,55.2 C34.02,55.2 33.82,55.29 33.7,55.45 C33.57,55.63 33.52,55.87 33.52,56.2 L33.52,58.13 L32.65,58.13 Z M31.07,54.06 L31.07,53.26 L31.95,53.26 L31.95,54.06 L31.07,54.06 Z M31.07,58.13 L31.07,54.49 L31.95,54.49 L31.95,58.13 L31.07,58.13 Z M29.48,58.13 L29.48,53.26 L30.36,53.26 L30.36,58.13 L29.48,58.13 Z M26.89,55.19 C26.59,55.19 26.34,55.29 26.13,55.51 C25.93,55.71 25.83,55.97 25.83,56.31 C25.83,56.61 25.93,56.88 26.13,57.1 C26.33,57.3 26.58,57.41 26.89,57.41 C27.19,57.41 27.45,57.31 27.66,57.11 C27.86,56.91 27.96,56.63 27.96,56.31 C27.96,56 27.86,55.73 27.66,55.51 C27.46,55.3 27.19,55.19 26.89,55.19 Z M28.78,58.13 L27.98,58.13 L27.98,57.63 L27.97,57.63 C27.82,57.83 27.65,57.98 27.44,58.08 C27.24,58.18 27.01,58.24 26.77,58.24 C26.27,58.24 25.85,58.04 25.49,57.69 C25.1404542,57.321234 24.9531754,56.8278263 24.97,56.32 C24.97,55.76 25.14,55.29 25.49,54.92 C25.9833303,54.3781426 26.7645307,54.2058779 27.44,54.49 C27.63,54.58 27.78,54.69 27.91,54.85 L27.92,54.85 L27.92,53.25 L28.78,53.25 L28.78,58.13 Z M22.55,55.19 C22.23,55.19 21.98,55.29 21.78,55.52 C21.58,55.73 21.48,56.01 21.48,56.33 C21.4655132,56.6206332 21.574639,56.9038333 21.7804028,57.1095972 C21.9861667,57.315361 22.2693668,57.4244868 22.56,57.41 C22.8444937,57.4227785 23.1209405,57.3136547 23.32,57.11 C23.52,56.91 23.6,56.64 23.6,56.31 C23.6,55.99 23.5,55.72 23.32,55.51 C23.13,55.31 22.86,55.19 22.55,55.19 L22.55,55.19 Z M24.43,58.13 L23.63,58.13 L23.63,57.63 L23.61,57.63 C23.46,57.84 23.27,57.99 23.06,58.09 C22.86,58.19 22.62,58.25 22.39,58.25 C21.9,58.25 21.48,58.07 21.12,57.72 C20.7602725,57.3529731 20.5684329,56.8534661 20.59,56.34 C20.5761591,55.8188893 20.7663283,55.3129676 21.12,54.93 C21.48,54.54 21.9,54.37 22.42,54.37 C22.66,54.37 22.9,54.42 23.11,54.53 C23.31,54.64 23.48,54.79 23.61,55 L23.62,55 L23.62,54.49 L24.42,54.49 L24.43,58.13 Z M16.53,58.13 L15.22,54.49 L16.15,54.49 L16.82,56.71 L17.42,54.49 L18.11,54.49 L18.71,56.71 L19.38,54.49 L20.32,54.49 L19,58.13 L18.46,58.13 L17.76,55.77 L17.08,58.13 L16.53,58.13 Z" id="qr7mf"></path>
                        <path d="M60.4,38.66 L61.83,38.66 C61.83,38.94 61.93,39.16 62.13,39.33 C62.33,39.49 62.54,39.57 62.82,39.57 C63.1,39.57 63.34,39.47 63.53,39.31 C63.72,39.15 63.81,38.92 63.81,38.66 C63.81,38.39 63.71,38.16 63.55,37.96 C63.3234431,37.7382054 63.0449851,37.576631 62.74,37.49 C62.36,37.36 62.16,37.29 62.12,37.29 L62.02,37.24 C61.57,37.06 61.23,36.81 61.01,36.47 C60.79,36.13 60.68,35.77 60.68,35.35 C60.68,34.75 60.88,34.26 61.31,33.87 C61.73,33.47 62.24,33.27 62.86,33.27 C63.44,33.27 63.94,33.47 64.34,33.85 C64.74,34.23 64.94,34.72 64.97,35.35 L63.57,35.35 C63.5724554,35.1466383 63.497366,34.9499754 63.36,34.8 C63.2125822,34.6595464 63.0132028,34.5870448 62.81,34.6 C62.5993445,34.5975203 62.3943543,34.6682065 62.23,34.8 C62.0809234,34.9460806 62.0071909,35.1525317 62.03,35.36 C62.03,35.56 62.09,35.74 62.23,35.89 C62.35,36.03 62.61,36.15 62.96,36.25 L63.4,36.4 L63.64,36.49 C64.09,36.67 64.46,36.94 64.72,37.29 C65,37.64 65.12,38.07 65.12,38.59 C65.12,39.24 64.91,39.79 64.46,40.22 C64.01,40.66 63.44,40.88 62.75,40.88 C62.07,40.88 61.51,40.68 61.05,40.24 C60.6223515,39.8271086 60.3867001,39.2542942 60.4,38.66 L60.4,38.66 Z M56.44,36.89 L57.24,36.89 C57.66,36.89 57.99,36.81 58.23,36.63 C58.47,36.46 58.59,36.18 58.59,35.81 C58.58,35.44 58.46,35.17 58.22,34.99 C57.9242897,34.7949936 57.5736737,34.7003273 57.22,34.72 L56.44,34.72 L56.44,36.89 Z M55.07,40.71 L55.07,33.41 L57.2,33.41 C58.07,33.41 58.76,33.61 59.23,34.03 C59.7,34.45 59.94,35.01 59.94,35.73 C59.94,36.33 59.76,36.85 59.39,37.29 C59.03,37.73 58.55,37.97 57.96,38.02 L60.02,40.72 L58.35,40.72 L56.45,38.02 L56.44,38.02 L56.44,40.71 L55.07,40.71 Z M49.81,40.71 L49.81,33.41 L53.73,33.41 L53.73,34.72 L51.16,34.72 L51.16,36.42 L53.62,36.42 L53.62,37.72 L51.16,37.72 L51.16,39.39 L53.73,39.39 L53.73,40.71 L49.81,40.71 Z M45.51,34.72 L45.51,36.64 L46.31,36.64 C46.68,36.64 46.95,36.56 47.15,36.4 C47.35,36.25 47.45,36 47.45,35.68 C47.45,35.36 47.36,35.12 47.16,34.96 C46.96,34.8 46.68,34.72 46.31,34.72 L45.51,34.72 Z M44.15,40.71 L44.15,33.41 L46.2,33.41 C47.03,33.42 47.68,33.61 48.13,34.02 C48.58,34.42 48.81,34.98 48.81,35.69 C48.81,36.36 48.59,36.89 48.15,37.32 C47.71,37.74 47.05,37.96 46.2,37.96 L45.5,37.96 L45.5,40.71 L44.15,40.71 Z M39.2,39.57 C39.91,39.57 40.5,39.33 40.99,38.83 C41.47,38.34 41.71,37.75 41.71,37.06 C41.7225659,36.399223 41.4620916,35.7625081 40.99,35.3 C40.5213376,34.8248128 39.8772331,34.5642762 39.21,34.58 C38.49,34.58 37.9,34.82 37.43,35.3 C36.9548465,35.760443 36.6938028,36.3985498 36.71,37.06 C36.71,37.76 36.95,38.36 37.43,38.83 C37.9,39.33 38.49,39.57 39.2,39.57 Z M39.2,33.27 C40.3,33.27 41.2,33.65 41.95,34.4 C42.6774294,35.1077939 43.0792649,36.0852318 43.06,37.1 C43.0824476,38.1144374 42.6757481,39.0912426 41.94,39.79 C41.2179325,40.5133857 40.2318806,40.910696 39.21,40.89 C38.1903481,40.9171634 37.2034143,40.5288998 36.4755864,39.8142708 C35.7477585,39.0996419 35.3414998,38.1199783 35.35,37.1 C35.3316842,36.0873821 35.7292576,35.1115201 36.45,34.4 C37.1738615,33.6585652 38.1741656,33.2526446 39.21,33.28 L39.2,33.27 Z M31.54,40.71 L31.54,33.41 L32.89,33.41 L32.89,39.39 L35.12,39.39 L35.12,40.71 L31.54,40.71 Z M26.27,40.71 L26.27,33.41 L30.21,33.41 L30.21,34.72 L27.63,34.72 L27.63,36.42 L30.1,36.42 L30.1,37.72 L27.63,37.72 L27.63,39.39 L30.21,39.39 L30.21,40.71 L26.27,40.71 Z M21.45,40.71 L18.62,33.41 L20.05,33.41 L22.02,38.96 L23.99,33.41 L25.43,33.41 L22.59,40.71 L21.45,40.71 Z M13.96,40.71 L13.96,33.41 L17.9,33.41 L17.9,34.72 L15.32,34.72 L15.32,36.42 L17.79,36.42 L17.79,37.72 L15.32,37.72 L15.32,39.39 L17.9,39.39 L17.9,40.71 L13.96,40.71 Z M8.93,39.39 C9.77,39.4 10.39,39.22 10.84,38.84 C11.29,38.47 11.51,37.89 11.51,37.1 C11.51,36.3 11.28,35.69 10.82,35.3 C10.2550878,34.8824208 9.56118204,34.6770813 8.86,34.72 L8.26,34.72 L8.26,39.39 L8.93,39.39 Z M6.91,40.71 L6.91,33.41 L8.93,33.41 C10.15,33.41 11.11,33.71 11.81,34.34 C12.51,34.96 12.86,35.89 12.86,37.1 C12.86,38.18 12.54,39.04 11.89,39.7 C11.24,40.38 10.26,40.7 8.96,40.7 L6.91,40.71 Z M66.31,29.75 L66.31,22.45 L70.24,22.45 L70.24,23.77 L67.67,23.77 L67.67,25.45 L70.13,25.45 L70.13,26.77 L67.67,26.77 L67.67,28.43 L70.24,28.43 L70.24,29.75 L66.31,29.75 Z M61.81,23.77 L61.81,25.94 L62.61,25.94 C63.03,25.94 63.36,25.84 63.61,25.67 C63.84,25.5 63.96,25.22 63.96,24.85 C63.96,24.48 63.83,24.22 63.59,24.03 C63.2979926,23.835881 62.9497081,23.7444123 62.6,23.77 L61.81,23.77 Z M60.46,29.75 L60.46,22.45 L62.58,22.45 C63.45,22.45 64.13,22.66 64.6,23.08 C65.08,23.49 65.32,24.05 65.32,24.78 C65.32,25.38 65.13,25.89 64.77,26.33 C64.41,26.77 63.92,27.01 63.34,27.06 L65.39,29.76 L63.73,29.76 L61.83,27.06 L61.81,27.06 L61.81,29.75 L60.46,29.75 Z M55.17,26.55 L56.83,26.55 L56,24.42 L55.17,26.55 Z M52.42,29.75 L55.46,22.45 L56.54,22.45 L59.58,29.75 L58.08,29.75 L57.34,27.86 L54.65,27.86 L53.91,29.75 L52.42,29.75 Z M46.39,29.75 L44.27,22.45 L45.66,22.45 L46.93,27.55 L48.17,22.45 L49.17,22.45 L50.4,27.55 L51.68,22.45 L53.06,22.45 L50.94,29.75 L49.87,29.75 L48.67,24.93 L47.47,29.75 L46.39,29.75 Z M41.35,29.75 L41.35,23.77 L40,23.77 L40,22.45 L44.05,22.45 L44.05,23.77 L42.69,23.77 L42.69,29.75 L41.35,29.75 Z M35.75,29.75 L35.75,22.45 L39.45,22.45 L39.45,23.77 L37.1,23.77 L37.1,25.45 L39.35,25.45 L39.35,26.77 L37.1,26.77 L37.1,29.75 L35.75,29.75 Z M30.79,28.61 C31.5,28.61 32.09,28.37 32.58,27.88 C33.06,27.38 33.31,26.79 33.31,26.1 C33.3171852,25.4411951 33.053222,24.8084065 32.58,24.35 C32.1130409,23.8711412 31.4687188,23.6068968 30.8,23.62 C30.09,23.62 29.5,23.87 29.02,24.35 C28.5511011,24.8097735 28.2939921,25.4434929 28.31,26.1 C28.31,26.8 28.55,27.4 29.02,27.88 C29.49,28.37 30.09,28.61 30.79,28.61 L30.79,28.61 Z M30.81,22.32 C31.89,22.32 32.81,22.69 33.56,23.44 C34.2847727,24.1488185 34.6830866,25.1264981 34.66,26.14 C34.6824476,27.1544374 34.2757481,28.1312426 33.54,28.83 C32.8172797,29.5523988 31.8316668,29.9495321 30.81,29.93 C29.7894426,29.9570964 28.8015291,29.569134 28.0721321,28.8548149 C27.3427351,28.1404959 26.9342243,27.1609007 26.94,26.14 C26.9243105,25.1259061 27.3255865,24.1498293 28.05,23.44 C28.7745522,22.6995942 29.7743873,22.293864 30.81,22.32 L30.81,22.32 Z M21.51,27.7 L22.93,27.7 C22.94,27.98 23.03,28.2 23.23,28.37 C23.4240601,28.5365663 23.6745619,28.6224527 23.93,28.61 C24.21,28.61 24.45,28.52 24.63,28.36 C24.83,28.18 24.91,27.96 24.91,27.7 C24.91,27.44 24.82,27.2 24.66,27.01 C24.4317302,26.7831345 24.1495744,26.6179701 23.84,26.53 L23.23,26.33 L23.13,26.29 C22.68,26.1 22.33,25.85 22.12,25.51 C21.9,25.17 21.79,24.81 21.79,24.39 C21.79,23.79 21.99,23.31 22.42,22.91 C22.83,22.51 23.35,22.32 23.96,22.32 C24.55,22.32 25.04,22.51 25.44,22.89 C25.84,23.27 26.04,23.77 26.07,24.39 L24.67,24.39 C24.6724554,24.1866383 24.597366,23.9899754 24.46,23.84 C24.3125822,23.6995464 24.1132028,23.6270448 23.91,23.64 C23.7026328,23.6390088 23.501285,23.7096572 23.34,23.84 C23.18,23.97 23.12,24.16 23.13,24.4 C23.13,24.61 23.2,24.79 23.33,24.93 C23.46,25.07 23.71,25.19 24.06,25.29 L24.51,25.44 L24.76,25.54 C25.21,25.72 25.56,25.98 25.83,26.33 C26.11,26.68 26.24,27.11 26.24,27.63 C26.24,28.28 26.02,28.83 25.57,29.27 C25.12,29.71 24.56,29.92 23.87,29.92 C23.18,29.92 22.62,29.72 22.17,29.28 C21.7355218,28.8710165 21.4955401,28.2965146 21.51,27.7 L21.51,27.7 Z M15.31,25.67 L16.11,25.67 C16.49,25.67 16.76,25.6 16.96,25.43 C17.16,25.27 17.26,25.04 17.26,24.71 C17.26,24.4 17.16,24.16 16.96,24.01 C16.77,23.84 16.49,23.77 16.11,23.77 L15.31,23.77 L15.31,25.67 Z M13.95,29.75 L13.95,22.45 L16,22.45 C16.83,22.46 17.48,22.66 17.93,23.07 C18.38,23.47 18.61,24.02 18.61,24.73 C18.61,25.4 18.39,25.93 17.95,26.35 C17.51,26.77 16.85,26.99 16,26.99 L15.3,26.99 L15.3,29.75 L13.95,29.75 Z M9.01,28.61 C9.72,28.61 10.31,28.37 10.8,27.88 C11.28,27.38 11.53,26.79 11.53,26.1 C11.5371852,25.4411951 11.273222,24.8084065 10.8,24.35 C10.3330409,23.8711412 9.6887188,23.6068968 9.02,23.62 C8.31,23.62 7.72,23.87 7.24,24.35 C6.77511271,24.812451 6.51873521,25.4443673 6.53,26.1 C6.53,26.8 6.77,27.4 7.24,27.88 C7.71,28.37 8.31,28.61 9.01,28.61 Z M9.02,22.32 C10.12,22.32 11.02,22.69 11.78,23.44 C12.5047727,24.1488185 12.9030866,25.1264981 12.88,26.14 C12.9024476,27.1544374 12.4957481,28.1312426 11.76,28.83 C11.0348576,29.5549289 10.0451134,29.9522715 9.02,29.93 C8.00115362,29.9543455 7.01585443,29.5651635 6.28865197,28.8511487 C5.56144951,28.1371338 5.15430261,27.1591213 5.16,26.14 C5.14431048,25.1259061 5.54558647,24.1498293 6.27,23.44 C6.99008642,22.6990864 7.98716478,22.2930036 9.02,22.32 L9.02,22.32 Z M2.26,29.75 L2.26,23.77 L0.91,23.77 L0.91,22.45 L4.98,22.45 L4.98,23.77 L3.62,23.77 L3.62,29.75 L2.26,29.75 Z" id="qr7mg"></path>
                    </g>
                </g>
            </g>
        </g>
    </g>
</svg>