<?xml version="1.0" encoding="utf-8"?>
<!-- Generator: Adobe Illustrator 23.0.2, SVG Export Plug-In . SVG Version: 6.00 Build 0)  -->
<svg version="1.1" id="Layer_1" xmlns="http://www.w3.org/2000/svg" xmlns:xlink="http://www.w3.org/1999/xlink" x="0px" y="0px"
	 viewBox="0 0 160 80" style="enable-background:new 0 0 160 80;" xml:space="preserve">
<style type="text/css">
	.st0{fill:#FDFDFD;}
	.st1{fill:#CAFF00;}
	.st2{fill:#242021;}
</style>
<title>24OnOff_Horizontal_logo_RGB-svg</title>
<desc>Created with Sketch.</desc>
<g id="Page-1">
	<g transform="translate(-321.000000, -285.000000)">
		<g id="logos" transform="translate(70.000000, 148.000000)">
			<g transform="translate(251.000000, 137.000000)">
				<path id="Shape" class="st0" d="M148.8,32.8c0,5.9,0,11.8,0,17.7c0,0.3,0,0.5-0.4,0.5c-25.8,0-51.6,0-77.3,0
					c0.2-0.1,0.4-0.1,0.6-0.1c5.9-0.8,10.1-6.2,9.5-12.2c-0.5-4.8-3.1-7.9-7.5-9.6c-0.8-0.3-1.6-0.4-2.5-0.6c25.8,0,51.5,0,77.3,0
					c0.3,0,0.4,0.1,0.4,0.4c0,0.3,0,0.6,0,1c-3.1,0-6.2,0-9.3,0c-1,0-2,0-3.1,0c-0.3,0-0.3,0.1-0.3,0.3c0,0.5,0,0.9,0,1.4
					c0,5.8,0,11.5,0,17.3c0,0.3,0.1,0.5,0.5,0.5c0.8,0,1.6,0,2.3,0c0.3,0,0.4,0,0.4-0.4c0-2.1,0-4.3,0-6.4c0-1.2,0.5-1.7,1.7-1.7
					c1.8,0,3.7,0,5.5,0c0.3,0,0.5-0.1,0.4-0.4c0-0.7,0-1.5,0-2.2c0-0.3-0.1-0.4-0.4-0.4c-1.9,0-3.7,0-5.6,0c-1,0-1.6-0.6-1.6-1.5
					c0-0.6,0-1.3,0-1.9c0-1.1,0.5-1.6,1.6-1.6c2.5,0,5,0,7.5,0C148.5,32.7,148.7,32.7,148.8,32.8z M98.5,39.5c0-3.1,0-6.2,0-9.4
					c0-0.3-0.1-0.4-0.4-0.4c-0.8,0-1.6,0-2.4,0c-0.3,0-0.4,0.1-0.4,0.5c0,3.9,0,7.8,0,11.7c0,0.2,0,0.4,0,0.5
					c-0.1,0.4-0.7,0.6-1,0.2c-0.1-0.1-0.1-0.2-0.2-0.3c-2.7-4.1-5.4-8.2-8-12.3c-0.1-0.2-0.3-0.3-0.6-0.3c-0.8,0-1.7,0-2.5,0
					c-0.3,0-0.4,0.1-0.4,0.4c0,4.4,0,8.7,0,13.1c0,1.9,0,3.7,0,5.6c0,0.3,0.1,0.5,0.5,0.4c0.8,0,1.6,0,2.3,0c0.4,0,0.5-0.1,0.5-0.5
					c0-3.8,0-7.7,0-11.6c0-0.1,0-0.2,0-0.3c0-0.3,0.2-0.5,0.4-0.5c0.2-0.1,0.5,0,0.6,0.2c0.1,0.1,0.1,0.2,0.2,0.3
					c2.6,4,5.2,8,7.9,12c0.2,0.2,0.3,0.4,0.7,0.4c0.9,0,1.7,0,2.6,0c0.4,0,0.5-0.1,0.5-0.5C98.5,45.7,98.5,42.6,98.5,39.5z
					 M100.2,39.6c0,5.6,4.4,10.2,9.8,10.2c5.6,0,10.1-4.5,10.1-10.2c0-5.8-4.5-10.2-9.8-10.2C104.6,29.4,100.2,33.9,100.2,39.6z
					 M121.8,39.5c0,3.1,0,6.3,0,9.4c0,0.3,0.1,0.4,0.4,0.4c0.8,0,1.6,0,2.4,0c0.3,0,0.5-0.1,0.5-0.4c0-2.1,0-4.3,0-6.4
					c0-1.2,0.5-1.7,1.7-1.7c1.8,0,3.7,0,5.5,0c0.3,0,0.4-0.1,0.4-0.4c0-0.7,0-1.5,0-2.2c0-0.4-0.1-0.5-0.5-0.5c-1.9,0-3.7,0-5.6,0
					c-0.9,0-1.5-0.6-1.5-1.5c0-0.6,0-1.3,0-1.9c0-1.1,0.5-1.6,1.6-1.6c2.5,0,5,0,7.5,0c0.3,0,0.5-0.1,0.4-0.5c0-0.7,0-1.4,0-2.1
					c0-0.3-0.1-0.4-0.4-0.4c-3.9,0-7.8,0-11.8,0c-0.3,0-0.5,0.1-0.5,0.5C121.8,33.3,121.8,36.4,121.8,39.5z"/>
				<path class="st1" d="M71.2,28.4c0.8,0.2,1.7,0.3,2.5,0.6c4.4,1.7,7,4.9,7.5,9.6c0.6,6-3.6,11.4-9.5,12.2c-0.2,0-0.4,0-0.6,0.1
					c-5.5,0-11,0-16.6,0c-0.1-0.2-0.3-0.1-0.5-0.1c-5.9-1-9.9-6.4-9.3-12.3c0.5-4.6,3.8-8.5,8.4-9.6c0.5-0.1,0.9-0.1,1.4-0.3
					C60.1,28.4,65.6,28.4,71.2,28.4z M69.6,31.1c0-0.4,0-0.8,0-1.2c0-0.3-0.1-0.5-0.4-0.4c-0.8,0.1-1.6,0.2-2.3,0.5
					c-4.8,1.7-7.5,6.7-6.4,11.7c0.9,4.4,4.6,7.7,8.8,8c0.2,0,0.3,0,0.3-0.3c0-0.9,0-1.7,0-2.7c0-0.2-0.1-0.3-0.3-0.3
					c-0.7-0.1-1.4-0.3-2.1-0.7c-2.5-1.5-3.9-4.4-3.4-7.4c0.5-3,2.8-5.2,5.5-5.6c0.2,0,0.2-0.1,0.2-0.3C69.5,32,69.6,31.6,69.6,31.1z
					 M70.7,48.1c0,0.4,0,0.9,0,1.3c0,0.2,0,0.4,0.3,0.3c0.7-0.1,1.3-0.2,1.9-0.4c6-1.9,8.8-8.9,5.8-14.6c-1.6-3-4.2-4.8-7.7-5.2
					c-0.3,0-0.4,0-0.4,0.3c0,0.8,0,1.7,0,2.6c0,0.2,0.1,0.3,0.3,0.4c1.1,0.2,2.2,0.7,3.1,1.4c1.9,1.7,2.6,3.8,2.4,6.3
					c-0.3,2.9-2.5,5.4-5.4,5.9c-0.2,0-0.3,0.1-0.3,0.3C70.7,47.2,70.7,47.7,70.7,48.1z"/>
				<path class="st0" d="M54.5,28.4c-0.5,0.2-0.9,0.2-1.4,0.3c-4.5,1.1-7.9,5-8.4,9.6c-0.6,6,3.4,11.4,9.3,12.3c0.2,0,0.3,0,0.5,0.1
					c-13.8,0-27.7,0-41.5,0c-0.3,0-0.4-0.1-0.4-0.4c0-5.6,0-11.3,0-16.9c0.8,0.4,1.6,0.7,2.4,1.1c0.3,0.1,0.4,0.1,0.6-0.2
					c0.8-1.5,1.9-2.4,3.6-2.5c1.9-0.1,3.5,1.4,3.6,3.3c0,1.4-0.6,2.5-1.5,3.5c-2.5,2.7-5.1,5.1-7.7,7.5c-0.2,0.2-0.3,0.3-0.3,0.6
					c0,0.7,0,1.5,0,2.2c0,0.2,0.1,0.3,0.3,0.3c4,0,7.9,0,11.9,0c0.2,0,0.3-0.1,0.3-0.3c0-0.8,0-1.5,0-2.3c0-0.3-0.1-0.4-0.4-0.4
					c-1.9,0-3.9,0-5.8,0c-0.3,0-0.6-0.1-0.7-0.5c-0.1-0.3,0-0.6,0.2-0.8c0.8-0.8,1.6-1.5,2.4-2.3c1.1-1.1,2.3-2.1,3.2-3.3
					c1.9-2.4,1.9-5.5,0.1-7.8c-2.4-2.9-6.9-3.4-10-0.9c-0.9,0.7-1.6,1.6-2.1,2.7c0-1.5,0-3.1,0-4.6c0-0.3,0.1-0.4,0.4-0.4
					c8.9,0,17.9,0,26.8,0C44.7,28.4,49.6,28.4,54.5,28.4z M39.8,35.4c0-1.8,0-3.6,0-5.3c0-0.2-0.1-0.3-0.3-0.3c-1,0-2,0-3,0
					c-0.3,0-0.5,0.1-0.6,0.3c-2.6,3.7-5.2,7.4-7.9,11.1c-0.5,0.7-0.8,1.4-0.7,2.3c0,0.3,0,0.6,0,0.9c0,0.4,0.1,0.5,0.5,0.5
					c2.5,0,5,0,7.5,0c1,0,1.6,0.6,1.6,1.6c0,0.8,0,1.5,0,2.3c0,0.3,0.1,0.5,0.4,0.5c0.8,0,1.5,0,2.3,0c0.3,0,0.4,0,0.4-0.4
					c0-0.8,0-1.6,0-2.4c0-0.9,0.6-1.5,1.5-1.5c0.5,0,0.9,0,1.4,0c0.2,0,0.3,0,0.3-0.3c0-0.8,0-1.5,0-2.3c0-0.2-0.1-0.3-0.3-0.3
					c-0.5,0-0.9,0-1.3,0c-1,0-1.6-0.6-1.6-1.6C39.8,38.8,39.8,37.1,39.8,35.4z"/>
				<path class="st2" d="M12.7,33.4c0.6-1,1.2-1.9,2.1-2.7c3.1-2.4,7.6-2,10,0.9c1.8,2.2,1.8,5.3-0.1,7.8c-0.9,1.2-2.1,2.2-3.2,3.3
					c-0.8,0.8-1.6,1.5-2.4,2.3c-0.2,0.2-0.3,0.5-0.2,0.8c0.1,0.3,0.3,0.5,0.7,0.5c1.9,0,3.9,0,5.8,0c0.3,0,0.4,0.1,0.4,0.4
					c0,0.8,0,1.5,0,2.3c0,0.2-0.1,0.3-0.3,0.3c-4,0-7.9,0-11.9,0c-0.3,0-0.3-0.1-0.3-0.3c0-0.7,0-1.5,0-2.2c0-0.3,0.1-0.4,0.3-0.6
					c2.7-2.3,5.2-4.8,7.7-7.4c0.9-0.9,1.5-2.1,1.5-3.5c0-1.9-1.7-3.4-3.6-3.3c-1.7,0.1-2.8,1-3.6,2.5c-0.2,0.3-0.3,0.3-0.6,0.2
					c-0.8-0.4-1.6-0.8-2.4-1.1C12.7,33.5,12.7,33.5,12.7,33.4z"/>
				<path class="st2" d="M148.8,32.8c-0.1-0.1-0.3,0-0.5,0c-2.5,0-5,0-7.5,0c-1.1,0-1.6,0.5-1.6,1.6c0,0.6,0,1.3,0,1.9
					c0,1,0.6,1.5,1.6,1.5c1.9,0,3.7,0,5.6,0c0.3,0,0.4,0.1,0.4,0.4c0,0.7,0,1.5,0,2.2c0,0.3-0.1,0.4-0.4,0.4c-1.8,0-3.7,0-5.5,0
					c-1.1,0-1.7,0.5-1.7,1.7c0,2.1,0,4.3,0,6.4c0,0.3-0.1,0.4-0.4,0.4c-0.8,0-1.6,0-2.3,0c-0.4,0-0.5-0.1-0.5-0.5
					c0-5.8,0-11.5,0-17.3c0-0.5,0-0.9,0-1.4c0-0.3,0.1-0.3,0.3-0.3c1,0,2,0,3.1,0c3.1,0,6.2,0,9.3,0
					C148.8,30.7,148.8,31.8,148.8,32.8z"/>
				<path class="st2" d="M98.5,39.5c0,3.1,0,6.2,0,9.3c0,0.3-0.1,0.5-0.5,0.5c-0.9,0-1.7,0-2.6,0c-0.3,0-0.5-0.1-0.7-0.4
					c-2.6-4-5.2-8-7.9-12c-0.1-0.1-0.1-0.2-0.2-0.3c-0.2-0.2-0.4-0.3-0.6-0.2c-0.2,0.1-0.4,0.2-0.4,0.5c0,0.1,0,0.2,0,0.3
					c0,3.8,0,7.7,0,11.6c0,0.4-0.1,0.5-0.5,0.5c-0.8,0-1.6,0-2.3,0c-0.3,0-0.5-0.1-0.5-0.4c0-1.9,0-3.7,0-5.6c0-4.4,0-8.7,0-13.1
					c0-0.3,0.1-0.4,0.4-0.4c0.8,0,1.7,0,2.5,0c0.3,0,0.5,0.1,0.6,0.3c2.7,4.1,5.3,8.2,8,12.3c0.1,0.1,0.1,0.2,0.2,0.3
					c0.3,0.3,0.8,0.2,1-0.2c0-0.2,0-0.3,0-0.5c0-3.9,0-7.8,0-11.7c0-0.3,0.1-0.5,0.4-0.5c0.8,0,1.6,0,2.4,0c0.3,0,0.4,0.1,0.4,0.4
					C98.5,33.3,98.5,36.4,98.5,39.5z"/>
				<path class="st2" d="M100.2,39.6c0-5.7,4.5-10.2,10.1-10.1c5.3,0,9.8,4.4,9.8,10.2c0,5.7-4.5,10.2-10.1,10.2
					C104.6,49.8,100.2,45.2,100.2,39.6z M116.6,39.9c0-1.5-0.3-2.7-0.9-3.7c-2-3.7-6.6-4.6-9.7-1.9c-2.6,2.3-3.1,6.4-1.2,9.3
					c1.5,2.3,4.2,3.4,6.7,2.8C114.5,45.6,116.5,42.9,116.6,39.9z"/>
				<path class="st2" d="M121.8,39.5c0-3.1,0-6.2,0-9.3c0-0.4,0.1-0.5,0.5-0.5c3.9,0,7.8,0,11.8,0c0.3,0,0.5,0.1,0.4,0.4
					c0,0.7,0,1.4,0,2.1c0,0.3-0.1,0.5-0.4,0.5c-2.5,0-5,0-7.5,0c-1.1,0-1.6,0.5-1.6,1.6c0,0.6,0,1.3,0,1.9c0,0.9,0.6,1.5,1.5,1.5
					c1.9,0,3.7,0,5.6,0c0.3,0,0.5,0,0.5,0.5c0,0.7,0,1.5,0,2.2c0,0.3-0.1,0.4-0.4,0.4c-1.8,0-3.7,0-5.5,0c-1.2,0-1.7,0.5-1.7,1.7
					c0,2.1,0,4.3,0,6.4c0,0.3-0.1,0.5-0.5,0.4c-0.8,0-1.6,0-2.4,0c-0.3,0-0.4-0.1-0.4-0.4C121.8,45.8,121.8,42.6,121.8,39.5z"/>
				<path class="st2" d="M69.6,31.1c0,0.5,0,0.9,0,1.4c0,0.2-0.1,0.2-0.2,0.3c-2.7,0.3-5,2.6-5.5,5.6c-0.5,3,0.8,5.9,3.4,7.4
					c0.7,0.4,1.3,0.6,2.1,0.7c0.2,0,0.3,0.1,0.3,0.3c0,0.9,0,1.7,0,2.7c0,0.3-0.1,0.3-0.3,0.3c-4.2-0.3-7.9-3.6-8.8-8
					c-1-5,1.7-9.9,6.4-11.7c0.7-0.3,1.5-0.4,2.3-0.5c0.3,0,0.5,0.1,0.4,0.4C69.5,30.3,69.6,30.7,69.6,31.1z"/>
				<path class="st2" d="M70.7,48.1c0-0.4,0-0.9,0-1.3c0-0.2,0.1-0.3,0.3-0.3c2.9-0.5,5.1-2.9,5.4-5.9c0.2-2.5-0.5-4.6-2.4-6.3
					c-0.9-0.8-1.9-1.3-3.1-1.4c-0.3,0-0.3-0.1-0.3-0.4c0-0.8,0-1.7,0-2.6c0-0.3,0.1-0.4,0.4-0.3c3.4,0.5,6,2.2,7.7,5.2
					c3.1,5.7,0.2,12.7-5.8,14.6c-0.6,0.2-1.3,0.3-1.9,0.4c-0.3,0-0.3-0.1-0.3-0.3C70.7,49,70.7,48.5,70.7,48.1z"/>
				<path class="st2" d="M39.8,35.4c0,1.7,0,3.4,0,5.1c0,1,0.6,1.6,1.6,1.6c0.5,0,0.9,0,1.3,0c0.2,0,0.3,0,0.3,0.3
					c0,0.8,0,1.5,0,2.3c0,0.2-0.1,0.3-0.3,0.3c-0.5,0-0.9,0-1.4,0c-0.9,0-1.5,0.6-1.5,1.5c0,0.8,0,1.6,0,2.4c0,0.3-0.1,0.4-0.4,0.4
					c-0.8,0-1.5,0-2.3,0c-0.3,0-0.5-0.1-0.4-0.5c0-0.8,0-1.5,0-2.3c0-1-0.6-1.6-1.6-1.6c-2.5,0-5,0-7.5,0c-0.4,0-0.5-0.1-0.5-0.5
					c0-0.3,0-0.6,0-0.9c-0.1-0.9,0.2-1.6,0.7-2.3c2.6-3.7,5.3-7.4,7.9-11.1c0.2-0.2,0.3-0.3,0.6-0.3c1,0,2,0,3,0
					c0.2,0,0.3,0.1,0.3,0.3C39.8,31.9,39.8,33.6,39.8,35.4z M36.8,38.2c0-0.8,0-1.7,0-2.5c0-0.3-0.1-0.6-0.4-0.7
					c-0.3-0.1-0.5,0.1-0.7,0.3c-1.4,1.9-2.8,3.8-4.2,5.8c-0.2,0.2-0.2,0.4-0.1,0.7c0.1,0.3,0.4,0.3,0.7,0.3c1.1,0,2.1,0,3.2,0
					c0.9,0,1.5-0.6,1.5-1.5C36.8,39.8,36.8,39,36.8,38.2z"/>
				<path class="st0" d="M116.6,39.9c0,3-2,5.7-5,6.5c-2.5,0.6-5.2-0.5-6.7-2.8c-1.9-2.9-1.4-7,1.2-9.3c3.1-2.7,7.7-1.9,9.7,1.9
					C116.3,37.2,116.6,38.4,116.6,39.9z"/>
				<path class="st0" d="M36.8,38.2c0,0.8,0,1.6,0,2.4c0,0.9-0.6,1.5-1.5,1.5c-1.1,0-2.1,0-3.2,0c-0.3,0-0.5-0.1-0.7-0.3
					c-0.1-0.3,0-0.5,0.1-0.7c1.4-1.9,2.8-3.8,4.2-5.8c0.2-0.2,0.3-0.4,0.7-0.3c0.3,0.1,0.4,0.3,0.4,0.7
					C36.8,36.5,36.8,37.3,36.8,38.2z"/>
			</g>
		</g>
	</g>
</g>
</svg>
