<?xml version="1.0" encoding="utf-8"?>
<!-- Generator: Adobe Illustrator 23.0.2, SVG Export Plug-In . SVG Version: 6.00 Build 0)  -->
<svg version="1.1" id="Layer_1" xmlns="http://www.w3.org/2000/svg" xmlns:xlink="http://www.w3.org/1999/xlink" x="0px" y="0px"
	 viewBox="0 0 160 80" style="enable-background:new 0 0 160 80;" xml:space="preserve">
<style type="text/css">
	.st0{fill:#535657;}
	.st1{fill:#08B0D0;}
	.st2{fill:#FEFEFE;}
</style>
<g>
	<path class="st0" d="M106,31.7c2.3,2,3.5,4.6,3.6,7.7c0,0.5,0,1.1-0.1,1.6v0.1c0,0,0,0,0-0.1c0,0,0-0.1,0.1-0.1
		c1.7-3.9,3.4-7.7,5.1-11.6c0,0,0.1-0.1,0-0.1c0.5,0,0.9,0,1.4,0v0.1c2.6,6,5.2,12,7.9,18c0,0,0,0.1,0.1,0.1c0-0.1,0-0.1,0-0.2
		c0-5.8,0-11.7,0-17.5c0-0.1,0-0.2,0.2-0.2c1.2,0,2.5,0,3.7,0c0.2,0,0.2,0,0.2,0.2c0,5.3,0,10.6,0,15.9c0,0.1,0,0.2,0.2,0.2
		c2,0,4,0,6,0c0.1,0,0.1,0,0.2,0c0-0.1-0.1-0.2-0.1-0.2c-0.1-0.1,0-0.1,0-0.2c0.9-0.7,1.8-1.3,2.6-2c0.1-0.1,0.1,0,0.2,0
		c0.2,0.2,0.3,0.4,0.5,0.7c1.2,1.4,2.6,2.2,4.5,2.2c0.6,0,1.2-0.1,1.8-0.5c1-0.6,1.2-2.1,0.5-3c-0.2-0.3-0.5-0.5-0.8-0.6
		c-1-0.5-2-1-3-1.4c-1.1-0.5-2.1-1-3.1-1.7c-1.2-1-2.1-2.2-2.2-3.8c-0.1-1.5,0.3-2.9,1.3-4c1.1-1.2,2.4-1.7,3.9-2
		c0.2,0,0.4,0,0.6-0.1c0.5,0,1,0,1.5,0c0.2,0.1,0.4,0.1,0.6,0.1c2.3,0.4,4,1.6,5.2,3.6c0.1,0.1,0.1,0.2,0,0.2
		c-0.9,0.7-1.7,1.3-2.5,2c-0.1,0.1-0.1,0.1-0.2,0c-0.4-0.6-0.9-1.1-1.5-1.5c-1.1-0.7-2.3-0.9-3.6-0.4c-1.3,0.6-1.3,2.1-0.7,2.8
		c0.3,0.3,0.6,0.5,1,0.7c0.7,0.4,1.5,0.7,2.2,1c1,0.4,2,0.9,3,1.5c0.8,0.5,1.5,1.1,2.1,1.9c0.8,1.1,1,2.3,0.9,3.6
		c-0.2,2-1.2,3.4-2.9,4.4c-1.2,0.7-2.4,0.9-3.8,1c-1.9,0.1-3.7-0.4-5.3-1.5c0,0-0.1-0.1-0.1,0c0,0.3,0,0.6,0,1c0,0.2,0,0.2-0.2,0.2
		c-4,0-8,0-12,0c-1.3,0-2.6,0-4,0c-0.1,0-0.2,0-0.2-0.2c-0.3-0.8-0.7-1.5-1-2.3c0-0.1-0.1-0.1-0.2-0.1c-2.6,0-5.3,0-7.9,0
		c-0.1,0-0.2,0-0.2,0.1c-0.3,0.8-0.7,1.5-1,2.3c0,0.1-0.1,0.2-0.2,0.2c-1.4,0-2.7,0-4.1,0c-0.1,0-0.1,0-0.2,0
		c0.2-0.6,0.5-1.1,0.7-1.7c0.3-0.6,0.5-1.2,0.8-1.8l0,0l0,0l-0.1,0.1c-0.4,0.4-0.7,0.8-1.2,1.2c-2.6,2.2-5.6,2.9-9,2.4
		c-3.2-0.5-5.7-2.3-7.4-5.1c0,0,0-0.1-0.1-0.1l-0.1,0.1c-0.6,1.1-1.4,2-2.4,2.8c-3.3,2.5-7,3.1-10.9,1.8c-2.8-0.9-4.8-2.8-6-5.5
		c-0.2-0.4-0.4-0.9-0.5-1.4c-0.1,0-0.1,0.1-0.1,0.1c-0.7,2.3-2.1,4.2-4.2,5.4c-1.9,1.1-3.9,1.6-6.1,1.6c-2.2,0-4.4,0-6.5,0
		c-0.2,0-0.2,0-0.2-0.2c0-1.9,0-3.7,0-5.6c0-0.1,0-0.1,0-0.2c0,0.1-0.1,0.1-0.1,0.1c-0.9,2.1-2.4,3.6-4.5,4.6
		c-1.7,0.9-3.5,1.2-5.5,1.2c-2.6,0-5.1,0-7.7,0c-0.8,0-1.6,0-2.4,0c-0.1,0-0.1,0-0.2-0.1c-0.4-0.9-0.8-1.8-1.1-2.6
		c-0.4-0.9-0.7-1.8-1.1-2.7c0,0,0,0,0.1-0.1c0.2,0,0.3,0,0.5,0c0.4-0.1,0.8,0,1.2-0.1c0.2,0,0.5-0.1,0.7-0.1c0.6,0,1.1-0.1,1.7-0.1
		c0.5,1.2,1,2.4,1.6,3.6c0,0,0,0.1,0.1,0.1c0-1.3,0-2.5,0-3.8c0.3,0,0.6,0,0.9,0c0.6-0.1,1.2-0.1,1.8-0.1c0.5,0,0.9-0.1,1.4-0.1
		c0,0.8,0,1.6,0,2.4c0,0.1,0,0.2,0.2,0.2c0.8,0,1.6,0,2.5,0c1.2,0,2.4-0.3,3.5-0.9c1-0.6,1.8-1.4,2.4-2.5c0.4,0,0.7-0.1,1.1-0.1
		c0.8-0.1,1.6-0.2,2.4-0.2c0.6-0.1,1.3-0.2,1.9-0.2c0.7-0.1,1.3-0.1,2-0.2c0.3,0,0.5-0.1,0.8,0c0,0.1-0.1,0-0.1,0.1l0,0
		c-0.1,0-0.2,0-0.2,0c0.1,0.1,0.3,0,0.4,0c0,1.3,0,2.6,0,3.9c0,0.1,0,0.2,0.2,0.2c0.8,0,1.5,0,2.3,0c0.6,0,1.3-0.1,1.9-0.2
		c1.4-0.3,2.7-1,3.6-2.2c0.7-1,1.1-2,1.2-3.2c0-0.1,0-0.2,0.1-0.2s0.2,0,0.3,0c0,0,0.1,0,0.1,0.1s0,0.1-0.1,0.1s-0.2,0-0.3,0
		c-0.1,0-0.2-0.1-0.2-0.2c0-0.1,0-0.2,0-0.3s0-0.1,0.1-0.1c0.2,0,0.4,0,0.6-0.1c0.1,0,0.2,0,0.2-0.1c0.7-0.1,1.4-0.1,2-0.2
		c0.6-0.1,1.2-0.2,1.8-0.2h0.1c0.1-0.1,0.2-0.1,0.3-0.1c0.2,0,0.5-0.1,0.7-0.1s0.4,0,0.6-0.1S72.9,39,73,39c0.2,0,0.3,0,0.5-0.1
		c-0.1-0.1-0.1,0-0.2-0.1c0.2,0,0.3-0.1,0.4,0c-0.1,1.1-0.1,2.1,0.2,3.2c0.5,2,1.7,3.4,3.6,4.2c1.5,0.6,3,0.7,4.5,0.3
		c1.4-0.3,2.6-1,3.5-2.2c0.1-0.1,0.1-0.2,0.1-0.3c0-0.4,0-0.9,0-1.3c0-0.1,0-0.2-0.2-0.2c-1.7,0-3.5,0-5.2,0c-0.1,0-0.2,0-0.2-0.2
		c0-1.1,0-2.1,0-3.2c0-0.2,0-0.2,0.2-0.2c2.7,0,5.3,0,8,0c0.1,0,0.2,0,0.2-0.2c0-0.5,0.1-0.9,0.2-1.4c1-4.2,4.7-7.5,8.9-8
		C97.5,29.3,102.5,28.4,106,31.7z M92.5,39.5c0,0.6,0.1,1.2,0.2,1.7c0.4,1.8,1.4,3.2,3,4.1c1.3,0.7,2.8,0.9,4.2,0.7
		c2.1-0.3,3.7-1.4,4.7-3.3c0.8-1.7,0.9-3.4,0.4-5.2s-1.6-3.1-3.3-3.9c-1.3-0.6-2.6-0.8-4-0.6c-1.6,0.3-2.9,1-4,2.3
		C92.9,36.6,92.6,38,92.5,39.5z M112.8,43.5c1.7,0,3.4,0,5.1,0c0.2,0,0.1-0.1,0.1-0.2c-0.8-2.1-1.7-4.3-2.5-6.4c0,0,0-0.1-0.1-0.1
		C114.6,39.1,113.7,41.3,112.8,43.5z"/>
	<path class="st0" d="M79.1,29.1c0.6,0,1.1,0,1.7,0c0,0,0,0,0.1,0c0.4,0,0.8,0.1,1.2,0.2c2.6,0.5,4.7,1.9,6.2,4
		c0.1,0.1,0.1,0.1,0,0.2c-0.9,0.7-1.8,1.5-2.7,2.2c-0.1,0.1-0.2,0.1-0.3,0c-0.6-0.8-1.3-1.5-2.2-2c-1.4-0.8-3-0.9-4.5-0.7
		c-2.8,0.5-4.6,2.5-5,5.2c-0.7,0-1.3,0.1-2,0.1c-0.2,0-0.4,0-0.6,0c-0.5,0-1,0.1-1.5,0.1c-0.9,0-1.8,0.2-2.6,0.2
		c-0.4,0-0.8,0-1.1,0.1c0-0.2,0-0.4-0.1-0.6c-0.3-1.7-1.2-3.1-2.7-4c-1-0.6-2.2-0.9-3.4-0.9c-0.9,0-1.9,0-2.8,0
		c-0.1,0-0.2,0-0.2,0.1c0,2,0,3.9,0,5.9c-0.1,0-0.2,0-0.3,0.1c0.1,0,0.2,0,0.3,0c0,0.1,0,0.2,0,0.2c-1.2,0.1-2.5,0.2-3.7,0.3
		c0.2,0,0.3-0.1,0.5-0.1c0.1,0,0.3,0,0.4,0c0.3,0,0.6-0.1,0.9-0.1c0.4,0,0.8-0.1,1.2-0.1c0.1,0,0.2,0,0.2-0.1
		c-0.1,0-0.1,0.1-0.2,0.1c-0.1,0-0.3,0-0.4,0.1c-0.5,0.1-1,0.1-1.5,0.1h-0.1c-0.1,0-0.3,0-0.4,0c-0.5,0-1,0.1-1.4,0.1
		s-0.8,0.1-1.2,0.2c-0.5,0.1-1.1,0.1-1.6,0.1c0-0.7,0-1.3-0.1-2c-0.3-1.6-1.1-2.8-2.4-3.7c-1.1-0.7-2.4-1-3.7-1.1
		c-0.9,0-1.8,0-2.7,0c-0.2,0-0.2,0.1-0.2,0.2c0,2.5,0,4.9,0,7.4c-0.2,0-0.4,0-0.6,0c-0.4,0-0.7,0.1-1.1,0c-0.3-0.1-0.7,0-1.1,0
		c-0.5,0-0.9,0.1-1.4,0.1c0-3.8,0-7.5,0-11.3c0-0.1,0-0.2,0.2-0.2c2.2,0,4.5,0,6.7,0c1.6,0,3.2,0.3,4.7,0.9c2.1,0.9,3.8,2.3,4.8,4.4
		c0.1,0.2,0.1,0.3,0.2,0.5l0,0c0-0.1,0-0.1,0-0.2c0-1.8,0-3.6,0-5.4c0-0.2,0-0.2,0.2-0.2c2.2,0,4.4,0,6.7,0c0.2,0,0.4,0,0.6,0
		c1.7,0.1,3.4,0.5,4.9,1.3c1.6,0.8,2.8,2,3.7,3.5c0.4,0.7,0.7,1.5,1,2.3l0,0c0-0.1,0-0.1,0.1-0.2c0.3-1,0.7-1.9,1.3-2.7
		c1.8-2.6,4.3-4.1,7.4-4.5C78.7,29.2,78.9,29.2,79.1,29.1z"/>
	<path class="st1" d="M30.1,44.1c-0.2,0-0.4,0.1-0.7,0.1l0,0l0,0l0,0l0,0c-0.3,0-0.7,0-1,0.1c-0.4,0.1-0.7,0.1-1.1,0.1
		s-0.8,0-1.1,0.1c0.1,0,0.2,0,0.2,0h0.1c0,0.1,0,0.1-0.1,0.1s-0.2,0-0.3,0.1c-0.5,0-0.9,0-1.4,0.1c-0.1,0-0.3,0.1-0.4,0.1
		S24.2,45,24.2,45c-0.1,0.3-0.2,0.5-0.3,0.8c-0.2,0.3-0.3,0.7-0.3,1s-0.1,0.6-0.2,0.9c0,0,0,0.1-0.1,0.1c-0.2,0.1-0.2,0.3-0.3,0.5
		c0,0,0,0.1-0.1,0.1s-0.1,0.1,0,0.1c-0.1,0-0.1,0-0.2,0c0,0.1,0.1,0,0.1,0.1s-0.1,0-0.1,0.1s0.1,0,0.1,0.1c-0.1,0.1-0.2,0-0.2,0.1
		c0.1,0,0.1,0,0.2,0c-0.1,0.1-0.2,0-0.2,0.1s0.1,0,0.1,0.1c-0.1,0.1-0.1,0.2-0.2,0.3c-0.2,0.3-0.5,0.5-0.8,0.5c-0.4,0-0.7,0-1.1-0.1
		c-0.1,0-0.2-0.1-0.3,0c-0.2,0-0.3,0-0.5,0c-0.1,0-0.2-0.1-0.3,0c0,0,0.1,0,0.1,0.1c0,0,0,0-0.1,0c-0.6-0.1-1.1-0.2-1.7-0.2
		c-0.4-0.1-0.7-0.2-1-0.3s-0.3-0.3-0.2-0.6c0.2-0.4,0.3-0.8,0.5-1.1v-0.1c0.3-0.3,0.3-0.8,0.7-1.1c-0.1,0-0.2,0-0.3,0
		c-0.3,0-0.5,0.1-0.8,0.1s-0.6,0.2-0.9,0.1c-0.6-0.1-1.1,0.1-1.6,0.2h-0.1c-0.1,0-0.2,0-0.2-0.1s0.1-0.1,0.1-0.1
		c0.2,0,0.3,0,0.5-0.1l0,0c-0.1,0-0.2,0-0.3,0c-0.1,0.1-0.3,0-0.4,0c0,0,0,0-0.1,0c0-0.1-0.1,0-0.1,0c-0.1,0.2-0.2,0.1-0.2,0
		c-0.1,0-0.2,0-0.3,0c-0.5,0-0.9,0.1-1.4,0.1c-0.2,0-0.4-0.1-0.5-0.3c0-0.1,0-0.2,0-0.3c0.1-0.3,0.2-0.5,0.4-0.7s0.4-0.4,0.6-0.7
		c0.5-0.5,0.9-1,1.4-1.5C14,43,14,42.9,14,42.8c0-0.1,0-0.2,0.2-0.1c0.1,0,0.1,0,0.1,0c0.2-0.2,0.4-0.2,0.7-0.3
		c0.1,0,0.2-0.1,0.2-0.1s0.1-0.1,0.1,0s0.1,0,0.2,0c0.1,0,0-0.1,0-0.1v-0.1c0.1,0.1,0.2-0.1,0.3-0.1c0.2,0,0.3,0,0.4,0
		c0.2,0,0.4,0,0.6,0c0.1,0,0.3,0,0.4-0.1h0.1c0,0.1,0,0.1,0,0.1c0.2,0,0.4,0,0.6,0s0.4,0,0.4-0.2c0.1,0,0,0.1,0.1,0.2
		c0.1,0,0.1-0.1,0.1-0.2c0.1,0,0,0.1,0.1,0.1v-0.1c0.3,0,0.7-0.1,1-0.1c0.1,0,0.2-0.1,0.2-0.2c0.1-0.3,0.3-0.5,0.4-0.8
		s0.4-0.6,0.5-0.9l0,0c0.1,0,0.2-0.2,0.2-0.3c0.1-0.2,0.2-0.4,0.3-0.5c0.1-0.2,0.2-0.3,0.2-0.4c0-0.4,0.2-0.7,0.5-1
		c0.1-0.1,0.2-0.1,0.1-0.3c0.1,0,0.1,0.1,0.2,0v-0.1c-0.1-0.1,0-0.2,0-0.2c0.1-0.1,0.1-0.2,0.2-0.3s0.1-0.1,0.2-0.2
		c0.1,0,0.2-0.1,0.2-0.2c0-0.1,0.1-0.2,0-0.3h0.1l0,0l0,0l0,0c0,0,0.1,0.2,0.2,0.2s0.2,0,0.3,0.1h0.1v-0.1c0.1-0.1,0.3,0,0.3-0.2
		c0,0,0-0.1,0.1,0c0,0,0,0.1,0.1,0c0,0,0.1-0.1,0-0.1l0,0v-0.1l0,0c0.1,0,0.2-0.1,0.2-0.2c0-0.1,0.1-0.1,0.1-0.1l0,0l0,0l0,0h0.1
		c0.1,0.1,0.1,0.1,0.2,0l0,0c-0.1,0.1,0,0.2-0.1,0.3c0.1,0,0.1-0.1,0.1-0.1c0-0.1,0-0.2,0.1-0.2l0,0v0.1c0.1,0,0.2,0,0.3-0.1
		l0.1-0.1c0.1,0,0.1-0.1,0.1-0.2v-0.1c0,0.1,0.1,0.1,0.1,0l0,0l0,0c0.1,0.1,0.1-0.1,0.1,0c0.1-0.2,0.2-0.3,0.4-0.4
		c0.2-0.1,0.2-0.3,0.3-0.4h0.1c0.4-0.1,0.7,0.1,0.6,0.4c0,0.1,0,0.2-0.1,0.4v0.1c0.1-0.1,0.1,0,0.1,0c0.1,0.1,0,0.1,0,0.2
		c0,0.2,0,0.3,0,0.5c-0.1,0.1-0.1,0.3-0.2,0.4v0.1c0,0,0,0,0.1,0c0.1,0.1,0.1,0.2,0.1,0.3c0,0.2-0.1,0.4-0.1,0.6
		c-0.4,1.3-0.7,2.5-1.1,3.8c-0.1,0.3-0.2,0.6-0.3,0.9c0.3,0,0.6-0.1,0.9,0c0,0,0.1,0,0.1-0.1c0.1-0.1,0.1-0.1,0.2-0.1h0.1
		c0.4,0,0.8,0,1.1-0.1c0.4,0,0.9,0,1.3-0.1c0.1,0,0.2,0,0.2,0c0.6-0.1,1.2-0.1,1.8-0.2c0.2,0,0.3-0.1,0.4-0.1c0.5,0,1-0.1,1.5-0.1
		c0.6-0.1,1.3-0.1,1.9-0.2c-0.3,0.1-0.5,0-0.8,0.2c0.5,0,1.1-0.1,1.6-0.1S36.5,41,37,41c0.4,0,0.7-0.1,1.1,0c0.4,0.1,0.7,0,1.1,0
		c0.2,0,0.4,0,0.6,0c0.1,0.1,0.2,0,0.4,0c0.2,0.1,0.4,0,0.6,0c0.2,0,0.3,0,0.5,0c0.2-0.1,0.3,0,0.5-0.1c0.1,0,0.2,0,0.4,0
		c0.5,0,1-0.1,1.6-0.1c0.3,0,0.6,0,0.9-0.1c0.8-0.1,1.5-0.2,2.3-0.2c0.5,0,0.9-0.1,1.4-0.1c0.2,0,0.4,0,0.7-0.1c0.5,0,1.1,0,1.6-0.1
		c0.4-0.1,0.8-0.1,1.2-0.2c0.5,0,1-0.1,1.4-0.1l0,0c-0.1,0-0.3,0.1-0.5,0.1c1.2-0.1,2.5-0.2,3.7-0.3c0.1,0,0.1,0,0.2,0
		c0.4,0,0.7-0.1,1.1-0.1c0.4,0,0.8,0,1.1-0.1c1.5-0.1,3-0.3,4.4-0.4c0.8-0.1,1.5-0.1,2.3-0.2c0.4,0,0.8-0.1,1.1-0.1
		c0.9,0,1.8-0.1,2.6-0.2c0.5,0,1-0.1,1.5-0.1c0.2,0,0.4,0,0.6,0c0.7,0,1.3-0.1,2-0.1h0.1l-0.1,0.1c-0.1,0-0.3,0-0.4,0
		c0.1,0.1,0.1,0,0.2,0.1c-0.2,0-0.3,0-0.5,0.1c-0.2,0-0.4,0-0.5,0.1c-0.2,0.1-0.4,0.1-0.6,0.1S71.1,39,70.9,39c-0.1,0-0.2,0-0.3,0.1
		h-0.1c-0.6,0-1.2,0.1-1.8,0.2c-0.7,0.1-1.4,0.1-2,0.2c-0.1,0-0.2,0-0.2,0.1c-0.2,0.1-0.4,0.1-0.6,0.1c-0.1,0-0.1,0-0.1,0.1
		c-0.4,0-0.7,0.1-1.1,0.1c-0.5,0-0.9,0.1-1.4,0.1c-0.3,0-0.5,0-0.8,0.1c0.3-0.1,0.6,0,1-0.1c-0.2,0-0.3,0-0.5,0
		c-0.8,0.1-1.6,0.1-2.4,0.2c-0.1,0-0.3,0.1-0.4,0.1c-1.2,0.1-2.3,0.2-3.5,0.4c-1.3,0.1-2.5,0.2-3.7,0.4c0.2,0,0.5,0,0.8,0
		c0.1,0,0.2-0.1,0.3,0.1h0.1c0.3,0,0.7-0.1,1-0.1c0.5-0.1,1-0.1,1.5-0.1c0.4,0,0.8-0.1,1.2-0.1c1.2-0.1,2.3-0.2,3.5-0.3
		c0.4,0,0.7,0,1.1,0c0.6,0,1.2-0.1,1.7-0.1s0.9-0.1,1.4-0.1l0,0h-0.1l0,0c0.1,0,0.1,0,0.2,0c-0.1,0,0,0.1-0.1,0.1
		c-0.5,0-1.1,0.1-1.6,0.2c-0.6,0.1-1.2,0.1-1.8,0.2c0.1,0.1,0.1,0,0.2,0C62,41,61.6,41,61.2,41.1c0.4,0,0.8,0,1.1,0h-0.1
		c-0.6,0.1-1.3,0.2-1.9,0.2c-0.5,0-0.9,0.2-1.4,0.1c-0.3,0-0.6,0-0.9,0.1c-0.2,0-0.4,0-0.6,0.1c0,0,0,0-0.1,0c-0.2,0-0.4,0-0.6,0.1
		c-0.4,0-0.8,0.1-1.3,0.1c-0.3,0-0.5,0.1-0.8,0.1S54,42,53.6,42s-0.7,0.1-1.1,0.1c-0.2,0-0.5,0.1-0.7,0.1l0,0
		c-0.1,0-0.2,0.1-0.3,0.1c-0.2,0-0.5,0.1-0.7,0.1c-0.1,0-0.2,0-0.4,0.1c0.5,0,1-0.1,1.4-0.1c0.9-0.1,1.9-0.2,2.8-0.3
		c0.4,0,0.8-0.1,1.1-0.1s0.7-0.1,1-0.1c0.7-0.1,1.3-0.1,2-0.2c0.1,0,0.2,0,0.3,0c-0.3,0-0.6,0-0.9,0.1c0.2,0,0.3,0,0.5,0
		c-0.7,0.1-1.3,0.2-2,0.3c-0.1,0-0.3,0-0.4,0c0.1,0,0.2,0,0.2,0h0.1c0,0,0,0-0.1,0c0,0,0.1,0,0.1-0.1c-0.3,0-0.5,0-0.8,0
		c-0.7,0.1-1.3,0.1-2,0.2c-0.6,0.1-1.3,0.2-1.9,0.2c-0.8,0.1-1.6,0.1-2.4,0.2c-0.4,0-0.7,0.1-1.1,0.1c-0.9,0.1-1.9,0.2-2.9,0.3
		c-0.3,0-0.7,0-1,0.1c-0.4,0.1-0.9,0.1-1.3,0.2c-0.3,0-0.5,0.1-0.8,0c-0.2,0-0.5,0-0.7,0.1c-0.6,0.1-1.2,0.1-1.8,0.2
		c-0.5,0-0.9,0.1-1.4,0.1c-0.6,0-1.2,0.1-1.8,0.1c-0.3,0-0.6,0-0.9,0c-0.1,0-0.1,0-0.2,0c-0.5,0-1,0.1-1.5,0.1
		c-0.6,0-1.1,0.1-1.7,0.1c-0.2,0-0.5,0-0.7,0.1c-0.4,0.1-0.8,0-1.2,0.1C30.5,44.1,30.4,44.1,30.1,44.1
		C30.2,44.1,30.1,44.1,30.1,44.1z M30,43.7c0.1-0.1,0.2,0,0.3-0.1C30.2,43.7,30.1,43.6,30,43.7c-0.3,0-0.7,0-1,0.1c0,0,0,0,0,0.1
		C29.4,43.8,29.7,43.8,30,43.7z M47.8,41.3c0.4,0,0.8,0,1.2-0.1c0.5-0.1,1-0.1,1.4-0.2c0.8-0.1,1.6-0.2,2.5-0.3c0.1,0,0.1,0,0.2-0.1
		c-1.4,0.1-2.7,0.2-4.1,0.4c-0.1,0.1-0.1,0-0.2,0C48.4,41.1,48.1,41.2,47.8,41.3C47.8,41.3,47.7,41.3,47.8,41.3
		C47.7,41.3,47.7,41.3,47.8,41.3L47.8,41.3z M29.9,43.5c0.1,0,0.3,0,0.4,0C30.2,43.5,30,43.4,29.9,43.5c-0.4,0-0.7,0-1.1,0.1
		C29.2,43.6,29.5,43.5,29.9,43.5z M48.6,42.3c0.5-0.1,1.1-0.1,1.6-0.2C49.6,42.1,49.1,42.2,48.6,42.3c-0.8,0-1.5,0.1-2.3,0.2
		C47,42.4,47.8,42.4,48.6,42.3z M35.9,41.2c0.3,0,0.5,0,0.8-0.1c0,0-0.1,0-0.1-0.1s0-0.1,0.1-0.1c-0.3,0-0.5,0.1-0.8,0.1
		c-0.8,0.1-1.5,0.1-2.3,0.3C34.3,41.3,35.1,41.3,35.9,41.2z M53.3,40.7c0.8,0,1.6-0.1,2.4-0.2C55,40.5,54.1,40.6,53.3,40.7z
		 M32.2,43.7L32.2,43.7c-0.2,0-0.3,0.1-0.5,0.1c-0.3,0-0.7,0.1-1.1,0.1c-0.2,0-0.3,0.1-0.5,0H30l0,0h0.1c0.3,0,0.5,0,0.8-0.1
		C31.4,43.9,31.8,43.8,32.2,43.7C32.1,43.8,32.1,43.8,32.2,43.7C32.2,43.7,32.2,43.7,32.2,43.7z M38.4,40.8c-0.5,0-1,0-1.5,0.1
		C37.3,40.9,37.8,40.9,38.4,40.8z M32.9,43.4c-0.4,0-0.7,0-1.1,0.1C32.1,43.4,32.5,43.4,32.9,43.4z M36.9,41.1c0.3,0,0.6,0,0.7-0.1
		C37.4,41,37.1,41,36.9,41.1z M28.6,44.1c0.2,0,0.3,0,0.5,0C28.9,43.9,28.8,44.1,28.6,44.1z M64.7,39.7
		C64.7,39.7,64.7,39.6,64.7,39.7c-0.3,0-0.6,0-0.9,0l0,0C64.1,39.7,64.4,39.7,64.7,39.7z M30.6,43.6L30.6,43.6c0.2,0,0.4,0,0.6,0
		l0,0C31,43.5,30.8,43.6,30.6,43.6z M32,43.6L32,43.6c-0.2,0-0.5,0-0.7,0.1l0,0C31.5,43.7,31.7,43.6,32,43.6z M15.3,46.3
		c-0.2,0-0.2,0-0.3,0.1C15.1,46.3,15.2,46.3,15.3,46.3z M57,41.6c-0.1,0-0.2,0-0.4,0C56.8,41.7,56.9,41.6,57,41.6z M57.4,41.6
		c0.1,0,0.2,0,0.3,0C57.6,41.5,57.5,41.5,57.4,41.6z M34,41.1L34,41.1c0.1,0,0.1,0,0.2,0l0,0C34.1,41.1,34,41.1,34,41.1z M57.8,41.5
		c0.1,0,0.2,0,0.3,0C58,41.5,57.9,41.5,57.8,41.5z M57,41.6c0.1,0,0.2,0,0.3,0C57.2,41.5,57.2,41.6,57,41.6z M29.2,44L29.2,44
		C29.2,44,29.2,44.1,29.2,44C29.2,44.1,29.2,44.1,29.2,44L29.2,44z M24.7,35.5L24.7,35.5L24.7,35.5L24.7,35.5L24.7,35.5z"/>
	<path class="st0" d="M27.9,29.1c0.6,1.5,1.3,3,1.9,4.4c1.1,2.5,2.2,5,3.3,7.4c0,0,0,0,0,0.1c-0.5,0-1,0.2-1.5,0.1
		c-0.2,0-0.3,0-0.4,0.1c-0.6,0-1.2,0.1-1.8,0.2c-0.1,0-0.2,0-0.2,0c-0.6-1.6-1.3-3.2-1.9-4.8c-0.1-0.3-0.2-0.7-0.4-1
		c0.1-0.2,0-0.3,0-0.5c0-0.1,0.1-0.1,0-0.2c0,0,0-0.1-0.1,0c0,0,0,0,0-0.1s0-0.2,0.1-0.4c0.1-0.3-0.2-0.6-0.6-0.4h-0.1
		c-0.3-0.7-0.5-1.4-0.8-2c0-0.1,0-0.2,0-0.2c0.4-0.9,0.8-1.7,1.1-2.6C27,29.1,27.4,29.1,27.9,29.1z"/>
	<path class="st2" d="M109.6,41C109.5,41,109.6,41.1,109.6,41C109.5,41,109.5,41,109.6,41C109.5,41,109.5,41,109.6,41z"/>
	<path class="st2" d="M107.3,46L107.3,46C107.4,46,107.3,46.1,107.3,46C107.3,46.1,107.3,46.1,107.3,46z"/>
	<path class="st1" d="M53.8,39.6C53.8,39.5,53.9,39.6,53.8,39.6c0.6-0.1,1.1-0.1,1.6-0.1c0.1,0,0.3-0.1,0.4-0.1
		c0.1,0,0.2-0.1,0.2-0.1c0,0.1-0.1,0.1-0.2,0.1c-0.4,0-0.8,0.1-1.2,0.1C54.4,39.6,54.1,39.7,53.8,39.6L53.8,39.6z"/>
	<path class="st1" d="M56.7,39.2c0.3,0,0.6,0,0.9-0.1C57.3,39.3,56.9,39.2,56.7,39.2c-0.1,0.1-0.2,0.1-0.3,0.1
		C56.5,39.3,56.6,39.3,56.7,39.2z"/>
	<path class="st1" d="M53.8,39.6c-0.1,0.1-0.3,0-0.4,0l0,0C53.5,39.6,53.7,39.7,53.8,39.6L53.8,39.6z"/>
	<path class="st1" d="M14.1,46.5c-0.1,0.1-0.2,0-0.3,0l0,0C13.9,46.5,14,46.5,14.1,46.5z"/>
	<path class="st1" d="M29.5,44.2C29.5,44.2,29.4,44.2,29.5,44.2C29.4,44.2,29.4,44.2,29.5,44.2C29.4,44.2,29.5,44.2,29.5,44.2
		L29.5,44.2z"/>
	<path class="st0" d="M56.7,41.4c0,0.1,0,0.1,0,0.2c-0.3,0-0.7,0.1-1,0.1c-0.4,0-0.8,0.1-1.1,0.1c-0.9,0.1-1.9,0.2-2.8,0.3
		c-0.5,0-0.9,0.1-1.4,0.1c0.1-0.1,0.3-0.1,0.4-0.1c0.2,0,0.5,0,0.7-0.1c0.1,0,0.2-0.1,0.3-0.1l0,0c0.2,0.1,0.5-0.1,0.7-0.1
		c0.4,0,0.7-0.1,1.1-0.1c0.3,0,0.6-0.1,1-0.1c0.3,0,0.5-0.1,0.8-0.1C55.8,41.5,56.2,41.3,56.7,41.4z M51.6,41.9L51.6,41.9L51.6,41.9
		L51.6,41.9L51.6,41.9z"/>
	<path class="st0" d="M56.7,40.5c0,0.1,0,0.1,0,0.2c-0.5,0-1,0.1-1.5,0.1c-0.3,0-0.7,0.1-1,0.1h-0.1c-0.1-0.1-0.2-0.1-0.3-0.1
		c-0.3,0-0.6,0-0.8,0C54.1,40.7,55.4,40.6,56.7,40.5z"/>
	<path class="st0" d="M48.9,41.1c1.3-0.1,2.7-0.3,4.1-0.4c-0.1,0.1-0.1,0.1-0.2,0.1c-0.8,0.1-1.6,0.2-2.5,0.3
		c-0.5,0.1-1,0.1-1.4,0.2C48.9,41.2,48.9,41.1,48.9,41.1z"/>
	<path class="st0" d="M53.3,40.7c0.8-0.1,1.6-0.1,2.4-0.2C55,40.5,54.2,40.7,53.3,40.7z"/>
	<path class="st0" d="M32.2,43.7L32.2,43.7C32.1,43.8,32.2,43.8,32.2,43.7c-0.5,0.1-0.9,0.2-1.3,0.2c-0.3,0-0.5,0-0.8,0.1H30l0,0
		h0.1c0.2,0.1,0.3,0,0.5,0c0.4,0,0.7-0.1,1.1-0.1C31.9,43.7,32.1,43.7,32.2,43.7L32.2,43.7z"/>
	<path class="st0" d="M35.9,41.2L35.9,41.2c0.2-0.1,0.5-0.2,0.8-0.2c-0.1,0-0.1,0.1-0.1,0.1s0.1,0,0.1,0.1
		C36.4,41.1,36.1,41.2,35.9,41.2z"/>
	<path class="st0" d="M48.6,42.3L48.6,42.3c0.5-0.1,1.1-0.2,1.6-0.2C49.6,42.2,49.1,42.3,48.6,42.3z"/>
	<path class="st0" d="M38.4,40.8c-0.5,0.1-1,0.1-1.5,0.1C37.3,40.9,37.8,40.9,38.4,40.8z"/>
	<path class="st0" d="M32.9,43.4c-0.4,0.1-0.7,0.1-1.1,0.1C32.1,43.4,32.5,43.4,32.9,43.4z"/>
	<path class="st0" d="M36.9,41.1c0.2,0,0.5,0,0.7-0.1C37.5,41.1,37.2,41.1,36.9,41.1z"/>
	<path class="st0" d="M30.6,43.6c0.2,0,0.4,0,0.6,0l0,0C31,43.6,30.8,43.6,30.6,43.6L30.6,43.6z"/>
	<path class="st0" d="M32,43.6c-0.2,0-0.5,0.1-0.7,0.1l0,0C31.5,43.6,31.7,43.6,32,43.6L32,43.6z"/>
	<path class="st0" d="M29.9,43.5L29.9,43.5c0.1-0.1,0.3,0,0.4,0C30.2,43.5,30,43.5,29.9,43.5z"/>
	<path class="st0" d="M30,43.7L30,43.7c0.1-0.1,0.2-0.1,0.3-0.1C30.2,43.7,30.1,43.7,30,43.7z"/>
	<path class="st2" d="M15.3,46.3c-0.1,0-0.2,0-0.3,0.1C15.1,46.3,15.1,46.3,15.3,46.3z"/>
	<path class="st0" d="M56.5,41.7L56.5,41.7L56.5,41.7L56.5,41.7z"/>
	<path class="st2" d="M24.7,35.5L24.7,35.5L24.7,35.5L24.7,35.5L24.7,35.5z"/>
	<path class="st1" d="M24,35.7c-0.1,0-0.2,0-0.1-0.1L24,35.7C24,35.6,24,35.6,24,35.7L24,35.7z"/>
	<path class="st1" d="M24,35.8L24,35.8C23.9,35.8,23.9,35.8,24,35.8C23.9,35.8,23.9,35.8,24,35.8L24,35.8z"/>
	<path class="st1" d="M24.6,35.4L24.6,35.4C24.6,35.3,24.6,35.3,24.6,35.4L24.6,35.4L24.6,35.4z"/>
	<path class="st1" d="M24.7,35.3L24.7,35.3L24.7,35.3L24.7,35.3L24.7,35.3z"/>
	<path class="st1" d="M60.3,40.1c0.1-0.1,0.1-0.1,0.2,0C60.5,40.1,60.4,40.1,60.3,40.1z"/>
	<path class="st1" d="M60.7,40c0.1,0,0.1,0,0.2,0C60.8,40.1,60.7,40.1,60.7,40z"/>
	<path class="st1" d="M45.5,40.1c-0.3,0-0.6,0.1-0.9,0.1c-0.2,0-0.5,0-0.7,0.1c-0.1,0-0.2-0.1-0.3,0h-0.1c-0.1,0-0.1,0-0.1,0.1l0,0
		c0,0,0,0.1,0.1,0.1h0.1c0.1-0.2,0.3-0.1,0.5-0.2c0.3,0,0.7-0.1,1-0.1C45.2,40.1,45.3,40.1,45.5,40.1z"/>
	<path class="st1" d="M51.6,41.9L51.6,41.9L51.6,41.9L51.6,41.9L51.6,41.9z"/>
</g>
</svg>
