<?xml version="1.0" encoding="utf-8"?>
<!-- Generator: Adobe Illustrator 23.0.2, SVG Export Plug-In . SVG Version: 6.00 Build 0)  -->
<svg version="1.1" id="Layer_1" xmlns="http://www.w3.org/2000/svg" xmlns:xlink="http://www.w3.org/1999/xlink" x="0px" y="0px"
	 viewBox="0 0 160 80" style="enable-background:new 0 0 160 80;" xml:space="preserve">
<style type="text/css">
	.st0{fill:#989A9B;}
</style>
<title>logo</title>
<desc>Created with Sketch.</desc>
<g id="Page-1">
	<g transform="translate(-321.000000, -217.000000)">
		<g id="logos" transform="translate(70.000000, 148.000000)">
			<g id="logo" transform="translate(251.000000, 69.000000)">
				<g id="Icon">
					<path id="Fill-1" class="st0" d="M41.8,49.2l-6.2-14.6c-0.7-1.5-2.1-2.3-3.5-2.3s-2.8,0.8-3.5,2.3l-6.2,14.6
						c-2.4-2.5-3.9-5.8-3.9-9.5c0-7.5,6.1-13.6,13.6-13.6c7.5,0,13.6,6.1,13.6,13.6C45.7,43.4,44.3,46.8,41.8,49.2L41.8,49.2z
						 M27.5,44.4l3.7-8.7c0.2-0.6,0.7-0.7,1-0.7c0.3,0,0.8,0.1,1,0.7l3.7,8.7H27.5z M43.7,28.2c-3.1-3.1-7.2-4.8-11.5-4.8
						s-8.4,1.7-11.5,4.8c-3.1,3.1-4.8,7.2-4.8,11.5s1.7,8.4,4.8,11.5c3.1,3.1,7.2,4.8,11.5,4.8s8.4-1.7,11.5-4.8
						c3.1-3.1,4.8-7.2,4.8-11.5S46.8,31.3,43.7,28.2L43.7,28.2z"/>
				</g>
				<g id="text" transform="translate(26.615132, 6.742500)">
					<path id="Fill-2" class="st0" d="M63.4,38.8h-0.1c-0.3,0-0.5-0.2-0.5-0.5V28.2h-3.4c-0.3,0-0.5-0.2-0.5-0.5s0.2-0.5,0.5-0.5h8
						c0.3,0,0.5,0.2,0.5,0.5s-0.2,0.5-0.5,0.5H64v10.1C64,38.6,63.7,38.8,63.4,38.8"/>
					<path id="Fill-4" class="st0" d="M70.2,27.2L70.2,27.2c0.3,0,0.6,0.3,0.6,0.6v4.5h6.3v-4.5c0-0.3,0.3-0.6,0.6-0.6
						s0.6,0.3,0.6,0.6v10.5c0,0.3-0.3,0.6-0.6,0.6s-0.6-0.3-0.6-0.6v-4.9h-6.3v4.9c0,0.3-0.3,0.6-0.6,0.6c-0.3,0-0.6-0.3-0.6-0.6
						V27.8C69.6,27.4,69.9,27.2,70.2,27.2"/>
					<path id="Fill-6" class="st0" d="M82.1,38.8L82.1,38.8c-0.3,0-0.6-0.3-0.6-0.6V27.8c0-0.3,0.3-0.6,0.6-0.6
						c0.3,0,0.6,0.3,0.6,0.6v10.5C82.7,38.5,82.4,38.8,82.1,38.8"/>
					<path id="Fill-8" class="st0" d="M107.3,28.9c-0.2,0.2-0.5,0.2-0.7,0c-0.3-0.3-0.7-0.5-1.1-0.7c-0.6-0.2-1.2-0.4-1.9-0.4
						c-0.7,0-1.4,0.1-2,0.4c-0.6,0.3-1.1,0.6-1.5,1.1c-0.4,0.5-0.7,1-1,1.6c-0.2,0.6-0.3,1.3-0.3,1.9c0,0.7,0.1,1.3,0.3,1.9
						c0.2,0.6,0.5,1.1,1,1.6c0.4,0.5,0.9,0.8,1.5,1.1c0.6,0.3,1.3,0.4,2,0.4c0.7,0,1.3-0.1,1.8-0.2c0.4-0.1,0.7-0.2,1-0.4
						c0.2-0.1,0.3-0.3,0.3-0.5v-3.2h-2.3c-0.3,0-0.5-0.2-0.5-0.5c0-0.3,0.2-0.5,0.5-0.5h3c0.3,0,0.5,0.2,0.5,0.5v4.4
						c0,0.2-0.1,0.4-0.3,0.5c-0.6,0.3-1.1,0.5-1.8,0.7c-0.7,0.2-1.5,0.3-2.3,0.3c-0.9,0-1.7-0.2-2.4-0.5c-0.7-0.3-1.4-0.7-1.9-1.3
						c-0.5-0.5-1-1.2-1.3-1.9c-0.3-0.7-0.5-1.6-0.5-2.4c0-0.9,0.2-1.7,0.5-2.4c0.3-0.7,0.7-1.4,1.3-1.9c0.5-0.5,1.2-1,1.9-1.3
						c0.7-0.3,1.5-0.5,2.4-0.5c0.9,0,1.7,0.1,2.4,0.4c0.5,0.2,0.9,0.5,1.3,0.8C107.6,28.3,107.6,28.6,107.3,28.9L107.3,28.9z"/>
					<path id="Fill-11" class="st0" d="M94,37.1L94,37.1l0-9.3c0-0.3,0.3-0.6,0.6-0.6h0c0.3,0,0.6,0.3,0.6,0.6v10.5
						c0,0.3-0.3,0.6-0.6,0.6h-0.4c-0.3,0-0.6-0.2-0.8-0.4L87,28.8h0v9.4c0,0.3-0.3,0.6-0.6,0.6c-0.3,0-0.6-0.3-0.6-0.6V27.8
						c0-0.3,0.3-0.6,0.6-0.6h0.4c0.3,0,0.6,0.2,0.8,0.4L94,37.1z"/>
					<path id="Fill-13" class="st0" d="M116.7,28.7c-0.2,0.2-0.6,0.2-0.8,0c-0.2-0.2-0.4-0.3-0.6-0.5c-0.4-0.2-0.9-0.3-1.4-0.3
						c-0.3,0-0.6,0-0.9,0.1s-0.6,0.2-0.8,0.4c-0.2,0.2-0.4,0.4-0.6,0.7c-0.1,0.3-0.2,0.6-0.2,1c0,0.4,0.1,0.7,0.2,0.9
						c0.1,0.2,0.3,0.4,0.6,0.6c0.2,0.2,0.5,0.3,0.8,0.4c0.3,0.1,0.6,0.2,0.9,0.3c0.4,0.1,0.8,0.3,1.2,0.4c0.4,0.2,0.8,0.4,1.1,0.6
						c0.3,0.2,0.6,0.6,0.8,0.9c0.2,0.4,0.3,0.9,0.3,1.4c0,0.6-0.1,1.1-0.3,1.5c-0.2,0.4-0.5,0.8-0.9,1c-0.4,0.3-0.8,0.5-1.2,0.6
						c-0.5,0.1-0.9,0.2-1.4,0.2c-0.4,0-0.7,0-1.1-0.1c-0.4-0.1-0.7-0.2-1-0.3c-0.3-0.1-0.6-0.3-0.9-0.5c-0.1-0.1-0.2-0.2-0.3-0.2
						c-0.3-0.3-0.2-0.7,0.1-0.9l0,0c0.2-0.2,0.6-0.1,0.8,0.1c0.2,0.2,0.5,0.4,0.7,0.6c0.5,0.3,1,0.4,1.6,0.4c0.3,0,0.6,0,0.9-0.1
						c0.3-0.1,0.6-0.2,0.8-0.4c0.2-0.2,0.4-0.4,0.6-0.7c0.2-0.3,0.2-0.6,0.2-1c0-0.4-0.1-0.7-0.2-1c-0.2-0.3-0.4-0.5-0.6-0.7
						c-0.3-0.2-0.6-0.3-0.9-0.5c-0.3-0.1-0.7-0.2-1.1-0.4c-0.4-0.1-0.8-0.3-1.1-0.4c-0.4-0.2-0.7-0.4-1-0.6
						c-0.3-0.2-0.5-0.6-0.7-0.9c-0.2-0.4-0.3-0.8-0.3-1.3c0-0.6,0.1-1,0.3-1.4c0.2-0.4,0.5-0.7,0.9-1c0.4-0.3,0.8-0.5,1.2-0.6
						c0.4-0.1,0.9-0.2,1.3-0.2c0.8,0,1.5,0.1,2,0.4c0.3,0.1,0.5,0.3,0.8,0.5C117,28,117,28.5,116.7,28.7"/>
					<path id="Fill-16" class="st0" d="M51.5,32v-2.9h1.9c1.2,0,2,1.4,1,2.6c-0.2,0.2-0.4,0.3-0.7,0.3H51.5L51.5,32z M55.4,33.9
						c1.8-0.8,2.8-3,1.6-5.3c-0.5-0.8-1.7-1.5-2.6-1.5h-5.6v11.6h2.7v-4.6h1l2.1,3.9c0.2,0.5,0.7,0.7,1.2,0.7h2.3L55.4,33.9
						L55.4,33.9z"/>
					<path id="Combined-Shape" class="st0" d="M33.6,36.4l-0.9,2.4h-2.8l4.3-10.4c0.3-0.7,1-1.2,1.8-1.2c0.8,0,1.5,0.5,1.8,1.2
						l4.3,10.4h-2.7l-1-2.4H33.6z M34.5,34.2h3.1l-1.6-4L34.5,34.2z"/>
					<polygon class="st0" points="43.4,38.8 46.1,38.8 46.1,27.2 43.4,27.2 					"/>
				</g>
			</g>
		</g>
	</g>
</g>
</svg>
