<?xml version="1.0" encoding="iso-8859-1"?>
<!-- Generator: Adobe Illustrator 23.0.2, SVG Export Plug-In . SVG Version: 6.00 Build 0)  -->
<svg version="1.2" baseProfile="tiny" id="Layer_1" xmlns="http://www.w3.org/2000/svg" xmlns:xlink="http://www.w3.org/1999/xlink"
	 x="0px" y="0px" viewBox="0 0 160 80" xml:space="preserve">
<image width="400" height="400" xlink:href="00 trash/00 PNG/9zYFBext_400x400.jpg"  transform="matrix(1 0 0 1 -550.371 -147.9601)">
</image>
<path fill="#16E19F" d="M-370.5-14.2L-391-1.8c-2.1,1.2-4.7-0.2-4.7-2.7v-64.4c0-3.4,3.8-5.5,6.6-3.6l22.8,14.5c1.2,0.8,2,2.2,2,3.6
	v29.2C-364.3-20.7-366.6-16.5-370.5-14.2z"/>
<path fill="#FA510F" d="M-357.9-25l0.1-24c0-2.4,2.7-3.9,4.7-2.6l55,33.5c2.9,1.8,2.7,6.1-0.3,7.6l-24.2,11.9
	c-1.3,0.7-2.9,0.6-4.2-0.2L-351.7-14C-355.6-16.3-357.9-20.5-357.9-25z"/>
<path fill="#753CB5" d="M-356.5-8.1L-335,2.4c2.2,1.1,2.3,4.1,0.3,5.4l-54.2,34.9c-2.9,1.8-6.6-0.2-6.7-3.6l-0.1-27
	c0-1.5,0.7-2.9,2-3.7l24.5-15.8C-365.4-9.8-360.6-10.1-356.5-8.1z"/>
<g>
	<path d="M-466.2,91.5c0,1.4-0.3,2.9-1,4.6c-0.6,1.6-1.8,3.1-3.6,4.3c1.1,0.5,2,1.1,2.8,1.9c0.8,0.7,1.4,1.5,1.9,2.4
		c0.5,0.8,0.9,1.7,1.1,2.6c0.2,0.9,0.4,1.8,0.4,2.7c0,1.6-0.2,3.2-0.7,4.7s-1.3,2.9-2.4,4.2c-1.1,1.2-2.6,2.2-4.5,3
		c-1.9,0.8-4.2,1.1-7,1.1h-17.6V79.6h17.4c1.9,0,3.6,0.3,5.2,1c1.6,0.7,3,1.5,4.2,2.6c1.2,1.1,2.1,2.4,2.8,3.8
		C-466.5,88.5-466.2,90-466.2,91.5z M-488.2,96.6h7.8c1.5,0,2.8-0.4,3.7-1.1c0.9-0.7,1.4-1.7,1.4-2.9c0-1.2-0.5-2.2-1.4-3.1
		c-0.9-0.8-2.2-1.3-3.7-1.3h-7.8V96.6z M-480.3,114.4c2.4,0,4.1-0.4,5.1-1.3c1-0.9,1.6-1.9,1.6-3.1c0-0.6-0.1-1.2-0.3-1.8
		c-0.2-0.6-0.6-1.1-1.1-1.5c-0.5-0.4-1.2-0.8-2-1.1c-0.9-0.3-1.9-0.4-3.2-0.4h-7.9v9.2H-480.3z"/>
	<path d="M-427.1,123.5c-2.8,0-5.5-0.5-8.1-1.5c-2.6-1-5-2.5-7.1-4.4c-2.1-1.9-3.8-4.2-5-7c-1.3-2.7-1.9-5.8-1.9-9.1
		c0-2.9,0.6-5.7,1.7-8.4c1.1-2.7,2.7-5.1,4.6-7.1c2-2,4.3-3.7,7-4.9c2.7-1.2,5.7-1.8,8.8-1.8c2.9,0,5.6,0.5,8.3,1.6
		c2.7,1.1,5,2.6,7.1,4.6s3.7,4.3,4.9,7c1.2,2.7,1.9,5.7,1.9,8.9c0,2.9-0.5,5.6-1.6,8.3c-1.1,2.7-2.6,5-4.6,7.1c-2,2-4.3,3.7-7,4.9
		C-420.9,122.8-423.9,123.5-427.1,123.5z M-427.1,87.8c-1.9,0-3.6,0.4-5.2,1.1c-1.6,0.7-3.1,1.7-4.3,2.9c-1.2,1.2-2.2,2.7-2.9,4.3
		c-0.7,1.7-1.1,3.4-1.1,5.3c0,1.9,0.4,3.6,1.1,5.2c0.7,1.6,1.7,3.1,2.9,4.3c1.2,1.2,2.6,2.2,4.3,2.9c1.6,0.7,3.4,1.1,5.2,1.1
		s3.6-0.4,5.2-1.1c1.6-0.7,3.1-1.7,4.3-2.9c1.2-1.2,2.2-2.6,2.9-4.3c0.7-1.6,1.1-3.4,1.1-5.2c0-1.9-0.4-3.6-1.1-5.3
		c-0.7-1.7-1.7-3.1-2.9-4.3c-1.2-1.2-2.6-2.2-4.3-2.9C-423.5,88.2-425.3,87.8-427.1,87.8z"/>
	<polygon points="-349.6,79.2 -362,104.5 -374.4,79.2 -386.2,79.2 -386.2,123 -377.6,123 -377.6,95 -366.1,119.8 -358,119.8 
		-346.4,95 -346.4,123 -337.9,123 -337.9,79.2 	"/>
	<path d="M-301.7,123.5l-19.5-43.8h9.4l11.8,26.5c1.9-4.4,3.9-8.9,5.9-13.3c2-4.4,3.9-8.9,5.9-13.2h9.4l-19.3,43.8H-301.7z"/>
	<path d="M-263,123V79.6h8.6V123H-263z"/>
	<path d="M-216.3,79.2l19.5,43.8h-9.5l-3.5-7.9h-16.6c-0.5,1.2-1.1,2.6-1.8,4c-0.6,1.4-1.2,2.7-1.7,3.9h-9.4l19.3-43.8H-216.3z
		 M-213.6,106.5l-4.5-10l-4.5,10H-213.6z"/>
</g>
<text transform="matrix(1 0 0 1 -502.9064 -178.4936)" font-family="'Porter-BoldDEMO'" font-size="62px">B</text>
<text transform="matrix(1 0 0 1 -452.3766 -178.4936)" font-family="'Porter-BoldDEMO'" font-size="62px">O</text>
<text transform="matrix(1 0 0 1 -392.4846 -178.4936)" font-family="'Porter-BoldDEMO'" font-size="62px">M</text>
<text transform="matrix(1 0 0 1 -322.0524 -178.4936)" font-family="'Porter-BoldDEMO'" font-size="62px">V</text>
<text transform="matrix(1 0 0 1 -268.8566 -178.4936)" font-family="'Porter-BoldDEMO'" font-size="62px">I</text>
<text transform="matrix(1 0 0 1 -240.027 -178.4936)" font-family="'Porter-BoldDEMO'" font-size="62px">A</text>
<path fill="#16E19F" d="M75.3,27.9l-5.2,3.2c-0.5,0.3-1.2-0.1-1.2-0.7V14c0-0.9,1-1.4,1.7-0.9l5.8,3.7c0.3,0.2,0.5,0.6,0.5,0.9v7.4
	C76.9,26.2,76.3,27.3,75.3,27.9z"/>
<path fill="#FA510F" d="M78.5,25.1l0-6.1c0-0.6,0.7-1,1.2-0.7l14,8.5c0.7,0.5,0.7,1.5-0.1,1.9l-6.2,3c-0.3,0.2-0.7,0.1-1.1,0
	L80.1,28C79.1,27.4,78.5,26.3,78.5,25.1z"/>
<path fill="#753CB5" d="M78.9,29.4l5.5,2.7c0.6,0.3,0.6,1,0.1,1.4l-13.8,8.9c-0.7,0.5-1.7-0.1-1.7-0.9l0-6.9c0-0.4,0.2-0.7,0.5-0.9
	l6.2-4C76.6,29,77.8,28.9,78.9,29.4z"/>
<g>
	<path d="M50.9,54.8c0,0.4-0.1,0.7-0.2,1.2c-0.2,0.4-0.5,0.8-0.9,1.1c0.3,0.1,0.5,0.3,0.7,0.5c0.2,0.2,0.4,0.4,0.5,0.6
		c0.1,0.2,0.2,0.4,0.3,0.7c0.1,0.2,0.1,0.5,0.1,0.7c0,0.4-0.1,0.8-0.2,1.2c-0.1,0.4-0.3,0.8-0.6,1.1c-0.3,0.3-0.7,0.6-1.2,0.8
		c-0.5,0.2-1.1,0.3-1.8,0.3h-4.5V51.8h4.4c0.5,0,0.9,0.1,1.3,0.3c0.4,0.2,0.8,0.4,1.1,0.7c0.3,0.3,0.5,0.6,0.7,1
		C50.8,54.1,50.9,54.4,50.9,54.8z M45.3,56.1h2c0.4,0,0.7-0.1,0.9-0.3c0.2-0.2,0.4-0.4,0.4-0.7c0-0.3-0.1-0.6-0.4-0.8
		C48,54.1,47.7,54,47.3,54h-2V56.1z M47.3,60.7c0.6,0,1-0.1,1.3-0.3c0.3-0.2,0.4-0.5,0.4-0.8c0-0.2,0-0.3-0.1-0.5
		c-0.1-0.1-0.1-0.3-0.3-0.4c-0.1-0.1-0.3-0.2-0.5-0.3c-0.2-0.1-0.5-0.1-0.8-0.1h-2v2.4H47.3z"/>
	<path d="M60.9,63c-0.7,0-1.4-0.1-2.1-0.4c-0.7-0.3-1.3-0.6-1.8-1.1c-0.5-0.5-1-1.1-1.3-1.8c-0.3-0.7-0.5-1.5-0.5-2.3
		c0-0.7,0.1-1.4,0.4-2.1c0.3-0.7,0.7-1.3,1.2-1.8c0.5-0.5,1.1-0.9,1.8-1.2c0.7-0.3,1.4-0.5,2.3-0.5c0.7,0,1.4,0.1,2.1,0.4
		c0.7,0.3,1.3,0.7,1.8,1.2s0.9,1.1,1.3,1.8c0.3,0.7,0.5,1.5,0.5,2.3c0,0.7-0.1,1.4-0.4,2.1c-0.3,0.7-0.7,1.3-1.2,1.8
		c-0.5,0.5-1.1,0.9-1.8,1.2C62.5,62.8,61.7,63,60.9,63z M60.9,53.9c-0.5,0-0.9,0.1-1.3,0.3c-0.4,0.2-0.8,0.4-1.1,0.7
		c-0.3,0.3-0.6,0.7-0.7,1.1c-0.2,0.4-0.3,0.9-0.3,1.3c0,0.5,0.1,0.9,0.3,1.3c0.2,0.4,0.4,0.8,0.7,1.1c0.3,0.3,0.7,0.6,1.1,0.7
		c0.4,0.2,0.9,0.3,1.3,0.3c0.5,0,0.9-0.1,1.3-0.3c0.4-0.2,0.8-0.4,1.1-0.7c0.3-0.3,0.6-0.7,0.7-1.1c0.2-0.4,0.3-0.9,0.3-1.3
		c0-0.5-0.1-0.9-0.3-1.3c-0.2-0.4-0.4-0.8-0.7-1.1c-0.3-0.3-0.7-0.6-1.1-0.7C61.8,54,61.3,53.9,60.9,53.9z"/>
	<polygon points="80.6,51.7 77.5,58.1 74.3,51.7 71.3,51.7 71.3,62.9 73.5,62.9 73.5,55.7 76.4,62 78.5,62 81.4,55.7 81.4,62.9 
		83.6,62.9 83.6,51.7 	"/>
	<path d="M96.3,51.8h2.4L94.7,63h-2.9l-4-11.2h2.4l3,8.1L96.3,51.8z"/>
	<path d="M102.7,62.9V51.8h2.2v11.1H102.7z"/>
	<path d="M114.6,51.7l5,11.2h-2.4l-0.9-2H112c-0.1,0.3-0.3,0.7-0.5,1c-0.2,0.4-0.3,0.7-0.4,1h-2.4l4.9-11.2H114.6z M115.3,58.6
		l-1.1-2.6l-1.1,2.6H115.3z"/>
</g>
</svg>
