<?xml version="1.0" encoding="utf-8"?>
<!-- Generator: Adobe Illustrator 23.0.2, SVG Export Plug-In . SVG Version: 6.00 Build 0)  -->
<svg version="1.1" id="Layer_1" xmlns="http://www.w3.org/2000/svg" xmlns:xlink="http://www.w3.org/1999/xlink" x="0px" y="0px"
	 viewBox="0 0 160 80" style="enable-background:new 0 0 160 80;" xml:space="preserve">
<g>
	<path d="M5,55.4c0-10.1,0-20.1,0-30.2c0-0.2,0-0.4,0-0.6c0.2,0,0.3,0,0.5,0c10,0,19.9,0,29.9,0c0.4,0,0.5,0.1,0.5,0.6
		c0,9.9,0,19.8,0,29.8c0,0.2,0,0.3,0,0.5C25.6,55.4,15.3,55.4,5,55.4z M14.6,33.8c-3.1,3.4-3,9.1,0,12.3c0,0,0.1,0,0.1-0.1
		c1-1,2-2,3-3c0.2-0.2,0.1-0.3,0-0.5c-0.9-1.5-1-3-0.3-4.6c0.1-0.3,0.4-0.6,0.4-0.9c-0.1-0.3-0.4-0.5-0.7-0.8
		C16.2,35.5,15.4,34.6,14.6,33.8z M15.7,32.6c0,0.1,0,0.1,0,0.1c1,1,2,2,3,3c0.2,0.2,0.3,0.1,0.5,0c1.7-1,3.4-1,5.1,0
		c0.3,0.2,0.5,0.1,0.7-0.1c0.7-0.7,1.4-1.4,2.1-2.1c0.3-0.3,0.6-0.5,0.9-0.8C25,29.8,19.3,29.5,15.7,32.6z M28,47.3
		c-1.1-1.1-2.1-2.1-3.1-3.1c-0.1-0.1-0.3,0-0.5,0c-1.7,1-3.4,1-5.1,0c-0.3-0.2-0.4-0.1-0.6,0.1c-0.9,0.9-1.8,1.8-2.7,2.7
		c-0.1,0.1-0.2,0.2-0.3,0.3C19.3,50.5,24.9,50.2,28,47.3z M21.9,43.3c1.8,0,3.4-1.5,3.4-3.4c0-1.8-1.5-3.3-3.4-3.3
		c-1.8,0-3.3,1.5-3.3,3.3C18.5,41.8,20.1,43.3,21.9,43.3z"/>
	<path d="M117.4,40c0-2.2,0-4.4,0-6.6c0-0.5,0-0.5,0.6-0.5c2,0,4,0,6,0c1.8,0.1,3.4,0.6,4.8,1.8c1.4,1.2,2,2.7,2.2,4.5
		c0.1,1.9-0.3,3.6-1.5,5.1c-1.2,1.5-2.8,2.3-4.7,2.5c-1.4,0.2-2.9,0.1-4.3,0.2c-0.9,0-1.8,0-2.6,0c-0.4,0-0.4-0.1-0.4-0.5
		C117.4,44.4,117.4,42.2,117.4,40z M121.3,39.9c0,1.1,0,2.1,0,3.2c0,0.2,0,0.4,0.3,0.4c0.7,0,1.4,0,2.1,0c1.8-0.2,3-1.5,3.1-3.4
		c0.1-1.7-0.7-3.1-2.6-3.5c-0.8-0.2-1.6-0.1-2.4-0.2c-0.4,0-0.5,0.1-0.5,0.5C121.3,37.9,121.3,38.9,121.3,39.9z"/>
	<path d="M107.4,47.4c-3.1-0.1-5.5-1.3-6.9-4c-2-3.8-0.4-8.8,4.1-10.3c3.5-1.2,7.6,0,9.4,3.3c2.3,4.2,0.2,9.7-5.1,10.8
		C108.4,47.3,107.9,47.3,107.4,47.4z M103.7,40.1c0,0.2,0.1,0.5,0.1,0.8c0.5,2.5,3.6,3.7,5.6,2.1c1.2-1,1.8-2.8,1.2-4.3
		c-0.5-1.5-1.5-2.4-3.1-2.6C105.5,35.9,103.7,37.7,103.7,40.1z"/>
	<path d="M67.1,32.9c1.3,0,2.5,0,3.8,0c0.1,0,0.2,0.3,0.2,0.4c0,2.5,0,5,0,7.5c0,0.6,0,1.1-0.1,1.7c-0.4,2.6-2.2,4.4-4.8,4.7
		c-1.7,0.2-3.3,0.2-4.9-0.4c-1.9-0.7-2.9-2.2-3.3-4.1c-0.1-0.6-0.2-1.3-0.2-1.9c0-2.5,0-5,0-7.5c0-0.3,0.1-0.5,0.4-0.5
		c1,0,2,0,3.1,0c0.4,0,0.5,0.1,0.5,0.5c0,2.4,0,4.8,0,7.2c0,0.4,0,0.8,0.1,1.1c0.3,1.6,1.5,2.4,3.1,2.1c1.2-0.2,1.9-1.1,2.1-2.4
		c0-0.3,0-0.6,0-0.9c0-2.3,0-4.7,0-7C67.1,33.2,67.1,33.1,67.1,32.9z"/>
	<path d="M155,47c-0.2,0-0.3,0-0.4,0c-1.2,0-2.3,0-3.5,0c-0.3,0-0.4-0.1-0.5-0.3c-0.2-0.7-0.5-1.3-0.8-1.9c-0.1-0.2-0.2-0.3-0.4-0.3
		c-1.6,0-3.2,0-4.8,0c-0.3,0-0.4,0.1-0.5,0.3c-0.2,0.7-0.5,1.3-0.8,1.9c-0.1,0.1-0.2,0.3-0.3,0.3c-1.3,0-2.5,0-3.8,0
		c0,0,0,0-0.1-0.1c0.2-0.6,0.5-1.2,0.8-1.8c1.7-4,3.4-8,5.1-12c0.1-0.3,0.3-0.4,0.6-0.4c1,0,2,0,2.9,0c0.4,0,0.5,0.1,0.7,0.4
		c1.9,4.4,3.7,8.9,5.6,13.3C154.8,46.6,154.9,46.8,155,47z M147.1,37.6c0,0-0.1,0-0.1,0c-0.5,1.2-1,2.5-1.5,3.8c1.1,0,2,0,3.1,0
		C148,40.1,147.6,38.8,147.1,37.6z"/>
	<path d="M82.6,37.3c-1-0.7-2.1-1.2-3.3-1.4c-0.5,0-0.9,0-1.4,0.1c-0.4,0.1-0.6,0.3-0.6,0.7c0,0.4,0.1,0.7,0.5,0.8
		c0.7,0.3,1.5,0.5,2.2,0.7c0.9,0.3,1.9,0.6,2.8,1c3.1,1.4,2.6,5.7,0.3,7.2c-0.9,0.5-1.8,0.8-2.8,0.9c-2.6,0.2-5.1-0.3-7.3-2
		c-0.1-0.1-0.2-0.1-0.3-0.2c0,0-0.1-0.1-0.1-0.2c0.7-0.9,1.4-1.7,2.2-2.6c0.1,0.1,0.2,0.1,0.3,0.2c1.2,0.9,2.5,1.4,4,1.5
		c0.4,0,0.8-0.1,1.1-0.1c0.4-0.1,0.6-0.4,0.7-0.8c0-0.4-0.1-0.7-0.5-0.8c-0.9-0.3-1.7-0.5-2.6-0.8c-0.8-0.3-1.5-0.5-2.3-0.8
		c-1.4-0.6-2.2-1.7-2.3-3.2c-0.1-1.8,0.6-3.3,2.2-4.2c1.3-0.7,2.7-0.8,4.1-0.7c1.7,0.1,3.2,0.6,4.6,1.6c0.3,0.2,0.3,0.3,0.1,0.6
		C83.8,35.6,83.2,36.4,82.6,37.3z"/>
	<path d="M53,37.7c-0.7-0.5-1.3-1-1.9-1.3c-2-0.8-4,0.3-4.5,2.4c-0.3,1.1-0.2,2.1,0.3,3.1c1.1,2.1,3.7,2.4,5.5,0.8
		c0,0,0.1-0.1,0.1-0.1C53,42,53,42,53.7,42.5c0.7,0.5,1.5,1,2.2,1.6c-0.3,0.3-0.5,0.6-0.7,0.9c-1.4,1.5-3.1,2.2-5.1,2.3
		c-2,0.1-3.8-0.4-5.3-1.8c-1.5-1.3-2.3-3-2.4-4.9c-0.1-1.9,0.3-3.6,1.4-5.2c1.4-1.9,3.4-2.8,5.7-2.9c1.4,0,2.7,0.2,4,0.8
		c0.9,0.5,1.6,1.1,2.2,1.9c0.1,0.1,0.1,0.3,0,0.4C54.7,36.4,53.8,37.1,53,37.7z"/>
	<path d="M98.6,32.9c0,1.1,0,2.1,0,3.1c0,0.3-0.2,0.3-0.4,0.3c-1.1,0-2.2,0-3.3,0c-0.6,0-0.6,0-0.6,0.6c0,3.2,0,6.4,0,9.6
		c0,0.2,0,0.3,0,0.5c-0.8,0-1.5,0-2.3,0c-0.4,0-0.8,0-1.2,0c-0.4,0-0.5-0.1-0.5-0.5c0-3.2,0-6.5,0-9.7c0-0.6,0-0.6-0.6-0.6
		c-1.1,0-2.2,0-3.3,0c-0.3,0-0.4-0.1-0.4-0.4c0-0.9,0-1.8,0-2.6c0-0.2,0-0.4,0.3-0.4c4,0,8,0,12,0C98.5,32.9,98.5,32.9,98.6,32.9z"
		/>
	<path d="M133.3,39.9c0-2.2,0-4.4,0-6.6c0-0.4,0.1-0.5,0.5-0.5c1,0,2,0,3.1,0c0.3,0,0.4,0.1,0.4,0.4c0,4.5,0,8.9,0,13.4
		c0,0.3-0.1,0.4-0.4,0.4c-1.1,0-2.1,0-3.2,0c-0.3,0-0.4-0.1-0.4-0.4C133.3,44.4,133.3,42.2,133.3,39.9z"/>
</g>
</svg>
