<?xml version="1.0" encoding="utf-8"?>
<!-- Generator: Adobe Illustrator 23.0.2, SVG Export Plug-In . SVG Version: 6.00 Build 0)  -->
<svg version="1.1" id="Layer_1" xmlns="http://www.w3.org/2000/svg" xmlns:xlink="http://www.w3.org/1999/xlink" x="0px" y="0px"
	 viewBox="0 0 160 80" style="enable-background:new 0 0 160 80;" xml:space="preserve">
<g>
	<path d="M19.8,38.9c0-4.3,0.4-8.5,1.6-12.6c2.8-9.5,9.1-14.8,18.8-16.2c4.8-0.7,9.6-0.6,14.3,0.5c8.1,1.9,13.5,6.7,16,14.6
		c2.8,9.1,2.8,18.3,0,27.4c-2.5,8-8,13-16.2,14.8c-5.6,1.2-11.3,1.2-16.9-0.1c-8.3-2-13.6-7.3-16-15.5C20.3,48,19.8,43.8,19.8,38.9z
		"/>
</g>
<g>
	<path d="M80.9,53.4c0.9,0,1.6,0.1,2.3,0.3c0.7,0.2,1.3,0.5,1.8,1c0.5,0.4,0.9,1,1.2,1.6c0.3,0.6,0.4,1.4,0.4,2.3
		c0,1-0.2,1.8-0.5,2.5c-0.3,0.7-0.8,1.3-1.3,1.8c-0.6,0.5-1.2,0.8-2,1c-0.7,0.2-1.5,0.3-2.4,0.3H77V53.4H80.9z M79.6,62.2h0.7
		c0.5,0,0.9-0.1,1.3-0.2c0.4-0.1,0.8-0.3,1.1-0.6c0.3-0.3,0.6-0.7,0.8-1.1c0.2-0.5,0.3-1.1,0.3-1.8c0-1-0.3-1.8-0.9-2.4
		c-0.6-0.5-1.4-0.8-2.4-0.8h-0.9V62.2z"/>
	<path d="M88.8,55.3c-0.4,0-0.8-0.1-1-0.4c-0.2-0.2-0.3-0.5-0.3-0.9s0.1-0.6,0.4-0.9c0.2-0.2,0.6-0.4,1-0.4c0.4,0,0.8,0.1,1,0.4
		c0.2,0.2,0.4,0.5,0.4,0.9c0,0.4-0.1,0.7-0.3,0.9C89.5,55.2,89.2,55.3,88.8,55.3z M87.5,64.2v-8.3H90v8.3H87.5z"/>
	<path d="M102.4,55.3c-0.4,0-0.8-0.1-1-0.4c-0.2-0.2-0.3-0.5-0.3-0.9s0.1-0.6,0.4-0.9c0.2-0.2,0.6-0.4,1-0.4c0.4,0,0.8,0.1,1,0.4
		c0.2,0.2,0.4,0.5,0.4,0.9c0,0.4-0.1,0.7-0.3,0.9C103.1,55.2,102.8,55.3,102.4,55.3z M101.1,64.2v-8.3h2.5v8.3H101.1z"/>
	<path d="M91.4,58.8c0-0.4,0.1-0.9,0.3-1.2c0.2-0.4,0.4-0.7,0.8-1c0.3-0.3,0.7-0.5,1.2-0.6s0.9-0.2,1.5-0.2c0.2,0,0.4,0,0.7,0.1
		c0.3,0,0.5,0.1,0.7,0.1h3.5v1.6h-0.8l-1-0.2c0.1,0.2,0.2,0.4,0.3,0.7c0.1,0.3,0.1,0.5,0.1,0.8c0,0.4-0.1,0.8-0.2,1.2
		c-0.2,0.4-0.4,0.7-0.7,0.9s-0.7,0.5-1.1,0.6c-0.4,0.1-1,0.2-1.5,0.2c-0.1,0-0.2,0-0.4,0c-0.1,0-0.2,0-0.3-0.1
		c-0.1,0-0.2,0.1-0.2,0.2C94,61.9,94,62,94,62.2c0,0.1,0.1,0.3,0.2,0.4c0.1,0.1,0.3,0.1,0.7,0.1h1.7c0.4,0,0.9,0,1.2,0.1
		c0.4,0.1,0.7,0.2,1,0.4c0.3,0.2,0.5,0.5,0.6,0.8c0.1,0.3,0.2,0.7,0.2,1.2c0,0.4-0.1,0.9-0.3,1.2c-0.2,0.4-0.5,0.7-0.9,1
		c-0.4,0.3-0.9,0.5-1.4,0.6c-0.6,0.2-1.2,0.2-1.9,0.2c-1.3,0-2.3-0.2-3-0.7c-0.7-0.4-1.1-1.1-1.1-1.9c0-0.4,0.1-0.7,0.4-1
		c0.2-0.3,0.6-0.5,1-0.7c-0.1-0.1-0.3-0.2-0.5-0.5c-0.2-0.2-0.3-0.5-0.3-0.8c0-0.4,0.1-0.7,0.4-1c0.2-0.3,0.5-0.5,0.9-0.7
		c-0.1-0.1-0.3-0.2-0.5-0.3c-0.2-0.1-0.3-0.3-0.5-0.5c-0.1-0.2-0.3-0.4-0.4-0.7C91.4,59.4,91.4,59.1,91.4,58.8z M93.7,64.6
		c-0.1,0.1-0.3,0.2-0.4,0.3c-0.1,0.1-0.2,0.3-0.2,0.5c0,0.3,0.1,0.5,0.4,0.7c0.3,0.2,0.8,0.3,1.5,0.3c0.7,0,1.2-0.1,1.5-0.3
		c0.3-0.2,0.5-0.5,0.5-0.8c0-0.3-0.1-0.5-0.3-0.6c-0.2-0.1-0.5-0.2-0.9-0.2H93.7z M96.1,58.7c0-0.4-0.1-0.7-0.3-0.9
		c-0.2-0.2-0.5-0.3-0.8-0.3c-0.3,0-0.6,0.1-0.8,0.3c-0.2,0.2-0.3,0.5-0.3,0.9c0,0.4,0.1,0.7,0.3,0.9c0.2,0.2,0.5,0.3,0.8,0.3
		c0.3,0,0.6-0.1,0.8-0.3C96,59.4,96.1,59.1,96.1,58.7z"/>
	<path d="M110.5,57.8h-2.1v3.5c0,0.4,0.1,0.6,0.2,0.8c0.2,0.1,0.4,0.2,0.7,0.2c0.2,0,0.5,0,0.7-0.1s0.4-0.1,0.5-0.2l0.4,1.7
		c-0.2,0.1-0.5,0.2-0.9,0.3c-0.4,0.1-0.8,0.1-1.3,0.1c-1.1,0-1.8-0.2-2.3-0.6c-0.4-0.4-0.7-1-0.7-1.9v-3.9h-1.3v-1.8h1.3v-2.5h2.5
		v2.5h2.1V57.8z"/>
	<path d="M112.2,56.7c0.5-0.3,1-0.5,1.6-0.7c0.6-0.2,1.2-0.2,1.8-0.2c1,0,1.8,0.2,2.5,0.7c0.6,0.5,0.9,1.3,0.9,2.4v5.4h-1.9
		l-0.2-0.8h-0.1c-0.2,0.3-0.5,0.5-1,0.7c-0.4,0.2-0.9,0.3-1.4,0.3c-0.5,0-0.9-0.1-1.2-0.2c-0.3-0.1-0.6-0.3-0.9-0.6
		c-0.2-0.2-0.4-0.5-0.5-0.8c-0.1-0.3-0.2-0.7-0.2-1c0-0.5,0.1-0.9,0.3-1.2c0.2-0.3,0.5-0.6,0.9-0.8c0.4-0.2,0.8-0.4,1.3-0.5
		c0.5-0.1,1-0.2,1.6-0.2h0.9v-0.4c0-0.3-0.1-0.5-0.3-0.7c-0.2-0.2-0.5-0.2-0.9-0.2c-0.3,0-0.7,0.1-1,0.2c-0.3,0.1-0.7,0.3-1.1,0.5
		L112.2,56.7z M116.5,60.6l-0.6,0c-0.3,0-0.6,0-0.8,0.1s-0.4,0.1-0.5,0.2c-0.1,0.1-0.2,0.2-0.3,0.3c-0.1,0.1-0.1,0.2-0.1,0.4
		c0,0.4,0.1,0.6,0.3,0.7c0.2,0.1,0.5,0.2,0.7,0.2s0.5-0.1,0.7-0.2c0.2-0.2,0.4-0.3,0.5-0.5V60.6z"/>
	<path d="M120.3,64.2V51.9h2.5v12.3H120.3z"/>
	<path d="M125.4,55.3c-0.4,0-0.8-0.1-1-0.4c-0.2-0.2-0.3-0.5-0.3-0.9s0.1-0.6,0.4-0.9c0.2-0.2,0.6-0.4,1-0.4c0.4,0,0.8,0.1,1,0.4
		c0.2,0.2,0.4,0.5,0.4,0.9c0,0.4-0.1,0.7-0.3,0.9C126.1,55.2,125.8,55.3,125.4,55.3z M124.1,64.2v-8.3h2.5v8.3H124.1z"/>
	<path d="M133.1,58.1c-0.3-0.1-0.6-0.3-1-0.4c-0.3-0.1-0.7-0.1-1-0.1c-0.3,0-0.5,0.1-0.7,0.2c-0.2,0.1-0.3,0.2-0.3,0.4
		c0,0.2,0.1,0.4,0.3,0.5c0.2,0.1,0.5,0.3,1.1,0.4l0.5,0.2c0.7,0.2,1.2,0.5,1.6,0.9c0.4,0.4,0.5,0.9,0.5,1.5c0,0.4-0.1,0.8-0.3,1.1
		c-0.2,0.3-0.4,0.6-0.7,0.9c-0.3,0.2-0.7,0.4-1.1,0.6c-0.4,0.1-0.9,0.2-1.5,0.2c-0.6,0-1.1-0.1-1.6-0.2c-0.5-0.1-0.9-0.3-1.3-0.4
		l0.6-1.8c0.3,0.2,0.7,0.3,1,0.4c0.4,0.1,0.7,0.2,1.1,0.2c0.4,0,0.7-0.1,0.9-0.2c0.2-0.1,0.3-0.3,0.3-0.4c0-0.1,0-0.2-0.1-0.3
		s-0.1-0.1-0.2-0.2c-0.1-0.1-0.3-0.1-0.4-0.2c-0.2-0.1-0.4-0.1-0.7-0.2l-0.5-0.2c-0.7-0.2-1.2-0.5-1.5-0.9c-0.3-0.4-0.5-0.9-0.5-1.6
		c0-0.4,0.1-0.7,0.2-1c0.1-0.3,0.4-0.6,0.6-0.8c0.3-0.2,0.6-0.4,1-0.6c0.4-0.1,0.9-0.2,1.4-0.2s1,0,1.5,0.1c0.5,0.1,0.9,0.2,1.2,0.4
		L133.1,58.1z"/>
	<path d="M140.3,57.8h-2.1v3.5c0,0.4,0.1,0.6,0.2,0.8c0.2,0.1,0.4,0.2,0.7,0.2c0.2,0,0.5,0,0.7-0.1c0.2,0,0.4-0.1,0.5-0.2l0.4,1.7
		c-0.2,0.1-0.5,0.2-0.9,0.3c-0.4,0.1-0.8,0.1-1.3,0.1c-1.1,0-1.8-0.2-2.3-0.6c-0.4-0.4-0.7-1-0.7-1.9v-3.9h-1.3v-1.8h1.3v-2.5h2.5
		v2.5h2.1V57.8z"/>
</g>
</svg>
