<?xml version="1.0" encoding="utf-8"?>
<!-- Generator: Adobe Illustrator 23.0.2, SVG Export Plug-In . SVG Version: 6.00 Build 0)  -->
<svg version="1.1" id="Layer_1" xmlns="http://www.w3.org/2000/svg" xmlns:xlink="http://www.w3.org/1999/xlink" x="0px" y="0px"
	 viewBox="0 0 160 80" style="enable-background:new 0 0 160 80;" xml:space="preserve">
<style type="text/css">
	.st0{fill-rule:evenodd;clip-rule:evenodd;fill:#72C238;}
	.st1{fill-rule:evenodd;clip-rule:evenodd;fill:#BF3F8A;}
	.st2{fill-rule:evenodd;clip-rule:evenodd;fill:#FF8000;}
	.st3{fill-rule:evenodd;clip-rule:evenodd;fill:#0DA16D;}
	.st4{fill:#5B5B5B;}
</style>
<title>doslidnyky-colored-logo</title>
<desc>Created with Sketch.</desc>
<g id="Page-1">
	<g transform="translate(-123.000000, -1627.000000)">
		<g id="doslidnyky-colored-logo" transform="translate(123.000000, 1627.000000)">
			<path id="Path" class="st0" d="M83.3,19.8c-1.1,1.5-3.2,1.9-4.7,0.8c-1.5-1.1-1.9-3.1-0.8-4.7c1.1-1.5,3.2-1.9,4.7-0.8
				C84,16.2,84.3,18.3,83.3,19.8z"/>
			<path class="st0" d="M75.5,15.8c-0.9,1.3-2.7,1.6-4.1,0.7c-1.3-0.9-1.6-2.7-0.7-4c0.9-1.3,2.7-1.6,4.1-0.7
				C76.1,12.7,76.5,14.5,75.5,15.8z"/>
			<path class="st0" d="M67.9,14.6c-0.7,1-2.2,1.3-3.2,0.6c-1-0.7-1.3-2.2-0.6-3.2c0.7-1,2.2-1.3,3.2-0.6
				C68.4,12.2,68.6,13.6,67.9,14.6z"/>
			<path class="st1" d="M70,20.7c-0.7,1-2.2,1.3-3.2,0.6c-1-0.7-1.3-2.2-0.6-3.2c0.7-1,2.2-1.3,3.2-0.6S70.7,19.6,70,20.7z"/>
			<path class="st1" d="M63.7,20.9c-0.7,1-2.2,1.3-3.2,0.6c-1-0.7-1.3-2.2-0.6-3.2c0.7-1,2.2-1.3,3.2-0.6S64.5,19.9,63.7,20.9z"/>
			<path class="st0" d="M60.8,15.6c-0.7,0.9-1.9,1.2-2.9,0.5c-0.9-0.6-1.2-1.9-0.5-2.9c0.7-0.9,1.9-1.2,2.9-0.5
				C61.2,13.4,61.5,14.7,60.8,15.6z"/>
			<path class="st1" d="M58.3,22.7c-0.6,0.9-1.9,1.1-2.8,0.5c-0.9-0.6-1.1-1.9-0.5-2.8s1.9-1.1,2.8-0.5
				C58.7,20.5,58.9,21.8,58.3,22.7z"/>
			<path class="st1" d="M75.6,22c-0.6,0.9-1.9,1.1-2.8,0.5s-1.1-1.9-0.5-2.8c0.6-0.9,1.9-1.1,2.8-0.5C76,19.9,76.2,21.1,75.6,22z"/>
			<path class="st2" d="M65.4,26.2c-0.7,1-2.1,1.2-3.1,0.5s-1.2-2.1-0.5-3.1c0.7-1,2.1-1.2,3.1-0.5C65.8,23.8,66.1,25.2,65.4,26.2z"
				/>
			<path class="st2" d="M60,28.2c-0.6,0.9-1.9,1.1-2.8,0.5c-0.9-0.6-1.1-1.9-0.5-2.8c0.6-0.9,1.9-1.1,2.8-0.5
				C60.5,26,60.7,27.2,60,28.2z"/>
			<path class="st2" d="M70.8,26.3c-0.6,0.9-1.9,1.1-2.8,0.5c-0.9-0.6-1.1-1.9-0.5-2.8c0.6-0.9,1.9-1.1,2.8-0.5
				C71.2,24.1,71.4,25.4,70.8,26.3z"/>
			<path class="st0" d="M54.8,18.1c-0.6,0.8-1.6,1-2.4,0.4c-0.8-0.6-1-1.6-0.4-2.4c0.6-0.8,1.6-1,2.4-0.4
				C55.1,16.2,55.3,17.3,54.8,18.1L54.8,18.1z"/>
			<path class="st2" d="M75,28.5c-0.5,0.7-1.5,0.9-2.2,0.4c-0.7-0.5-0.9-1.5-0.4-2.2c0.5-0.7,1.5-0.9,2.2-0.4
				C75.3,26.8,75.5,27.8,75,28.5z"/>
			<path class="st1" d="M79.7,24.8c-0.5,0.7-1.5,0.9-2.2,0.4c-0.7-0.5-0.9-1.5-0.4-2.2c0.5-0.7,1.5-0.9,2.2-0.4
				C80.1,23.2,80.2,24.1,79.7,24.8z"/>
			<path class="st1" d="M83.1,29c-0.5,0.7-1.5,0.9-2.2,0.4c-0.7-0.5-0.9-1.5-0.4-2.2c0.5-0.7,1.5-0.9,2.2-0.4
				C83.4,27.3,83.6,28.3,83.1,29z"/>
			<path class="st0" d="M50,21.4c-0.4,0.6-1.3,0.8-1.9,0.3c-0.6-0.4-0.8-1.3-0.3-1.9c0.4-0.6,1.3-0.8,1.9-0.3
				C50.3,19.9,50.4,20.7,50,21.4z"/>
			<path class="st2" d="M79.9,36.9c-0.4,0.6-1.1,0.7-1.7,0.3s-0.7-1.1-0.3-1.7s1.1-0.7,1.7-0.3C80.1,35.5,80.3,36.3,79.9,36.9z"/>
			<path class="st2" d="M78.1,32.1c-0.4,0.6-1.1,0.7-1.7,0.3c-0.6-0.4-0.7-1.1-0.3-1.7s1.1-0.7,1.7-0.3
				C78.4,30.8,78.5,31.5,78.1,32.1z"/>
			<path class="st3" d="M60.9,64.4C60,65.6,58.3,66,57,65.1c-1.2-0.9-1.6-2.6-0.7-3.8c0.9-1.2,2.6-1.5,3.8-0.7
				C61.4,61.4,61.8,63.2,60.9,64.4z"/>
			<path class="st1" d="M84.8,33.2c-0.4,0.5-1.1,0.7-1.7,0.3c-0.5-0.4-0.7-1.1-0.3-1.7c0.4-0.5,1.1-0.7,1.7-0.3
				C85.1,31.9,85.2,32.7,84.8,33.2z"/>
			<path class="st1" d="M85.5,37.3c-0.3,0.5-1,0.6-1.5,0.3c-0.5-0.3-0.6-1-0.3-1.5c0.3-0.5,1-0.6,1.5-0.3
				C85.7,36.1,85.8,36.8,85.5,37.3z"/>
			<path class="st0" d="M88.4,25c-0.9,1.3-2.6,1.6-3.9,0.7c-1.3-0.9-1.6-2.6-0.7-3.9c0.9-1.3,2.6-1.6,3.9-0.7
				C89,22,89.3,23.7,88.4,25z"/>
			<path class="st0" d="M91.4,31c-0.7,1.1-2.2,1.3-3.2,0.6c-1.1-0.7-1.3-2.2-0.6-3.2c0.7-1.1,2.2-1.3,3.2-0.6
				C91.9,28.5,92.2,29.9,91.4,31z"/>
			<path class="st0" d="M92.5,37.7c-0.6,0.9-1.9,1.1-2.8,0.5c-0.9-0.6-1.1-1.9-0.5-2.8c0.6-0.9,1.9-1.1,2.8-0.5
				C92.9,35.6,93.1,36.8,92.5,37.7z"/>
			<path class="st2" d="M55.2,49.3c0.1,1.2,1.1,2.1,2.3,2c1.2-0.1,2.1-1.1,2-2.3c-0.1-1.2-1.1-2.1-2.3-2
				C56,47.1,55.1,48.1,55.2,49.3z"/>
			<path class="st2" d="M51.3,44.8c0.1,1.1,1,2,2.2,1.9c1.1-0.1,2-1,1.9-2.1c-0.1-1.1-1-2-2.2-1.9C52.1,42.7,51.3,43.7,51.3,44.8z"
				/>
			<path class="st2" d="M50.4,39.6c0.1,1,0.9,1.7,1.9,1.7s1.7-0.9,1.7-1.9s-0.9-1.7-1.9-1.7C51.1,37.8,50.3,38.7,50.4,39.6z"/>
			<path class="st1" d="M54.5,55.9c0.1,1.3,1.2,2.3,2.6,2.2c1.3-0.1,2.3-1.2,2.3-2.6c-0.1-1.3-1.2-2.3-2.6-2.2
				C55.5,53.4,54.5,54.5,54.5,55.9z"/>
			<path class="st0" d="M55.9,63c0.1,1.5,1.4,2.7,2.9,2.6c1.5-0.1,2.7-1.4,2.6-2.9c-0.1-1.5-1.4-2.7-2.9-2.6
				C56.9,60.2,55.8,61.5,55.9,63z"/>
			<path class="st0" d="M49.8,60.1c0.1,1.3,1.2,2.3,2.5,2.2c1.3-0.1,2.3-1.2,2.2-2.5c-0.1-1.3-1.2-2.3-2.5-2.2
				C50.7,57.7,49.7,58.8,49.8,60.1z"/>
			<path class="st1" d="M49.7,52.5c0.1,1.2,1.1,2.1,2.3,2c1.2-0.1,2.1-1.1,2-2.3c-0.1-1.2-1.1-2.1-2.3-2
				C50.5,50.3,49.7,51.3,49.7,52.5z"/>
			<path class="st1" d="M46.4,48.1c0.1,1.1,1,2,2.2,1.9c1.1-0.1,2-1,1.9-2.1c-0.1-1.1-1-2-2.2-1.9C47.1,46,46.3,47,46.4,48.1z"/>
			<path class="st0" d="M44.7,55.5c0.1,1.1,1.1,2,2.2,1.9c1.1-0.1,2-1.1,1.9-2.2c-0.1-1.1-1.1-2-2.2-1.9
				C45.5,53.4,44.6,54.3,44.7,55.5z"/>
			<path class="st1" d="M45,43.2c0.1,0.9,0.8,1.6,1.7,1.5c0.9-0.1,1.6-0.8,1.5-1.7c-0.1-0.9-0.8-1.6-1.7-1.5S44.9,42.3,45,43.2z"/>
			<path class="st0" d="M41.6,50.1c0.1,0.9,0.8,1.6,1.7,1.5s1.6-0.8,1.5-1.7s-0.8-1.6-1.7-1.5C42.2,48.5,41.5,49.2,41.6,50.1z"/>
			<path class="st0" d="M39.9,44.6c0,0.8,0.7,1.3,1.5,1.3s1.3-0.7,1.3-1.5s-0.7-1.3-1.5-1.3S39.8,43.8,39.9,44.6z"/>
			<path class="st1" d="M45.3,38c0,0.8,0.7,1.3,1.5,1.3c0.8,0,1.3-0.7,1.3-1.5c0-0.8-0.7-1.3-1.5-1.3C45.8,36.6,45.2,37.3,45.3,38z"
				/>
			<path class="st0" d="M39.5,39.3c0,0.8,0.7,1.3,1.5,1.3c0.8,0,1.3-0.7,1.3-1.5c0-0.8-0.7-1.3-1.5-1.3C40,37.9,39.5,38.5,39.5,39.3
				z"/>
			<path class="st0" d="M40.4,34.1c0,0.6,0.6,1.1,1.2,1.1c0.6,0,1.1-0.6,1.1-1.2c0-0.6-0.6-1.1-1.2-1.1C40.9,33,40.4,33.5,40.4,34.1
				z"/>
			<path class="st2" d="M55.8,31.7c-0.5,0.7-1.5,0.9-2.2,0.4c-0.7-0.5-0.9-1.5-0.4-2.2c0.5-0.7,1.5-0.9,2.2-0.4
				C56.1,30,56.3,31,55.8,31.7z"/>
			<path class="st2" d="M53.5,35.4c-0.4,0.6-1.1,0.7-1.7,0.3c-0.6-0.4-0.7-1.1-0.3-1.7c0.4-0.6,1.1-0.7,1.7-0.3S53.9,34.9,53.5,35.4
				z"/>
			<path class="st1" d="M53.8,25.6c-0.5,0.7-1.5,0.9-2.2,0.4c-0.7-0.5-0.9-1.5-0.4-2.2c0.5-0.7,1.5-0.9,2.2-0.4
				C54.1,23.9,54.3,24.9,53.8,25.6z"/>
			<path class="st1" d="M50.4,29c-0.4,0.5-1.1,0.7-1.7,0.3c-0.5-0.4-0.7-1.1-0.3-1.7c0.4-0.5,1.1-0.7,1.7-0.3
				C50.6,27.7,50.8,28.4,50.4,29z"/>
			<path class="st1" d="M48.6,33.3c-0.4,0.5-1.1,0.7-1.7,0.3c-0.5-0.4-0.7-1.1-0.3-1.7c0.4-0.5,1.1-0.7,1.7-0.3
				C48.8,32,48.9,32.7,48.6,33.3z"/>
			<path class="st0" d="M42,29.1c0,0.6,0.6,1.1,1.2,1.1c0.6,0,1.1-0.6,1.1-1.2c0-0.6-0.6-1.1-1.2-1.1C42.4,28,41.9,28.5,42,29.1z"/>
			<path class="st0" d="M44.4,24.7c0,0.6,0.6,1.1,1.2,1.1c0.6,0,1.1-0.6,1.1-1.2c0-0.6-0.6-1.1-1.2-1.1
				C44.8,23.5,44.3,24.1,44.4,24.7z"/>
			<path id="Shape" class="st4" d="M69.3,46.5h0.5v-8h-4.6L65.1,44c0,0.8-0.2,2.2-1.1,2.2c-0.2,0-0.6,0-0.8-0.1v0.4
				c0.2,0.1,0.6,0.1,0.8,0.1c1.2,0,1.5-1.5,1.6-2.6l0.2-5h3.6V46.5z M73.7,46.5c1.2,0,2-0.6,2-1.8c0-0.8-0.4-1.7-2.2-1.7h-1.9v-2.3
				h-0.5v5.7H73.7z M73.4,43.5c0.9,0,1.8,0.3,1.8,1.3c0,0.8-0.6,1.4-1.6,1.4h-2.1v-2.7L73.4,43.5L73.4,43.5z M79.1,46.5
				c1.2,0,2.1-0.5,2.1-1.7c0-0.7-0.5-1.3-1.4-1.4v0c0.7-0.1,1.2-0.6,1.2-1.3c0-1.1-1-1.4-2-1.4h-2.5v5.7H79.1L79.1,46.5z M79,41.2
				c0.8,0,1.6,0.3,1.6,1c0,0.9-1.2,1.1-1.9,1.1h-1.7v-2.1L79,41.2L79,41.2z M78.7,43.7c0.9,0,2,0.2,2,1.2c0,0.8-0.8,1.3-1.8,1.3
				h-1.9v-2.4H78.7L78.7,43.7z M82.8,38.5h-0.4v1.1h0.4V38.5z M82.8,40.8h-0.4v5.7h0.4V40.8z M86.6,46.5c1.2,0,2.1-0.5,2.1-1.7
				c0-0.7-0.5-1.3-1.4-1.4v0c0.7-0.1,1.2-0.6,1.2-1.3c0-1.1-1-1.4-2-1.4h-2.5v5.7H86.6L86.6,46.5z M86.5,41.2c0.8,0,1.6,0.3,1.6,1
				c0,0.9-1.2,1.1-1.9,1.1h-1.7v-2.1L86.5,41.2L86.5,41.2z M86.3,43.7c0.9,0,2,0.2,2,1.2c0,0.8-0.8,1.3-1.8,1.3h-1.9v-2.4H86.3
				L86.3,43.7z M94.6,44.5h-0.4c-0.1,1.1-0.9,1.8-2,1.8c-1.3,0-2.2-1.1-2.2-2.7c0-1.6,0.9-2.7,2.2-2.7c1,0,1.8,0.6,1.9,1.5h0.5
				c-0.1-1.2-1-1.9-2.4-1.9c-1.6,0-2.7,1.2-2.7,3.1c0,1.6,0.9,3,2.6,3C93.5,46.7,94.4,45.9,94.6,44.5L94.6,44.5z M98.2,46.5
				c1.2,0,2-0.6,2-1.8c0-0.8-0.4-1.7-2.2-1.7H96v-2.3h-0.5v5.7H98.2z M97.8,43.5c0.9,0,1.8,0.3,1.8,1.3c0,0.8-0.6,1.4-1.6,1.4H96
				v-2.7L97.8,43.5L97.8,43.5z M105.8,46.5l-2.7-3.4l2.5-2.4H105l-3.5,3.3v-3.3h-0.4v5.7h0.4v-1.9l1.3-1.2l2.4,3.1H105.8z
				 M111.3,46.1c-0.1,0-0.2,0-0.3,0c-0.4,0-0.4-0.3-0.4-0.6v-3c0-0.5,0-1-0.3-1.3c-0.4-0.4-1-0.6-1.7-0.6c-1.3,0-2.1,0.7-2.2,1.9
				h0.4c0.1-1,0.7-1.5,1.7-1.5c1.1,0,1.6,0.5,1.6,1.3c0,0.3,0,0.5-0.1,0.6c-0.2,0.2-0.3,0.3-1.8,0.4c-1.1,0.1-2.2,0.5-2.2,1.8
				c0,1,0.7,1.6,1.9,1.6c1.1,0,1.8-0.4,2.2-1.4v0.3c0,0.7,0.2,1,0.7,1c0.2,0,0.3,0,0.5-0.1L111.3,46.1L111.3,46.1z M110.1,43.3v1
				c0,1.2-0.9,2-2.1,2c-0.9,0-1.5-0.5-1.5-1.3c0-0.5,0.2-0.9,0.7-1.1c0.8-0.4,1.7-0.2,2.6-0.5C109.9,43.4,110,43.4,110.1,43.3
				L110.1,43.3z M70.5,53.5h-0.5c-0.2,1.6-1.2,2.8-3,2.8c-1.9,0-3.2-1.5-3.2-3.7s1.3-3.8,3.2-3.8c1.5,0,2.5,0.8,2.8,2.2h0.5
				c-0.2-1.6-1.7-2.6-3.3-2.6c-2.2,0-3.7,1.7-3.7,4.2c0,2.5,1.5,4.1,3.7,4.1C69,56.8,70.4,55.4,70.5,53.5z M75.6,56.6h0.4v-5.7h-0.6
				L72,56h0v-5.2h-0.4v5.7h0.6l3.6-5.2h0V56.6z M82.2,54.6h-0.4c-0.1,1.1-0.9,1.8-2,1.8c-1.3,0-2.2-1.1-2.2-2.7
				c0-1.6,0.9-2.7,2.2-2.7c1,0,1.8,0.6,1.9,1.5h0.5c-0.1-1.2-1-1.9-2.4-1.9c-1.6,0-2.7,1.2-2.7,3.1c0,1.6,0.9,3,2.6,3
				C81.1,56.8,82,55.9,82.2,54.6L82.2,54.6z M85.3,51.2h2.2v-0.4h-4.8v0.4h2.2v5.3h0.4V51.2z M93,54.6h-0.4c-0.2,1.1-0.9,1.8-2,1.8
				c-1.5,0-2.2-1.3-2.2-2.6H93v-0.2c0-1.6-0.8-3-2.5-3c-1.6,0-2.6,1.3-2.6,3.1c0,1.8,1,3,2.6,3C91.9,56.8,92.8,55.9,93,54.6L93,54.6
				z M92.6,53.4h-4.2c0.1-1.2,0.7-2.3,2.1-2.3C91.9,51.1,92.6,52.3,92.6,53.4z M94.4,51.3L94.4,51.3l2.2,5.3h0.5l2.2-5.3h0v5.3h0.4
				v-5.7h-0.7l-2.2,5.2l-2.2-5.2H94v5.7h0.4L94.4,51.3L94.4,51.3z M106.1,56.2c-0.1,0-0.2,0-0.3,0c-0.4,0-0.4-0.3-0.4-0.6v-3
				c0-0.5,0-1-0.3-1.3c-0.4-0.4-1-0.6-1.7-0.6c-1.3,0-2.1,0.7-2.2,1.9h0.4c0.1-1,0.7-1.5,1.7-1.5c1.1,0,1.6,0.5,1.6,1.3
				c0,0.3,0,0.5-0.1,0.6c-0.2,0.2-0.3,0.3-1.8,0.4c-1.1,0.1-2.2,0.5-2.2,1.8c0,1,0.7,1.6,1.9,1.6c1.1,0,1.8-0.4,2.2-1.4v0.3
				c0,0.7,0.2,1,0.7,1c0.2,0,0.3,0,0.5-0.1L106.1,56.2L106.1,56.2z M104.9,53.3v1c0,1.2-0.9,2-2.1,2c-0.9,0-1.5-0.5-1.5-1.3
				c0-0.5,0.2-0.9,0.7-1.1c0.8-0.4,1.7-0.2,2.6-0.5C104.7,53.5,104.8,53.5,104.9,53.3L104.9,53.3z M69.8,68.7h0.5v-2.5h-0.9v-7.6H65
				c0,1.3,0,5.4-1.2,7.6h-0.7v2.5h0.5v-2.1h6.3V68.7z M68.9,59.1v7.1h-4.6c1-1.9,1.1-6,1.2-7.1H68.9L68.9,59.1z M73.5,60.8
				c-1.6,0-2.7,1.2-2.7,3c0,1.8,1,3,2.7,3c1.6,0,2.7-1.2,2.7-3C76.2,62,75.1,60.8,73.5,60.8z M73.5,61.2c1.3,0,2.2,1.1,2.2,2.7
				c0,1.6-0.9,2.6-2.2,2.6c-1.4,0-2.2-1-2.2-2.6C71.3,62.2,72.2,61.1,73.5,61.2L73.5,61.2z M82,64.7h-0.4c-0.1,1.1-0.9,1.8-2,1.8
				c-1.3,0-2.2-1.1-2.2-2.7c0-1.6,0.9-2.7,2.2-2.7c1,0,1.8,0.6,1.9,1.5H82c-0.1-1.2-1-1.9-2.4-1.9c-1.6,0-2.7,1.2-2.7,3.1
				c0,1.6,0.9,3,2.6,3C80.9,66.8,81.8,66,82,64.7L82,64.7z M87.3,66.7h0.4v-5.7h-3.6l-0.1,3.4c0,1.2-0.3,2-0.9,2
				c-0.2,0-0.5,0-0.6-0.1v0.4c0.1,0.1,0.4,0.1,0.6,0.1c0.8,0,1.3-0.7,1.3-2.4l0.1-3.1h2.7L87.3,66.7L87.3,66.7z M89.6,58.7h-0.4v1.1
				h0.4V58.7z M89.6,60.9h-0.4v5.7h0.4V60.9z M95.7,68.5h0.4v-2.2h-0.8v-5.3h-3.6v0.5c0,1.6-0.2,3.7-0.8,4.9h-0.7v2.2h0.4v-1.8h4.9
				L95.7,68.5L95.7,68.5z M95,61.3v5h-3.4c0.5-1,0.8-3.1,0.8-4.5v-0.4L95,61.3L95,61.3z M101.1,66.7h0.4v-5.7h-0.4v2.5h-3.7v-2.5H97
				v5.7h0.4v-2.9h3.7V66.7z M106.9,66.7h0.4v-5.7h-0.6l-3.6,5.2h0v-5.2h-0.4v5.7h0.6l3.6-5.2h0V66.7z M113.4,66.7l-2.7-3.4l2.5-2.4
				h-0.6l-3.5,3.3v-3.3h-0.4v5.7h0.4v-1.9l1.3-1.2l2.4,3.1H113.4z M114.4,58.7h-0.4v1.1h0.4V58.7z M114.4,60.9h-0.4v5.7h0.4V60.9z
				 M118.1,66.7c1.2,0,2.1-0.5,2.1-1.7c0-0.7-0.5-1.3-1.4-1.4v0c0.7-0.1,1.2-0.6,1.2-1.3c0-1.1-1-1.4-2-1.4h-2.5v5.7H118.1
				L118.1,66.7z M118.1,61.3c0.8,0,1.6,0.3,1.6,1c0,0.9-1.2,1.1-1.9,1.1h-1.7v-2.1L118.1,61.3L118.1,61.3z M117.8,63.8
				c0.9,0,2,0.2,2,1.2c0,0.8-0.8,1.3-1.8,1.3h-1.9v-2.4H117.8L117.8,63.8z"/>
		</g>
	</g>
</g>
</svg>
