<?xml version="1.0" encoding="utf-8"?>
<!-- Generator: Adobe Illustrator 23.0.2, SVG Export Plug-In . SVG Version: 6.00 Build 0)  -->
<svg version="1.1" id="Layer_1" xmlns="http://www.w3.org/2000/svg" xmlns:xlink="http://www.w3.org/1999/xlink" x="0px" y="0px"
	 viewBox="0 0 160 80" style="enable-background:new 0 0 160 80;" xml:space="preserve">
<style type="text/css">
	.st0{fill:#25326A;}
	.st1{fill:#D44067;}
</style>
<title>logo-stacked.2c8a1d8e</title>
<desc>Created with Sketch.</desc>
<g id="Page-1">
	<g transform="translate(-79.000000, -464.000000)">
		<g id="logos" transform="translate(70.000000, 148.000000)">
			<g id="logo-stacked.2c8a1d8e" transform="translate(9.000000, 316.000000)">
				<path id="Shape" class="st0" d="M51.9,68.6c-1-0.5-1.8-1.2-2.3-2.1c-0.5-0.9-0.8-2-0.8-3.2v-5.2c0-1.2,0.3-2.2,0.8-3.1
					c0.6-0.9,1.3-1.6,2.3-2.1c1-0.5,2.1-0.7,3.5-0.7s2.5,0.2,3.5,0.7c1,0.5,1.8,1.1,2.3,2c0.6,0.9,0.8,1.9,0.8,3
					c0,0.1-0.1,0.2-0.4,0.3l-3.2,0.2h-0.1c-0.2,0-0.3,0-0.3-0.1V58c0-0.8-0.2-1.4-0.7-1.8c-0.5-0.5-1.1-0.7-1.8-0.7
					c-0.8,0-1.4,0.2-1.8,0.7c-0.5,0.5-0.7,1.1-0.7,1.8v5.5c0,0.7,0.2,1.3,0.7,1.8s1.1,0.7,1.8,0.7c0.8,0,1.4-0.2,1.8-0.7
					c0.5-0.5,0.7-1,0.7-1.8c0-0.1,0-0.2,0.1-0.2c0.1,0,0.2-0.1,0.3,0l3.2,0.2c0.3,0,0.4,0.1,0.4,0.1v0.1c0,1.1-0.3,2.1-0.8,3
					c-0.6,0.9-1.3,1.5-2.3,2c-1,0.5-2.1,0.7-3.5,0.7S52.9,69.1,51.9,68.6L51.9,68.6z M65.3,68.2c-1-0.8-1.7-1.8-2.1-3.1
					c-0.2-0.7-0.3-1.4-0.3-2.2c0-0.8,0.1-1.6,0.3-2.3c0.4-1.3,1.1-2.3,2.1-3c1-0.7,2.3-1.1,3.7-1.1c1.4,0,2.7,0.4,3.7,1.1
					c1,0.7,1.7,1.7,2.1,3c0.2,0.7,0.3,1.5,0.3,2.3c0,0.7-0.1,1.4-0.3,2.1c-0.3,1.4-1,2.4-2.1,3.2c-1,0.8-2.3,1.2-3.8,1.2
					C67.6,69.3,66.3,68.9,65.3,68.2L65.3,68.2z M70.3,65.4c0.3-0.3,0.5-0.7,0.7-1.2c0.1-0.5,0.2-0.9,0.1-1.4c0-0.5-0.1-0.9-0.2-1.4
					c-0.1-0.5-0.4-0.9-0.7-1.2c-0.3-0.3-0.7-0.4-1.2-0.4c-0.5,0-0.9,0.1-1.2,0.4s-0.5,0.7-0.7,1.2c-0.1,0.4-0.2,0.8-0.2,1.4
					c0,0.5,0,1,0.1,1.4c0.1,0.5,0.4,0.9,0.7,1.2c0.3,0.3,0.7,0.4,1.2,0.4C69.5,65.9,69.9,65.7,70.3,65.4L70.3,65.4z M84.7,57
					c0.9,0.4,1.6,0.9,2.1,1.5c0.5,0.6,0.8,1.3,0.8,2.1v8.1c0,0.1,0,0.2-0.1,0.3c-0.1,0.1-0.2,0.1-0.3,0.1h-3.2c-0.1,0-0.2,0-0.3-0.1
					c-0.1-0.1-0.1-0.2-0.1-0.3v-0.5c0-0.1,0-0.1-0.1-0.1c0,0-0.1,0-0.1,0.1c-0.7,0.8-1.7,1.2-3.2,1.2c-1.3,0-2.3-0.3-3.1-0.9
					c-0.8-0.6-1.2-1.5-1.2-2.7c0-1.2,0.4-2.2,1.3-2.9c0.9-0.7,2.1-1,3.8-1h2.3c0.1,0,0.2-0.1,0.2-0.2v-0.4c0-0.4-0.1-0.8-0.4-1
					c-0.3-0.2-0.7-0.4-1.2-0.4c-0.4,0-0.7,0.1-1,0.2c-0.3,0.1-0.5,0.3-0.6,0.5c-0.1,0.1-0.1,0.2-0.2,0.3c-0.1,0.1-0.2,0.1-0.3,0.1
					l-3.3-0.4c-0.3,0-0.4-0.1-0.4-0.3c0.1-0.7,0.4-1.3,0.9-1.9c0.5-0.6,1.2-1,2-1.3s1.8-0.5,2.8-0.5C82.8,56.5,83.8,56.6,84.7,57
					L84.7,57z M82.9,66c0.4-0.3,0.6-0.7,0.6-1.2v-0.5c0-0.1-0.1-0.2-0.2-0.2h-1.4c-0.6,0-1.1,0.1-1.4,0.3c-0.3,0.2-0.5,0.5-0.5,0.9
					c0,0.4,0.1,0.6,0.4,0.8c0.2,0.2,0.6,0.3,1,0.3C82,66.5,82.5,66.3,82.9,66L82.9,66z M91.3,68.3c-1-0.7-1.7-1.6-2.2-2.7
					c-0.3-0.8-0.5-1.7-0.5-2.8c0-1.1,0.2-2,0.5-2.8c0.4-1.1,1.1-2,2.1-2.6c1-0.6,2.2-1,3.5-1c1.4,0,2.6,0.3,3.6,1
					c1,0.7,1.7,1.5,2.1,2.5c0.1,0.3,0.2,0.5,0.2,0.8v0.1c0,0.2-0.1,0.3-0.4,0.4l-3.1,0.5l-0.1,0c-0.2,0-0.3-0.1-0.4-0.3l-0.1-0.3
					c-0.1-0.4-0.3-0.6-0.6-0.9c-0.3-0.2-0.7-0.3-1.2-0.3c-0.9,0-1.4,0.4-1.7,1.1c-0.2,0.5-0.3,1.1-0.3,1.8c0,0.7,0.1,1.3,0.2,1.8
					c0.3,0.8,0.9,1.2,1.7,1.2c0.4,0,0.8-0.1,1.1-0.3c0.3-0.2,0.5-0.5,0.7-0.9l0-0.1c0-0.1,0.1-0.2,0.2-0.3c0.1-0.1,0.2-0.1,0.3-0.1
					l3.2,0.5c0.3,0,0.4,0.2,0.4,0.5c0,0.3-0.1,0.5-0.1,0.6c-0.4,1.1-1.1,2-2.1,2.6c-1,0.6-2.2,0.9-3.6,0.9S92.4,69,91.3,68.3
					L91.3,68.3z M112.2,57.7c0.8,0.8,1.2,1.9,1.2,3.2v7.8c0,0.1,0,0.2-0.1,0.3c-0.1,0.1-0.2,0.1-0.3,0.1h-3.2c-0.1,0-0.2,0-0.3-0.1
					c-0.1-0.1-0.1-0.2-0.1-0.3v-6.9c0-0.6-0.2-1-0.5-1.4c-0.3-0.3-0.7-0.5-1.2-0.5c-0.5,0-0.9,0.2-1.2,0.5c-0.3,0.3-0.5,0.8-0.5,1.4
					v6.9c0,0.1,0,0.2-0.1,0.3c-0.1,0.1-0.2,0.1-0.3,0.1h-3.2c-0.1,0-0.2,0-0.3-0.1c-0.1-0.1-0.1-0.2-0.1-0.3v-16
					c0-0.1,0-0.2,0.1-0.3c0.1-0.1,0.2-0.1,0.3-0.1h3.2c0.1,0,0.2,0,0.3,0.1c0.1,0.1,0.1,0.2,0.1,0.3v5.1c0,0.1,0,0.1,0.1,0.1
					c0,0,0.1,0,0.1-0.1c0.7-0.9,1.7-1.4,2.9-1.4C110.3,56.5,111.4,56.9,112.2,57.7L112.2,57.7z"/>
				<path class="st1" d="M57.8,32.1C57.9,32,58,32,58.1,32h3.2c0.1,0,0.2,0,0.3,0.1c0.1,0.1,0.1,0.2,0.1,0.3v16.2
					c0,0.1,0,0.2-0.1,0.3c-0.1,0.1-0.2,0.1-0.3,0.1h-3.2c-0.1,0-0.2,0-0.3-0.1c-0.1-0.1-0.1-0.2-0.1-0.3v-6.3c0-0.1-0.1-0.2-0.2-0.2
					H53c-0.1,0-0.2,0.1-0.2,0.2v6.3c0,0.1,0,0.2-0.1,0.3c-0.1,0.1-0.2,0.1-0.3,0.1h-3.2c-0.1,0-0.2,0-0.3-0.1
					c-0.1-0.1-0.1-0.2-0.1-0.3V32.4c0-0.1,0-0.2,0.1-0.3c0.1-0.1,0.2-0.1,0.3-0.1h3.2c0.1,0,0.2,0,0.3,0.1c0.1,0.1,0.1,0.2,0.1,0.3
					v6.1c0,0.1,0.1,0.2,0.2,0.2h4.5c0.1,0,0.2-0.1,0.2-0.2v-6.1C57.6,32.3,57.7,32.2,57.8,32.1L57.8,32.1z M65.3,48.1
					c-1-0.8-1.7-1.8-2.1-3.2c-0.2-0.7-0.3-1.4-0.3-2.2c0-0.8,0.1-1.6,0.3-2.4c0.4-1.3,1.1-2.3,2.1-3c1-0.7,2.3-1.1,3.7-1.1
					c1.4,0,2.7,0.4,3.7,1.1c1,0.7,1.7,1.7,2.1,3c0.2,0.7,0.3,1.5,0.3,2.3c0,0.7-0.1,1.5-0.3,2.1c-0.3,1.4-1,2.4-2.1,3.2
					c-1,0.8-2.3,1.2-3.8,1.2C67.5,49.3,66.3,48.9,65.3,48.1L65.3,48.1z M70.2,45.3c0.3-0.3,0.5-0.7,0.7-1.2c0.1-0.4,0.1-0.9,0.1-1.4
					c0-0.5-0.1-1-0.2-1.4c-0.1-0.5-0.4-0.9-0.7-1.2c-0.3-0.3-0.7-0.4-1.2-0.4c-0.5,0-0.9,0.1-1.2,0.4c-0.3,0.3-0.5,0.7-0.7,1.2
					c-0.1,0.4-0.2,0.8-0.2,1.4c0,0.5,0,1,0.1,1.4c0.1,0.5,0.4,0.9,0.7,1.2c0.3,0.3,0.7,0.5,1.2,0.5C69.5,45.8,69.9,45.6,70.2,45.3z
					 M93.9,37.4c0.7,0.8,1.1,1.9,1.1,3.3v7.9c0,0.1,0,0.2-0.1,0.3c-0.1,0.1-0.2,0.1-0.3,0.1h-3.2c-0.1,0-0.2,0-0.3-0.1
					C91,48.8,91,48.7,91,48.6v-7c0-0.6-0.1-1-0.4-1.4c-0.3-0.3-0.7-0.5-1.1-0.5c-0.5,0-0.9,0.2-1.2,0.5c-0.3,0.3-0.5,0.8-0.5,1.4v7
					c0,0.1,0,0.2-0.1,0.3c-0.1,0.1-0.2,0.1-0.3,0.1h-3.2c-0.1,0-0.2,0-0.3-0.1c-0.1-0.1-0.1-0.2-0.1-0.3v-7c0-0.6-0.2-1-0.5-1.4
					c-0.3-0.3-0.7-0.5-1.2-0.5c-0.4,0-0.8,0.1-1.1,0.4s-0.5,0.6-0.5,1.1v7.4c0,0.1,0,0.2-0.1,0.3c-0.1,0.1-0.2,0.1-0.3,0.1h-3.2
					c-0.1,0-0.2,0-0.3-0.1c-0.1-0.1-0.1-0.2-0.1-0.3V36.9c0-0.1,0-0.2,0.1-0.3c0.1-0.1,0.2-0.1,0.3-0.1H80c0.1,0,0.2,0,0.3,0.1
					c0.1,0.1,0.1,0.2,0.1,0.3v0.9c0,0.1,0,0.1,0.1,0.1c0,0,0.1,0,0.1-0.1c0.7-1,1.7-1.5,3.1-1.5c0.8,0,1.5,0.2,2.1,0.5
					c0.6,0.3,1.1,0.9,1.4,1.5c0,0.1,0.1,0.1,0.1,0.1c0,0,0.1,0,0.1-0.1c0.7-1.3,1.8-2,3.4-2C92.2,36.2,93.2,36.6,93.9,37.4
					L93.9,37.4z M104.2,45.6c0.4-0.2,0.8-0.4,1.1-0.6c0.1-0.1,0.2-0.2,0.3-0.2c0.1,0,0.2,0.1,0.3,0.2l1.5,1.8
					c0.1,0.1,0.1,0.2,0.1,0.3c0,0.1,0,0.2-0.1,0.3c-0.6,0.6-1.3,1-2.1,1.4c-0.9,0.3-1.8,0.5-2.7,0.5c-1.1,0-2.1-0.2-3-0.6
					c-0.9-0.4-1.6-1-2.1-1.7c-0.9-1.1-1.4-2.6-1.4-4.3c0-0.8,0.1-1.5,0.3-2.2c0.4-1.3,1.1-2.3,2.1-3.1c1-0.8,2.3-1.2,3.7-1.2
					c1.6,0,3,0.5,4,1.5c1,1,1.7,2.4,2,4.2c0.1,0.5,0.1,1,0.1,1.5c0,0.3-0.1,0.4-0.4,0.4h-7.4c0,0-0.1,0-0.1,0c0,0-0.1,0.1,0,0.1
					l0.1,0.5c0.2,0.4,0.5,0.7,0.9,0.9c0.4,0.2,0.9,0.3,1.5,0.3C103.3,45.8,103.8,45.7,104.2,45.6L104.2,45.6z M100.5,40.9
					c-0.1,0.1-0.1,0.2-0.1,0.4v0c0,0.1,0.1,0.1,0.2,0.1h3.4c0.1,0,0.1,0,0.1-0.1c0,0,0-0.1,0-0.1l-0.1-0.3c-0.1-0.4-0.3-0.7-0.6-0.9
					s-0.7-0.3-1.1-0.3C101.3,39.7,100.8,40.1,100.5,40.9L100.5,40.9z"/>
				<path class="st0" d="M60.9,14.8c-0.1,0.1-0.2,0.1-0.3,0.1H53c-0.1,0-0.2,0.1-0.2,0.2V18c0,0.1,0.1,0.2,0.2,0.2h4.8
					c0.1,0,0.2,0,0.3,0.1c0.1,0.1,0.1,0.2,0.1,0.3v2.5c0,0.1,0,0.2-0.1,0.3c-0.1,0.1-0.2,0.1-0.3,0.1H53c-0.1,0-0.2,0.1-0.2,0.2v6.2
					c0,0.1,0,0.2-0.1,0.3c-0.1,0.1-0.2,0.1-0.3,0.1h-3.2c-0.1,0-0.2,0-0.3-0.1c-0.1-0.1-0.1-0.2-0.1-0.3V12c0-0.1,0-0.2,0.1-0.3
					c0.1-0.1,0.2-0.1,0.3-0.1h11.4c0.1,0,0.2,0,0.3,0.1c0.1,0.1,0.1,0.2,0.1,0.3v2.5C61.1,14.6,61,14.7,60.9,14.8z M62.3,14.5
					c-0.4-0.4-0.7-1-0.7-1.7c0-0.7,0.2-1.2,0.7-1.6c0.4-0.4,1-0.6,1.8-0.6c0.7,0,1.3,0.2,1.8,0.6c0.4,0.4,0.7,1,0.7,1.6
					c0,0.7-0.2,1.2-0.7,1.7c-0.4,0.4-1,0.6-1.8,0.6C63.4,15.1,62.8,14.9,62.3,14.5z M62.1,28.2C62.1,28.1,62,28,62,27.9V16.4
					c0-0.1,0-0.2,0.1-0.3c0.1-0.1,0.2-0.1,0.3-0.1h3.2c0.1,0,0.2,0,0.3,0.1c0.1,0.1,0.1,0.2,0.1,0.3v11.6c0,0.1,0,0.2-0.1,0.3
					c-0.1,0.1-0.2,0.1-0.3,0.1h-3.2C62.3,28.4,62.2,28.3,62.1,28.2L62.1,28.2z M76,16c0.2,0.1,0.3,0.3,0.2,0.5l-0.5,3.1
					c0,0.2-0.1,0.3-0.3,0.3c-0.1,0-0.1,0-0.2,0c-0.2-0.1-0.5-0.1-0.7-0.1c-0.3,0-0.5,0-0.6,0c-0.5,0.1-0.9,0.3-1.3,0.6
					c-0.4,0.3-0.5,0.7-0.5,1.3v6.2c0,0.1,0,0.2-0.1,0.3c-0.1,0.1-0.2,0.1-0.3,0.1h-3.2c-0.1,0-0.2,0-0.3-0.1
					c-0.1-0.1-0.1-0.2-0.1-0.3V16.4c0-0.1,0-0.2,0.1-0.3c0.1-0.1,0.2-0.1,0.3-0.1h3.2c0.1,0,0.2,0,0.3,0.1c0.1,0.1,0.1,0.2,0.1,0.3
					v0.5C72,17,72,17,72,17c0,0,0.1,0,0.1-0.1c0.7-0.8,1.5-1.2,2.5-1.2C75.2,15.8,75.6,15.8,76,16L76,16z M79.1,28.1
					c-0.9-0.3-1.5-0.8-2-1.3c-0.5-0.5-0.7-1.2-0.7-2v-0.1c0-0.1,0-0.2,0.1-0.3c0.1-0.1,0.2-0.1,0.3-0.1h3.1c0.3,0,0.4,0,0.4,0.1v0.1
					c0,0.3,0.2,0.6,0.5,0.8c0.3,0.2,0.8,0.3,1.3,0.3c0.5,0,0.8-0.1,1.1-0.2c0.3-0.2,0.4-0.4,0.4-0.6c0-0.3-0.1-0.4-0.4-0.6
					c-0.3-0.1-0.8-0.2-1.4-0.3c-1-0.2-1.9-0.4-2.5-0.7c-0.8-0.3-1.5-0.8-2-1.3c-0.5-0.5-0.8-1.2-0.8-2.1c0-1.2,0.5-2.2,1.5-3
					c1-0.7,2.3-1.1,4-1.1c1.1,0,2.1,0.2,2.9,0.5c0.8,0.3,1.5,0.8,2,1.5c0.5,0.6,0.7,1.3,0.7,2.2c0,0.1,0,0.1-0.1,0.2
					c-0.1,0.1-0.2,0.1-0.3,0.1h-3c-0.3,0-0.4,0-0.4-0.1v-0.1c0-0.3-0.1-0.6-0.4-0.7c-0.3-0.2-0.7-0.3-1.2-0.3
					c-0.5,0-0.8,0.1-1.1,0.2c-0.3,0.2-0.4,0.4-0.4,0.6s0.2,0.5,0.5,0.6c0.3,0.1,0.8,0.3,1.6,0.4c1,0.2,1.7,0.3,2,0.5
					c1,0.3,1.8,0.8,2.4,1.3c0.6,0.5,0.9,1.3,0.9,2.2c0,1.2-0.5,2.2-1.5,2.9c-1,0.7-2.4,1-4.1,1C81,28.5,80,28.4,79.1,28.1L79.1,28.1
					z M96.6,19c-0.1,0.1-0.2,0.1-0.3,0.1h-2.1c-0.1,0-0.2,0.1-0.2,0.2v4.2c0,0.9,0.4,1.4,1.1,1.4h0.8c0.1,0,0.2,0,0.3,0.1
					c0.1,0.1,0.1,0.2,0.1,0.3v2.5c0,0.3-0.1,0.4-0.4,0.4c-0.8,0-1.3,0-1.6,0c-1.4,0-2.5-0.2-3.2-0.7c-0.7-0.4-1.1-1.3-1.1-2.5v-5.8
					c0-0.1-0.1-0.2-0.2-0.2h-1.2c-0.1,0-0.2,0-0.3-0.1c-0.1-0.1-0.1-0.2-0.1-0.3v-2.3c0-0.1,0-0.2,0.1-0.3c0.1-0.1,0.2-0.1,0.3-0.1
					h1.2c0.1,0,0.2-0.1,0.2-0.2V13c0-0.1,0-0.2,0.1-0.3c0.1-0.1,0.2-0.1,0.3-0.1h3.1c0.1,0,0.2,0,0.3,0.1C94,12.8,94,12.9,94,13v2.7
					c0,0.1,0.1,0.2,0.2,0.2h2.1c0.1,0,0.2,0,0.3,0.1c0.1,0.1,0.1,0.2,0.1,0.3v2.3C96.7,18.8,96.7,18.9,96.6,19L96.6,19z"/>
			</g>
		</g>
	</g>
</g>
</svg>
