<?xml version="1.0" encoding="utf-8"?>
<!-- Generator: Adobe Illustrator 23.0.2, SVG Export Plug-In . SVG Version: 6.00 Build 0)  -->
<svg version="1.1" id="Layer_1" xmlns="http://www.w3.org/2000/svg" xmlns:xlink="http://www.w3.org/1999/xlink" x="0px" y="0px"
	 viewBox="0 0 160 80" style="enable-background:new 0 0 160 80;" xml:space="preserve">
<style type="text/css">
	.st0{fill:#EE7733;}
	.st1{fill:#395E81;}
</style>
<g>
	<path class="st0" d="M145.5,41.3c-0.1,0.5-0.2,1-0.3,1.5c-1,4.6-5,8.3-9.6,8.9c-6.4,0.9-12.1-3.3-13.3-9.6c-0.1-0.7-0.2-1.3-0.2-2
		c0-2.3,0-4.6,0-6.9c0-5.7,4-10.5,9.6-11.5c6.3-1.2,12.5,3.1,13.6,9.4c0.1,0.3,0,0.7,0.2,1C145.5,35.1,145.5,38.2,145.5,41.3z
		 M126.9,36.6c0,1.2,0,2.4,0,3.5c0,0.5,0,1.1,0.2,1.6c0.6,2.3,2.1,4,4.3,4.9c0.1,0.1,0.3,0.2,0.4-0.1c1.3-4.4,4.2-7.2,8.6-8.4
		c0.2-0.1,0.3-0.2,0.3-0.4c0-1.5,0-3.1,0-4.6c0-0.4,0-0.8-0.1-1.1c-0.6-3.1-3-5.3-6.1-5.7c-4-0.4-7.6,2.7-7.6,6.8
		C126.9,34.2,126.9,35.4,126.9,36.6z M135.6,47.7c2.9-1,5-3.2,5.9-5.9C138.6,42.9,136.6,44.8,135.6,47.7z"/>
	<path class="st1" d="M37.2,34.9c2.3-3.9,5.6-6.3,10.2-6.4c4.6-0.1,8,2,10.5,5.8c0.1,0,0.1-0.2,0.2-0.2c2.1-3.2,5-5.1,8.9-5.6
		c2.4-0.3,4.7,0.3,6.9,1.5c0.2,0.1,0.3,0.1,0.5,0c5.9-3.3,12.9-1.2,16.2,4.7c0,0.1,0.1,0.1,0.1,0.2c0.2-0.1,0.2-0.2,0.2-0.3
		c1.9-3.4,4.8-5.4,8.6-6c4.9-0.7,9.6,1.7,12,6.1c0.9,1.7,1.4,3.6,1.4,5.6c0,0,0,0.1,0,0.1c0,0.7,0.1,1.4,0,2.2c-0.7,0-1.4,0-2.1,0
		c-0.5,0-1,0-1.6,0.1c-3,0.5-5.4,3.3-5.6,6.4c0,0.8,0,1.7,0,2.5c0,0.1,0.1,0.3-0.2,0.3c-1.8,0-3.5,0.1-5.3-0.4
		c-2.4-0.7-4.3-1.9-5.9-3.8c-0.1-0.1-0.1-0.2-0.2-0.2c0,0,0,0,0,0c-0.1,0.1,0,0.3,0,0.4c0,1.2,0,2.4,0,3.6c0,0.3-0.1,0.4-0.4,0.4
		c-1.3,0-2.7,0-4,0c-0.3,0-0.4-0.1-0.4-0.4c0-3.7,0-7.5,0-11.2c0-3.5-2.5-6.2-5.3-6.9c-1.3-0.3-2.5-0.3-3.8,0.1
		c-0.3,0.1-0.3,0.2-0.1,0.4c1.3,2,1.8,4.2,1.8,6.5c0,3.7,0,7.4,0,11c0,0.3-0.1,0.4-0.4,0.4c-1.3,0-2.6,0-3.9,0
		c-0.4,0-0.5-0.1-0.5-0.5c0-3.7,0-7.4,0-11.1c0-3.4-2.3-5.9-4.7-6.8c-4.4-1.5-9.1,1.8-9.2,6.5c0,3.8,0,7.6,0,11.4
		c0,0.4-0.1,0.4-0.4,0.4c-1.8,0-3.7,0-5.5,0c-0.4,0-0.4-0.1-0.4-0.5c0-3.8,0-7.6,0-11.4c0-3.2-2.3-6-5.3-6.7c-4.4-1-8.6,2.4-8.5,6.9
		c0.1,3.8,3,6.8,6.8,6.8c0.4,0,0.5,0.1,0.5,0.5c0,1.3,0,2.6,0,3.9c0,0.3-0.1,0.4-0.4,0.4c-4.4-0.2-7.7-2.1-10-5.8c0,0,0-0.1-0.1-0.1
		c-0.1,0.1-0.1,0.2-0.2,0.3c-2.2,3.8-6.7,6.1-11,5.5c-4.6-0.6-8.3-3.8-9.5-8.2c-0.3-1-0.4-1.9-0.4-2.9c0-2.5,0-5,0-7.4
		c0-5.7,3.9-10.5,9.5-11.5c4-0.7,7.5,0.4,10.4,3.2c0.2,0.2,0.1,0.3,0,0.5c-1,0.9-1.9,1.9-2.8,2.8c-0.2,0.3-0.4,0.2-0.6,0
		c-3.7-3.6-9.8-2.1-11.4,2.8c-0.2,0.7-0.3,1.5-0.3,2.2c0,2.5,0,4.9,0,7.4c0,3.3,2.2,5.9,5.5,6.4c3.5,0.6,7-2.1,7.3-5.6
		c0.1-1.6-0.1-3-1.1-4.3c-0.9-1.2-2.2-1.7-3.7-1.9c-0.4,0-0.8-0.1-1.1-0.1c-0.2,0-0.3,0-0.3-0.3c0-1.4,0-2.8,0-4.2
		c0-0.2,0.1-0.3,0.3-0.3C31.8,30.5,35,31.6,37.2,34.9C37.1,34.8,37.2,34.8,37.2,34.9z M101.1,33.2c-3.6,0-6.5,2.7-6.9,6.3
		c-0.3,3.1,1.6,6.1,4.5,7.2c0.2,0.1,0.4,0.1,0.4-0.2c1.2-4.3,4-7,8.2-8.3c0.4-0.1,0.4-0.3,0.3-0.6C106.6,35,103.9,33.2,101.1,33.2z"
		/>
	<path class="st0" d="M119.5,36.6c0,4.9,0,9.8,0,14.7c0,0.3-0.1,0.5-0.4,0.5c-1.3,0-2.6,0-3.9,0c-0.3,0-0.5-0.1-0.5-0.4
		c0-5.9,0-11.7,0-17.6c0-4,0-7.9,0-11.9c0-0.3,0.1-0.4,0.4-0.4c1.3,0,2.6,0,3.9,0c0.3,0,0.5,0.1,0.5,0.4
		C119.5,26.8,119.5,31.7,119.5,36.6z"/>
	<path class="st0" d="M47.6,36.6c2.2,0,4,1.8,4,4c0,2.2-1.8,4-4,4c-2.2,0-4-1.8-4-4C43.6,38.4,45.4,36.6,47.6,36.6z"/>
	<path class="st0" d="M31.5,40.6c0,2.2-1.8,4-4,4c-2.2,0-4-1.8-4-4c0-2.2,1.8-4,4-4C29.7,36.6,31.5,38.4,31.5,40.6z"/>
	<path class="st1" d="M48.3,61.9c0,0.1,0,0.2,0,0.4c0,0.1,0,0.3-0.2,0.3c-0.2,0-0.2-0.1-0.3-0.2c-0.3-0.6-0.6-1.2-0.8-1.8
		c-0.2-0.3-0.3-0.4-0.7-0.3c-5.4,1.9-10.9,1.9-16.3-0.1c-1.1-0.4-2.2-0.9-3.2-1.6c-0.1-0.1-0.3-0.1-0.2-0.3c0.1-0.2,0.3-0.1,0.4,0
		c4.1,2.1,8.4,2.7,12.9,2.1c1.9-0.3,3.8-0.8,5.6-1.5c0.3-0.1,0.3-0.2,0.1-0.4c-0.5-0.6-1.2-1-1.8-1.3c-0.5-0.3-0.9-0.6-1.2-1
		c-0.1-0.1-0.2-0.3-0.1-0.5c0.1-0.2,0.3-0.1,0.4-0.1c0.5,0.1,0.9,0.2,1.4,0.5c1.6,1,2.9,2.4,3.7,4.1C48.1,60.7,48.3,61.3,48.3,61.9z
		"/>
</g>
</svg>
