<?xml version="1.0" encoding="iso-8859-1"?>
<!-- Generator: Adobe Illustrator 23.0.2, SVG Export Plug-In . SVG Version: 6.00 Build 0)  -->
<svg version="1.2" baseProfile="tiny" id="Layer_1" xmlns="http://www.w3.org/2000/svg" xmlns:xlink="http://www.w3.org/1999/xlink"
	 x="0px" y="0px" viewBox="0 0 160 80" xml:space="preserve">
<g>
	<g>
		<path fill="#708082" d="M33.8,48.2c-3-0.4-6-0.8-9-1.2c-0.5-0.1-0.8,0.1-1,0.5c-1.5,2.8-3,5.6-4.4,8.4c-0.3,0.5-0.6,0.7-1.2,0.6
			c-1.4-0.3-1.8-0.6-2-2c-0.6-2.8-1.1-5.6-1.7-8.4c-0.1-0.5-0.3-0.7-0.8-0.8c-2.8-0.5-5.6-1.1-8.4-1.6c-1.4-0.3-2.2-1.1-2.3-2.5
			c0-0.4,0.3-0.4,0.5-0.5c2.9-1.5,5.7-3.1,8.6-4.6c0.5-0.3,0.6-0.5,0.5-1.1c-0.4-2.9-0.7-5.8-1.1-8.7c-0.1-1.2,0.6-2.4,1.7-2.8
			c0.3-0.1,0.4,0.2,0.6,0.3c2.3,2.2,4.7,4.4,7,6.6c0.5,0.5,0.9,0.5,1.5,0.2c2.6-1.3,5.3-2.5,7.8-3.9c0.8-0.4,1.3-0.3,2,0.2
			c0.6,0.6,0.8,1.2,0.5,2.1c-0.5,1.2-1,2.3-1.5,3.4c-0.7,1.6-1.5,3.2-2.2,4.8c-0.3,0.5-0.2,0.9,0.2,1.3c2.2,2.3,4.5,4.6,6.7,7
			c0.5,0.6,0.5,1,0.1,1.6C35.4,47.9,34.7,48.2,33.8,48.2z M30.9,28.6c-0.3,0.1-0.6,0.2-0.9,0.4c-2.7,1.3-5.4,2.6-8.1,3.9
			c-0.5,0.2-0.8,0.2-1.1-0.2c-2-2-4.1-3.9-6.1-5.8c-0.4-0.4-0.8-0.7-1.2-1.1c0,0.4,0,0.6,0,0.8c0.4,3,0.7,6.1,1.2,9.1
			c0.1,0.7-0.1,1-0.7,1.4c-2.2,1.1-4.4,2.3-6.6,3.5C6.6,41,6,41.4,5.2,41.8C5.6,41.9,5.8,42,6.1,42c3.1,0.6,6.1,1.2,9.2,1.8
			c0.5,0.1,0.7,0.3,0.8,0.8c0.3,1.9,0.7,3.7,1.1,5.6c0.3,1.5,0.6,2.9,0.9,4.6c0.2-0.4,0.4-0.7,0.5-0.9c1.4-2.7,2.9-5.4,4.3-8.1
			c0.3-0.5,0.6-0.7,1.2-0.6c2.1,0.3,4.3,0.6,6.4,0.9c1.2,0.2,2.4,0.3,3.8,0.5c-0.4-0.4-0.6-0.6-0.8-0.8c-2.1-2.2-4.3-4.4-6.4-6.6
			c-0.4-0.4-0.4-0.7-0.2-1.1c0.7-1.4,1.4-2.9,2-4.3C29.5,31.9,30.4,30.4,30.9,28.6C31,28.7,31.1,28.6,30.9,28.6
			C31,28.5,30.9,28.6,30.9,28.6z"/>
		<path fill="#020101" d="M31,28.7c-0.6,1.7-1.4,3.2-2.1,4.8c-0.6,1.4-1.3,2.9-2,4.3c-0.2,0.5-0.2,0.7,0.2,1.1
			c2.1,2.2,4.3,4.4,6.4,6.6c0.2,0.2,0.4,0.4,0.8,0.8c-1.4-0.2-2.6-0.3-3.8-0.5c-2.1-0.3-4.3-0.5-6.4-0.9c-0.6-0.1-0.9,0.1-1.2,0.6
			c-1.4,2.7-2.8,5.4-4.3,8.1c-0.1,0.2-0.3,0.5-0.5,0.9c-0.3-1.6-0.6-3.1-0.9-4.6c-0.4-1.9-0.7-3.7-1.1-5.6c-0.1-0.5-0.3-0.7-0.8-0.8
			c-3.1-0.6-6.1-1.2-9.2-1.8c-0.2,0-0.5-0.1-0.9-0.2C6,41.4,6.6,41,7.3,40.6c2.2-1.2,4.4-2.4,6.6-3.5c0.6-0.3,0.8-0.7,0.7-1.4
			c-0.4-3-0.8-6.1-1.2-9.1c0-0.2,0-0.4,0-0.8c0.5,0.4,0.9,0.8,1.2,1.1c2,1.9,4.1,3.9,6.1,5.8c0.4,0.4,0.7,0.4,1.1,0.2
			c2.7-1.3,5.4-2.6,8.1-3.9C30.3,28.9,30.6,28.8,31,28.7C30.9,28.7,30.9,28.7,31,28.7z M13.1,40.2c0,0.1,0,0.1,0,0.2
			c1.2,0.2,2.4,0.4,3.6,0.6c1.8,0.3,1.8,0.3,2.1,2.2c0.2,1.2,0.4,2.3,0.6,3.5c0.1,0,0.1,0,0.2,0c2.2-4.3,4.4-8.6,6.6-12.9
			c0,0-0.1-0.1-0.1-0.1C21.7,35.9,17.4,38.1,13.1,40.2z"/>
		<path fill="#020101" d="M30.9,28.6C30.9,28.6,31,28.5,30.9,28.6C31.1,28.6,31,28.7,30.9,28.6C30.9,28.7,30.9,28.7,30.9,28.6z"/>
		<path fill="#B02039" d="M13.1,40.2c4.3-2.2,8.6-4.4,12.9-6.6c0,0,0.1,0.1,0.1,0.1c-2.2,4.3-4.4,8.6-6.6,12.9c-0.1,0-0.1,0-0.2,0
			c-0.2-1.2-0.4-2.3-0.6-3.5c-0.3-1.9-0.3-1.9-2.1-2.2c-1.2-0.2-2.4-0.4-3.6-0.6C13.1,40.4,13.1,40.3,13.1,40.2z"/>
	</g>
	<g>
		<path d="M45,40c0-4.3,3.3-7.8,7.8-7.8c2.6,0,4.3,0.7,5.8,2.1l-1.7,2c-1.2-1-2.3-1.6-4.3-1.6c-2.8,0-4.9,2.4-4.9,5.4
			c0,3.1,2.1,5.4,5.2,5.4c1.4,0,2.7-0.5,3.7-1.1v-2.8h-3.9v-2.3h6.5v6.4c-1.5,1.3-3.6,2.4-6.3,2.4C48.1,47.8,45,44.5,45,40z"/>
		<path d="M62,40c0-4.3,3.3-7.8,8-7.8c4.7,0,7.9,3.5,7.9,7.8c0,4.3-3.3,7.8-8,7.8C65.2,47.8,62,44.3,62,40z M75,40
			c0-3-2.1-5.4-5.2-5.4c-3,0-5.1,2.4-5.1,5.4c0,2.9,2.1,5.4,5.2,5.4C72.9,45.4,75,43,75,40z"/>
		<path d="M81.6,32.4h9.6v2.4h-6.9V39h5.9v2.4h-5.9v6.2h-2.7V32.4z"/>
		<path d="M98.4,32.3h2.5l6.7,15.3h-2.8l-1.5-3.7H96l-1.6,3.7h-2.7L98.4,32.3z M102.2,41.6l-2.6-6.1L97,41.6H102.2z"/>
		<path d="M110.7,32.4h2.8l4.6,7.2l4.6-7.2h2.8v15.2H123V36.7l-4.8,7.2h-0.1l-4.7-7.1v10.8h-2.6V32.4z"/>
		<path d="M130.1,32.4h10.1v2.4h-7.4v3.9h6.5v2.4h-6.5v4.1h7.5v2.4h-10.2V32.4z"/>
		<path d="M144.1,32.4h6.8c3.6,0,5.6,1.9,5.6,4.8c0,2.5-1.5,4-3.6,4.6l4.1,5.7h-3.1l-3.8-5.3h-3.3v5.3h-2.7V32.4z M150.6,39.9
			c1.9,0,3.1-1,3.1-2.6c0-1.6-1.2-2.5-3.1-2.5h-3.9v5.1H150.6z"/>
	</g>
</g>
</svg>
