<?xml version="1.0" encoding="utf-8"?>
<!-- Generator: Adobe Illustrator 23.0.2, SVG Export Plug-In . SVG Version: 6.00 Build 0)  -->
<svg version="1.1" id="Layer_1" xmlns="http://www.w3.org/2000/svg" xmlns:xlink="http://www.w3.org/1999/xlink" x="0px" y="0px"
	 viewBox="0 0 160 80" style="enable-background:new 0 0 160 80;" xml:space="preserve">
<style type="text/css">
	.st0{fill:#00BFF2;}
</style>
<path class="st0" d="M79.9,49c-1.3,0-2-0.7-2-2.1V30.3c0-1.4,0.7-2.1,2-2.1h0.7c1.4,0,2,0.7,2,2.1v6.2h8.9v-6.2c0-1.4,0.7-2.1,2-2.1
	h0.7c1.4,0,2.1,0.7,2.1,2.1v16.5c0,1.4-0.7,2.1-2.1,2.1h-0.7c-1.3,0-2-0.7-2-2.1v-6.3h-8.9v6.3c0,1.4-0.7,2.1-2,2.1H79.9z"/>
<path class="st0" d="M104.3,54.9c-0.3,0-0.6-0.1-0.9-0.2c-0.3-0.1-0.6-0.2-0.8-0.4s-0.4-0.3-0.5-0.4c-0.1-0.1-0.2-0.2-0.1-0.3
	l2.6-5.8c-0.4,0-0.7-0.1-0.9-0.3c-0.2-0.1-0.4-0.4-0.6-0.7l-5.3-12.4c0-0.1,0-0.2,0.2-0.3c0.1-0.1,0.3-0.3,0.5-0.4
	c0.2-0.1,0.5-0.3,0.8-0.4c0.3-0.1,0.6-0.2,1-0.2c0.5,0,1,0.1,1.4,0.4c0.4,0.3,0.8,0.9,1.1,1.8l3.4,8.8l3-8.8
	c0.3-0.9,0.6-1.5,1.1-1.8c0.4-0.3,0.9-0.5,1.4-0.5c0.3,0,0.6,0.1,0.9,0.2c0.3,0.1,0.6,0.2,0.8,0.4c0.2,0.1,0.4,0.3,0.5,0.4
	c0.1,0.1,0.2,0.2,0.2,0.3l-7,18.3c-0.3,0.8-0.7,1.4-1.2,1.7C105.3,54.8,104.8,54.9,104.3,54.9z"/>
<path class="st0" d="M119.7,46.8c0,0.8-0.2,1.4-0.6,1.7c-0.4,0.3-0.8,0.5-1.4,0.5h-0.5c-0.6,0-1.1-0.1-1.5-0.4
	c-0.4-0.3-0.5-0.9-0.5-1.7V27.3c0-0.1,0.2-0.2,0.5-0.3c0.3-0.1,0.7-0.2,1.2-0.2c0.3,0,0.7,0.1,1,0.2c0.3,0.1,0.6,0.3,0.9,0.6
	c0.3,0.3,0.5,0.6,0.6,1.1c0.2,0.5,0.3,1.1,0.3,1.8v9.7l4.3-5.5c0.4-0.5,0.8-0.9,1.2-1.1c0.4-0.2,0.9-0.3,1.2-0.3
	c0.4,0,0.7,0.1,1,0.2c0.3,0.1,0.6,0.3,0.8,0.5c0.2,0.2,0.4,0.3,0.5,0.5c0.1,0.2,0.1,0.3,0.1,0.3l-4.8,6.1l5.5,6.7
	c0,0.1,0,0.2-0.1,0.3c-0.1,0.2-0.3,0.3-0.5,0.5c-0.2,0.2-0.5,0.3-0.8,0.5c-0.3,0.1-0.6,0.2-1,0.2c-0.4,0-0.9-0.1-1.3-0.3
	c-0.4-0.2-0.9-0.6-1.3-1.1l-4.8-5.9V46.8z"/>
<path class="st0" d="M137.9,49.2c-1.2,0-2.3-0.2-3.4-0.6c-1-0.4-1.9-0.9-2.6-1.6c-0.7-0.7-1.3-1.6-1.7-2.6c-0.4-1-0.6-2.1-0.6-3.3
	s0.2-2.3,0.6-3.3c0.4-1,1-1.8,1.7-2.6c0.7-0.7,1.6-1.3,2.6-1.7c1-0.4,2.1-0.6,3.4-0.6c1.2,0,2.3,0.2,3.3,0.6c1,0.4,1.9,1,2.6,1.7
	c0.7,0.7,1.3,1.6,1.7,2.6c0.4,1,0.6,2.1,0.6,3.3s-0.2,2.3-0.6,3.3c-0.4,1-1,1.8-1.7,2.6c-0.7,0.7-1.6,1.3-2.6,1.6
	C140.2,49,139.1,49.2,137.9,49.2z M137.9,45.7c0.6,0,1.2-0.1,1.7-0.3c0.5-0.2,1-0.5,1.4-0.9c0.4-0.4,0.7-0.9,0.9-1.4
	c0.2-0.6,0.3-1.2,0.3-1.8c0-0.7-0.1-1.3-0.3-1.9c-0.2-0.6-0.5-1.1-0.9-1.5c-0.4-0.4-0.8-0.7-1.4-1c-0.5-0.2-1.1-0.3-1.7-0.3
	c-0.6,0-1.2,0.1-1.7,0.3c-0.5,0.2-1,0.6-1.4,1c-0.4,0.4-0.7,0.9-0.9,1.5c-0.2,0.6-0.3,1.2-0.3,1.8s0.1,1.3,0.3,1.8
	c0.2,0.6,0.5,1,0.9,1.4c0.4,0.4,0.8,0.7,1.4,0.9C136.7,45.6,137.3,45.7,137.9,45.7z"/>
<path class="st0" d="M62.2,46.4c0,5.4-16.5,12.4-22.9,12.4c-6.4,0-22.9-7.1-22.9-12.4S32.9,34,39.4,34C45.8,34,62.2,41.1,62.2,46.4z
	 M40.8,26.5c-0.2,4.6,10.1,7.2,10.3,2.6c0.1-2.9-4.7-12.2-7-12.3C41.8,16.6,40.9,23.6,40.8,26.5z M53.8,31.4
	c-0.5,4.6,9.3,8.3,9.9,3.8c0.3-2.9-4.6-12.8-6.8-13.2C54.6,21.6,54.2,28.5,53.8,31.4z M34.6,16.8c-2.3,0.1-7.1,9.4-7,12.3
	c0.2,4.6,10.5,2.1,10.3-2.6C37.8,23.6,36.9,16.6,34.6,16.8z M21.9,22c-2.3,0.4-7.2,10.3-6.8,13.2c0.5,4.6,10.4,0.8,9.9-3.8
	C24.6,28.5,24.1,21.6,21.9,22z M35.1,53.6c0.6,1.4,4,2,5.6,0.3c0,0,4.2-4.7,5.6-6.3c0.9-1,0.2-2.6-1.2-2.6c-0.7,0-3.3,0-3.3,0
	s2-3.1,2.7-4.1c0.6-0.9,0.2-2.1-1-2.4c-1.5-0.4-4.5-0.4-6.2-0.1c-1.2,0.2-2,1.3-2.4,2.1l-2.2,5.3c-0.4,1,0.3,2,1.4,2h3.5L35.1,53.6z
	"/>
</svg>
