<?xml version="1.0" encoding="utf-8"?>
<!-- Generator: Adobe Illustrator 23.0.2, SVG Export Plug-In . SVG Version: 6.00 Build 0)  -->
<svg version="1.1" id="Layer_1" xmlns="http://www.w3.org/2000/svg" xmlns:xlink="http://www.w3.org/1999/xlink" x="0px" y="0px"
	 viewBox="0 0 160 80" style="enable-background:new 0 0 160 80;" xml:space="preserve">
<style type="text/css">
	.st0{fill:#99EA15;}
	.st1{fill:#34E517;}
	.st2{fill:#C9EF13;}
</style>
<title>logo_jcp</title>
<path d="M13.3,51.8V46c0.9,0.3,1.9,0.5,2.9,0.4c1.8,0,3.1-0.8,3.1-3.2V27.8h7.8v15.6c0,6.1-3,9.3-9.1,9.3
	C16.4,52.7,14.8,52.4,13.3,51.8z"/>
<path d="M32.9,40.2v-0.3c0-7.6,5.5-12.5,12.7-12.5c6.6,0,11.1,3,11.7,9.7h-8c-0.2-2.3-1.4-3.5-3.6-3.5c-2.8,0-4.6,2.2-4.6,6.4v0.3
	c0,4.1,1.7,6.4,4.7,6.4c2,0.2,3.9-1.3,4-3.4c0-0.1,0-0.1,0-0.2h7.8c-0.4,6.5-5.2,9.8-11.6,9.8C37.1,52.8,32.9,47.7,32.9,40.2z"/>
<path d="M63,27.8h9.8c7.1,0,10.1,3.2,10.1,8.4v0.1c0,5.1-3.4,8-9.8,8h-2.3v8H63V27.8z M72.4,39.1c2.1,0,3.1-0.9,3.1-2.8v-0.1
	c0-1.9-1.1-2.7-3.1-2.7h-1.7v5.5L72.4,39.1z"/>
<rect x="114.8" y="24.8" class="st0" width="15.9" height="30.4"/>
<rect x="98.9" y="24.8" class="st1" width="15.9" height="30.4"/>
<rect x="130.8" y="24.8" class="st2" width="15.9" height="30.4"/>
</svg>
