<?xml version="1.0" encoding="utf-8"?>
<!-- Generator: Adobe Illustrator 23.0.2, SVG Export Plug-In . SVG Version: 6.00 Build 0)  -->
<svg version="1.1" id="Layer_1" xmlns="http://www.w3.org/2000/svg" xmlns:xlink="http://www.w3.org/1999/xlink" x="0px" y="0px"
	 viewBox="0 0 160 80" style="enable-background:new 0 0 160 80;" xml:space="preserve">
<style type="text/css">
	.st0{fill:none;}
	.st1{fill-rule:evenodd;clip-rule:evenodd;fill:#BC1A29;}
	.st2{fill-rule:evenodd;clip-rule:evenodd;fill:#25282E;}
	.st3{fill-rule:evenodd;clip-rule:evenodd;fill:#FF9900;}
	.st4{fill-rule:evenodd;clip-rule:evenodd;}
</style>
<g>
	<path class="st0" d="M9,17.7h150.2v44H9V17.7z"/>
	<path class="st1" d="M42.8,33.3c-2.3,0-4.2,1.9-4.2,4.2c0,0,0,0,0,0v6.6c0.7,0.9,0.9,1.8,0.9,1.8c-0.3-0.5-0.7-1-1.3-1.4
		c-0.8-0.6-3.3-1.8-9.1-1.8c-4.7,0-7.2,0.8-8.4,1.4h0l0,0c-0.2,0.1-0.4,0.2-0.5,0.3c-0.6,0.4-1,0.9-1.4,1.5c0,0,0.5-0.9,0.9-1.7
		v-6.6c0-2.3-1.9-4.2-4.2-4.2c0,0,0,0,0,0c-2.3,0-4.2,1.9-4.2,4.2c0,2.3,1.9,4.2,4.2,4.2v6.7c0,1.5,1.3,2.7,2.8,2.7H40
		c1.5,0,2.8-1.2,2.8-2.7v-6.7c2.3,0,4.2-1.9,4.2-4.2C47,35.2,45.1,33.3,42.8,33.3"/>
	<path class="st2" d="M36.5,51.6H21.6l-0.3,2.6H20l-0.3-2.6h-1.3c-1.8,0-3.4-1.8-3.4-3.6v-6.3c-2.6-0.2-4.2-2.2-4.2-4.6
		c0-0.2,0.2-0.4,0.4-0.4s0.4,0.2,0.4,0.4c0,2.1,1.7,3.8,3.8,3.8c0.2,0,0.5,0.2,0.5,0.4V48c0,1.3,1.1,2.6,2.4,2.6h21.8
		c1.3,0,2-1.4,2-2.6v-6.7c0-0.2,0.3-0.4,0.5-0.4c2.2,0,3.9-1.6,3.9-3.8c0-0.2,0.2-0.4,0.4-0.4c0.2,0,0.4,0.2,0.4,0.4
		c0,2.5-1.6,4.4-4.3,4.6V48c0,1.9-1.3,3.6-2.9,3.6h-1.7l-0.3,2.6h-1.3C36.8,54.2,36.5,51.6,36.5,51.6z"/>
	<path class="st3" d="M37.6,39.9c0,1.2-0.9,2.1-2.1,2.1c0,0,0,0,0,0H22.7c-1.2,0-2.1-0.9-2.1-2.1c0,0,0,0,0,0V27.1
		c0-1.2,0.9-2.1,2.1-2.1c0,0,0,0,0,0h12.8c1.2,0,2.1,0.9,2.1,2.1c0,0,0,0,0,0V39.9"/>
	<path class="st2" d="M25,31.5c-0.3,0-0.5-0.2-0.5-0.5c0-0.1,0-0.2,0.1-0.2c0.6-1,1.8-1.3,2.8-0.7c0.2,0.1,0.4,0.3,0.6,0.5
		c0.2,0.2,0.1,0.5-0.1,0.7c-0.1,0.1-0.2,0.1-0.3,0.1c-0.1,0-0.3-0.1-0.4-0.2c-0.4-0.5-1.1-0.5-1.5-0.2c-0.1,0.1-0.2,0.2-0.3,0.3
		C25.4,31.4,25.2,31.5,25,31.5z M33.1,31.5c-0.2,0-0.3-0.1-0.4-0.2c-0.3-0.5-1-0.7-1.5-0.4c-0.1,0.1-0.2,0.2-0.3,0.3
		c-0.2,0.2-0.5,0.2-0.7,0.1c0,0,0,0,0,0C30,31,30,30.7,30.1,30.5c0,0,0,0,0,0c0.4-0.5,1-0.8,1.6-0.8c0.7,0,1.4,0.4,1.8,1
		c0.1,0.2,0.1,0.5-0.2,0.7C33.3,31.5,33.2,31.5,33.1,31.5L33.1,31.5z M29.1,37.4c-1.8,0-3.3-1.1-4-2.7c-0.1-0.2,0-0.5,0.3-0.6
		c0.1,0,0.1,0,0.2,0c0.2,0,0.4,0.1,0.5,0.3c0.5,1.3,1.7,2.1,3.1,2.1c1.4,0,2.6-0.9,3.1-2.2c0.1-0.2,0.4-0.4,0.6-0.3
		c0.2,0.1,0.3,0.3,0.3,0.6C32.5,36.3,30.9,37.4,29.1,37.4z"/>
	<path class="st4" d="M60.4,39l4.7-6.1h4.7l-5.8,7l6.4,7.7h-5l-5-6.4v6.4h-3.8V32.9h3.8C60.4,32.9,60.4,39,60.4,39z M75.3,37.6v10
		h-3.5v-10L75.3,37.6L75.3,37.6z M71.5,33.8c0-0.3,0.1-0.5,0.2-0.8c0.2-0.5,0.6-0.9,1.1-1.1c0.2-0.1,0.5-0.2,0.8-0.2
		s0.5,0.1,0.8,0.2c0.5,0.2,0.9,0.6,1.1,1.1c0.1,0.2,0.2,0.5,0.2,0.8s-0.1,0.5-0.2,0.8c-0.2,0.5-0.6,0.9-1.1,1.1
		c-0.2,0.1-0.5,0.2-0.8,0.2s-0.5-0.1-0.8-0.2c-0.5-0.2-0.9-0.6-1.1-1.1C71.5,34.3,71.5,34,71.5,33.8L71.5,33.8z M85.2,40.8
		c-0.6-0.4-1.2-0.6-1.9-0.6c-0.3,0-0.7,0.1-0.9,0.2c-0.3,0.1-0.5,0.3-0.8,0.5c-0.2,0.2-0.4,0.5-0.5,0.8c-0.1,0.3-0.2,0.6-0.2,1
		c0,0.4,0.1,0.7,0.2,1c0.1,0.3,0.3,0.5,0.5,0.8c0.2,0.2,0.5,0.4,0.8,0.5c0.3,0.1,0.6,0.2,1,0.2c0.7,0,1.3-0.2,1.9-0.7v3
		c-0.9,0.4-1.7,0.6-2.5,0.6c-0.7,0-1.4-0.1-2.1-0.4c-0.6-0.2-1.2-0.6-1.7-1.1c-0.5-0.5-0.9-1-1.2-1.7c-0.3-0.6-0.4-1.4-0.4-2.2
		c0-0.8,0.1-1.5,0.4-2.2c0.3-0.6,0.7-1.2,1.2-1.7c0.5-0.5,1.1-0.9,1.8-1.1c0.7-0.3,1.4-0.4,2.2-0.4c0.9,0,1.6,0.2,2.4,0.5
		C85.2,37.8,85.2,40.8,85.2,40.8z M90.7,31.4v9.8l3.7-3.6h4.8l-5,4.6l5.3,5.4h-5l-3.9-4.1v4.1h-3.5V31.4H90.7z M108.8,42.6
		c0-0.6-0.2-1.2-0.7-1.6c-0.2-0.2-0.5-0.4-0.7-0.5c-0.3-0.1-0.6-0.2-0.9-0.2c-0.6,0-1.2,0.2-1.6,0.7c-0.2,0.2-0.4,0.5-0.5,0.7
		c-0.1,0.3-0.2,0.6-0.2,0.9c0,0.6,0.2,1.2,0.7,1.6c0.2,0.2,0.5,0.4,0.7,0.5c0.3,0.1,0.6,0.2,0.9,0.2c0.6,0,1.2-0.2,1.6-0.7
		c0.2-0.2,0.4-0.4,0.5-0.7C108.7,43.2,108.8,42.9,108.8,42.6z M104.4,31.4v7.2c0.8-0.9,1.9-1.3,3.1-1.3c0.7,0,1.4,0.1,2,0.4
		c0.6,0.3,1.1,0.7,1.6,1.1c0.4,0.5,0.8,1.1,1,1.7c0.2,0.6,0.4,1.3,0.4,2.1c0,0.7-0.1,1.4-0.4,2.1c-0.5,1.3-1.4,2.3-2.7,2.8
		c-0.6,0.3-1.3,0.4-2,0.4c-1.3,0-2.3-0.5-3.1-1.4v1.1h-3.5V31.4H104.4L104.4,31.4z M117.8,42.6c0,0.6,0.2,1.2,0.7,1.6
		c0.2,0.2,0.4,0.4,0.7,0.5c0.3,0.1,0.6,0.2,0.9,0.2c0.3,0,0.6-0.1,0.9-0.2c0.3-0.1,0.5-0.3,0.7-0.5c0.2-0.2,0.4-0.4,0.5-0.7
		c0.1-0.3,0.2-0.6,0.2-0.9c0-0.3-0.1-0.6-0.2-0.9c-0.1-0.3-0.3-0.5-0.5-0.7c-0.2-0.2-0.4-0.4-0.7-0.5c-0.3-0.1-0.6-0.2-0.9-0.2
		c-0.3,0-0.6,0.1-0.9,0.2c-0.3,0.1-0.5,0.3-0.7,0.5c-0.2,0.2-0.4,0.4-0.5,0.7C117.8,42,117.8,42.3,117.8,42.6z M122.2,37.6h3.5v10
		h-3.5v-1.1c-0.8,0.9-1.8,1.4-3.1,1.4c-0.7,0-1.4-0.1-2-0.4c-0.6-0.3-1.1-0.6-1.6-1.1c-0.5-0.5-0.8-1.1-1.1-1.7
		c-0.3-0.7-0.4-1.4-0.4-2.1c0-0.7,0.1-1.4,0.4-2c0.2-0.6,0.6-1.2,1-1.7c0.4-0.5,1-0.9,1.6-1.1c0.6-0.3,1.3-0.4,2-0.4
		c1.2,0,2.3,0.4,3.1,1.3L122.2,37.6L122.2,37.6z M135.7,40.8c-0.6-0.4-1.2-0.6-1.9-0.6c-0.3,0-0.7,0.1-0.9,0.2
		c-0.3,0.1-0.5,0.3-0.8,0.5c-0.2,0.2-0.4,0.5-0.5,0.8c-0.1,0.3-0.2,0.6-0.2,1c0,0.4,0.1,0.7,0.2,1c0.1,0.3,0.3,0.5,0.5,0.8
		c0.2,0.2,0.5,0.4,0.8,0.5c0.3,0.1,0.6,0.2,1,0.2c0.7,0,1.3-0.2,1.9-0.7v3c-0.9,0.4-1.7,0.6-2.5,0.6c-0.7,0-1.4-0.1-2.1-0.4
		c-0.6-0.2-1.2-0.6-1.7-1.1c-0.5-0.5-0.9-1-1.2-1.7c-0.3-0.6-0.4-1.4-0.4-2.2c0-0.8,0.1-1.5,0.4-2.2c0.3-0.6,0.7-1.2,1.2-1.7
		c0.5-0.5,1.1-0.9,1.8-1.1c0.7-0.3,1.4-0.4,2.2-0.4c0.9,0,1.7,0.2,2.4,0.5L135.7,40.8L135.7,40.8z M141.2,31.4v9.8l3.7-3.6h4.8
		l-5,4.6l5.3,5.4h-5l-3.9-4.1v4.1h-3.5V31.4H141.2L141.2,31.4z"/>
</g>
</svg>
