<?xml version="1.0" encoding="utf-8"?>
<!-- Generator: Adobe Illustrator 23.0.2, SVG Export Plug-In . SVG Version: 6.00 Build 0)  -->
<svg version="1.1" id="Layer_1" xmlns="http://www.w3.org/2000/svg" xmlns:xlink="http://www.w3.org/1999/xlink" x="0px" y="0px"
	 viewBox="0 0 160 80" style="enable-background:new 0 0 160 80;" xml:space="preserve">
<style type="text/css">
	.st0{fill:#5DAA9C;}
	.st1{fill:#F8AC4C;}
</style>
<g>
	<path class="st0" d="M72.9,29.2c0.2,1.2,0.6,2.3,1,3.3c0.7,1.7,1.8,3.2,3.1,4.5c0.2,0.2,0.2,0.2,0,0.4c-2.1,1.6-4.4,2.6-7,2.9
		c-6.7,0.8-13-3.2-15-9.7c-0.6-1.8-0.7-3.7-0.5-5.6c0.4-3.4,1.8-6.2,4.3-8.5c2-1.9,4.5-3.2,7.3-3.6c4.3-0.6,8.2,0.5,11.4,3.4
		c2.4,2.1,3.9,4.8,4.4,8c0.1,0.8,0.2,1.6,0.2,2.4c0,2.4,1.6,4.5,3.9,5.1c3,0.8,6.1-1.2,6.6-4.3c0.4-2.9-1.5-5.6-4.4-6
		c-2.2-0.3-4,0.5-5.3,2.3c-0.1,0.1-0.1,0.2-0.2,0.3c-0.1-0.4-0.2-0.7-0.2-1c-0.7-2.6-2-4.9-3.9-6.8c-0.2-0.2-0.1-0.2,0-0.4
		c1.6-1.3,3.4-2.2,5.4-2.7c1.1-0.3,2.2-0.4,3.3-0.4c3.3,0,6.2,1,8.8,3.1c2.4,2,4,4.5,4.7,7.5c1,4.3,0.1,8.3-2.6,11.8
		c-1.9,2.5-4.5,4.1-7.6,4.8c-4.5,1-8.6,0.1-12.2-2.9c-2.4-2-3.9-4.6-4.6-7.6c-0.2-1-0.3-1.9-0.3-2.9c0-2.7-1.8-4.8-4.4-5.3
		c-2.9-0.5-5.7,1.5-6.1,4.4c-0.4,2.7,1.2,5.2,3.9,5.9c2.2,0.6,4.5-0.3,5.7-2.2C72.8,29.4,72.8,29.3,72.9,29.2z"/>
	<path class="st0" d="M103.7,26.6c0-4.5,0-9,0-13.5c0-0.3,0.1-0.4,0.4-0.4c3.3,0,6.7,0,10,0c1.8,0,3.6,0.2,5.3,0.7
		c2.3,0.8,4.2,2.1,5.3,4.3c0.6,1.1,0.9,2.2,1,3.4c0.2,1.5,0.1,3-0.3,4.4c-0.8,3.1-2.8,5.1-5.8,6.2c-1.5,0.6-3.1,0.8-4.7,0.9
		c-0.8,0-1.7,0-2.5,0c-0.3,0-0.3,0.1-0.3,0.3c0,2.3,0,4.6,0,7c0,0.3-0.1,0.4-0.4,0.4c-2.6,0-5.2,0-7.8,0c-0.3,0-0.4-0.1-0.4-0.3
		C103.7,35.6,103.7,31.1,103.7,26.6z M112.2,23c0,1,0,2,0,3.1c0,0.1,0,0.3,0.2,0.3c0.8,0,1.5,0.1,2.3-0.1c1.3-0.2,2.2-0.8,2.6-2.1
		c0.2-0.6,0.2-1.1,0.1-1.7c-0.1-1.3-1-2.3-2.3-2.6c-0.8-0.2-1.7-0.1-2.5-0.1c-0.2,0-0.3,0-0.3,0.3C112.2,21,112.2,22,112.2,23z"/>
	<path class="st0" d="M34.2,26.6c0-4.5,0-9,0-13.5c0-0.3,0.1-0.3,0.3-0.3c2.6,0,5.3,0,7.9,0c0.3,0,0.3,0.1,0.3,0.3
		c0,6.5,0,13,0,19.5c0,0.4,0,0.4,0.4,0.4c3.3,0,6.5,0,9.8,0c0.2,0,0.3,0,0.3,0.3c0,2.3,0,4.6,0,6.9c0,0.3-0.1,0.3-0.3,0.3
		c-6.2,0-12.3,0-18.5,0c-0.2,0-0.3-0.1-0.3-0.3C34.2,35.6,34.2,31.1,34.2,26.6z"/>
	<path class="st1" d="M34.2,56.6c0-3.3,0-6.6,0-9.9c0-0.2,0-0.3,0.2-0.3c3.2,0,6.4-0.1,9.6,0.1c1.8,0.1,3.5,0.6,5,1.8
		c1.1,0.9,1.7,2.1,2,3.5c0.2,1.2,0.2,2.4,0,3.6c-0.3,1.4-1.1,2.6-2.2,3.5c-0.3,0.2-0.6,0.4-0.9,0.6c-0.2,0.1-0.2,0.2-0.1,0.4
		c0.5,0.8,0.9,1.6,1.4,2.4c0.8,1.5,1.6,2.9,2.5,4.4c0.1,0.2,0.1,0.2-0.1,0.2c-2.2,0-4.5,0-6.7,0c-0.2,0-0.2-0.1-0.3-0.2
		c-0.7-1.4-1.5-2.8-2.2-4.2c-0.2-0.5-0.5-0.9-0.7-1.4c-0.1-0.1-0.1-0.2-0.3-0.2c-0.2,0-0.4,0-0.5,0c-0.2,0-0.3,0.1-0.3,0.3
		c0,1.7,0,3.4,0,5.1c0,0.5,0,0.5-0.5,0.5c-1.8,0-3.6,0-5.4,0c-0.3,0-0.4,0-0.4-0.4C34.2,63.2,34.2,59.9,34.2,56.6z M40.5,54
		c0,0.7,0,1.3,0,2c0,0.2,0,0.3,0.2,0.3c0.8,0,1.6,0.1,2.4-0.1c0.7-0.1,1.2-0.5,1.5-1.1c0.2-0.6,0.3-1.1,0.1-1.7
		c-0.2-0.8-0.8-1.5-1.7-1.6c-0.8-0.1-1.6,0-2.4-0.1c-0.2,0-0.3,0.1-0.3,0.3C40.5,52.7,40.5,53.3,40.5,54z"/>
	<path class="st1" d="M71.5,56.6c0.1,1.1-0.1,2.3-0.4,3.4c-0.4,1.4-1,2.8-2,3.9c-1.1,1.4-2.5,2.3-4.2,2.8c-1.4,0.4-2.8,0.6-4.3,0.4
		c-1.6-0.2-3-0.7-4.3-1.6c-1.4-1-2.5-2.3-3.2-3.9c-0.8-1.8-1-3.8-0.9-5.8c0.1-2,0.6-4,1.7-5.7c1.1-1.7,2.6-2.9,4.5-3.6
		c1.6-0.6,3.3-0.7,5.1-0.5c2.1,0.3,3.8,1.2,5.3,2.7c1,1.1,1.7,2.3,2.2,3.7C71.3,53.8,71.5,55.2,71.5,56.6z M58.5,56.6
		c0,1.2,0.1,2.3,0.6,3.3c0.7,1.5,2.3,2.2,3.9,1.5c1.1-0.5,1.6-1.4,1.9-2.5c0.2-0.9,0.3-1.8,0.2-2.7c0-1.1-0.2-2.1-0.7-3
		c-0.8-1.4-2-1.8-3.3-1.5c-1.1,0.2-1.7,1-2.1,2C58.6,54.6,58.5,55.6,58.5,56.6z"/>
	<path class="st1" d="M97.3,53.6c0.3-0.4,0.5-0.8,0.7-1.1c1.2-1.9,2.4-3.9,3.6-5.9c0.1-0.1,0.2-0.2,0.4-0.2c2.2,0,4.4,0,6.5,0
		c0.1,0,0.2,0,0.2,0c0.1,0.1,0,0.2-0.1,0.2c-1.1,1.7-2.2,3.3-3.3,5c-0.7,1.1-1.5,2.3-2.2,3.4c-0.1,0.1-0.1,0.2,0,0.3
		c1,2.1,2.1,4.1,3.1,6.2c0.9,1.8,1.8,3.5,2.7,5.3c-0.1,0.1-0.2,0-0.3,0c-2.2,0-4.4,0-6.7,0c-0.2,0-0.4-0.1-0.5-0.3
		c-0.7-1.4-1.3-2.8-2-4.2c-0.3-0.6-0.6-1.2-0.8-1.8c0-0.1-0.1-0.1-0.1-0.2c-0.4,0.6-0.9,1.2-1.3,1.8c-0.1,0.1,0,0.2,0,0.3
		c0,1.3,0,2.7,0,4c0,0.2-0.1,0.3-0.3,0.3c-1.9,0-3.8,0-5.7,0c-0.2,0-0.3,0-0.3-0.3c0-6.6,0-13.2,0-19.8c0-0.2,0.1-0.3,0.3-0.3
		c1.9,0,3.8,0,5.7,0c0.3,0,0.3,0.1,0.3,0.3c0,2.2,0,4.4,0,6.5C97.3,53.4,97.3,53.5,97.3,53.6C97.3,53.6,97.3,53.6,97.3,53.6z"/>
	<path class="st1" d="M117.6,67.2c-1.5,0-2.9-0.2-4.4-0.6c-1.6-0.5-3-1.2-4.3-2.2c-0.2-0.1-0.2-0.3-0.1-0.5c0.9-1.3,1.8-2.7,2.7-4
		c0.1-0.2,0.2-0.2,0.4-0.1c1,0.7,2,1.3,3.2,1.7c1.1,0.4,2.2,0.6,3.3,0.4c0.4-0.1,0.7-0.2,0.8-0.6c0.1-0.6,0.1-0.8-0.4-1.1
		c-0.6-0.4-1.2-0.5-1.9-0.7c-1.7-0.5-3.4-1.1-4.9-2.1c-1.2-0.8-2.1-1.9-2.3-3.4c-0.4-3,0.7-5.8,3.9-7.1c1.6-0.7,3.2-0.8,4.9-0.7
		c0.9,0,1.8,0.2,2.7,0.4c1.3,0.3,2.5,0.8,3.6,1.6c0.2,0.1,0.4,0.3,0.6,0.4c0.2,0.1,0.2,0.2,0.1,0.3c-0.9,1.4-1.8,2.8-2.7,4.1
		c-0.1,0.2-0.2,0.2-0.4,0.1c-1.1-0.8-2.3-1.3-3.6-1.5c-0.7-0.1-1.3-0.3-2,0c-0.3,0.1-0.6,0.2-0.7,0.6c-0.1,0.4,0.1,0.7,0.4,1
		c0.6,0.3,1.2,0.6,1.8,0.7c1.4,0.4,2.8,0.8,4.1,1.5c1.3,0.7,2.4,1.6,3,3c0.4,0.9,0.5,1.9,0.4,2.9c-0.1,1.1-0.4,2.1-1.1,3
		c-0.8,1.1-1.8,1.8-3,2.3C120.4,67,119.1,67.2,117.6,67.2z"/>
	<path class="st1" d="M79.1,56.6c0,1.1,0.1,2.2,0.7,3.2c0.7,1.2,2.1,1.8,3.5,1.5c1-0.2,1.8-0.9,2.3-1.7c0.1-0.1,0.1-0.2,0.3-0.1
		c1.3,1.2,2.6,2.3,3.9,3.5c0.1,0.1,0.2,0.2,0.1,0.4c-1,1.4-2.3,2.5-3.9,3.1c-0.9,0.4-1.8,0.6-2.8,0.7c-0.8,0.1-1.7,0.1-2.5,0
		c-1.3-0.2-2.5-0.6-3.6-1.3c-1.7-1.1-2.9-2.6-3.7-4.5c-0.4-1.1-0.6-2.2-0.7-3.4c-0.1-1.3-0.1-2.6,0.2-3.9c0.6-2.9,2.1-5.3,4.7-6.8
		c1.1-0.6,2.3-1,3.6-1.1c0.9-0.1,1.7-0.1,2.6,0c1.2,0.2,2.4,0.5,3.5,1.2c1,0.6,1.9,1.5,2.6,2.4c0.1,0.1,0,0.2-0.1,0.3
		c-0.7,0.7-1.4,1.3-2.2,2c-0.6,0.5-1.2,1.1-1.8,1.6c-0.2,0.2-0.3,0.1-0.4-0.1c-0.5-0.7-1.1-1.3-2-1.5c-1.4-0.4-2.8,0.1-3.6,1.4
		C79.3,54.2,79,55.2,79.1,56.6z"/>
</g>
</svg>
