<?xml version="1.0" encoding="utf-8"?>
<!-- Generator: Adobe Illustrator 23.0.2, SVG Export Plug-In . SVG Version: 6.00 Build 0)  -->
<svg version="1.1" id="Layer_1" xmlns="http://www.w3.org/2000/svg" xmlns:xlink="http://www.w3.org/1999/xlink" x="0px" y="0px"
	 viewBox="0 0 160 80" style="enable-background:new 0 0 160 80;" xml:space="preserve">
<style type="text/css">
	.st0{fill:#D0021B;}
</style>
<g>
	<g>
		<path d="M74.7,36.9L74.7,36.9l-3.5,9.4h-1.7L66.1,37l-0.1,0l0.2,5.6v2l1.4,0.3v1.5h-5.3v-1.5l1.4-0.3v-9.2l-1.4-0.3v-1.5h1.4h3.3
			l3.2,9.4h0.1l3.3-9.4h4.7v1.5L77,35.4v9.2l1.4,0.3v1.5h-5.3v-1.5l1.4-0.3v-2L74.7,36.9z"/>
		<path d="M88.1,40.8h-4.3v3.6h4.1l0.1-1.5h1.9v3.5H79.9v-1.5l1.4-0.3v-9.2l-1.4-0.3v-1.5h1.4h8.7v3.5h-2l-0.1-1.5h-4.1v3.2h4.3
			V40.8z"/>
		<path d="M97.5,33.6c1.5,0,2.7,0.3,3.5,0.9c0.8,0.6,1.3,1.5,1.3,2.6c0,0.6-0.2,1.1-0.5,1.6c-0.3,0.5-0.8,0.8-1.4,1
			c0.8,0.2,1.3,0.5,1.7,1.1c0.4,0.5,0.6,1.2,0.6,1.9c0,1.2-0.4,2.1-1.2,2.8c-0.8,0.6-1.9,0.9-3.4,0.9h-6.3v-1.5l1.4-0.3v-9.2
			l-1.4-0.3v-1.5h1.4H97.5z M95.8,39h1.8c0.7,0,1.2-0.1,1.6-0.4c0.4-0.3,0.6-0.7,0.6-1.2c0-0.6-0.2-1-0.6-1.3
			c-0.4-0.3-0.9-0.4-1.7-0.4h-1.8V39z M95.8,40.7v3.7h2.4c0.7,0,1.2-0.1,1.5-0.4c0.4-0.3,0.5-0.7,0.5-1.3c0-0.6-0.2-1.1-0.5-1.4
			c-0.3-0.3-0.8-0.5-1.4-0.5H95.8z"/>
		<path d="M104.3,46.4v-1.5l1.4-0.3v-9.2l-1.4-0.3v-1.5h1.4h2.6h1.4v1.5l-1.4,0.3v9h3.6l0.1-1.6h2v3.6H104.3z"/>
		<path d="M115.4,35.2v-1.5h5.3v1.5l-1.4,0.3v9.2l1.4,0.3v1.5h-5.3v-1.5l1.4-0.3v-9.2L115.4,35.2z"/>
		<path class="st0" d="M132.6,37.9h-1.9l-0.3-1.7c-0.3-0.3-0.6-0.4-1-0.6c-0.4-0.1-0.8-0.2-1.4-0.2c-1.1,0-2,0.4-2.6,1.2
			s-0.9,1.9-0.9,3.2v0.4c0,1.3,0.3,2.3,0.9,3.2c0.6,0.8,1.4,1.2,2.5,1.2c0.5,0,1-0.1,1.4-0.2c0.4-0.1,0.7-0.3,1-0.6l0.3-1.7h1.9v2.5
			c-0.5,0.6-1.2,1.1-2,1.4c-0.8,0.4-1.7,0.5-2.7,0.5c-1.7,0-3.1-0.6-4.2-1.8c-1.1-1.2-1.6-2.7-1.6-4.6v-0.4c0-1.9,0.5-3.4,1.6-4.6
			s2.5-1.8,4.2-1.8c1,0,1.9,0.2,2.7,0.5c0.8,0.4,1.5,0.8,2,1.4V37.9z"/>
		<path class="st0" d="M134.2,44.8l0.9-0.1l3.9-11.1h2.6l3.9,11.1l0.9,0.1v1.5h-4.3v-1.5l0.9-0.2l-0.6-1.8h-4.1l-0.6,1.8l0.9,0.2
			v1.5h-4.3V44.8z M138.9,41.1h2.9l-1.4-4.5h-0.1L138.9,41.1z"/>
	</g>
	<g>
		<path d="M32.4,24c8.5,0,15.4,6.6,15.9,14.9h2.8c-0.5-9.9-8.7-17.8-18.8-17.8S14.1,29.1,13.6,39h2.8C17,30.6,23.9,24,32.4,24z"/>
		<path d="M32.4,56c-8.6,0-15.6-6.8-15.9-15.2h-2.8c0.4,10,8.7,18.1,18.8,18.1s18.4-8,18.8-18.1h-2.8C47.9,49.2,40.9,56,32.4,56z"/>
	</g>
	<polygon points="25.3,46 28.6,46 28.6,41.5 25.4,38.4 	"/>
	<polygon points="25.3,33.6 25.3,36.3 32.3,43.3 36.3,39.3 36.3,46.4 39.4,46.4 39.4,33.8 37.2,33.8 32.3,38.7 27.3,33.7 	"/>
</g>
</svg>
