<?xml version="1.0" encoding="utf-8"?>
<!-- Generator: Adobe Illustrator 23.0.2, SVG Export Plug-In . SVG Version: 6.00 Build 0)  -->
<svg version="1.1" id="Layer_1" xmlns="http://www.w3.org/2000/svg" xmlns:xlink="http://www.w3.org/1999/xlink" x="0px" y="0px"
	 viewBox="0 0 160 80" style="enable-background:new 0 0 160 80;" xml:space="preserve">
<style type="text/css">
	.st0{fill:#FFFFFF;}
</style>
<g>
	<polygon points="18.5,24.3 21.1,57.3 138.8,57.3 140.1,21.4 	"/>
	<g>
		<path class="st0" d="M45.2,49.7V39.6c0-1.6-0.1-2.5-1.1-2.5c-1.1,0-2.1,1.7-2.1,4.1v8.6h-5.1V39.6c0-1.6-0.1-2.5-1.1-2.5
			c-1.1,0-2.1,1.7-2.1,4.2v8.4h-5.1v-8.4c0-5.1-1.8-6.8-1.8-6.8l4.1-1.3c0,0,1,1.1,1.4,3c1.1-2,3-3,5.3-3c1.9,0,3.1,0.8,3.7,2.1
			c1.1-1.6,2.7-2.1,4.7-2.1c3.3,0,4.4,2.3,4.4,5.6v10.9h-5V49.7z"/>
		<path class="st0" d="M67.9,41.4c0,4.9-2.5,8.6-7.6,8.6s-7.4-3.1-7.4-8.2c0-4.9,2.5-8.6,7.6-8.6C65.7,33.1,67.9,36.2,67.9,41.4z"/>
		<path class="st0" d="M87.8,49.7V39.6c0-1.6-0.1-2.5-1.1-2.5c-1.1,0-2.1,1.7-2.1,4.1v8.6h-5.1V39.6c0-1.6-0.1-2.5-1.1-2.5
			c-1.1,0-2.1,1.7-2.1,4.2v8.4h-5.1v-8.4c0-5.1-1.8-6.8-1.8-6.8l4.1-1.3c0,0,1,1.1,1.4,3c1.1-2,3-3,5.3-3c1.9,0,3.1,0.8,3.7,2.1
			c1.1-1.6,2.7-2.1,4.7-2.1c3.3,0,4.4,2.3,4.4,5.6v10.9h-5V49.7z"/>
		<path class="st0" d="M95.7,46.1V33.4h5.1v11.2c0,1,0.4,1.3,1,1.3c0.4,0,0.7-0.1,0.8-0.1l0.5,3.2c-0.1,0.1-1.4,0.8-3.2,0.8
			C97.4,49.9,95.7,48.4,95.7,46.1z"/>
		<path class="st0" d="M114.8,38c-0.5-0.6-1-1.1-1.9-1.1c-1.1,0-2.7,0.4-2.7,4.5c0,4.1,1.8,4.7,3.2,4.7c1.1,0,2.6-0.6,2.7-0.6l1,3.3
			c0,0-1.9,1.1-4.8,1.1c-5.3,0-7.5-3.2-7.5-8c0-5.9,3.3-9,7.9-9c2.1,0,3.7,1,4.7,2.3L114.8,38z"/>
		<path class="st0" d="M126.5,33.1c4.1,0,5.6,2.1,5.6,4.9c0,3.1-3.2,5.6-8.4,6c0.4,1.3,1.1,2.1,2.6,2.1c1.9,0,4.7-1.1,4.7-1.1l1,3.3
			c0,0-3,1.4-6.3,1.4c-5.3,0-7.4-3.2-7.4-8C118.4,36.2,122,33.1,126.5,33.1z"/>
	</g>
</g>
</svg>
