<?xml version="1.0" encoding="utf-8"?>
<!-- Generator: Adobe Illustrator 23.0.2, SVG Export Plug-In . SVG Version: 6.00 Build 0)  -->
<svg version="1.1" id="Layer_1" xmlns="http://www.w3.org/2000/svg" xmlns:xlink="http://www.w3.org/1999/xlink" x="0px" y="0px"
	 viewBox="0 0 160 80" style="enable-background:new 0 0 160 80;" xml:space="preserve">
<style type="text/css">
	.st0{fill:#0018A8;}
	.st1{fill:#1A2155;}
</style>
<g>
	<g id="Layer_1-2">
		<path class="st0" d="M36.8,27.5v14.9L25,27.5h-2.4l14.7,18.4h1.5V27.5H36.8z M18.6,27.5l14.6,18.5h2.4L21,27.5H18.6z M45.4,27.5
			h1.9v29h-1.9L45.4,27.5z M24.8,37.8h-2.4l14.4,18.7h2.4L24.8,37.8L24.8,37.8L24.8,37.8z M42.2,27.5h1.9v29h-1.9L42.2,27.5z
			 M19.3,37.7v18.8h1.9V41.3L33,56.5h2.4L20.8,37.7H19.3z M13.9,27.5h1.9v29h-1.9V27.5z"/>
		<path class="st1" d="M90.3,38.8V43l-2.6-4.2h-2.3v6.8h1.8v-4.4l2.9,4.4H92v-6.8H90.3L90.3,38.8z M79.1,38.8h1.8v6.8h-1.8V38.8z
			 M100.4,38.7L99,43.3l-1.5-4.6h-1.9l2.4,6.8h2.1l2.2-6.8H100.4L100.4,38.7z M105.9,38.7v6.8h5.3V44h-3.4v-1.2h3.1v-1.5h-3.1v-1
			h3.4v-1.6H105.9z M117.4,42.8c-0.5-0.1-1-0.3-1.4-0.7c-0.4-0.4-0.6-0.9-0.6-1.4c0-0.6,0.3-1.2,0.8-1.6c0.5-0.4,1.2-0.6,1.9-0.6
			c1,0,2,0.4,2.6,1.2l-1.1,1.2c-0.5-0.6-1-0.9-1.6-0.9c-0.5,0-0.8,0.2-0.8,0.5c0,0.2,0.2,0.4,0.6,0.5l0.9,0.2c1.4,0.3,2.2,1,2.2,2.2
			c0,0.6-0.3,1.2-0.8,1.5c-0.6,0.4-1.3,0.6-2,0.6c-1.1,0-2.2-0.5-2.9-1.4l1.1-1.1c0.4,0.6,1.1,1,1.9,1c0.6,0,0.9-0.2,0.9-0.5
			c0-0.3-0.2-0.4-0.7-0.5L117.4,42.8z M124.3,38.7v1.6h2.3v5.3h1.8v-5.3h2.1v-1.6L124.3,38.7L124.3,38.7z M68.6,27.8V32l-2.6-4.2
			h-2.3v6.8h1.8v-4.4l2.9,4.4h2.1v-6.8H68.6L68.6,27.8z M74.6,27.8h1.8v6.8h-1.8V27.8z M80.8,34.6v-6.8h2.5c0.9,0,1.8,0.2,2.5,0.7
			c0.7,0.5,1.2,1.4,1.2,2.7c0,2.6-1.9,3.5-3.7,3.5H80.8z M82.6,29.4v3.7h0.5c1.4,0,2.1-0.6,2.1-1.9c0-1.2-0.7-1.8-2.1-1.8H82.6z
			 M95.4,34.6L95,33.5h-2.4l-0.4,1.1h-1.8l2.5-6.8h1.9l2.5,6.8H95.4z M93.8,30.1L93.1,32h1.3L93.8,30.1z M105.1,34.6l-1.3-2.1H103
			v2.1h-1.8v-6.8h2.9c1.8,0,2.8,0.8,2.8,2.4c0,1-0.4,1.6-1.2,2l1.4,2.4H105.1z M103,29.4V31h1c0.8,0,1.2-0.3,1.2-0.8
			s-0.3-0.8-1.2-0.8H103z M115.2,34.6V32h-2.1v2.6h-1.8v-6.8h1.8v2.6h2.1v-2.6h1.8v6.8H115.2z M121.6,28.7c1.4-1.3,3.6-1.3,4.9,0
			c0.7,0.7,1,1.6,1,2.5c0,0.9-0.3,1.9-1,2.5c-1.4,1.3-3.6,1.3-4.9,0c-0.7-0.7-1-1.6-1-2.5C120.6,30.3,120.9,29.4,121.6,28.7
			 M122.9,32.6c0.3,0.4,0.7,0.6,1.2,0.5c0.5,0,0.9-0.2,1.2-0.5c0.3-0.4,0.5-0.9,0.4-1.4c0-0.5-0.1-1-0.4-1.4
			c-0.3-0.4-0.7-0.6-1.2-0.5c-0.5,0-0.9,0.2-1.2,0.5c-0.3,0.4-0.5,0.9-0.4,1.4C122.4,31.7,122.6,32.2,122.9,32.6 M130.8,34.6v-6.8
			h1.8v5.3h3v1.6H130.8z M144,27.8l-1.4,3.3l-1.4-3.3h-2.1v6.7h1.8v-3.5l1,2.2h1.5l1-2.2v3.5h1.8v-6.7C146.1,27.8,144,27.8,144,27.8
			z"/>
	</g>
</g>
</svg>
