<?xml version="1.0" encoding="utf-8"?>
<!-- Generator: Adobe Illustrator 23.0.2, SVG Export Plug-In . SVG Version: 6.00 Build 0)  -->
<svg version="1.1" id="Layer_1" xmlns="http://www.w3.org/2000/svg" xmlns:xlink="http://www.w3.org/1999/xlink" x="0px" y="0px"
	 viewBox="0 0 160 80" style="enable-background:new 0 0 160 80;" xml:space="preserve">
<style type="text/css">
	.st0{fill:#0084BF;}
	.st1{fill:#FFFFFF;}
	.st2{fill:#FFC758;}
</style>
<g>
	<title>Artboard 1</title>
	<polygon class="st0" points="48.3,52.6 48.3,56.9 50.6,56.9 50.6,56.6 48.7,56.6 48.7,52.6 	"/>
	<rect x="52" y="52.6" class="st0" width="0.4" height="4.3"/>
	<polygon class="st0" points="54.3,52.6 54.3,56.9 54.7,56.9 54.7,54.9 56.2,54.9 56.2,54.6 54.7,54.6 54.7,52.9 56.6,52.9 
		56.6,52.6 	"/>
	<polygon class="st0" points="58.1,52.6 58.1,56.9 60.4,56.9 60.4,56.6 58.5,56.6 58.5,54.9 60,54.9 60,54.6 58.5,54.6 58.5,52.9 
		60.4,52.9 60.4,52.6 	"/>
	<polygon class="st0" points="68.4,52.6 67.2,56.4 66.4,54.4 67,52.6 66.7,52.6 66.2,54 65.7,52.6 65.3,52.6 66,54.4 65.3,56.5 
		63.9,52.6 63.5,52.6 65.2,57 65.4,57 66.2,54.8 67.1,57 67.3,57 68.8,52.6 	"/>
	<rect x="70.2" y="52.6" class="st0" width="0.4" height="4.3"/>
	<polygon class="st0" points="71.9,52.6 71.9,52.9 73.3,52.9 73.3,56.9 73.7,56.9 73.7,52.9 75.1,52.9 75.1,52.6 	"/>
	<polygon class="st0" points="79.6,52.6 79.6,54.6 76.8,54.6 76.8,52.6 76.5,52.6 76.5,56.9 76.8,56.9 76.8,54.9 79.6,54.9 
		79.6,56.9 79.9,56.9 79.9,52.6 	"/>
	<path class="st0" d="M83.6,52.8c-1.1-0.1-2,0.6-2.2,1.7c-0.1,1.1,0.6,2,1.7,2.2c1.1,0.1,2-0.6,2.2-1.7c0-0.1,0-0.2,0-0.3
		C85.4,53.8,84.6,52.9,83.6,52.8 M83.6,57c-1.2,0.1-2.3-0.8-2.4-2.1c-0.1-1.2,0.8-2.3,2.1-2.4c1.2-0.1,2.3,0.8,2.4,2.1
		c0,0.1,0,0.1,0,0.2c0.1,1.2-0.8,2.2-1.9,2.3C83.7,57,83.7,57,83.6,57"/>
	<path class="st0" d="M88.8,57.1c-0.8,0.1-1.5-0.5-1.6-1.3c0-0.1,0-0.2,0-0.3v-2.9h0.4v2.8c0,0.8,0.4,1.4,1.2,1.4
		c0.9,0,1.3-0.6,1.3-1.4v-2.8h0.4v2.9c0.1,0.8-0.5,1.5-1.3,1.6C89,57.1,88.9,57.1,88.8,57.1"/>
	<polygon class="st0" points="91.6,52.6 91.6,52.9 93.1,52.9 93.1,56.9 93.4,56.9 93.4,52.9 94.9,52.9 94.9,52.6 	"/>
	<polygon class="st0" points="98.3,52.6 98.3,56.9 100.6,56.9 100.6,56.6 98.7,56.6 98.7,52.6 	"/>
	<rect x="101.9" y="52.6" class="st0" width="0.4" height="4.3"/>
	<polygon class="st0" points="107.9,52.6 106.3,56.6 104.9,52.6 104.3,52.6 104.3,56.9 104.6,56.9 104.6,52.9 106.1,56.9 
		106.5,56.9 108.1,52.9 108.1,56.9 108.4,56.9 108.4,52.6 	"/>
	<rect x="110.4" y="52.6" class="st0" width="0.4" height="4.3"/>
	<polygon class="st0" points="112.1,52.6 112.1,52.9 113.6,52.9 113.6,56.9 113.9,56.9 113.9,52.9 115.4,52.9 115.4,52.6 	"/>
	<path class="st0" d="M117.4,52.8l0.8,2.5h-1.7L117.4,52.8z M117.2,52.5l-1.6,4.5h0.4l0.4-1.3h1.9l0.4,1.3h0.4l-1.6-4.5H117.2z"/>
	<polygon class="st0" points="119.4,52.6 119.4,52.9 120.8,52.9 120.8,56.9 121.2,56.9 121.2,52.9 122.6,52.9 122.6,52.6 	"/>
	<rect x="124" y="52.6" class="st0" width="0.4" height="4.3"/>
	<path class="st0" d="M128,52.8c-1.1-0.1-2,0.6-2.2,1.7c-0.1,1.1,0.6,2,1.7,2.2c1.1,0.1,2-0.6,2.2-1.7c0-0.1,0-0.2,0-0.3
		C129.8,53.8,129,52.9,128,52.8 M128,57c-1.2,0.1-2.3-0.8-2.4-2.1c-0.1-1.2,0.8-2.3,2.1-2.4c1.2-0.1,2.3,0.8,2.4,2.1
		c0,0.1,0,0.1,0,0.2c0.1,1.2-0.8,2.2-1.9,2.3C128.1,57,128.1,57,128,57"/>
	<polygon class="st0" points="134.7,52.6 134.7,56.5 132.2,52.6 131.7,52.6 131.7,56.9 132.1,56.9 132.1,53 134.6,57 135.1,57 
		135.1,52.6 	"/>
	<path class="st0" d="M139.2,53.2c-0.3-0.2-0.7-0.3-1-0.3c-0.5,0-0.9,0.3-0.9,0.7c0,0.4,0.2,0.6,1.1,1.1c0.5,0.3,1,0.6,1,1.2
		c0,0.7-0.5,1.2-1.3,1.2c-0.5,0-0.9-0.1-1.2-0.4l0.2-0.3c0.3,0.3,0.7,0.4,1.1,0.4c0.6,0,0.9-0.3,0.9-0.8c0-0.6-0.7-0.9-1.2-1.2
		c-0.6-0.4-0.9-0.7-0.9-1.1c0-0.7,0.5-1.1,1.3-1.1c0.4,0,0.8,0.1,1.1,0.3L139.2,53.2z"/>
	<path class="st0" d="M48.3,26.4c0-1.3,1-2.3,2.3-2.3c1.3,0,2.3,1,2.3,2.3c0,1.3-1,2.3-2.3,2.3c0,0,0,0,0,0
		C49.4,28.7,48.3,27.7,48.3,26.4C48.3,26.4,48.3,26.4,48.3,26.4"/>
	<path class="st0" d="M55.5,26.4c0-1.3,1-2.3,2.3-2.3c1.3,0,2.3,1,2.3,2.3c0,1.2-1,2.3-2.2,2.3C56.6,28.7,55.5,27.7,55.5,26.4
		C55.5,26.4,55.5,26.4,55.5,26.4"/>
	<path class="st0" d="M115.3,30.8v11.6c0,1.1-0.6,2.7-3.9,2.7c-3.4,0-3.8-1.6-3.9-2.7V30.8h-4.2v11.6c0,1.7,0.8,3.6,4.3,5.2
		c1.3,0.4,2.6,0.6,4,0.5c1.4,0,2.9-0.2,4.2-0.7c3.4-1.4,3.9-3.6,3.9-5.1V30.8H115.3z"/>
	<path class="st0" d="M64.2,39.3c0-2.6-1.1-5-3-6.7c-1.7-1.5-4.2-2.1-6.9-2.1s-5.1,0.6-6.9,2.1c-3.7,3.2-4.1,8.9-0.8,12.6
		c0.3,0.3,0.5,0.6,0.8,0.8c1.7,1.4,4.2,2.1,6.9,2.1s5.1-0.6,6.9-2.1C63.1,44.3,64.2,41.9,64.2,39.3 M54.3,45.1
		c-1.4,0-2.7-0.4-3.8-1.1c-1.3-1-2-2.8-2.1-4.7c0-1.8,0.7-3.7,2.1-4.6c1.1-0.8,2.4-1.2,3.8-1.1c1.3,0,2.7,0.4,3.8,1.1
		c1.3,1,2,2.8,2.1,4.7c0,1.8-0.7,3.6-2.1,4.7C56.9,44.7,55.6,45.1,54.3,45.1"/>
	<path class="st0" d="M122.7,47.6h4.2v-6.6h5c1.5,0,2.5,0.6,2.6,1.7c-0.1,1.1-0.1,2.3,0,3.4c0.1,0.6,0.2,1.1,0.6,1.6h4.5v-0.6
		c-0.4-0.2-0.8-0.4-0.8-1.4c0-0.8-0.1-3.1-0.2-3.8c-0.2-1.5-1.6-1.9-2.3-2.3c1.4-0.7,2.3-1.2,2.8-2.7c0.4-1.1,0.3-2.3-0.2-3.4
		c-0.6-1.8-2.7-2.6-4.7-2.7h-11.4V47.6z M126.9,33.7h5.7c1.9,0,2.6,0.7,2.6,1.9c0.2,1.6-1.5,2.5-2.5,2.5h-5.8V33.7z"/>
	<path class="st0" d="M142.7,44.9h0.5c0.2,0,0.5,0,0.5,0.4s-0.3,0.4-0.6,0.4h-0.4V44.9z M142.3,47h0.4v-1h0.4l0.6,1h0.4l-0.7-1
		c0.3,0,0.6-0.3,0.6-0.6c0,0,0,0,0,0c0-0.5-0.3-0.7-0.8-0.7h-0.9V47z M141.4,45.8c0-0.9,0.8-1.6,1.7-1.6c0.9,0,1.6,0.8,1.6,1.7
		c0,0.9-0.8,1.6-1.7,1.6C142.2,47.5,141.4,46.8,141.4,45.8C141.4,45.8,141.4,45.8,141.4,45.8 M141,45.8c0,1.1,0.9,2,2,2.1
		c1.1,0,2-0.9,2.1-2s-0.9-2-2-2.1c0,0,0,0,0,0C142,43.8,141.1,44.7,141,45.8C141,45.8,141,45.8,141,45.8"/>
	<rect x="16.6" y="23.1" class="st1" width="23.7" height="26"/>
	<rect x="17.7" y="24.2" class="st0" width="21.6" height="23.9"/>
	<path class="st2" d="M39.3,31.7c-4.6-1.4-7.7,1-9.5,3.7c-2.3,3.3-1.3,12.7-1.3,12.7h-8.1c-0.7-3.8,1-10.2,4.2-14.1
		c5.7-6.9,14.8-4.5,14.8-4.5L39.3,31.7z"/>
	<path class="st2" d="M33.1,27.2c0-0.6,0.4-1,1-1c0.6,0,1,0.4,1,1c0,0.6-0.4,1-1,1c0,0,0,0,0,0C33.5,28.3,33.1,27.8,33.1,27.2
		C33.1,27.2,33.1,27.2,33.1,27.2"/>
	<path class="st2" d="M36.3,27.2c0-0.6,0.4-1,1-1s1,0.4,1,1c0,0.6-0.4,1-1,1c0,0,0,0,0,0C36.7,28.2,36.3,27.8,36.3,27.2L36.3,27.2"
		/>
	<path class="st0" d="M82,35.9c0.2-0.6-0.1-2.1-1.2-3.3c-2-2.1-5.8-2.1-6.9-2.1c-5,0-7.4,2-7.7,4.7s1.5,4,3.7,4.6
		c2.7,0.7,6.7,0.7,8.1,1.9c0.8,0.6,0.9,1.7,0.3,2.5c-0.1,0.1-0.2,0.3-0.4,0.4c-0.5,0.4-1.9,0.8-3.3,0.8c-1.4,0-3-0.2-3.9-1
		c-0.5-0.4-0.9-1.1-0.9-1.7h-4.1c0.2,1.8,1.3,3.4,2.9,4.3c1.5,0.9,4,1.2,5,1.2c2.3,0,4.7-0.3,6.4-1.2c2.6-1.4,3.7-5.3,1.3-7.4
		c-1.3-1.1-3.7-1.5-4.9-1.7c-0.8-0.1-4.5-0.7-5.2-0.9c-0.9-0.3-1.4-0.6-1.3-1.8c0.1-1.4,1.7-2,3.7-1.9c2.9,0,4.3,1.3,4.2,2.7
		L82,35.9z"/>
	<path class="st0" d="M100.4,35.9c0.2-0.6-0.1-2.1-1.2-3.3c-2-2.1-5.8-2.1-6.9-2.1c-5,0-7.4,2-7.7,4.7c-0.4,2.7,1.5,4,3.7,4.6
		c2.7,0.7,6.7,0.7,8.1,1.9c0.8,0.6,0.9,1.7,0.3,2.5c-0.1,0.1-0.2,0.3-0.4,0.4c-0.5,0.4-1.9,0.8-3.3,0.8c-1.4,0-3-0.2-3.9-1
		c-0.5-0.4-0.9-1.1-0.9-1.7h-4.1c0.2,1.8,1.3,3.4,2.9,4.3c1.5,0.9,4,1.2,5,1.2c2.3,0,4.7-0.3,6.4-1.2c2.6-1.4,3.7-5.3,1.3-7.4
		c-1.3-1.1-3.7-1.5-4.9-1.7c-0.8-0.1-4.5-0.7-5.2-0.9c-0.9-0.3-1.4-0.6-1.3-1.8c0.1-1.4,1.7-2,3.7-1.9c2.9,0,4.3,1.3,4.2,2.7
		L100.4,35.9z"/>
</g>
</svg>
