<?xml version="1.0" encoding="utf-8"?>
<!-- Generator: Adobe Illustrator 23.0.2, SVG Export Plug-In . SVG Version: 6.00 Build 0)  -->
<svg version="1.1" id="Layer_1" xmlns="http://www.w3.org/2000/svg" xmlns:xlink="http://www.w3.org/1999/xlink" x="0px" y="0px"
	 viewBox="0 0 160 80" style="enable-background:new 0 0 160 80;" xml:space="preserve">
<style type="text/css">
	.st0{fill:#17193E;}
</style>
<g>
	<path class="st0" d="M46.8,20.1c-0.7,1-1,2.1-1.1,3.3v0.1c0,1.8,0.9,3.5,2.4,4.6c2.6,1.8,6.1,1.2,8-1.3c0.7-1,1-2.1,1.1-3.3v-0.1
		c0-1.8-0.9-3.5-2.4-4.6c-1-0.7-2.2-1.1-3.3-1.1C49.7,17.7,47.9,18.5,46.8,20.1z"/>
	<path class="st0" d="M31.5,58.3c8.7-0.3,15.7-7.5,15.7-16.3c0-9-7.3-16.4-16.3-16.4h-0.1c-8.9,0-16.1,7.1-16.3,15.9v0.9
		c0.2,8.6,7.1,15.5,15.7,15.9H31.5z"/>
</g>
<path class="st0" d="M79.9,45.2H78c-0.3,0-0.4,0.2-0.4,0.4v12.7c0,0.2,0.1,0.4,0.4,0.4h1.9c0.2,0,0.4-0.2,0.4-0.4V45.6
	C80.3,45.4,80.2,45.2,79.9,45.2z"/>
<path class="st0" d="M133.4,25.7h-6.9c-0.2,0-0.4,0.1-0.4,0.4V28c0,0.2,0.2,0.4,0.4,0.4h2.1v10.4c0,0.3,0.2,0.4,0.4,0.4h1.9
	c0.3,0,0.4-0.2,0.4-0.4V28.4h2.1c0.3,0,0.4-0.2,0.4-0.4v-1.9C133.9,25.8,133.6,25.7,133.4,25.7z"/>
<path class="st0" d="M105.6,38.8v-5h2.8v5c0,0.3,0.2,0.4,0.4,0.4h1.9c0.3,0,0.4-0.2,0.4-0.4V26.1c0-0.2-0.1-0.4-0.4-0.4h-1.9
	c-0.2,0-0.4,0.2-0.4,0.4v5h-2.8v-5c0-0.3-0.2-0.4-0.4-0.4h-1.9c-0.3,0-0.4,0.2-0.4,0.4v12.7c0,0.2,0.1,0.4,0.4,0.4h1.9
	C105.5,39.2,105.6,39.1,105.6,38.8z"/>
<path class="st0" d="M72.9,25.7h-1.6h-3.8h-1.6c-0.3,0-0.5,0.1-0.5,0.5v12.6c0,0.2,0.1,0.4,0.4,0.4h1.9c0.2,0,0.4-0.2,0.4-0.4V28.4
	h2.6v10.4c0,0.3,0.2,0.4,0.4,0.4h1.9c0.3,0,0.4-0.2,0.4-0.4V26.2C73.4,25.8,73.2,25.7,72.9,25.7z"/>
<path class="st0" d="M86,38.8V26.2c0-0.4-0.2-0.5-0.5-0.5h-1.6h-0.6h-1.6c-1.9,0-2.9,0.9-2.9,3v4c0,0.7,0.1,2.9-0.3,3.8
	c-0.3,0.6-0.8,0.8-1.1,1c-0.2,0.1-0.3,0.3-0.2,0.6c0.1,0.2,0.4,0.9,0.4,1.1c0.1,0.2,0.2,0.4,0.5,0.3c0.5-0.1,1.2-0.3,1.9-0.9
	c0.7-0.7,1.4-1.4,1.4-5.6v-4c0-0.9,0.6-0.9,1.1-0.9h0.8V28v0.2v10.6c0,0.3,0.2,0.4,0.4,0.4h1.9C85.9,39.2,86,39,86,38.8z"/>
<path class="st0" d="M92.4,45.2h-1.9c-0.2,0-0.4,0.2-0.4,0.4v5h-2.8v-5c0-0.3-0.2-0.4-0.4-0.4h-1.9c-0.3,0-0.4,0.2-0.4,0.4v12.7
	c0,0.2,0.1,0.4,0.4,0.4h1.9c0.2,0,0.4-0.2,0.4-0.4v-5h2.8v5c0,0.3,0.2,0.4,0.4,0.4h1.9c0.3,0,0.4-0.2,0.4-0.4V45.6
	C92.8,45.5,92.7,45.2,92.4,45.2z"/>
<path class="st0" d="M117.5,39.2h5c0.3,0,0.5-0.2,0.5-0.5v-1.9c0-0.3-0.1-0.4-0.4-0.4h-4.3V34h2.9c0.3,0,0.4-0.1,0.4-0.5v-1.8
	c0-0.3-0.1-0.5-0.5-0.5h-1H119h-0.7v-2.8h3.9c0.3,0,0.4-0.1,0.4-0.4v-1.8c0-0.3-0.1-0.5-0.5-0.5h-4.4h-0.2H116
	c-0.3,0-0.5,0.2-0.5,0.5v12.6c0,0.2,0.1,0.5,0.4,0.5H117.5L117.5,39.2z"/>
<path class="st0" d="M99.3,38.6l-3.5-12.5c-0.1-0.3-0.3-0.5-0.6-0.5h-0.1h-1.5h-0.1c-0.3,0-0.5,0.1-0.6,0.5l-3.5,12.5
	c-0.1,0.3,0.1,0.6,0.3,0.6h1.8c0.4,0,0.5-0.1,0.5-0.4l0.4-1.7h3.7l0.1,0l0.4,1.7c0.1,0.3,0.2,0.4,0.5,0.4H99
	C99.3,39.2,99.4,39,99.3,38.6z M93.2,34.4l1-4.1l0.2-1l0.2,1l1,4.1H93.2z"/>
<path class="st0" d="M142.3,26.1c-0.1-0.3-0.3-0.5-0.6-0.5h-0.1H140h-0.1c-0.3,0-0.5,0.1-0.6,0.5l-3.5,12.5
	c-0.1,0.3,0.1,0.6,0.3,0.6h1.8c0.4,0,0.5-0.1,0.5-0.4l0.4-1.7h3.7l0.1,0l0.4,1.7c0.1,0.3,0.2,0.4,0.5,0.4h1.8c0.2,0,0.4-0.3,0.3-0.6
	L142.3,26.1z M139.6,34.4l1-4.1l0.2-1l0.2,1l1,4.1H139.6z"/>
<path class="st0" d="M101.2,45.1c-2.5,0-4.4,1.4-4.4,4.4c0,2,0,2.2,0,4.8c0,3.1,1.8,4.6,4.5,4.6c2.7,0,4.5-1.6,4.5-4.6
	c0-2.1,0-2.1,0-4.6C105.6,46.7,103.7,45.1,101.2,45.1z M102.9,54.5c0,1.2-0.7,1.8-1.7,1.8c-1,0-1.7-0.7-1.7-1.8c0-1,0-4.4,0-5.1
	c0-1.2,0.7-1.8,1.7-1.8c1,0,1.7,0.7,1.7,1.8C102.9,50.4,102.9,53.7,102.9,54.5z"/>
<path class="st0" d="M73.3,54.8c-0.5-2-1.6-2.7-2.8-3l0.1,0c1.4-0.4,1.9-1.4,2.3-2.8c0.3-1.1,1-3.2,1-3.2c0.1-0.3,0-0.5-0.3-0.5
	h-1.8c-0.3,0-0.4,0.1-0.5,0.4c0,0-0.7,2.7-1,3.4c-0.2,0.9-0.7,1.3-1.4,1.3h-0.8v-4.7c0-0.3-0.2-0.4-0.4-0.4h-1.9
	c-0.3,0-0.4,0.2-0.4,0.4v12.7c0,0.2,0.1,0.4,0.4,0.4h1.9c0.2,0,0.4-0.1,0.4-0.4v-5h0.7c0.7,0,1.8,0.4,2,1.7c0.2,0.9,0.7,3.4,0.7,3.4
	c0.1,0.3,0.2,0.4,0.5,0.4h1.8c0.2,0,0.4-0.2,0.3-0.5C74.2,58.3,73.5,55.8,73.3,54.8z"/>
</svg>
