<?xml version="1.0" encoding="utf-8"?>
<!-- Generator: Adobe Illustrator 23.0.2, SVG Export Plug-In . SVG Version: 6.00 Build 0)  -->
<svg version="1.1" id="Layer_1" xmlns="http://www.w3.org/2000/svg" xmlns:xlink="http://www.w3.org/1999/xlink" x="0px" y="0px"
	 viewBox="0 0 160 80" style="enable-background:new 0 0 160 80;" xml:space="preserve">
<style type="text/css">
	.st0{fill:#52DCD3;}
</style>
<g>
	<path class="st0" d="M131.8,56.1c-1.4,0-1.3-0.4-0.8-1.4c1.3-2.7,2.5-5.5,3.8-8.2c0.6-1.2,0.5-2.2-0.1-3.4
		c-2.3-4.5-4.6-9.1-6.8-13.7c-0.3-0.5-0.5-1-0.8-1.8c1.5,0,2.8,0,4.2,0c0.9,0,1.1,0.7,1.4,1.3c1.5,3,3,6.1,4.5,9.1
		c0.2,0.5,0.5,0.9,0.9,1.6c1.5-3.3,3.1-6.3,4.2-9.4c0.8-2.2,1.9-2.7,4.3-2.7c1.2,0,1.1,0,1.7,0c0,0.2,0,0.4,0,0.6
		c-1.7,3-2.4,4.8-3.6,7.2c-3,6.3-5.9,12.6-8.7,18.9c-0.6,1.3-1.2,1.7-2.8,1.7L131.8,56.1z"/>
	<path class="st0" d="M13.5,45.4c0-3,0-6,0-9.1c0.1-4.8,4.3-9,9.3-9.3c5-0.3,9.6,3.3,10.4,8.3c0.7,4.6-2.5,9.7-6.9,10.9
		c-2.1,0.6-4.2,0.4-6.4,0.5c-2.1,0.1-2.1,0-2.1,2.2c0,2,0,4,0,5.9c0,0.9-0.3,1.3-1.3,1.3c-3,0.1-3,0.1-3-2.9
		C13.5,50.6,13.5,48,13.5,45.4C13.5,45.4,13.5,45.4,13.5,45.4z M21.1,42.6c0.7,0,1.5,0,2.2,0c3.2-0.1,5.7-2.5,5.8-5.6
		c0.1-2.7-2.2-5.3-4.8-5.7c-3.4-0.4-5.9,1.5-6.4,4.9c-0.2,1-0.1,2-0.1,3C17.6,42.6,17.6,42.6,21.1,42.6z"/>
	<path class="st0" d="M59.3,46.7c-5.6,0-10.1-4.3-10-9.8c0-5.5,4.5-9.8,10.2-9.8c5.6,0,10,4.4,10,9.9C69.4,42.6,64.9,46.8,59.3,46.7
		z M64.8,37c0-3.3-2.3-5.7-5.5-5.7c-3.2,0-5.5,2.4-5.5,5.7c0,3.2,2.3,5.6,5.4,5.6C62.5,42.7,64.8,40.3,64.8,37z"/>
	<path class="st0" d="M106.2,46.7c-5.7,0-10.1-4.2-10.1-9.7c0-5.6,4.4-9.8,10.1-9.8c5.7,0,9.9,4.2,9.9,9.8
		C116.2,42.6,111.9,46.8,106.2,46.7z M100.7,37c0,3.4,2.2,5.7,5.5,5.7c3.1,0,5.5-2.4,5.5-5.6c0-3.3-2.3-5.7-5.5-5.8
		C103,31.3,100.7,33.6,100.7,37z"/>
	<path class="st0" d="M41.2,30c1.7-2.2,3.9-2.9,6.4-2.8c0.8,0,0.8,0.3,0.9,1.1c0,0.7,0,0.8,0,1.2c0,1.3-0.5,1.9-2.1,1.9
		c-3.2-0.1-5,1.9-5,5.1c0,2.9,0,5.7,0,8.6c0,1-0.3,1.3-1.4,1.3c-0.9,0-0.8,0-1.6,0c-1.6,0-1.6-0.6-1.6-3.1c0-4.7,0-9.5,0-14.2
		c0-1.2,0.3-1.5,1.5-1.5c0.2,0,0.3,0,0.5,0C40.9,27.6,40.9,27.6,41.2,30z"/>
</g>
<path class="st0" d="M72.9,45.4c0-3,0-6,0-9.1c0.1-4.8,4.3-9,9.3-9.3c5-0.3,9.6,3.3,10.4,8.3c0.7,4.6-2.5,9.7-6.9,10.9
	c-2.1,0.6-4.2,0.4-6.4,0.5c-2.1,0.1-2.1,0-2.1,2.2c0,2,0,4,0,5.9c0,0.9-0.3,1.3-1.3,1.3c-3,0.1-3,0.1-3-2.9
	C72.9,50.6,72.9,48,72.9,45.4C72.9,45.4,72.9,45.4,72.9,45.4z M80.5,42.6c0.7,0,1.5,0,2.2,0c3.2-0.1,5.7-2.5,5.8-5.6
	c0.1-2.7-2.2-5.3-4.8-5.7c-3.4-0.4-5.9,1.5-6.4,4.9c-0.2,1-0.1,2-0.1,3C77,42.6,77,42.6,80.5,42.6z"/>
<path class="st0" d="M124.3,18.5h-4.4v26.9c0,0.6,0.5,1,1,1h2.4c0.6,0,1-0.5,1-1V18.5z"/>
</svg>
