<?xml version="1.0" encoding="utf-8"?>
<!-- Generator: Adobe Illustrator 23.0.2, SVG Export Plug-In . SVG Version: 6.00 Build 0)  -->
<svg version="1.1" id="Layer_1" xmlns="http://www.w3.org/2000/svg" xmlns:xlink="http://www.w3.org/1999/xlink" x="0px" y="0px"
	 viewBox="0 0 160 80" style="enable-background:new 0 0 160 80;" xml:space="preserve">
<style type="text/css">
	.st0{fill:#FEFEFE;}
	.st1{fill:#04374F;}
	.st2{fill:#063951;}
	.st3{fill:#093C53;}
	.st4{fill:#F39B00;}
	.st5{fill:#81CBE2;}
</style>
<g>
	<path class="st0" d="M47.6,27.1C47.6,27.1,47.6,27.1,47.6,27.1c-0.1,8.6-0.1,17.2-0.1,25.8c0,0,0,0,0.1,0
		C47.6,44.3,47.6,35.7,47.6,27.1z"/>
	<ellipse class="st1" cx="47.6" cy="40" rx="0" ry="18.3"/>
</g>
<path class="st2" d="M114.9,39.7c0.6,0.2,1.2,0.4,1.6,0.8c1.5,1.4,1.2,4-0.7,5c-0.8,0.4-1.7,0.6-2.6,0.6c-1.7,0-3.4,0-5.1,0
	c-0.3,0-0.3-0.1-0.3-0.3c0-3.8,0-7.7,0-11.5c0-0.3,0.1-0.3,0.3-0.3c1.7,0,3.4,0,5.2,0c0.8,0,1.5,0.2,2.2,0.6c1,0.6,1.5,1.5,1.4,2.7
	c-0.1,1.2-0.6,2-1.8,2.4C115.1,39.6,115,39.6,114.9,39.7C115,39.7,115,39.7,114.9,39.7z M111.7,40.5c-0.8,0-1.4,0-2.1,0
	c-0.3,0-0.4,0-0.4,0.3c0,1.2,0,2.4,0,3.6c0,0.3,0.1,0.3,0.4,0.3c1.2,0,2.3,0,3.5,0c0.6,0,1.2-0.1,1.7-0.3c0.9-0.4,1.4-1.3,1.1-2.3
	c-0.2-0.8-0.8-1.2-1.6-1.4C113.5,40.4,112.5,40.6,111.7,40.5z M111.6,35.2c-0.8,0-1.4,0-2.1,0c-0.2,0-0.3,0.1-0.3,0.3
	c0,1.1,0,2.2,0,3.3c0,0.2,0,0.3,0.2,0.3c1.4,0,2.7,0.1,4.1-0.1c0.6-0.1,1.2-0.3,1.6-0.7c0.9-1.1,0.3-2.6-1.1-3
	C113.2,35.2,112.3,35.3,111.6,35.2z"/>
<path class="st2" d="M77.8,33.8c3.1,0,5.8,2.1,6.3,5c0.6,3.3-1.4,6.4-4.7,7.2c-3.3,0.8-6.7-1-7.7-4.2c-1.2-3.6,1.3-7.5,5.1-7.9
	C77.1,33.9,77.5,33.8,77.8,33.8z M77.8,35.2c-2.7,0-5,2.1-5,4.7c0,2.7,2.2,4.9,5,4.9c2.7,0,5-2.2,5-4.8
	C82.8,37.3,80.5,35.2,77.8,35.2z"/>
<path class="st2" d="M150.5,40c0,3.2-2.4,5.8-5.6,6.1c-3.1,0.3-5.9-1.4-6.9-4.2c-1.2-3.7,1.3-7.6,5.1-8c2.8-0.3,5.4,0.9,6.6,3.2
	C150.3,38,150.6,39,150.5,40z M149.1,40c0-2.6-2.2-4.8-4.9-4.8c-2.7,0-5,2.1-5,4.8c0,2.7,2.2,4.8,5,4.9
	C146.9,44.8,149.1,42.6,149.1,40z"/>
<path class="st2" d="M88.9,40c0-3.2,2.3-5.8,5.4-6.1c2.7-0.3,5,0.6,6.5,3c2.2,3.6,0.1,8.4-4.1,9.2c-3.1,0.6-6.1-0.9-7.3-3.7
	C89,41.6,88.9,40.8,88.9,40z M95.3,35.2c-2.7,0-5,2.2-5,4.8c0,2.6,2.2,4.8,5,4.8c2.7,0,4.9-2.2,4.9-4.8
	C100.2,37.3,98,35.2,95.3,35.2z"/>
<path class="st2" d="M65.9,46.1c-0.5,0-1,0-1.5,0c-0.2,0-0.2-0.1-0.3-0.2c-0.7-1.1-1.4-2.1-2.1-3.2c-0.2-0.3-0.4-0.5-0.8-0.4
	c-1.1,0-2.1,0-3.2,0c-0.3,0-0.3,0.1-0.3,0.3c0,1.1,0,2.1,0,3.2c0,0.3,0,0.4-0.3,0.4c-0.3,0-0.8,0.1-1-0.1c-0.2-0.2-0.1-0.6-0.1-1
	c0-3.6,0-7.2,0-10.7c0-0.3,0-0.4,0.4-0.4c1.5,0,3,0,4.6,0c0.6,0,1.2,0.1,1.8,0.3c1.9,0.6,3,2.3,2.7,4.4c-0.2,1.6-1,2.7-2.4,3.3
	c-0.3,0.1-0.2,0.2-0.1,0.4c0.8,1.2,1.6,2.3,2.4,3.5C65.7,45.8,65.8,46,65.9,46.1z M57.7,38.1c0,0.8,0,1.7,0,2.5c0,0.2,0,0.3,0.2,0.3
	c1.2,0,2.5,0,3.7,0c1-0.1,1.9-0.4,2.5-1.4c1-1.8,0-3.7-2-4.1c-1.4-0.2-2.8-0.1-4.2-0.1c-0.2,0-0.2,0.2-0.2,0.3
	C57.7,36.4,57.7,37.2,57.7,38.1z"/>
<path class="st3" d="M123.9,40c0-1.9,0-3.8,0-5.7c0-0.3,0.1-0.4,0.4-0.4c2.5,0,5.1,0,7.6,0c0.3,0,0.4,0.1,0.4,0.4c0,1,0,1-1,1
	c-1.8,0-3.7,0-5.5,0c-0.4,0-0.4,0.1-0.4,0.4c0,1.1,0,2.2,0,3.2c0,0.3,0.1,0.3,0.3,0.3c1.8,0,3.6,0,5.5,0c0.3,0,0.4,0,0.4,0.3
	c0,1,0,1-1,1c-1.6,0-3.2,0-4.8,0c-0.3,0-0.3,0.1-0.3,0.3c0,1.2,0,2.3,0,3.5c0,0.3,0.1,0.3,0.3,0.3c2.1,0,4.3,0,6.4,0
	c0.3,0,0.4,0.1,0.4,0.4c0,0.9,0,0.9-0.9,0.9c-2.4,0-4.8,0-7.2,0c-0.3,0-0.4-0.1-0.4-0.4C123.9,43.8,123.9,41.9,123.9,40z"/>
<path class="st0" d="M39,51.5c-0.1-0.1-0.1-0.1-0.2-0.1c-9-5.2-18-10.4-27-15.6c-0.3-0.2-0.4-0.2-0.4,0.2c0,5,0,10.1,0,15.1
	c0,0.3,0.1,0.4,0.4,0.4c8.9,0,17.8,0,26.7,0C38.7,51.5,38.8,51.5,39,51.5z"/>
<path class="st0" d="M25.8,27.3c0,0.1,0,0.2,0,0.3c0,5.1,0,10.2,0,15.3c0,0.3,0.1,0.3,0.4,0.3c4.4,0,8.8,0,13.2,0
	c0.3,0,0.4-0.1,0.4-0.3c0-2.4,0-4.9,0-7.3c0-0.2-0.1-0.3-0.3-0.4c-4.4-2.5-8.7-5-13.1-7.5C26.2,27.5,26,27.4,25.8,27.3z"/>
<path class="st0" d="M11.7,35.1c0.4,0.2,0.8,0.4,1.1,0.6c2.9,1.7,5.8,3.4,8.7,5c1.2,0.7,2.3,1.3,3.5,2c0.2,0.1,0.3,0.1,0.3-0.2
	c0-0.6,0-1.2,0-1.8c0-4.4,0-8.8,0-13.3c0-0.1,0.1-0.4-0.2-0.2c-0.9,0.5-1.8,1-2.6,1.5c-3,1.7-5.9,3.4-8.9,5.1
	C12.9,34.4,12.4,34.8,11.7,35.1z"/>
<path class="st4" d="M39,51.5c-0.2,0-0.3,0-0.4,0c-8.9,0-17.8,0-26.7,0c-0.3,0-0.4-0.1-0.4-0.4c0-5,0-10.1,0-15.1
	c0-0.4,0-0.4,0.4-0.2c9,5.2,18,10.4,27,15.6C38.8,51.4,38.8,51.4,39,51.5z"/>
<path class="st1" d="M25.8,27.3c0.2,0.1,0.4,0.2,0.5,0.3c4.4,2.5,8.7,5,13.1,7.5c0.2,0.1,0.3,0.2,0.3,0.4c0,2.4,0,4.9,0,7.3
	c0,0.3-0.1,0.3-0.4,0.3c-4.4,0-8.8,0-13.2,0c-0.2,0-0.4,0-0.4-0.3c0-5.1,0-10.2,0-15.3C25.8,27.5,25.8,27.4,25.8,27.3z"/>
<path class="st5" d="M11.7,35.1c0.6-0.4,1.2-0.7,1.8-1.1c3-1.7,5.9-3.4,8.9-5.1c0.9-0.5,1.8-1,2.6-1.5c0.3-0.2,0.2,0.1,0.2,0.2
	c0,4.4,0,8.8,0,13.3c0,0.6,0,1.2,0,1.8c0,0.3-0.1,0.3-0.3,0.2c-1.2-0.7-2.3-1.3-3.5-2c-2.9-1.7-5.8-3.4-8.7-5
	C12.5,35.6,12.1,35.4,11.7,35.1z"/>
</svg>
