<?xml version="1.0" encoding="utf-8"?>
<!-- Generator: Adobe Illustrator 23.0.2, SVG Export Plug-In . SVG Version: 6.00 Build 0)  -->
<svg version="1.1" id="Layer_1" xmlns="http://www.w3.org/2000/svg" xmlns:xlink="http://www.w3.org/1999/xlink" x="0px" y="0px"
	 viewBox="0 0 160 80" style="enable-background:new 0 0 160 80;" xml:space="preserve">
<style type="text/css">
	.st0{fill:#F7982B;}
	.st1{fill:#252525;}
	.st2{fill:#FEFEFE;}
</style>
<g>
	<path class="st0" d="M122.1,28.3c0.1,0.1,0.3,0.1,0.4,0.1c1.7,0.5,3,2,3,3.8c0,0.5-0.3,0.9-0.8,1.1c-1.4,0.4-2.9,0.9-4.3,1.3
		c-0.3,0.1-0.4,0.2-0.3,0.5c0,0.1,0,0.1,0,0.2c0,0.6,0,0.6,0.5,0.7c1.3,0.4,2.6,0.8,3.9,1.2c1.1,0.3,1.2,0.8,1,1.7
		c-0.3,1.9-2,3.4-3.9,3.4c-3,0-6,0-9.1,0c-2.2,0-3.9-1.7-4-3.9c0-0.6,0.2-0.9,0.8-1.1c1.5-0.5,3-0.9,4.5-1.4
		c0.2-0.1,0.3-0.2,0.3-0.4c0-0.1,0-0.2,0-0.3c0-0.6,0-0.6-0.5-0.7c-1.4-0.4-2.7-0.8-4.1-1.3c-0.6-0.2-0.9-0.5-0.8-1.2
		c0.1-1.8,1.4-3.4,3.2-3.8c0.1,0,0.1,0,0.2-0.1C115.2,28.3,118.6,28.3,122.1,28.3z M114.3,40.3c0.7,0,1.4,0,2,0c0.2,0,0.3,0,0.3-0.2
		c0-0.5,0-1,0-1.5c0-0.2-0.1-0.3-0.2-0.3c-0.9-0.2-1.6-0.7-2.1-1.5c-0.1-0.2-0.2-0.2-0.4-0.1c-0.9,0.3-1.9,0.6-2.8,0.9
		c-0.6,0.2-0.6,0.2-0.6,0.8c0,1.1,0.9,2,2,2C113.1,40.3,113.7,40.3,114.3,40.3z M119.5,40.3c0.6,0,1.3,0,1.9,0
		c0.4,0,0.8-0.1,1.2-0.4c0.7-0.5,0.9-1.3,0.8-2.1c0-0.1-0.1-0.1-0.2-0.2c-1.1-0.3-2.2-0.7-3.3-1c-0.2-0.1-0.2,0-0.3,0.1
		c-0.5,0.8-1.2,1.4-2.1,1.6c-0.2,0-0.2,0.1-0.2,0.3c0,0.5,0,1,0,1.5c0,0.2,0.1,0.2,0.2,0.2C118.2,40.3,118.9,40.3,119.5,40.3z
		 M114.3,30.3c-0.6,0-1.3,0-1.9,0c-0.4,0-0.8,0.1-1.1,0.3c-0.7,0.5-1.1,1.4-0.9,2.2c0,0.1,0.1,0.1,0.2,0.2c1.1,0.3,2.2,0.7,3.3,1
		c0.1,0,0.2,0,0.3-0.1c0.5-0.9,1.2-1.4,2.1-1.6c0.2,0,0.2-0.1,0.2-0.2c0-0.5,0-1,0-1.5c0-0.2-0.1-0.3-0.3-0.3
		C115.6,30.3,115,30.3,114.3,30.3z M119.6,30.3c-0.7,0-1.3,0-2,0c-0.2,0-0.3,0.1-0.3,0.3c0,0.5,0,0.9,0,1.4c0,0.2,0.1,0.3,0.3,0.4
		c0.9,0.2,1.6,0.7,2,1.5c0.1,0.2,0.2,0.2,0.4,0.1c1-0.3,1.9-0.6,2.9-0.9c0.5-0.2,0.5-0.2,0.5-0.7c0-1.2-0.9-2.1-2.1-2.1
		C120.8,30.3,120.2,30.3,119.6,30.3z M116.9,37.6c1.3,0,2.3-1,2.3-2.3c0-1.3-1-2.3-2.3-2.4c-1.3,0-2.3,1-2.3,2.3
		C114.6,36.6,115.6,37.6,116.9,37.6z"/>
	<path class="st1" d="M150.1,41.6c-0.1,0.1-0.1,0.2-0.2,0.3c-0.4,0.5-1.1,0.6-1.6,0.1c-1.3-1.3-2.6-2.6-3.9-3.9
		c-0.5-0.5-1.1-1.1-1.6-1.6c-0.1-0.1-0.3-0.2-0.4-0.2c-2.3,0-4.7,0-7,0c-0.2,0-0.3,0.1-0.3,0.3c0,1.6,0,3.1,0,4.7
		c0,0.5-0.3,0.9-0.9,1c-0.4,0.1-0.9-0.2-1.1-0.7c-0.1-0.2-0.1-0.4-0.1-0.6c0-1.9,0-3.7,0-5.6c0-0.9,0.4-1.2,1.2-1.2
		c2.9,0,5.8,0,8.6,0c0.4,0,0.7,0.1,1,0.4c1.9,1.9,3.8,3.8,5.7,5.7c0.2,0.2,0.3,0.4,0.4,0.6C150.1,41.2,150.1,41.4,150.1,41.6z"/>
	<path class="st1" d="M60.5,28.3c1.2,0.8,2.3,1.8,3.4,2.7c4,3.2,7.9,6.3,11.9,9.5c0.4,0.3,0.5,0.7,0.4,1.1c-0.1,0.4-0.4,0.7-0.8,0.7
		c-0.3,0.1-0.6-0.1-0.9-0.3c-2.2-1.8-4.4-3.5-6.6-5.3c-2.7-2.2-5.4-4.3-8.1-6.5c-0.8-0.7-0.8-1.4,0.2-1.9
		C60.1,28.3,60.3,28.3,60.5,28.3z"/>
	<path class="st1" d="M50.9,28.3c0,0.1,0.2,0.1,0.3,0.2c0.3,0.3,0.5,0.6,0.4,1c-0.1,0.4-0.4,0.7-0.8,0.8c-0.1,0-0.3,0-0.4,0
		c-3.9,0-7.7,0-11.6,0c-1.3,0-2.1,0.7-2.2,2.1c0,0.5-0.5,1-1,0.9c-0.5,0-1-0.4-1-1c-0.1-1.7,1.2-3.4,2.9-3.9c0.1,0,0.3,0,0.4-0.1
		C42.2,28.3,46.6,28.3,50.9,28.3z"/>
	<path class="st1" d="M100.2,28.3c0,0.1,0.1,0.1,0.2,0.1c0.4,0.2,0.5,0.7,0.4,1.1c-0.1,0.4-0.4,0.7-0.9,0.8c-0.1,0-0.2,0-0.4,0
		c-3.9,0-7.7,0-11.6,0c-1.3,0-2.1,0.7-2.2,2c0,0.6-0.5,1-1,1c-0.6,0-1-0.4-1-1c-0.1-1.8,1.4-3.6,3.3-3.9c0.1,0,0.1,0,0.2-0.1
		C91.6,28.3,95.9,28.3,100.2,28.3z"/>
	<path class="st1" d="M26.3,28.3c0.4,0.2,0.7,0.5,0.7,1c0,0.5-0.3,0.9-0.9,1c-0.1,0-0.2,0-0.4,0c-3.9,0-7.8,0-11.6,0
		c-1.3,0-2.2,1-2.2,2c0,0.6-0.5,1-1,1c-0.6,0-1-0.4-1-1.1c0-1.9,1.4-3.6,3.3-3.9c0,0,0.1,0,0.1-0.1C17.7,28.3,22,28.3,26.3,28.3z"/>
	<path class="st1" d="M150.1,32.7c-0.2,0.3-0.5,0.6-0.9,0.7c-0.6,0-1.1-0.3-1.1-0.9c0-0.6-0.2-1.2-0.7-1.6c-0.4-0.4-0.9-0.5-1.4-0.5
		c-3.9,0-7.8,0-11.7,0c-0.8,0-1.2-0.5-1.1-1.2c0.1-0.4,0.4-0.6,0.7-0.8c4.3,0,8.6,0,12.9,0c0,0,0,0.1,0.1,0.1
		c1.5,0.3,2.5,1.1,3.1,2.5c0.1,0.3,0.2,0.6,0.3,0.8C150.1,32.1,150.1,32.4,150.1,32.7z"/>
	<path class="st1" d="M75.5,28.3c0.5,0.3,0.7,0.7,0.7,1.3c0,1.9,0,3.7,0,5.6c0,0.7-0.4,1.1-1,1.1c-0.6,0-1-0.4-1-1.1
		c0-1.9,0-3.8,0-5.7c0-0.6,0.2-1,0.7-1.2C75.1,28.3,75.3,28.3,75.5,28.3z"/>
	<path class="st1" d="M150.1,51.7c-0.5,0.1-0.9-0.1-1.3-0.5c-1-1-2-1.9-2.9-2.8c-0.1-0.1-0.1-0.1-0.2-0.2c-0.1,0.1,0,0.2,0,0.3
		c0,1,0,1.9,0,2.9c0,0.2,0,0.3-0.3,0.3c-0.6,0-0.6,0-0.6-0.6c0-1.3,0-2.5,0-3.8c0-0.2,0.1-0.3,0.3-0.3c0.4,0,0.6,0.1,0.9,0.3
		c1.1,1,2.2,2.1,3.3,3.1c0.1-0.1,0-0.2,0-0.3c0-1,0-1.9,0-2.9c0-0.2,0.1-0.3,0.3-0.3c0.2,0,0.4,0,0.6,0
		C150.1,48.5,150.1,50.1,150.1,51.7z"/>
	<path class="st1" d="M90.9,42.3c-2,0-4,0-6,0c-0.5,0-0.9-0.3-1-0.7c-0.1-0.4,0-0.9,0.4-1.1c0.2-0.2,0.5-0.2,0.8-0.2
		c3.9,0,7.9,0,11.8,0c0.9,0,1.7-0.6,1.9-1.4c0.3-1.2-0.5-2.6-2.1-2.5c-2.6,0-5.2,0-7.7,0c-0.5,0-0.9-0.2-1-0.7
		c-0.2-0.7,0.2-1.4,0.9-1.4c1.1,0,2.2,0,3.3,0c1.5,0,3.1,0,4.6,0c2.1,0,3.8,1.5,4,3.6c0.2,2-1.2,3.9-3.2,4.3
		c-0.3,0.1-0.6,0.1-0.9,0.1C94.8,42.4,92.8,42.3,90.9,42.3z"/>
	<path class="st1" d="M17,42.3c-2,0-4,0-6,0c-0.7,0-1.1-0.4-1.1-1c0-0.5,0.4-1,0.9-1c0.1,0,0.2,0,0.3,0c3.9,0,7.8,0,11.7,0
		c1.1,0,2-0.8,2.1-2c0-1-0.8-1.9-1.9-2c-0.6,0-1.3,0-1.9,0c-2.1,0-4.1,0-6.2,0c-0.7,0-1.2-0.6-1-1.3c0.1-0.4,0.5-0.7,0.9-0.7
		c2.8,0,5.5,0,8.3,0c1.9,0,3.6,1.7,3.8,3.6c0.2,2.1-1.1,3.9-3,4.3c-0.4,0.1-0.7,0.1-1.1,0.1C20.9,42.3,18.9,42.3,17,42.3z"/>
	<path class="st1" d="M44.5,42.3c-2,0-3.9,0-5.9,0c-1.8,0-3.4-1.2-3.9-3c-0.1-0.4-0.2-0.8-0.1-1.1c0-0.5,0.5-0.9,1-0.9
		c0.5,0,1,0.4,1,1c0.1,1.3,0.9,2,2.1,2c3.9,0,7.8,0,11.7,0c0.5,0,0.8,0.1,1.1,0.6c0.4,0.7-0.1,1.5-1,1.5c-1.6,0-3.2,0-4.7,0
		C45.3,42.3,44.9,42.3,44.5,42.3z"/>
	<path class="st1" d="M43.5,34.3c1.3,0,2.6,0,3.9,0c0.7,0,1.1,0.4,1.1,1c0,0.6-0.4,1-1.1,1c-2.6,0-5.2,0-7.8,0c-0.7,0-1.1-0.4-1.1-1
		c0-0.6,0.4-1,1.1-1C41,34.3,42.2,34.3,43.5,34.3z"/>
	<path class="st1" d="M61.2,38.3c0,1,0,1.9,0,2.9c0,0.7-0.4,1.1-1,1.1c-0.6,0-1-0.5-1-1.1c0-1.9,0-3.9,0-5.8c0-0.7,0.4-1.1,1-1.1
		c0.6,0,1,0.4,1,1.1C61.2,36.4,61.2,37.4,61.2,38.3z"/>
	<path class="st1" d="M57.3,51.7c-0.5,0-1.1,0-1.6,0c-0.6,0-1-0.3-1-0.9c-0.1-0.9-0.1-1.9,0-2.8c0.1-0.6,0.4-0.9,1.1-0.9
		c0.6,0,1.2,0,1.7,0c0.5,0,0.9,0,1.4,0c0.8,0,1.2,0.4,1.2,1.2c0,0.8,0,1.6,0,2.3c0,0.8-0.4,1.1-1.2,1.1
		C58.3,51.7,57.8,51.7,57.3,51.7z M57.3,50.9c0.4,0,0.8,0,1.3,0c0.4,0,0.6-0.2,0.6-0.5c0-0.7,0-1.4,0-2.1c0-0.4-0.2-0.5-0.6-0.6
		c-0.8,0-1.7,0-2.5,0c-0.4,0-0.5,0.2-0.5,0.5c0,0.7,0,1.4,0,2.1c0,0.4,0.2,0.5,0.6,0.5C56.5,50.9,56.9,50.9,57.3,50.9z"/>
	<path class="st1" d="M131,51.7c-0.5,0-1.1,0-1.6,0c-0.6,0-1-0.3-1-0.9c-0.1-1-0.1-1.9,0-2.9c0.1-0.6,0.4-0.8,1-0.9
		c1.2,0,2.3,0,3.5,0c0.6,0,0.9,0.3,1,0.9c0.1,0.9,0.1,1.8,0,2.7c-0.1,0.7-0.4,1-1.1,1C132.1,51.7,131.6,51.7,131,51.7z M131,50.9
		c0.4,0,0.8,0,1.3,0c0.4,0,0.6-0.2,0.6-0.6c0-0.7,0-1.3,0-2c0-0.4-0.2-0.6-0.6-0.6c-0.8,0-1.7,0-2.5,0c-0.4,0-0.5,0.2-0.5,0.6
		c0,0.7,0,1.4,0,2c0,0.4,0.2,0.6,0.6,0.6C130.2,50.9,130.6,50.9,131,50.9z"/>
	<path class="st1" d="M22.8,48.2c0,1.1,0,2.2,0,3.2c0,0.2-0.1,0.3-0.3,0.3c-0.6,0-0.6,0-0.6-0.6c0-1.2,0-2.5,0-3.7
		c0-0.3,0-0.4,0.4-0.4c0.3,0,0.5,0.1,0.7,0.3c1,1,2.1,2,3.2,2.9c0.1,0.1,0.1,0.1,0.2,0.2c0.1-0.1,0.1-0.2,0.1-0.2c0-1,0-1.9,0-2.9
		c0-0.2,0-0.3,0.3-0.3c0.6,0,0.6,0,0.6,0.6c0,1.3,0,2.5,0,3.8c0,0.2,0,0.3-0.3,0.3c-0.4,0-0.6-0.1-0.9-0.4
		C25,50.3,23.9,49.2,22.8,48.2z"/>
	<path class="st1" d="M39.1,48.2c0,1.1,0,2.2,0,3.2c0,0.2-0.1,0.3-0.3,0.3c-0.6,0-0.6,0-0.6-0.6c0-1.3,0-2.5,0-3.8
		c0-0.2,0.1-0.3,0.3-0.3c0.3,0,0.6,0.1,0.8,0.3c1.1,1,2.2,2.1,3.3,3.1c0.1-0.1,0.1-0.2,0.1-0.2c0-1,0-1.9,0-2.9
		c0-0.2,0.1-0.3,0.3-0.3c0.6,0,0.6,0,0.6,0.6c0,1.3,0,2.5,0,3.8c0,0.2-0.1,0.3-0.3,0.3c-0.3,0-0.6-0.1-0.8-0.3c-1.1-1-2.2-2-3.2-3
		C39.3,48.3,39.2,48.2,39.1,48.2z"/>
	<path class="st1" d="M85.5,51.6c0.5-0.9,1-1.8,1.5-2.7c0.3-0.5,0.6-1,0.9-1.6c0.1-0.2,0.2-0.3,0.5-0.3c0.5-0.1,0.8,0.1,1,0.6
		c0.7,1.3,1.4,2.6,2.1,3.8c0,0.1,0.1,0.1,0.1,0.2c-0.3,0-0.6,0-0.9,0c-0.1,0-0.2-0.1-0.2-0.2c-0.2-0.6-0.6-0.8-1.3-0.8
		c-0.7,0.1-1.3,0-2,0c-0.2,0-0.3,0-0.3,0.2c0,0,0,0,0,0.1C86.6,51.6,86.2,51.8,85.5,51.6z M89.7,49.9c-0.4-0.8-0.8-1.5-1.2-2.2
		c-0.4,0.8-0.8,1.5-1.2,2.2C88.1,49.9,88.9,49.9,89.7,49.9z"/>
	<path class="st1" d="M70.6,47.1c0.7-0.2,1.1,0.1,1.4,0.7c0.4,0.9,0.9,1.8,1.4,2.7c0.1,0.1,0.1,0.2,0.2,0.3c0.6-1.1,1.2-2.2,1.8-3.4
		c0.1-0.3,0.3-0.4,0.6-0.4c0.2,0,0.3,0,0.5,0c0.1,0.1,0,0.2,0,0.2c-0.8,1.4-1.6,2.8-2.3,4.2c-0.1,0.2-0.2,0.2-0.4,0.2
		c-0.2-0.1-0.5,0.1-0.7-0.1C72.2,50.1,71.4,48.6,70.6,47.1C70.6,47.1,70.6,47.1,70.6,47.1z"/>
	<path class="st1" d="M103.2,47c0.8,0,1.5,0,2.3,0c0.3,0,0.3,0.1,0.3,0.3c0,0.1,0,0.1,0,0.2c0,0.2,0,0.3-0.3,0.3c-0.5,0-1.1,0-1.6,0
		c-0.2,0-0.3,0.1-0.3,0.3c0,1.1,0,2.2,0,3.3c0,0.3-0.1,0.3-0.3,0.3c-0.6,0-0.6,0-0.6-0.6c0-1,0-2,0-3c0-0.2-0.1-0.3-0.3-0.3
		c-0.5,0-1.1,0-1.6,0c-0.2,0-0.3,0-0.3-0.2c0-0.5,0-0.5,0.5-0.5C101.8,47,102.5,47,103.2,47z"/>
	<path class="st1" d="M9.9,49.3c0-0.7,0-1.4,0-2.1c0-0.2,0-0.2,0.2-0.2c0.7,0,0.7,0,0.7,0.7c0,1.2,0,2.5,0,3.7c0,0.2,0,0.3-0.3,0.3
		c-0.6,0-0.6,0-0.6-0.6C9.9,50.5,9.9,49.9,9.9,49.3z"/>
	<path class="st1" d="M116.5,49.3c0-0.7,0-1.3,0-2c0-0.3,0.1-0.3,0.3-0.3c0.6,0,0.6,0,0.6,0.6c0,1.2,0,2.5,0,3.7
		c0,0.2,0,0.3-0.3,0.3c-0.6,0-0.6,0-0.6-0.6C116.5,50.5,116.5,49.9,116.5,49.3z"/>
	<path class="st2" d="M89.7,49.9c-0.8,0-1.6,0-2.4,0c0.4-0.7,0.8-1.5,1.2-2.2C88.9,48.5,89.3,49.2,89.7,49.9z"/>
</g>
</svg>
