<?xml version="1.0" encoding="UTF-8"?>
<svg width="86px" height="16px" viewBox="0 0 86 16" version="1.1" xmlns="http://www.w3.org/2000/svg" xmlns:xlink="http://www.w3.org/1999/xlink">
    <!-- Generator: Sketch 59.1 (86144) - https://sketch.com -->
    <title>logo-music</title>
    <desc>Created with Sketch.</desc>
    <g id="Page-1" stroke="none" stroke-width="1" fill="none" fill-rule="evenodd">
        <g id="010" transform="translate(-321.000000, -345.000000)">
            <g id="logos" transform="translate(70.000000, 148.000000)">
                <g id="logo-music" transform="translate(251.000000, 197.000000)">
                    <path d="M4.88879852,11.9795 C4.88879852,11.5646667 4.80291852,11.2638333 4.63433926,11.0801667 C4.46576,10.8965 4.30036148,10.7666667 4.1381437,10.6843333 C3.75963556,10.5006667 3.3334163,10.3423333 2.85630519,10.2125 C2.38237481,10.0795 1.93389037,9.90216667 1.50767111,9.67733333 C1.08808703,9.45691916 0.724698784,9.14388169 0.445303704,8.76216667 C0.159037037,8.37583333 0.0159037037,7.84066667 0.0159037037,7.15983333 C0.0159037037,6.2035 0.314893333,5.45616667 0.912872593,4.9115 C1.50767111,4.36683333 2.31876,4.0945 3.33977778,4.0945 C3.54334519,4.0945 3.80734667,4.11033333 4.12860148,4.13883333 C4.4498563,4.1705 4.76474963,4.23066667 5.07010074,4.31616667 C5.37863259,4.40166667 5.63945333,4.52516667 5.85892444,4.68033333 C6.07839556,4.83866667 6.18972148,5.0445 6.18972148,5.301 C6.18972148,5.50366667 6.11656444,5.681 5.96706963,5.833 C5.82075556,5.985 5.61400741,6.061 5.34682519,6.061 C5.21323407,6.061 5.08600444,6.042 4.9651363,6.00083333 C4.84108741,5.95966667 4.7074963,5.91216667 4.56436296,5.85516667 C4.42122963,5.80133333 4.26219259,5.75066667 4.08407111,5.71266667 C3.90276889,5.6715 3.68647852,5.64933333 3.43201926,5.64933333 C3.21890963,5.64933333 3.00898074,5.67466667 2.80223259,5.719 C2.59866519,5.7665 2.41736296,5.8425 2.25832593,5.947 C2.10246963,6.05466667 1.97524,6.2035 1.88299852,6.39033333 C1.79393778,6.57716667 1.74622667,6.80833333 1.74622667,7.08383333 C1.74622667,7.29916667 1.77167259,7.4765 1.82256444,7.619 C1.8734563,7.7615 1.93707111,7.88183333 2.01340889,7.98316667 C2.08974667,8.0845 2.17562667,8.16366667 2.26786815,8.22066667 C2.36010963,8.27766667 2.43962815,8.32516667 2.51278519,8.36633333 C2.90083556,8.5595 3.3334163,8.72416667 3.80734667,8.86033333 C4.28127704,8.99966667 4.72976148,9.177 5.14643852,9.3955 C5.5662963,9.614 5.91935852,9.91166667 6.20562519,10.2885 C6.49189185,10.6653333 6.63502519,11.191 6.63502519,11.875 C6.63502519,12.3911667 6.5427837,12.8535 6.36466222,13.2525 C6.18654074,13.6546667 5.93844296,13.9966667 5.61400741,14.2753333 C5.29275259,14.5571667 4.9110637,14.7661667 4.47212148,14.9086667 C4.03317926,15.0511667 3.55924889,15.124 3.05033037,15.124 C2.78314815,15.124 2.4746163,15.0986667 2.12155407,15.0543333 C1.76849185,15.0068333 1.43769481,14.934 1.12598222,14.8326667 C0.81426963,14.7313333 0.550268148,14.5983333 0.330797037,14.4368333 C0.108145185,14.2753333 0,14.0758333 0,13.8415 C0,13.6388333 0.073157037,13.4583333 0.222651852,13.3 C0.368965926,13.1416667 0.55662963,13.0625 0.782462222,13.0625 C0.893788148,13.0625 1.01783704,13.0878333 1.15778963,13.1385 C1.29456148,13.1891667 1.45359852,13.2493333 1.63172,13.3158333 C1.80984148,13.3823333 2.01658963,13.4393333 2.25196444,13.49 C2.48733926,13.5406667 2.75770222,13.566 3.06305333,13.566 C3.6769363,13.566 4.13496296,13.4298333 4.43395259,13.1543333 C4.73612296,12.8788333 4.88879852,12.4893333 4.88879852,11.9795 L4.88879852,11.9795 Z M22.3192578,5.64933333 C21.5622415,5.64933333 21.027877,5.86783333 20.7161644,6.30483333 C20.4044519,6.745 20.2485956,7.31816667 20.2485956,8.03066667 L20.2485956,11.172 C20.2485956,11.8845 20.4171748,12.4608333 20.7479719,12.9041667 C21.0787689,13.3443333 21.6035911,13.566 22.3192578,13.566 C23.0222015,13.566 23.543843,13.3443333 23.8810015,12.9041667 C24.21816,12.4608333 24.3867393,11.8845 24.3867393,11.172 L24.3867393,8.03066667 C24.3867393,7.31816667 24.230883,6.745 23.9191704,6.30483333 C23.6074578,5.86783333 23.0730933,5.64933333 22.3192578,5.64933333 L22.3192578,5.64933333 Z M22.3192578,15.1366667 C21.6958326,15.1366667 21.1487452,15.0321667 20.6779956,14.8263333 C20.2104267,14.6173333 19.8191956,14.3355 19.507483,13.9776667 C19.1957704,13.623 18.9603956,13.2018333 18.8013585,12.7205 C18.6423215,12.236 18.5659837,11.7198333 18.5659837,11.172 L18.5659837,8.03066667 C18.5659837,7.49233333 18.6327793,6.98566667 18.7727319,6.51066667 C18.9095037,6.03883333 19.1289748,5.624 19.4311452,5.263 C19.7301348,4.902 20.1181852,4.617 20.5952963,4.408 C21.0692267,4.199 21.6449407,4.0945 22.3192578,4.0945 C22.9935748,4.0945 23.5661081,4.199 24.0432193,4.408 C24.5171496,4.617 24.9052,4.902 25.2073704,5.263 C25.50636,5.624 25.7258311,6.03883333 25.8657837,6.51066667 C26.0025556,6.98566667 26.0725319,7.49233333 26.0725319,8.03066667 L26.0725319,11.172 C26.0725319,11.7198333 25.9930133,12.236 25.8339763,12.7205 C25.6749393,13.2018333 25.4395644,13.623 25.1310326,13.9776667 C24.81932,14.3355 24.4280889,14.6173333 23.9573393,14.8263333 C23.4865896,15.0321667 22.942683,15.1366667 22.3192578,15.1366667 L22.3192578,15.1366667 Z M29.6858533,4.674 C30.1057111,6.00716667 30.5255689,7.3245 30.9422459,8.63233333 C31.3621037,9.94016667 31.7342504,11.2638333 32.0618667,12.6065 C32.131843,12.312 32.205,12.008 32.2749763,11.6976667 C32.3481333,11.3873333 32.4308326,11.0896667 32.5230741,10.8046667 L34.43788,4.674 C34.4887719,4.503 34.596917,4.3605 34.7654963,4.256 C34.9340756,4.14833333 35.0962933,4.0945 35.2489689,4.0945 C35.5034281,4.0945 35.713357,4.16733333 35.8755748,4.31616667 C36.0409733,4.46183333 36.1236726,4.655 36.1236726,4.88616667 C36.1236726,4.91783333 36.1204919,4.96533333 36.1141304,5.0255 C36.1077689,5.08566667 36.1014074,5.13316667 36.0918652,5.16166667 L33.1051496,14.2088333 C33.0129081,14.4811667 32.8888593,14.7028333 32.7361837,14.8706667 C32.5835081,15.0385 32.3576756,15.124 32.0618667,15.124 C31.7660578,15.124 31.5434059,15.0353333 31.3970919,14.8643333 C31.247597,14.6901667 31.1330904,14.4716667 31.0503911,14.2088333 L28.0636756,5.16166667 C28.0414104,5.13316667 28.0286874,5.08566667 28.0255067,5.0255 C28.0191452,4.96533333 28.0159644,4.91783333 28.0159644,4.88616667 C28.0159644,4.655 28.1050252,4.46183333 28.2767852,4.31616667 C28.4517259,4.16733333 28.6552933,4.0945 28.8906681,4.0945 C29.0338015,4.0945 29.186477,4.14833333 29.3518756,4.256 C29.5140933,4.3605 29.6254193,4.503 29.6858533,4.674 L29.6858533,4.674 Z M41.836283,5.64933333 C41.0824474,5.64933333 40.548083,5.86783333 40.2363704,6.30483333 C39.9246578,6.745 39.7688015,7.31816667 39.7688015,8.03066667 L39.7688015,11.172 C39.7688015,11.8845 39.9342,12.4608333 40.264997,12.9041667 C40.5989748,13.3443333 41.1206163,13.566 41.836283,13.566 C42.5424074,13.566 43.0640489,13.3443333 43.3980267,12.9041667 C43.7351852,12.4608333 43.9037644,11.8845 43.9037644,11.172 L43.9037644,8.03066667 C43.9037644,7.31816667 43.7510889,6.745 43.4393763,6.30483333 C43.1276637,5.86783333 42.5932993,5.64933333 41.836283,5.64933333 L41.836283,5.64933333 Z M41.836283,15.1366667 C41.2128578,15.1366667 40.6689511,15.0321667 40.1982015,14.8263333 C39.7274519,14.6173333 39.3362207,14.3355 39.0245081,13.9776667 C38.7127956,13.623 38.4806015,13.2018333 38.3215644,12.7205 C38.1625274,12.236 38.0830089,11.7198333 38.0830089,11.172 L38.0830089,8.03066667 C38.0830089,7.49233333 38.1529852,6.98566667 38.289757,6.51066667 C38.4265289,6.03883333 38.6491807,5.624 38.9481704,5.263 C39.2503407,4.902 39.6383911,4.617 40.1123215,4.408 C40.5894326,4.199 41.1619659,4.0945 41.836283,4.0945 C42.5106,4.0945 43.0863141,4.199 43.5602444,4.408 C44.0341748,4.617 44.4222252,4.902 44.7243956,5.263 C45.0265659,5.624 45.246037,6.03883333 45.3828089,6.51066667 C45.5227615,6.98566667 45.589557,7.49233333 45.589557,8.03066667 L45.589557,11.172 C45.589557,11.7198333 45.5100385,12.236 45.3541822,12.7205 C45.1951452,13.2018333 44.9597704,13.623 44.6480578,13.9776667 C44.3363452,14.3355 43.9451141,14.6173333 43.4775452,14.8263333 C43.0067956,15.0321667 42.4597081,15.1366667 41.836283,15.1366667 L41.836283,15.1366667 Z M53.9549052,7.37516667 C53.9549052,7.182 53.9262785,6.98883333 53.8722059,6.802 C53.8141363,6.61290196 53.7116425,6.44030189 53.5732163,6.2985 C53.430083,6.15283333 53.232877,6.0325 52.9815985,5.94066667 C52.7335007,5.84883333 52.4090652,5.8045 52.0082919,5.8045 L50.1571007,5.8045 L50.1571007,8.89833333 L52.1005333,8.89833333 C52.7048741,8.89833333 53.1629007,8.7685 53.4809748,8.50883333 C53.7958681,8.25233333 53.9549052,7.87233333 53.9549052,7.37516667 L53.9549052,7.37516667 Z M55.6406978,7.37516667 C55.6406978,8.16683333 55.4403111,8.8065 55.036357,9.29733333 C54.632403,9.785 54.0821348,10.1143333 53.3887333,10.2885 C53.7672415,10.8965 54.1457496,11.495 54.521077,12.0808333 C54.8995852,12.6635 55.2780933,13.262 55.6566015,13.8731667 C55.6979511,13.9111667 55.7265778,13.9776667 55.748843,14.0695 C55.7679274,14.1613333 55.7774696,14.2341667 55.7774696,14.2848333 C55.7774696,14.5191667 55.6852281,14.7123333 55.4943837,14.8706667 C55.30672,15.029 55.1095141,15.1081667 54.9059467,15.1081667 C54.5878726,15.1081667 54.3524978,14.9846667 54.1998222,14.7408333 L51.5502652,10.4405 L50.1571007,10.4405 L50.1571007,14.3133333 C50.1571007,14.5286667 50.0712207,14.7155 49.9026415,14.8801667 C49.7340622,15.0416667 49.5336756,15.124 49.2983007,15.124 C49.0724681,15.124 48.878443,15.0448333 48.7162252,14.8865 C48.5508267,14.7281667 48.4713081,14.5381667 48.4713081,14.3133333 L48.4713081,5.14583333 C48.4713081,4.902 48.5635496,4.68983333 48.7448519,4.50616667 C48.9293348,4.3225 49.1488059,4.23066667 49.4064459,4.23066667 L52.0719067,4.23066667 C52.7462237,4.23066667 53.3092148,4.3225 53.7640607,4.50616667 C54.2189067,4.68983333 54.5846919,4.92733333 54.8677778,5.225 C55.147683,5.5195 55.3480696,5.85516667 55.465757,6.22883333 C55.5802637,6.60566667 55.6406978,6.98883333 55.6406978,7.37516667 L55.6406978,7.37516667 Z M62.0149022,5.64933333 C61.2578859,5.64933333 60.7235215,5.86783333 60.4118089,6.30483333 C60.1000963,6.745 59.94424,7.31816667 59.94424,8.03066667 L59.94424,11.172 C59.94424,11.8845 60.1128193,12.4608333 60.4436163,12.9041667 C60.7744133,13.3443333 61.2992356,13.566 62.0149022,13.566 C62.7178459,13.566 63.2394874,13.3443333 63.5766459,12.9041667 C63.9138044,12.4608333 64.0823837,11.8845 64.0823837,11.172 L64.0823837,8.03066667 C64.0823837,7.31816667 63.9265274,6.745 63.6148148,6.30483333 C63.3031022,5.86783333 62.7687378,5.64933333 62.0149022,5.64933333 L62.0149022,5.64933333 Z M62.0149022,15.1366667 C61.391477,15.1366667 60.8443896,15.0321667 60.37364,14.8263333 C59.9060711,14.6173333 59.51484,14.3355 59.2031274,13.9776667 C58.8914148,13.623 58.65604,13.2018333 58.497003,12.7205 C58.3379659,12.236 58.2616281,11.7198333 58.2616281,11.172 L58.2616281,8.03066667 C58.2616281,7.49233333 58.3284237,6.98566667 58.4683763,6.51066667 C58.6051481,6.03883333 58.8246193,5.624 59.1267896,5.263 C59.4257793,4.902 59.8138296,4.617 60.2909407,4.408 C60.7648711,4.199 61.3405852,4.0945 62.0149022,4.0945 C62.6892193,4.0945 63.2617526,4.199 63.7388637,4.408 C64.2127941,4.617 64.6008444,4.902 64.9030148,5.263 C65.2020044,5.624 65.4214756,6.03883333 65.5614281,6.51066667 C65.6982,6.98566667 65.7681763,7.49233333 65.7681763,8.03066667 L65.7681763,11.172 C65.7681763,11.7198333 65.6886578,12.236 65.5296207,12.7205 C65.3705837,13.2018333 65.1352089,13.623 64.826677,13.9776667 C64.5149644,14.3355 64.1237333,14.6173333 63.6529837,14.8263333 C63.1822341,15.0321667 62.6351467,15.1366667 62.0149022,15.1366667 L62.0149022,15.1366667 Z M74.0858133,10.9123333 L74.0858133,8.16683333 C74.0858133,7.83116667 74.0444637,7.51766667 73.955403,7.2295 C73.869523,6.93816667 73.7263896,6.688 73.526003,6.47266667 C73.328797,6.2605 73.0743378,6.09266667 72.7626252,5.96916667 C72.4509126,5.84883333 72.0628622,5.78866667 71.6048356,5.78866667 L70.3325393,5.78866667 L70.3325393,13.4298333 L71.6048356,13.4298333 C72.0628622,13.4298333 72.4509126,13.3633333 72.7689867,13.2303333 C73.0870607,13.1005 73.34152,12.92 73.5355452,12.6888333 C73.7295704,12.4608333 73.869523,12.1948333 73.955403,11.8876667 C74.0444637,11.5836667 74.0858133,11.2575 74.0858133,10.9123333 L74.0858133,10.9123333 Z M75.7716059,10.9123333 C75.7716059,11.4411667 75.6952681,11.9541667 75.5425926,12.445 C75.389917,12.939 75.1418193,13.3728333 74.7982993,13.7496667 C74.45796,14.1265 74.0031141,14.4273333 73.4337615,14.649 C72.8675896,14.8738333 72.1710074,14.9846667 71.3440148,14.9846667 L69.6136919,14.9846667 C69.3465096,14.9846667 69.120677,14.896 68.9298326,14.7186667 C68.7421689,14.5413333 68.6467467,14.326 68.6467467,14.0695 L68.6467467,5.13316667 C68.6467467,4.88933333 68.7421689,4.674 68.9298326,4.49033333 C69.120677,4.30666667 69.3465096,4.218 69.6136919,4.218 L71.3440148,4.218 C72.1710074,4.218 72.8644089,4.32566667 73.4274,4.54416667 C73.9903911,4.76266667 74.445237,5.054 74.7919378,5.415 C75.1363273,5.77071013 75.3932625,6.20101486 75.5425926,6.67216667 C75.6952681,7.15033333 75.7716059,7.6475 75.7716059,8.16683333 L75.7716059,10.9123333 L75.7716059,10.9123333 Z M81.7323141,6.612 C81.5382889,7.42583333 81.3251793,8.208 81.0961659,8.96166667 C80.8671526,9.71216667 80.6349585,10.4753333 80.3995837,11.248 L83.0491407,11.248 C82.8137659,10.4753333 82.5752104,9.709 82.3366548,8.94583333 C82.0980993,8.18266667 81.8945319,7.40366667 81.7323141,6.612 Z M79.9224726,12.711 L79.3563007,14.5413333 C79.3054089,14.725 79.1972637,14.8675 79.0286844,14.9688333 C78.8601052,15.0701667 78.7042489,15.124 78.5611156,15.124 C78.3257407,15.124 78.1221733,15.0511667 77.9472326,14.9086667 C77.7722919,14.7661667 77.6864119,14.5793333 77.6864119,14.345 C77.6864119,14.3038333 77.6895926,14.2531667 77.6959541,14.193 C77.6991348,14.1296667 77.708677,14.0853333 77.7182193,14.0536667 L80.7049348,5.00966667 C80.7876341,4.74683333 80.9053215,4.52833333 81.057997,4.35416667 C81.2106726,4.18 81.4365052,4.0945 81.7323141,4.0945 C82.028123,4.0945 82.2507748,4.18 82.3970889,4.35416667 C82.5465837,4.52833333 82.6674519,4.74683333 82.7596933,5.00966667 L85.7464089,14.0536667 C85.7654933,14.0853333 85.7782163,14.1296667 85.7845778,14.193 C85.7877585,14.2531667 85.7909393,14.3038333 85.7909393,14.345 C85.7909393,14.5793333 85.70824,14.7661667 85.5396607,14.9086667 C85.3710815,15.0511667 85.1643333,15.124 84.9194163,15.124 C84.6426919,15.124 84.4423052,15.0353333 84.321437,14.8643333 C84.1973881,14.6901667 84.0860622,14.4653333 83.9842785,14.193 L83.4944444,12.711 L79.9224726,12.711 L79.9224726,12.711 Z M15.1721333,4.08183333 C14.6872911,4.08183333 14.2942489,4.47313646 14.2942489,4.95583333 L14.2942489,8.53416667 L10.0034296,4.332 C9.83790269,4.16903541 9.6139905,4.07842714 9.38120303,4.08018407 C9.14841555,4.08199264 8.92592995,4.17601954 8.76294074,4.3415 C8.59925186,4.50629452 8.50824089,4.72921594 8.51003157,4.96097339 C8.51182224,5.19273083 8.60626704,5.41423198 8.77248296,5.5765 L12.8883615,9.60766667 L8.75657926,13.5438333 C8.40673871,13.8772697 8.39393399,14.4296855 8.72795259,14.7788333 C8.90289333,14.9561667 9.13190667,15.048 9.36410074,15.048 C9.58039111,15.048 9.79986222,14.9688333 9.96844148,14.8041667 L14.2942489,10.6843333 L14.2942489,14.2215 C14.2942489,14.7041969 14.6872911,15.0955 15.1721333,15.0955 C15.6587867,15.0955 16.0500178,14.706 16.0500178,14.2215 L16.0500178,4.95583333 C16.0500178,4.47133333 15.6587867,4.08183333 15.1721333,4.08183333 L15.1721333,4.08183333 Z" id="Shape" fill="#542E91"></path>
                    <path d="M8.45440889,6.916 L8.45440889,12.0523333 C8.45440889,12.3595 8.82019407,12.5178333 9.04284593,12.312 L12.0804533,9.519 L9.04602667,6.6595 C8.82337481,6.4505 8.45440889,6.60883333 8.45440889,6.916 M59.9601437,1.00383333 C59.9601437,0.965833333 59.9537822,0.931 59.94424,0.896166667 C59.931517,0.861333333 59.9124326,0.832833333 59.8806252,0.804333333 C59.8519985,0.775833333 59.8106489,0.756833333 59.7565763,0.737833333 C59.7025037,0.722 59.6357081,0.7125 59.5530089,0.7125 L59.17132,0.7125 L59.17132,1.27933333 L59.5752741,1.27933333 C59.7025037,1.27933333 59.7979259,1.254 59.8615407,1.2065 C59.9283363,1.159 59.9601437,1.08933333 59.9601437,1.00383333 M60.4658815,1.00383333 C60.4658815,1.17166667 60.4213511,1.311 60.3322904,1.42183333 C60.2432296,1.5295 60.1191807,1.60866667 59.9633244,1.65616667 L60.45952,2.356 C60.4881467,2.40033333 60.5008696,2.44466667 60.4976889,2.48583333 C60.4945081,2.527 60.4786044,2.565 60.4531585,2.59666667 C60.4277126,2.6315 60.3959052,2.65683333 60.3577363,2.679 C60.3195674,2.698 60.2782178,2.7075 60.2368681,2.7075 C60.1446267,2.7075 60.0714696,2.67266667 60.0237585,2.603 L59.416237,1.70683333 L59.17132,1.70683333 L59.17132,2.48583333 C59.1707477,2.51567893 59.1631198,2.54497036 59.1490548,2.57133333 C59.1331511,2.59983333 59.1140667,2.622 59.0918015,2.64416667 C59.0421303,2.68649785 58.9790614,2.71004402 58.91368,2.71066667 C58.8468844,2.71066667 58.7864504,2.6885 58.7387393,2.64416667 C58.6902258,2.60585639 58.6620807,2.54748032 58.6623988,2.48583333 L58.6623988,0.525666667 C58.6623988,0.490833333 58.6719437,0.459166667 58.6846667,0.430666667 C58.7005704,0.402166667 58.7196548,0.373666667 58.7451007,0.354666667 C58.7705467,0.3325 58.7991733,0.3135 58.8341615,0.300833333 C58.8677586,0.28841679 58.903289,0.281985315 58.9391259,0.281833333 L59.5689126,0.281833333 C59.7374919,0.281833333 59.8806252,0.300833333 59.9951319,0.342 C60.1128193,0.386333333 60.2050607,0.440166667 60.2718563,0.509833333 C60.3418326,0.576333333 60.3895437,0.652333333 60.4213511,0.741 C60.4499778,0.8265 60.4658815,0.915166667 60.4658815,1.00383333" id="Shape" fill="#36B0A7"></path>
                    <polygon id="Shape" points="67.0818222 0.250166667 65.0588711 0.250166667 65.0588711 2.71066667 67.0818222 2.71066667"></polygon>
                    <path d="M66.1339615,1.23816667 C66.1180578,1.1875 66.1053348,1.13366667 66.0926119,1.0735 C66.0830696,1.01333333 66.0767081,0.956333333 66.0703467,0.9025 C66.0608044,0.956333333 66.054443,1.01333333 66.0449007,1.0735 C66.0321778,1.13366667 66.0194548,1.1875 66.0035511,1.23816667 L65.8127067,1.82083333 L66.3184444,1.82083333 L66.1339615,1.23816667 Z M65.5582474,2.55233333 C65.539163,2.603 65.5041748,2.641 65.4564637,2.6695 C65.415611,2.69562981 65.3682427,2.70988708 65.3196919,2.71066667 C65.2497156,2.71066667 65.1892815,2.69166667 65.1352089,2.6505 C65.085057,2.61351459 65.0564872,2.55425767 65.0588711,2.49216667 C65.0588711,2.48583333 65.0588711,2.47316667 65.0620519,2.45733333 C65.0620519,2.4415 65.0652326,2.42883333 65.0684133,2.41933333 L65.7745378,0.481333333 C65.7999837,0.414833333 65.8317911,0.361 65.8763215,0.316666667 C65.9176711,0.272333333 65.9812859,0.250166667 66.0703467,0.250166667 C66.1562267,0.250166667 66.2198415,0.272333333 66.2611911,0.3135 C66.3057215,0.357833333 66.3375289,0.411666667 66.3661556,0.481333333 L67.07228,2.41933333 C67.0754607,2.42883333 67.0786415,2.4415 67.0818222,2.45733333 L67.0818222,2.49216667 C67.0818222,2.55866667 67.0563763,2.6125 67.0086652,2.6505 C66.9553729,2.69229486 66.8887767,2.71364622 66.8210015,2.71066667 C66.7732904,2.71066667 66.7255793,2.698 66.6778681,2.66633333 C66.6313933,2.64160484 66.5953028,2.60118261 66.5760844,2.55233333 L66.4488548,2.20716667 L65.6791156,2.20716667 L65.5582474,2.55233333 L65.5582474,2.55233333 Z M72.9916385,1.17166667 C72.9916385,1.10833333 72.9820963,1.04816667 72.9630119,0.991166667 C72.9439274,0.934166667 72.91212,0.886666667 72.8739511,0.842333333 C72.8326015,0.801166667 72.7785289,0.7695 72.7085526,0.744166667 C72.6385763,0.722 72.555877,0.709333333 72.4604548,0.709333333 L72.212357,0.709333333 L72.212357,2.24833333 L72.4604548,2.24833333 C72.5590578,2.24833333 72.641757,2.23566667 72.7085526,2.21033333 C72.7785289,2.18183333 72.8326015,2.147 72.8739511,2.10266667 C72.9153007,2.05833333 72.9471081,2.00766667 72.9661926,1.9475 C72.9820963,1.8905 72.9916385,1.82716667 72.9916385,1.7575 L72.9916385,1.17166667 Z M73.500557,1.7575 C73.500557,1.87783333 73.4814726,1.995 73.4433037,2.10583333 C73.4051348,2.21666667 73.3447007,2.31483333 73.25564,2.40033333 C73.16976,2.48583333 73.0552533,2.55233333 72.9153007,2.603 C72.7753481,2.65683333 72.6035881,2.68216667 72.4000207,2.68216667 L71.9897052,2.68216667 C71.9179376,2.67901486 71.8489682,2.65354266 71.7924993,2.60933333 C71.7672367,2.58723625 71.7466861,2.56031567 71.7320652,2.53016667 C71.7154949,2.50121509 71.7067289,2.46848832 71.7066193,2.43516667 L71.7066193,0.5225 C71.7066193,0.487666667 71.7161615,0.456 71.7320652,0.4275 C71.7479689,0.395833333 71.7670533,0.3705 71.7924993,0.3515 C71.8179452,0.329333333 71.8465719,0.310333333 71.88156,0.297666667 C71.9133674,0.285 71.9515363,0.2755 71.9897052,0.2755 L72.4000207,0.2755 C72.6035881,0.2755 72.7753481,0.300833333 72.9153007,0.3515 C73.0552533,0.399 73.16976,0.4655 73.25564,0.547833333 C73.3447007,0.630166667 73.4051348,0.725166667 73.4433037,0.832833333 C73.4814726,0.9405 73.500557,1.0545 73.500557,1.17166667 L73.500557,1.7575 Z M78.2016919,0.468666667 C78.2016919,0.4085 78.223957,0.357833333 78.2748489,0.3135 C78.32256,0.272333333 78.3829941,0.250166667 78.4529704,0.250166667 C78.5229467,0.250166667 78.5833807,0.272333333 78.6342726,0.3135 C78.6819837,0.357833333 78.7074296,0.4085 78.7074296,0.468666667 L78.7074296,2.49216667 C78.7074296,2.55233333 78.6819837,2.603 78.6342726,2.64733333 C78.5832375,2.6890805 78.5190174,2.71151418 78.4529704,2.71068983 C78.3829941,2.71068983 78.32256,2.6885 78.2748489,2.64733333 C78.2278365,2.60952959 78.2008663,2.55232555 78.2016919,2.49216667 L78.2016919,0.468666667 L78.2016919,0.468666667 Z" id="Shape" fill="#36B0A7"></path>
                    <polygon id="Shape" points="85.3265511 7.85016667 83.4435526 7.85016667 83.4435526 10.3106667 85.3265511 10.3106667"></polygon>
                    <path d="M84.3850519,0.680833333 C84.2260148,0.680833333 84.1146889,0.725166667 84.0478933,0.8075 C83.9842785,0.893 83.9524711,1.00383333 83.9524711,1.14316667 L83.9524711,1.81766667 C83.9524711,1.95066667 83.9874593,2.06466667 84.0574356,2.15016667 C84.1274119,2.23566667 84.235557,2.28 84.3850519,2.28 C84.5345467,2.28 84.6458726,2.23566667 84.7158489,2.15016667 C84.7858252,2.06466667 84.8208133,1.95066667 84.8208133,1.81766667 L84.8208133,1.14316667 C84.8208133,1.00383333 84.7858252,0.893 84.7222104,0.8075 C84.6554148,0.725166667 84.5440889,0.680833333 84.3850519,0.680833333 M84.3850519,2.71066667 C84.2291956,2.71066667 84.0924237,2.6885 83.9747363,2.641 C83.7550152,2.55971805 83.5826734,2.38582018 83.5039867,2.166 C83.4641193,2.05414807 83.4436823,1.936352 83.4435526,1.81766667 L83.4435526,1.14316667 C83.4435526,1.02283333 83.462637,0.908833333 83.4976252,0.801166667 C83.5326133,0.690333333 83.5866859,0.5985 83.659843,0.516166667 C83.7361807,0.433833333 83.8347837,0.367333333 83.9524711,0.319833333 C84.0733393,0.272333333 84.2164726,0.250166667 84.3850519,0.250166667 C84.5536311,0.250166667 84.6999452,0.272333333 84.8176326,0.319833333 C84.9385007,0.367333333 85.033923,0.433833333 85.1102607,0.516166667 C85.1834178,0.5985 85.2374904,0.690333333 85.2756593,0.801166667 C85.3106474,0.908833333 85.3265511,1.02283333 85.3265511,1.14316667 L85.3265511,1.81766667 C85.3265511,1.94116667 85.3074667,2.05833333 85.266117,2.166 C85.2279481,2.27683333 85.1675141,2.37183333 85.0879956,2.451 C85.0116578,2.53016667 84.9130548,2.59666667 84.7953674,2.641 C84.67768,2.6885 84.5409081,2.71066667 84.3850519,2.71066667" id="Shape" fill="#36B0A7"></path>
                </g>
            </g>
        </g>
    </g>
</svg>