<?xml version="1.0" encoding="utf-8"?>
<!-- Generator: Adobe Illustrator 23.0.2, SVG Export Plug-In . SVG Version: 6.00 Build 0)  -->
<svg version="1.1" id="Layer_1" xmlns="http://www.w3.org/2000/svg" xmlns:xlink="http://www.w3.org/1999/xlink" x="0px" y="0px"
	 viewBox="0 0 160 80" style="enable-background:new 0 0 160 80;" xml:space="preserve">
<style type="text/css">
	.st0{fill:#060909;}
	.st1{fill:#0B71CD;}
	.st2{fill:#CCCACB;}
	.st3{fill:#EC3FAB;}
	.st4{fill:#E90828;}
	.st5{fill:#FD6B03;}
	.st6{fill:#9163CC;}
	.st7{fill:#FDAD02;}
	.st8{fill:#02BCB5;}
	.st9{fill:#03A7D1;}
</style>
<g>
	<g>
		<path class="st0" d="M123.7,36.9c0,3.9,0,7.8,0,11.7c0,0.3-0.1,0.4-0.4,0.4c-1,0-2,0-3,0c-0.3,0-0.5-0.1-0.6-0.4
			c-0.2-0.5-0.4-1-0.6-1.5c-0.1-0.3-0.3-0.3-0.4,0c-1,1.3-2.3,2-3.9,2.3c-0.6,0.1-1.3,0.1-1.9,0.1c-1.5-0.2-2.8-0.7-4-1.7
			c-1.4-1.2-2.2-2.8-2.7-4.6c-0.2-1-0.2-2-0.2-3c0-1.5,0.4-3,1.1-4.3c1.2-2.3,3.1-3.7,5.8-3.9c1.2-0.1,2.3,0,3.4,0.5
			c0.5,0.2,1,0.6,1.3,1.1c0.1,0.1,0.1,0.3,0.3,0.3c0.2-0.1,0.1-0.3,0.1-0.4c0-2.7,0-5.4,0-8.1c0-0.3,0.1-0.4,0.4-0.4
			c1.7,0,3.3,0,5,0c0.3,0,0.4,0.1,0.4,0.4C123.7,29.1,123.7,33,123.7,36.9z M118.3,40.5c0-0.6-0.1-1.1-0.2-1.6
			c-0.4-1.3-1.4-2.2-2.6-2.3c-1.5-0.1-2.6,0.4-3.2,1.6c-0.8,1.6-0.8,3.3,0.1,4.9c0.5,1.1,1.5,1.6,2.7,1.6c1.3,0,2.2-0.6,2.7-1.8
			C118.2,42.1,118.3,41.3,118.3,40.5z"/>
		<path class="st0" d="M62,43.7c0-3.7,0-7.4,0-11.1c0-0.3,0.1-0.4,0.4-0.4c1,0,2,0,2.9,0c0.2,0,0.3,0.1,0.4,0.3
			c0.2,0.6,0.4,1.2,0.7,1.8c0,0.1,0,0.2,0.2,0.2c0.1,0,0.2-0.1,0.3-0.2c1.4-2,3.4-2.6,5.8-2.4c0.9,0,1.7,0.2,2.5,0.6
			c1,0.4,1.9,1.1,2.6,2c1.1,1.4,1.7,3,1.9,4.8c0.3,2.3-0.1,4.4-1.1,6.5c-0.4,0.8-1,1.5-1.7,2.1c-1.5,1.2-3.2,1.7-5.1,1.7
			c-1,0-1.9-0.3-2.7-0.8c-0.4-0.2-0.7-0.6-0.9-0.9c0-0.1-0.1-0.2-0.2-0.2c-0.1,0.1-0.1,0.2-0.1,0.3c0,0.4,0,0.8,0,1.3
			c0,1.9,0,3.8,0,5.8c0,0.4-0.1,0.5-0.5,0.5c-1.6,0-3.2,0-4.8,0c-0.4,0-0.5,0-0.5-0.5c0-3.4,0-6.8,0-10.3C62,44.2,62,44,62,43.7z
			 M74,40.4c0-0.9-0.2-1.8-0.7-2.6C72,36,69.2,36,68.1,38.1c-0.9,1.7-0.9,3.4,0,5.1c1,2,3.8,2.1,5.1,0.3C73.8,42.6,74,41.6,74,40.4z
			"/>
		<path class="st0" d="M87.9,40.6c0-2.7,0-5.4,0-8c0-0.3,0.1-0.4,0.4-0.4c0.8,0,1.6,0,2.4,0c0.7,0,0.7,0,1,0.7
			c0.2,0.4,0.3,0.9,0.5,1.3c0.1,0.4,0.2,0.4,0.5,0.1c0.1-0.1,0.1-0.1,0.1-0.2c0.7-1,1.5-1.7,2.6-2.1c1-0.3,2.1-0.4,3.1-0.3
			c1.2,0.1,2.4,0.4,3.5,1.2c1.1,0.7,1.8,1.7,2.3,2.9c0.5,1.1,0.6,2.3,0.6,3.4c0,3.1,0,6.3,0,9.4c0,0.3,0,0.4-0.4,0.4
			c-1.7,0-3.4,0-5,0c-0.3,0-0.4-0.1-0.4-0.4c0-2.9,0-5.9,0-8.8c0-1.5-0.5-2.4-2-2.8c-1.8-0.5-3.5,0.6-3.5,2.6c0,3,0,6,0,9
			c0,0.3-0.1,0.4-0.4,0.4c-1.7,0-3.3,0-5,0c-0.3,0-0.4-0.1-0.4-0.4C87.9,45.9,87.9,43.3,87.9,40.6z"/>
		<path class="st0" d="M127.4,55.2c0.5-1.1,1-2.2,1.5-3.3c0.6-1.3,1.2-2.5,1.8-3.7c0.1-0.2,0.2-0.4,0.3-0.6c0.2-0.4-0.1-0.7-0.2-1
			c-0.4-0.8-0.7-1.7-1.1-2.5c-0.4-0.7-0.7-1.5-1-2.3c-0.3-0.8-0.7-1.5-1-2.3c-0.3-0.7-0.7-1.4-1-2.2c-0.3-0.8-0.7-1.5-1-2.3
			c-0.4-0.9-0.8-1.9-1.2-2.9c2,0,4.1,0,6.1,0c0.3,0,0.3,0.2,0.3,0.4c0.5,1.5,1,3.1,1.5,4.6c0.4,1.3,0.9,2.7,1.3,4.1
			c0.1,0.2,0.1,0.5,0.2,0.8c0,0.1-0.1,0.2,0.1,0.2c0.1,0,0.1-0.1,0.2-0.2c0.1-0.4,0.1-0.7,0.2-1.1c0.4-1.2,0.8-2.4,1.2-3.7
			c0.3-0.8,0.4-1.6,0.7-2.4c0.3-0.8,0.5-1.6,0.8-2.5c0.1-0.2,0.2-0.2,0.3-0.2c1.9,0,3.8,0,5.7,0c-0.3,0.8-0.7,1.6-1,2.4
			c-0.6,1.5-1.2,2.9-1.9,4.4c-0.7,1.6-1.4,3.3-2.1,4.9c-0.6,1.5-1.2,3-1.9,4.5c-0.9,2.2-1.8,4.3-2.7,6.5c-0.1,0.2-0.1,0.3-0.4,0.3
			c-1.8,0-3.7,0-5.5,0C127.5,55.2,127.5,55.2,127.4,55.2z"/>
		<path class="st0" d="M60.1,37.9c-0.5-0.1-1-0.4-1.4-0.6c-1-0.4-2-0.8-3.1-1.1c-0.8-0.2-1.6-0.3-2.4-0.3c-0.3,0-0.6,0.1-0.8,0.2
			c-0.5,0.3-0.5,1,0,1.3c0.6,0.4,1.4,0.6,2.1,0.7c1.3,0.3,2.7,0.6,3.9,1.3c0.7,0.4,1.3,0.9,1.8,1.6c1.1,1.7,1,3.5,0.3,5.2
			c-0.3,0.7-0.8,1.2-1.4,1.6c-1.1,0.8-2.3,1.1-3.5,1.3c-1.2,0.2-2.5,0.2-3.8,0.1c-1.8-0.1-3.6-0.4-5.2-1.3C46.2,48,46,47.8,46,47.5
			c0-1.4,0-2.8,0-4.3c1.2,0.6,2.3,1.1,3.4,1.4c1.1,0.4,2.3,0.7,3.4,0.7c0.5,0,0.9,0,1.4-0.3c0.6-0.4,0.6-1.1-0.1-1.4
			c-0.8-0.4-1.7-0.6-2.5-0.8c-1.4-0.4-2.7-0.7-3.8-1.6c-1-0.8-1.7-1.9-1.8-3.2c0-0.9-0.1-1.7,0.2-2.6c0.5-1.2,1.2-2.1,2.4-2.6
			c1.1-0.5,2.2-0.8,3.4-0.9c1.3-0.1,2.6,0,3.9,0.1c1.3,0.1,2.5,0.3,3.7,0.8c0.3,0.1,0.4,0.2,0.4,0.6C60.1,34.8,60.1,36.3,60.1,37.9z
			"/>
		<path class="st0" d="M86.7,40.6c0,2.7,0,5.4,0,8c0,0.3-0.1,0.4-0.4,0.4c-1.7,0-3.3,0-5,0C81,49,81,48.9,81,48.6
			c0-5.4,0-10.7,0-16.1c0-0.3,0.1-0.4,0.4-0.4c1.7,0,3.3,0,5,0c0.3,0,0.4,0.1,0.4,0.4C86.7,35.2,86.7,37.9,86.7,40.6z"/>
		<path class="st0" d="M83.7,30.6c-1.7,0-2.9-1.5-2.8-2.9c0.1-1.6,1.1-2.9,3-2.9c1.6,0,2.9,1.4,2.9,3C86.7,29.1,85.6,30.7,83.7,30.6
			z"/>
		<path class="st0" d="M147.1,32.9c-0.3,0.3-0.3,0.7-0.5,1c-0.1,0.1-0.1,0.3-0.3,0.3c-0.2,0-0.2-0.2-0.2-0.3c-0.1-0.3-0.2-0.6-0.4-1
			c-0.1,0.4,0,0.7-0.1,1c0,0.1,0,0.2-0.2,0.2c-0.2,0-0.1-0.1-0.1-0.2c0-0.5,0-1,0-1.5c0-0.1-0.1-0.2,0.1-0.3c0.2,0,0.2,0.1,0.3,0.2
			c0.1,0.3,0.2,0.6,0.4,1c0,0.1,0,0.2,0.1,0.2c0.1,0,0.1-0.1,0.2-0.2c0.1-0.3,0.2-0.6,0.3-0.9c0.1-0.2,0.1-0.3,0.4-0.3
			c0.3,0,0.1,0.2,0.1,0.4c0,0.4,0,0.9,0,1.3c0,0.1,0.1,0.3-0.2,0.3c-0.2,0-0.2-0.2-0.2-0.3C147,33.5,147,33.2,147.1,32.9z"/>
		<path class="st0" d="M144.2,33.3c0-0.2,0-0.3,0-0.5c0-0.3-0.1-0.5-0.4-0.4c-0.1,0-0.2,0.1-0.2-0.1c0-0.2,0.1-0.1,0.2-0.1
			c0.4,0,0.7,0,1.1,0c0.1,0,0.1,0,0.2,0.1c0,0.1-0.1,0.2-0.2,0.1c-0.5-0.1-0.4,0.2-0.4,0.5c0,0.3,0,0.6,0,1c0,0.1,0,0.2-0.1,0.2
			c-0.2,0-0.1-0.1-0.1-0.2C144.2,33.7,144.2,33.5,144.2,33.3z"/>
	</g>
	<g>
		<path class="st1" d="M43,40.8C43,40.9,43,40.9,43,40.8C43,40.9,43,40.9,43,40.8C43,40.9,43,40.9,43,40.8C43,40.8,43,40.8,43,40.8z
			"/>
		<path class="st2" d="M43,40.9C43,40.9,43,40.9,43,40.9C43,40.9,43,40.8,43,40.9C43,40.9,43,40.9,43,40.9z"/>
	</g>
	<path class="st3" d="M28.3,35.3c0,0.2,0,0.3,0.1,0.3c0.8,0.1,1.6,0.4,2.3,0.9c0.1,0,0.2,0,0.3-0.1c0.6-0.6,1.2-1.2,1.7-1.8
		c1.4-1.4,2.7-2.7,4.1-4.1c0.1-0.2,0.2-0.3,0.4-0.4c0.4-0.4,0.7-0.7,1.1-1.1c0,0,0,0,0-0.1c-2.6-2.5-6.1-4.1-10-4.2
		c0,0.1-0.1,0.1-0.1,0.2C28.3,28.5,28.3,31.9,28.3,35.3z"/>
	<path class="st4" d="M17.3,29.1c0.9,0.9,1.8,1.9,2.7,2.8c1.3,1.3,2.5,2.5,3.8,3.8c0.3,0.3,0.5,0.5,0.8,0.8c0.1,0.1,0.2,0.1,0.3,0.1
		c0.6-0.5,1.4-0.8,2.2-0.9c0,0,0,0,0,0c0,0,0.1,0,0.1,0c0,0,0.1,0,0.1,0c0,0,0-0.1,0-0.1c0-3.5,0-7,0-10.5c0-0.1,0-0.2-0.1-0.2
		C23.4,24.9,19.9,26.5,17.3,29.1C17.3,29.1,17.3,29.1,17.3,29.1z"/>
	<path class="st5" d="M13,39.8c3.2,0,6.4,0,9.6,0c0.1,0,0.2,0,0.3,0c0.1,0,0.2,0.1,0.2,0.1c0.1-0.9,0.4-1.7,0.9-2.4
		c0.1-0.2,0-0.4-0.4-0.7c-2.2-2.2-4.4-4.4-6.6-6.7c-0.2-0.2-0.3-0.3-0.5-0.3c-1.2,1.3-2.2,2.8-2.8,4.5c0,0.1-0.1,0.2-0.1,0.3
		c-0.3,0.7-0.5,1.4-0.6,2.1c0,0,0,0.1,0,0.1c0,0.1,0,0.1,0,0.2c-0.1,0.4-0.1,0.7-0.2,1.1c-0.1,0.6-0.1,1.1-0.1,1.7
		C12.7,39.8,12.9,39.8,13,39.8z"/>
	<path class="st6" d="M38.5,30.1c0,0.2-0.2,0.3-0.3,0.3c-0.2,0.2-0.3,0.4-0.5,0.6c-2,2-3.9,4-5.9,5.9c-0.2,0.2-0.2,0.3-0.2,0.4
		c0.5,0.7,0.8,1.4,0.9,2.3c0.1,0.1,0.1,0.1,0.3,0.1c0.5,0,1,0,1.5,0c2.8,0,5.6,0,8.3,0c0.2,0,0.4,0.1,0.4-0.2c0-0.1,0-0.2,0-0.4
		c-0.2-3.6-1.7-6.9-4-9.4C38.9,29.7,38.7,29.8,38.5,30.1z"/>
	<path class="st7" d="M15.3,48.7c0.1,0.1,0.3,0.3,0.4,0.5c0.2,0.4,0.5,0.7,0.8,1c0.4,0.4,0.4,0.4,0.8,0c0.8-0.8,1.6-1.7,2.5-2.5
		c1.4-1.4,2.8-2.8,4.2-4.2c0.1-0.1,0.1-0.1,0.1-0.2c-0.6-0.7-1-1.6-1-2.6c0,0,0,0,0,0c-0.1,0-0.3,0-0.4,0c-2.9,0-5.9,0-8.8,0
		c-0.4,0-0.8,0-1.2,0c0,0,0,0.1,0,0.1c0.1,0.4,0.1,0.7,0.1,1.1c0,0.1,0,0.1,0,0.2c0.1,0.4,0.1,0.8,0.2,1.2c0,0.1,0.1,0.3,0.1,0.4
		c0.1,0.2,0.1,0.5,0.2,0.7c0.1,0.4,0.3,0.8,0.4,1.2c0.1,0.1,0.1,0.3,0.2,0.4C14.3,46.9,14.7,47.9,15.3,48.7z"/>
	<path class="st1" d="M42.9,40.7L42.9,40.7C42.9,40.7,42.9,40.7,42.9,40.7c-1,0-1.9,0-2.7,0c-2.5,0-5,0-7.5,0c0,0-0.1,0-0.1,0
		c-0.1,0.9-0.4,1.8-1,2.5c0,0.1,0.1,0.2,0.2,0.3c1,0.9,1.9,1.9,2.9,2.8c1.3,1.3,2.6,2.6,3.9,4c0.2,0.2,0.4,0.3,0.6,0
		c0-0.2,0.2-0.2,0.3-0.3c0.4-0.4,0.8-0.9,1.1-1.4c0.3-0.5,0.5-0.9,0.8-1.4c0.1-0.1,0.1-0.2,0.2-0.3c0.1-0.2,0.1-0.4,0.3-0.5
		c0.1-0.1,0.1-0.2,0.1-0.3c0.1-0.3,0.2-0.6,0.3-0.9c0,0,0,0,0,0c0-0.1,0.1-0.2,0.1-0.3c0-0.1,0-0.1,0-0.1c0.4-1.2,0.6-2.4,0.7-3.6
		c0,0,0-0.1,0-0.1C43,40.8,43,40.7,42.9,40.7z"/>
	<path class="st8" d="M24.7,44.1c-2.3,2.3-4.6,4.7-7,7c0,0.1-0.1,0.2-0.1,0.3l0,0c0,0,0.1,0.1,0.1,0.1c0.2,0.2,0.3,0.3,0.5,0.5
		c0.1,0,0.2,0.1,0.3,0.2c0.5,0.4,1,0.8,1.6,1.1c0.2,0.1,0.4,0.2,0.6,0.3c0.3,0.1,0.6,0.3,1,0.4c0,0,0.1,0,0.1,0.1c0,0,0.1,0,0.1,0
		c0,0,0.1,0,0.1,0.1c0,0,0,0,0,0l0,0c0,0,0.1,0,0.1,0.1c0.3,0.2,0.7,0.2,1,0.4c0.1,0,0.2,0,0.3,0.1c0,0,0.1,0,0.1,0
		c0,0,0.1,0,0.1,0.1c0,0,0.1,0,0.1,0c0.1,0,0.1,0,0.2,0.1c0,0,0.1,0,0.1,0c0.1,0,0.1,0,0.2,0c0.6,0.2,1.2,0.3,1.8,0.3
		c0.5,0,1,0.2,1.4,0c0,0,0-0.1,0-0.1c0-3.4,0-6.7,0-10.1c-1-0.1-1.9-0.5-2.6-1C24.8,44,24.7,44,24.7,44.1z"/>
	<path class="st9" d="M28.3,45.3c0,1.6,0,3.2,0,4.8c0,1.7,0,3.4,0,5c0,0,0,0.1,0,0.1l0,0c0.5,0.1,1,0,1.4,0c0.7,0,1.3-0.3,2-0.4
		c0.1-0.1,0.2-0.1,0.3-0.1c0,0,0,0,0,0c0.1,0,0.1,0,0.2-0.1c0.4-0.1,0.8-0.3,1.3-0.4c0.2-0.1,0.4-0.2,0.7-0.3c0,0,0,0,0,0
		c0.1-0.1,0.2-0.1,0.3-0.1c0.2-0.1,0.3-0.3,0.6-0.3c0.2-0.1,0.4-0.2,0.6-0.3c0.1-0.1,0.2-0.1,0.3-0.2c0.2-0.1,0.3-0.3,0.5-0.3
		c0.3-0.2,0.6-0.5,0.9-0.7c0.1-0.1,0.2-0.2,0.3-0.3c0.1-0.2,0.5-0.3,0.5-0.5c0,0-0.1-0.1-0.1-0.1c0,0,0,0,0,0
		c-0.2-0.2-0.4-0.3-0.5-0.5c0,0,0,0,0,0c0,0-0.1-0.1-0.1-0.1c0,0,0,0,0,0c-0.2-0.2-0.4-0.4-0.6-0.6c0,0,0,0,0,0c0,0-0.1-0.1-0.1-0.1
		c0,0,0,0,0,0c-0.2-0.2-0.4-0.4-0.6-0.6c0,0,0,0,0,0c0,0-0.1-0.1-0.1-0.1c0,0,0,0,0,0c-0.2-0.2-0.4-0.4-0.6-0.6c0,0,0,0,0,0
		c0,0-0.1-0.1-0.1-0.1c0,0,0,0,0,0c-0.2-0.2-0.4-0.4-0.6-0.6c0,0,0,0,0,0c0,0-0.1-0.1-0.1-0.1c0,0,0,0,0,0c-0.2-0.1-0.4-0.3-0.5-0.5
		c0,0,0,0,0,0c-0.1,0-0.2-0.1-0.2-0.2C32.9,46,32,45,31,44.1c-0.1-0.1-0.1-0.1-0.2-0.1c-0.7,0.6-1.5,0.9-2.5,1.1
		C28.3,45,28.3,45.1,28.3,45.3z"/>
</g>
</svg>
