<svg id="Layer_1" data-name="Layer 1" xmlns="http://www.w3.org/2000/svg" viewBox="0 0 143.85 64.39"><title>SVENN_logo_Black_RGB</title><path d="M80.29,87.86l-.15.45v-.08l-.07.15.07-.07-.07.15v-.08a12.09,12.09,0,0,1-1.34,2.07v-.07a14.68,14.68,0,0,1,.74-1.3,8.4,8.4,0,0,0,.74-1.36l-.14-.08c0,.1,0,.14.07.11s0,0,0,.11l-2.52,4a1.58,1.58,0,0,0,.6-.67,3.21,3.21,0,0,1,.51-.74v.08l-.81,1.18a5.46,5.46,0,0,0,1-1.11q.4-.59.78-1.26a10.89,10.89,0,0,1-.52,1.15c-.2.37-.42.75-.67,1.15h-.14v.22a9.36,9.36,0,0,1-.78.81c-.13.1-.21.15-.26.15l-.08,0a3.77,3.77,0,0,1-.22.48,2.3,2.3,0,0,1-.7.81,5.51,5.51,0,0,0-.85.82c-.1,0-.12,0-.07-.08v-.14l-.38.51c0-.1-.07-.08-.07,0s0,.16-.07.11v-.22A11.84,11.84,0,0,1,73.15,97c-.57.44-1.12.83-1.67,1.18-.2,0-.27,0-.22.15-.1-.1-.22-.1-.37,0a2.33,2.33,0,0,0-.3.22.5.5,0,0,0-.29.11,2.32,2.32,0,0,0-.3.26.92.92,0,0,0-.4.26,1.16,1.16,0,0,0-.26.33l-.08-.07c-.05,0-.14.17-.29.52-.2-.15-.34-.2-.41-.15l-.26.15-.07-.15-.15.15.07.07a.84.84,0,0,0-.18.11s0,0,0-.11a8,8,0,0,1-2.84,1.18,21.91,21.91,0,0,0-3,.89.56.56,0,0,1-.48.33.79.79,0,0,0-.48.19c-.15-.1-.19-.14-.11-.11s.11,0,.11-.11a1.16,1.16,0,0,0-.82,0,.6.6,0,0,1-.66-.08.35.35,0,0,1-.34.11c-.12,0-.18,0-.18.19a1.92,1.92,0,0,0,.85,0,4,4,0,0,1,.85-.11,3.32,3.32,0,0,1-.89.26,6,6,0,0,1-1,.11,1.43,1.43,0,0,0-.93-.11,3.12,3.12,0,0,1-.78.11,1.05,1.05,0,0,1-.59-.15.9.9,0,0,0-.52-.14l-.07,0v0a5.9,5.9,0,0,1-1.33,0c.05,0,0,0-.08-.15a4.58,4.58,0,0,0,.56.11,3.77,3.77,0,0,0,.63,0l-1.26-.52a1.55,1.55,0,0,0-.81-.44,3.93,3.93,0,0,1-.82-.22s0,.08.08.11.14.13.14.33a.72.72,0,0,1-.18-.26l-.11-.11a.5.5,0,0,0-.33-.44,2.28,2.28,0,0,1-.41-.15,3.11,3.11,0,0,1-1.07-1,9.2,9.2,0,0,1-.78-1.41.49.49,0,0,0,.33.08.94.94,0,0,1,.41.07,3.12,3.12,0,0,0-.59-.81,4.24,4.24,0,0,1-.6-.74c0-.6-.07-1.08-.07-1.45a11.24,11.24,0,0,1,.07-1.14,10,10,0,0,1,.3-1.41c.15-.54.37-1.26.67-2.15v-.07c-.05,0-.05,0,0-.22A1.9,1.9,0,0,1,51,90c.07-.25.16-.39.26-.44l.07.07a.29.29,0,0,0,.07-.22,1.75,1.75,0,0,0,.56-.82,2.35,2.35,0,0,1,.55-.88,17.43,17.43,0,0,0,1-1.78,10,10,0,0,1,1.18-1.78c.1-.39.2-.58.3-.55s.22-.09.37-.33L59,79.35a1.18,1.18,0,0,0,.44-.33l.3-.33.44-.19a.4.4,0,0,0,.3-.4,1.32,1.32,0,0,0,.44-.34q.15-.18.3-.33a7.55,7.55,0,0,0,1.14-.78,8.28,8.28,0,0,1,1.08-.77,4.12,4.12,0,0,1,.59-.49c.24-.17.49-.35.74-.55.79-.54,1.6-1.06,2.44-1.55s1.68-.94,2.52-1.34l.81-.74q.3,0,.3-.18c0-.12.09-.19.29-.19l-.44-.59c-.25-.24-.48-.45-.7-.63a2.12,2.12,0,0,1-.56-.63,43.23,43.23,0,0,0-4.11-3.62,19.79,19.79,0,0,1-3.88-4.07c-.4-.74-.77-1.52-1.11-2.33a6.44,6.44,0,0,1-.44-2.85c0-.3.09-.61.14-.93a4.57,4.57,0,0,1,.22-.85c.2-.69.42-1.38.67-2.07a5.22,5.22,0,0,1,1-1.7,11.72,11.72,0,0,1,1.26-1.85,7,7,0,0,1,2.15-2A14.19,14.19,0,0,1,67.15,45c.72-.54,1.5-1.09,2.33-1.63.69-.3,1.43-.6,2.22-.93s1.53-.65,2.22-1a1.74,1.74,0,0,1,.74-.26,3,3,0,0,0,.75-.19,2.62,2.62,0,0,1,.66-.07l.15,0a.57.57,0,0,1,.22,0,1.27,1.27,0,0,0,.67-.18,1,1,0,0,1,.44-.19,2,2,0,0,1,.89.15A2,2,0,0,1,79,41a.72.72,0,0,1,.59.19,1.29,1.29,0,0,0,.52.33,6.18,6.18,0,0,1,1.07,1,6.12,6.12,0,0,0,1.07,1A6.61,6.61,0,0,1,84,46.13a7.26,7.26,0,0,1,.26,2.59,11.71,11.71,0,0,1-.45,2.37A14.24,14.24,0,0,1,83,53.27c-.34.71-.64,1.42-.89,2.11-.29.2-.39.39-.29.59a7.48,7.48,0,0,1-.7.63,4,4,0,0,1-.93.48,3.94,3.94,0,0,1-1.59-.19,6,6,0,0,1-1.44-.62h-.3a2,2,0,0,0-.41-.56c-.17-.17-.33-.34-.48-.52a1.65,1.65,0,0,1-.33-.55,1.13,1.13,0,0,1,0-.74,8.23,8.23,0,0,1,.55-1,8.81,8.81,0,0,1,.78-1,3.54,3.54,0,0,0,.18-.74,1.25,1.25,0,0,1,.19-.52c.15-.34.28-.69.41-1a11,11,0,0,0,.33-1.19,3.12,3.12,0,0,0,.22-2.37,1.24,1.24,0,0,1-.52.08,2,2,0,0,0-.74.15c-.1-.25-.31-.31-.63-.19a2.6,2.6,0,0,1-.63.19c-.09.1-.13.12-.11.07l0-.07a1.11,1.11,0,0,0-.85.14,4.2,4.2,0,0,1-.49.37,4.4,4.4,0,0,0-1.11.63L72,48.35a15.57,15.57,0,0,0-5,5.33L66.52,55v.15h-.07l.07-.15-.07-.08c0,.1,0,.18,0,.23A7.44,7.44,0,0,0,66,56.67a6.78,6.78,0,0,0-.11,1.89l0,.07s0,0-.11,0A6.76,6.76,0,0,0,67.63,62a31.64,31.64,0,0,1,2.59,2.59c.4.3.82.62,1.26,1s.94.76,1.48,1.25a3.47,3.47,0,0,0,.82.71,9.28,9.28,0,0,1,.88.63.93.93,0,0,0,.6.11,2,2,0,0,0,.66-.19,1.09,1.09,0,0,1-.81.37c.15.25.32.31.52.19a.89.89,0,0,1,.44-.19c.1,0,.12-.05.07-.15s0-.19.15-.29a3.71,3.71,0,0,1,1.11-.37,6.71,6.71,0,0,0,1.33-.37,2.9,2.9,0,0,0,.63-.34c.27-.17.46-.2.56-.11a1.31,1.31,0,0,1-.37.15q.08.15.15,0c0-.1.09-.1.14,0l4.3-1.55a20,20,0,0,0,2.77-.56,14.33,14.33,0,0,1,2.92-.48.66.66,0,0,0,.3-.07,2.81,2.81,0,0,1,.37-.15,15.36,15.36,0,0,0,1.85-.41c.39-.12,1,.09,1.7.63l.08-.07v-.08a.88.88,0,0,1,.33.08l.41.15a.26.26,0,0,1-.34,0c-.12-.07-.21-.08-.26,0a.45.45,0,0,0,.26.14.59.59,0,0,1,.26.08,1.07,1.07,0,0,1-1,0,1,1,0,0,0-.81-.08l2.07.52-.45.15c0,.15.1.18.15.11s.12-.08.22,0-.05.15-.14.15a.68.68,0,0,0,.66.22.84.84,0,0,1,.67.15c0,.1-.11.13-.19.08a.24.24,0,0,0-.26,0c-.09.09-.11.16,0,.18s.11.11.11.26a.21.21,0,0,1-.3,0,.46.46,0,0,0-.29-.11c-.1,0-.08.07.07.22a5.78,5.78,0,0,0-.89-.22,2.5,2.5,0,0,0-1,.07c0,.1,0,.14.07.11l.15,0h-.22l-.08-.15a.92.92,0,0,0-.52,0,2.32,2.32,0,0,1-.59.07l.08.08h-.34a1.62,1.62,0,0,0-.55.15v.07a.25.25,0,0,0-.22.11c0,.07-.18.06-.37,0a2.13,2.13,0,0,1-1,.23.68.68,0,0,1-.55.25q-.41,0-.78.12c0,.09-.07.14-.22.14-.84.25-1.54.47-2.11.67s-1.15.42-1.74.67c-.15,0-.22.05-.22.14s-.11,0,0-.07.07,0,0,0l-.08.07h-.15v-.07s-.07,0-.07.15a.15.15,0,0,0-.22-.08.83.83,0,0,0-.22.15v-.07c-.1,0-.15,0-.15.07s0,.08-.15.08l.07,0-.07,0a.42.42,0,0,1-.44.15l-.82.37h-.07l-.63.41a3.27,3.27,0,0,1-.93.4,1.94,1.94,0,0,1-1.07.67,1.89,1.89,0,0,0-1.07.74c0,.05.1.07.3.07v.3a.5.5,0,0,1-.15.37c.59.89,1.17,1.88,1.74,3a13.15,13.15,0,0,1,1.22,3.77,6.74,6.74,0,0,1,.14,2l.15.59V82l0,.15,0,.14v.15c-.1.64-.2,1.25-.3,1.81a13.14,13.14,0,0,1-.3,1.37v.08l-.22.44v-.07l-.11.11a.17.17,0,0,0-.11.18l.22-.22a.82.82,0,0,1-.07.37,1.83,1.83,0,0,0-.45,1V86.9h-.07V87a1.56,1.56,0,0,0,.07.59v.29ZM51.35,90a1.31,1.31,0,0,0,.15-.37s0,0-.15.3Zm3.41,2.74a2.1,2.1,0,0,0-.26.66,5.65,5.65,0,0,1-.26.82v.15l-.37,1.48s0-.13,0-.23.06-.14,0-.14a1.43,1.43,0,0,0,0,.51,4.46,4.46,0,0,0,.34.67l0-.15,0-.07a1.15,1.15,0,0,1-.11.4c-.07.18-.06.21,0,.12a1,1,0,0,0,.37.81c.24.2.44.37.59.52v-.08a2.76,2.76,0,0,1,.29.63.53.53,0,0,0,.45.34V99l.15.15q-.08.15-.15.15h.07a.5.5,0,0,0,.3-.07l.11.11s.06-.07.26-.11v.22c.54-.1,1-.18,1.26-.22a1.85,1.85,0,0,0,.88-.45c.15.1.28.06.37-.11s.3-.23.6-.18a.83.83,0,0,1,.88-.23c.25-.19.45-.34.6-.44s.34-.22.59-.37h.15v-.15l.07.08a11.4,11.4,0,0,1,1.48-.6,5.63,5.63,0,0,0,1.26-.59v-.22c0,.1,0,.12.07.07a.94.94,0,0,0,.67-.51,1.09,1.09,0,0,0,.81-.74c.1.19.15.22.15.07v-.15a4,4,0,0,0,1.44-.85,19.33,19.33,0,0,0,2.19-2,36,36,0,0,0,2.44-2.93,33.8,33.8,0,0,0,2.37-3.59A.81.81,0,0,0,75,85l0,0h-.08s0-.08,0-.22c.15-.55.28-1.08.41-1.6a6.92,6.92,0,0,0,.18-1.59,12.21,12.21,0,0,0-.37-4.14,13.5,13.5,0,0,0-1.4-3.33,1,1,0,0,0-.6.33.7.7,0,0,1-.59.26l.11-.15a.54.54,0,0,1,.19-.14v-.26c0-.13,0-.14.07,0a.29.29,0,0,0,.08.22.41.41,0,0,1,.44-.26c.2,0,.27-.13.22-.48,0,.1-.1.13-.15.08s-.1,0-.14.07a.29.29,0,0,0-.08-.22c0,.2-.07.27-.22.22l.07,0-.07,0c-.1,0-.11.09,0,.14s.06.08,0,.08v-.15s0,0-.08,0v.15a3.15,3.15,0,0,0-.85.52,2.21,2.21,0,0,1-.85.44l.07-.15a1.37,1.37,0,0,0-.81.37q-.15-.07-.15.45a2.26,2.26,0,0,1-.44.22.46.46,0,0,0-.3.29.22.22,0,0,1-.15-.22c0-.1-.07-.1-.07,0s0,.13-.15.08a.47.47,0,0,0,.08.26.23.23,0,0,1,0,.25c-.1,0-.13-.09-.08-.14s0-.08-.07-.08c0,.1,0,.18,0,.22a1,1,0,0,0-.15.37l1.18-.66A5.23,5.23,0,0,1,69,77a4.11,4.11,0,0,0-1.14.85v.07c-.55.4-1,.74-1.52,1A6.44,6.44,0,0,0,65,80c-.84.69-1.62,1.39-2.36,2.11s-1.46,1.39-2.15,2a.6.6,0,0,0-.18.34.24.24,0,0,1-.26.18,4.69,4.69,0,0,1,.63-.89,5.43,5.43,0,0,1,.85-.74L61.49,83c-.05,0,0,0,.08-.07a.67.67,0,0,0-.08-.3.36.36,0,0,0-.18.3c0,.14-.09.17-.19.07,0,.25,0,.4-.07.44,0-.14,0-.22-.15-.22l-.07.15v.07c-.1,0-.15,0-.15,0l-.08,0h-.07l.07.07h-.07l-.07-.07a.43.43,0,0,0-.15.29c0,.1-.08.2-.22.3l.11-.15c.07,0,0-.1-.11-.15a1.1,1.1,0,0,1-.3.52,1.8,1.8,0,0,0-.37.59h-.15c0-.19,0-.29-.07-.29,0-.15,0-.22.15-.22v.22a.35.35,0,0,0,.22-.37c-.1-.1-.14-.1-.11,0s0,.12,0,.07,0-.22.15-.22a.2.2,0,0,1,0-.26l.26-.26c0,.1,0,.18-.12.22s-.13.18,0,.37a1.61,1.61,0,0,1,.48-.63,4.08,4.08,0,0,0,.63-.62h-.15l-.08-.08-.18.11a.21.21,0,0,0,0,.26c.1-.24.17-.34.22-.29-.09.34-.27.51-.51.51a2.75,2.75,0,0,0-.74.56c-.15.17-.3.36-.45.55v.3a.52.52,0,0,1,.22-.22l0-.08,0,.08v.29h.07l.08.15L59.2,85c0,.1.06.16,0,.18s0,.09,0,.19h-.15L59,85.2c0,.1,0,.15.07.15a1.19,1.19,0,0,0-.52.66,1.33,1.33,0,0,1,.15-.81v-.07l.07-.08a.28.28,0,0,0,.08.22,1.15,1.15,0,0,0-.15-.51,2.15,2.15,0,0,1-.41.66,8.75,8.75,0,0,0-.63.89,1.15,1.15,0,0,0-.25.41,3.67,3.67,0,0,1-.26.48l-1,1,.15-.52c-.15.25-.32.51-.52.78a6.71,6.71,0,0,0-.44.7l.67-.66-.37.81a9.19,9.19,0,0,1-.6.92,1.51,1.51,0,0,0-.29.86l-.08-.15v.29l.08.15a.55.55,0,0,1,.18-.4.29.29,0,0,0,0-.41,1.66,1.66,0,0,0,.3-.48,4.86,4.86,0,0,1,.37-.71l.14-.07a.55.55,0,0,1,.23-.41,1,1,0,0,0,.29-.63,2.23,2.23,0,0,0,.56-.66,2.69,2.69,0,0,1,.77-.82c0-.19.08-.3.23-.33a.35.35,0,0,0,.29-.26l.15,0a.25.25,0,0,1,.22-.11.66.66,0,0,0-.07.3,5,5,0,0,0-.78.81,2.21,2.21,0,0,0-.41,1,9.77,9.77,0,0,1-.88.92,2,2,0,0,0-.6,1s.05-.07.15-.07c-.1.25-.18.46-.26.63a1.25,1.25,0,0,1-.4.48l.07-.15s0-.1-.07-.15a1.33,1.33,0,0,0-.08.3c-.05-.05-.07,0-.07.07v.15l.07.08-.15.14.08-.22-.26.37a.21.21,0,0,0,0,.3l-.15.37.15-.3a.57.57,0,0,1-.08.33.24.24,0,0,0,0,.26h-.07ZM54,102.52s0-.13-.07-.23a2.16,2.16,0,0,1,.81.15h-.37A.81.81,0,0,0,54,102.52Zm.07-10.59c.2,0,.3-.09.3-.29-.1,0-.15,0-.15.11A.21.21,0,0,1,54.09,91.93Zm.59.6v.14h.08Zm0,.81a1,1,0,0,1,.15-.67l0,.11ZM55,90a1.71,1.71,0,0,1,.22-.33.33.33,0,0,0,.08-.34.55.55,0,0,1-.19.23.33.33,0,0,0-.11.29l-.07-.07-.08.18a.56.56,0,0,1-.07.26l.07-.07Zm.07,8.07,0,.07,0,.07-.08-.07Zm.74.81.08.07Zm.3-10.58-.07.15a.32.32,0,0,1,.07-.23Zm.07-.08-.07.08v-.08Zm0-.07.08-.07ZM57,86.9c-.1,0-.17.1-.22.3Zm.29-.29a.71.71,0,0,0,.23-.52,3,3,0,0,1-.15.26A.45.45,0,0,0,57.27,86.61Zm1-1.78.37-.44v-.08Zm.52-.81c-.15.14-.2.22-.15.22h.07l0-.11Zm.07.81L59,85l0-.08Zm.15-.74c0-.1,0-.16.07-.19s0-.11-.07-.25l-.07.18C58.93,83.9,59,84,59.05,84.09Zm.07-.37a2.07,2.07,0,0,0,.45-.37C59.27,83.55,59.12,83.67,59.12,83.72Zm.45,1.48c0,.15-.12.1-.22-.15Zm.15.07h0Zm.59-2.66c0,.1-.06.16-.19.18s-.13.09,0,.19c0-.1.06-.17.18-.22S60.41,82.66,60.31,82.61Zm-.22.81.07-.07Zm1-.88v-.15l.08-.15a.53.53,0,0,0-.3.52Zm.45.44h0Zm2.22-2.66-.15.14a4,4,0,0,1-.74.71,1.37,1.37,0,0,0-.52.63c-.2-.1-.27-.15-.22-.15s0,.25.07.29l-.37.15a1.08,1.08,0,0,0-.22.82q.15,0,.15-.12l.07-.18-.07-.07.07,0,.08,0v.08l.14-.15H62v-.08l.07-.22h.08c.39-.15.59-.32.59-.52.15.05.3,0,.45-.22a1,1,0,0,1,.44-.37l-.08-.07h.08a1,1,0,0,0,.29-.26.25.25,0,0,1,.37,0,.69.69,0,0,0,.19-.37c0-.15.08-.22.18-.22-.1-.1-.11-.14,0-.11l.18,0,.89-.74-.15-.29a.43.43,0,0,1,.3-.15l-.15.44.67-.44.37-.37a1.51,1.51,0,0,1,.44-.3l.52-.15a2.2,2.2,0,0,1,.59-.63c.25-.17.49-.33.74-.48-.05-.09-.09-.11-.11,0s0,.06,0,0,.1-.22.15-.22.08-.1.08-.3l.07-.07L69,75.88v.29c0-.1-.14-.1-.26,0s-.16.2-.11.3l.07-.08-.07.37v-.07h-.15c-.1,0-.15.09-.15.11s0,0-.15,0a.61.61,0,0,0,.15-.45c-.1.1-.14.18-.11.23l0,.14c-.1,0-.16,0-.18.08s-.09,0-.19,0c.15.15.17.22.08.22s-.24-.06-.41.11-.31.24-.41.19c.1.14.1.22,0,.22a.23.23,0,0,0-.22.15,1,1,0,0,0,.26-.19.36.36,0,0,1,.26-.11v.22a.55.55,0,0,0-.48.37.48.48,0,0,1-.56.3.29.29,0,0,1,.19-.3.47.47,0,0,0,.26-.29v-.15q-.15.08-.15.18c0,.08-.08.16-.22.26l.07-.22a1.64,1.64,0,0,1-.22.18.34.34,0,0,0-.15.26L65.93,78a.68.68,0,0,1-.22.26.39.39,0,0,0-.15.33h0s0-.07-.12-.07,0,.15-.07.15a.35.35,0,0,1-.3.37.52.52,0,0,0-.37.44,2.9,2.9,0,0,0,.52-.33,4.44,4.44,0,0,0,.37-.33.29.29,0,0,1-.22.29.51.51,0,0,1-.37.45.67.67,0,0,0-.44.29c0-.1-.08-.05-.23.15s-.27.22-.37.07Zm-2.08,1c-.09.1-.11.13,0,.08l.18-.15c-.1,0-.13,0-.11,0Zm.3.15a1,1,0,0,0,.48-.33,1.8,1.8,0,0,1,.26-.34,2.64,2.64,0,0,0-.41.34Zm.89-.67v.08l.07-.08,0-.07,0-.07Zm.15-.07H63v.07Zm.22-.3c-.1,0-.15,0-.15,0a.6.6,0,0,1-.07.26C63.2,80.61,63.27,80.51,63.27,80.46Zm1-1.48a6.73,6.73,0,0,0-.52.45l-.29.29a1.25,1.25,0,0,1,.4-.25A.82.82,0,0,0,64.23,79Zm-.52,1a.9.9,0,0,1,0,.25.75.75,0,0,0,0,.26v-.07l.15-.07a.24.24,0,0,1,0-.26C63.83,80,63.81,80,63.71,80Zm.3,0,.15-.08,0-.07,0-.08-.07.15Zm6.51-5.41,0-.07s0-.1-.11-.15c0,.15-.05.22-.15.22a.84.84,0,0,0-.18.23l-.11.07v-.11s.07-.09.07-.19l-.29.37h-.15l-.08.08a12.17,12.17,0,0,1-1.18.92,5.22,5.22,0,0,1-1.18.63,1,1,0,0,1-.45.45,1.31,1.31,0,0,0-.51.51h-.08c-.3.25-.62.5-1,.74a7.93,7.93,0,0,0-.89.74,13,13,0,0,0,2-1.37,13.72,13.72,0,0,1,2-1.36.49.49,0,0,1,.26-.23.44.44,0,0,0,.26-.22c.1,0,.16,0,.19,0s.08,0,.18,0l1.33-1.11,1.93-1a1.64,1.64,0,0,1,.48-.23.63.63,0,0,0,.4-.37Zm-4.44,4c0-.1,0-.15.08-.15h.14C66.11,78.49,66,78.54,66.08,78.54Zm6.81-6h-.08a.77.77,0,0,1-.44.33,3.3,3.3,0,0,0-.59.18,28.11,28.11,0,0,0-2.52,1.52c-.84.57-1.65,1.15-2.44,1.74l5.55-3.26A.85.85,0,0,0,72.7,73c.13,0,.19-.12.19-.22Zm3.7,19.24a3,3,0,0,0,.29-.37,1.13,1.13,0,0,1,.52-.37,1.14,1.14,0,0,0-.74.33.51.51,0,0,0-.15.7c-.14,0-.22,0-.22.15a.13.13,0,0,1-.15.15c0-.15,0-.22.12-.22s.06,0,0-.08-.22.13-.08.37a4.73,4.73,0,0,0-.51.33,6,6,0,0,0-.74.63c-.25.25-.47.49-.67.71a.92.92,0,0,0-.3.55c-.1,0-.14,0-.14.08s0,.07-.15.07a.13.13,0,0,0-.15-.15,2,2,0,0,1-.48.59,1.23,1.23,0,0,1-.85.3l-3.7,3a2.39,2.39,0,0,0,.55-.3l1.08-.66,1.11-.71a6.74,6.74,0,0,0,.59-.4v.22a2.14,2.14,0,0,0-.52.41c-.3.27-.39.4-.3.4a2,2,0,0,0,1-.66c.37-.4.66-.72.85-1a1.42,1.42,0,0,0,.89-.67l-.07-.07.59-.63a2.43,2.43,0,0,0,.37-.63c.1,0,.26,0,.48-.19a7.08,7.08,0,0,0,.67-.59l.85-.85a1.39,1.39,0,0,1,.48-.52c.22-.15.28-.27.18-.37a.45.45,0,0,0-.37.26,2.07,2.07,0,0,1-.29.41ZM70,75.14q0,.28-.15.33c-.09,0-.12.09-.07.18s.27-.14.52-.29c-.1,0-.15,0-.15-.11S70.1,75.14,70,75.14Zm.22,1,.08,0,.07,0Zm1.48-1a3.68,3.68,0,0,1-.66.55,3.8,3.8,0,0,1-.67.33l.67-.37c.1-.09.24-.23.44-.4a1.45,1.45,0,0,1,.59-.34c0,.1,0,.15-.07.15s-.07,0-.07.15Zm-.81,23a1,1,0,0,1-.33.22c-.13,0-.16.1-.11.15l.18-.11A.63.63,0,0,0,70.89,98.15Zm.22,0,.08-.07Zm5.33-4.59c.2-.19.3-.34.3-.44a.18.18,0,0,0-.19.15A1.15,1.15,0,0,1,76.44,93.56ZM77,93c.2,0,.24,0,.15-.14S77,93,77,93Zm1.85-2.59-.08.08v-.08Zm1.26-2,.07.14-.44.74A5.7,5.7,0,0,0,80.07,88.46Zm.44-22.13c0,.1-.2.25-.59.44,0-.19.07-.29.22-.29a.77.77,0,0,0,.3-.15C80.58,66.23,80.61,66.23,80.51,66.33Zm-.3,20.2s-.07,0-.07.22a.45.45,0,0,1,.15-.22l-.15-.22c0,.1,0,.15.07.15Zm-.07.37.07-.15Zm.15-.07q-.15,0,0-.15h-.08v.15Zm-.08-.15.08-.07v-.08Zm.23.59s0-.24.22-.59l-.3,1v-.15l-.07-.07,0-.07S80.34,87.27,80.44,87.27Zm0-1c-.1.1-.1.14,0,.14Zm.29.22a.29.29,0,0,1-.07.22v-.15Zm0-.74a2,2,0,0,0,.3-1.11Zm.82-1q-.08.52-.15,1.11A9.94,9.94,0,0,1,81.18,87Zm0-.37a2.38,2.38,0,0,1,.07-.63,1.33,1.33,0,0,0,0-.63.94.94,0,0,0,0,.41.31.31,0,0,1,0,.26.61.61,0,0,1-.11-.52,6.62,6.62,0,0,1,.11-.74,1.53,1.53,0,0,0,0,.3,1,1,0,0,1,0,.29l.08-.14v.74A1.77,1.77,0,0,1,81.55,84.31ZM82.66,69q-.37,0-.45.15a.45.45,0,0,1,.3,0C82.61,69.13,82.66,69.09,82.66,69Zm4-1.18c-.69.15-1.36.32-2,.52s-1.26.42-1.86.66Zm-3.25,0-.3.15v.22c.15.1.22.07.22-.07h.08V68l.07.07a.68.68,0,0,1,.26-.18.34.34,0,0,0,.18-.19c-.24,0-.39.08-.44.22Zm.59-.67c.1.1.18.14.26.11a1.31,1.31,0,0,1,.33,0l.08-.15a2.41,2.41,0,0,1-.41,0C84.07,67,84,67.05,84,67.14Zm.07.45c0,.15,0,.17.3.07s.22,0,.22-.15v-.14a.8.8,0,0,1-.33.14ZM87,67,87,66.92l-.08.08q0-.15,0-.15s0,0,0-.15a.79.79,0,0,0-.37.3.15.15,0,0,0-.22-.08.47.47,0,0,0-.22.22l0,0,0-.11c-.1.19-.23.25-.4.18a1.37,1.37,0,0,0-.49-.11c0,.05,0,.2-.07.44-.15-.09-.2-.16-.15-.18l.08-.11a.42.42,0,0,0-.22.52A7.78,7.78,0,0,1,87,67Zm-2.36,0c0,.1.06.12.18.07a.48.48,0,0,0,.26-.22Zm1.14,0,.11-.11h-.37C85.64,67,85.73,67,85.8,67Zm1.59.11c.1,0,.15,0,.15,0l.08,0v-.15h-.08c0,.1,0,.13-.11.11S87.29,67,87.39,67.07ZM89,66.55a.78.78,0,0,0-.44-.07v.15a1,1,0,0,1-.52-.08h-.15c0,.15,0,.22-.07.22v-.14l-.22.22,0,.07,0,.08c.1,0,.16,0,.18-.08s.09,0,.19,0Zm-.52-.15.19.08,0-.08c-.1-.09-.18-.13-.25-.11S88.4,66.35,88.5,66.4Zm.52.74-.11,0-.11,0,.52-.08Zm0-.59a.44.44,0,0,0,.3-.07.13.13,0,0,1-.15-.15c0,.1,0,.14-.08.11S89,66.45,89,66.55Zm.3-1.77a.31.31,0,0,0,.18.18c.08,0,.06,0,0,0l-.07-.14Zm.29,1.55c-.1,0-.15.09-.15.11l-.07,0h.3S89.61,66.43,89.61,66.33Zm.3.15a.73.73,0,0,1,.41,0,.42.42,0,0,0,.4-.11l-.07-.07c-.1,0-.15,0-.15-.08L90.35,66l-.37.11C89.88,66.17,89.86,66.28,89.91,66.48Zm2.74,0c0-.1,0-.1.14,0Zm1.62-1.26v.07l.08.08c0-.1,0-.14.11-.11l0,0Z" transform="translate(-49.8 -40.5)"/><path d="M102.12,79.65a2.88,2.88,0,0,1-.52,1.18,3.93,3.93,0,0,0-.59,1.34L99.6,84.76l-1.26,2a11.54,11.54,0,0,1-1.4,1.85,1.17,1.17,0,0,0-.48.45,1,1,0,0,1-.34.37l-.29.33a1,1,0,0,1-.3.26,3.42,3.42,0,0,0-.74.41,2.83,2.83,0,0,1-1,.4,2.2,2.2,0,0,1-.81,0,6.46,6.46,0,0,0-1-.07,1,1,0,0,0-.3,0,.72.72,0,0,1-.37,0l-.81-.3h-.3A1.35,1.35,0,0,1,89,89.27l-.3-1.92a36.34,36.34,0,0,1-.11-3.7c0-1.34.09-2.67.19-4,0-.39,0-.83,0-1.3s0-.92,0-1.36a4.12,4.12,0,0,0,0-.48,4.53,4.53,0,0,1,0-.71l-.15-4.22c0-.93.07-1.82.07-2.66a23.65,23.65,0,0,0-.14-2.52,1.89,1.89,0,0,0-.19-.63,1,1,0,0,1-.11-.48,2.93,2.93,0,0,1,.11-.7,4,4,0,0,1,.19-.55,1.17,1.17,0,0,1,.7-.78,2.79,2.79,0,0,0,.78-.48,1,1,0,0,0,.74,0,1.59,1.59,0,0,1,.51-.15,2,2,0,0,1,.82.37,1.65,1.65,0,0,1,.48,0,1.41,1.41,0,0,1,.33.18,2.51,2.51,0,0,0,.59.22,1,1,0,0,1,.52.37,2,2,0,0,1,.52,1.37,5.91,5.91,0,0,0,.22,1.59c0,.84.08,1.69.08,2.56a21.55,21.55,0,0,1-.15,2.55,12.79,12.79,0,0,1,.07,2.4c-.05.82-.1,1.57-.15,2.26a3.12,3.12,0,0,1,.08,1.56c-.1.93-.16,1.87-.19,2.81s-.06,1.92-.11,3a1.66,1.66,0,0,0,.74-.85,3.82,3.82,0,0,1,.59-1,18.31,18.31,0,0,1,.74-1.7c.3-.6.57-1.16.82-1.71a20.82,20.82,0,0,0,1.63-3.47,6.11,6.11,0,0,0,.81-1.82,2.55,2.55,0,0,1,1-1.51.45.45,0,0,1,.08-.26,2.54,2.54,0,0,0,.14-.34c.1,0,.15,0,.15.08l1.08-3.07a13.43,13.43,0,0,1,1.36-2.85A6.51,6.51,0,0,1,102.41,62s.08,0,.08-.07.05-.12.15-.07q-.23-.23,0-.6a.81.81,0,0,0,.22.6,2.45,2.45,0,0,1,.15-.6c.14,0,.22-.14.22-.44h-.15l.44-.52v.22c0,.05.12,0,.19-.07s.16-.1.26,0v.07q.15,0,.18-.18a.58.58,0,0,1,.11-.26c.1,0,.15,0,.15,0l.08,0a1,1,0,0,0,.44-.37c.15-.19.32-.17.52.08a2.68,2.68,0,0,0,.66.44.22.22,0,0,0,.15.22.67.67,0,0,0,.3.08s-.08.07-.22.07a1.14,1.14,0,0,1,0,.52.67.67,0,0,0,.07.52h.15a2.93,2.93,0,0,0,0,.44,1.11,1.11,0,0,0,.18.52.53.53,0,0,0-.07-.26c0-.07,0-.18.07-.33l-.15-.08c.15-.09.22-.19.22-.29a.43.43,0,0,1,.3.15,8.14,8.14,0,0,1-.11,1.36,8.36,8.36,0,0,0-.11,1.37v.15c0,.1.18.43.41,1a8.94,8.94,0,0,1,.4,1.22c.2.45.37.85.52,1.22a1.6,1.6,0,0,0,.81.85,1.8,1.8,0,0,0,1.11.52,2,2,0,0,0,1.26-.07h.3a2,2,0,0,1,.52-.37,4.32,4.32,0,0,0,.66-.45.49.49,0,0,0,.37-.14h0a2.72,2.72,0,0,1,.3-.19,1.55,1.55,0,0,1,.33-.15c.1,0,.15,0,.15,0a1.75,1.75,0,0,0,.7-.33l.63-.63c-.1.24-.16.39-.19.44l-.07.08-.07.07s-.09.2-.19.44q-.15,0-.15.3c.25-.15.37-.25.37-.3s.1-.12.3-.22c.15.1.24.13.29.08A.81.81,0,0,1,116,68a7.57,7.57,0,0,1-.7.85,1.91,1.91,0,0,0-.48.85l.07-.07s0,0,.07.07a.67.67,0,0,1-.22.26,3,3,0,0,0-.37.33h.08a2.24,2.24,0,0,1-1,.89,3,3,0,0,0-1.08.81l.08.08.15-.08a1.79,1.79,0,0,1-.74.48,3.27,3.27,0,0,0-.74.34,3.16,3.16,0,0,1-.56.11c.08,0-.06,0-.41,0-.1-.1-.18-.12-.25,0a.4.4,0,0,1-.26.11q-.6-.15-.48-.15c.07,0,0-.12-.34-.37a1.8,1.8,0,0,1-.29-.11l-.08-.07-.11-.08a3.16,3.16,0,0,1-.48-.26,1.42,1.42,0,0,1-.67-.81,4.86,4.86,0,0,0-.66-1.11.59.59,0,0,0-.15-.44V70l-.15-.08-.15-.15v-.07l-.07-.07h.07c0-.15-.07-.23-.22-.23v.08l-.15-.08,0,0a.68.68,0,0,0,.18.26c-.1,0-.19,0-.29-.22s-.2-.22-.3-.08c-.3,1.14-.63,2.27-1,3.41S103.55,75,103.15,76c.1,0,.13,0,.08-.07s0-.08.07-.08a1,1,0,0,0-.11.52.65.65,0,0,1-.11.44H103v-.07l.07-.15s-.07,0-.07.15a1.19,1.19,0,0,1,.14-.44,2.6,2.6,0,0,0-.44,1,1.25,1.25,0,0,0-.52,1v.37a1.92,1.92,0,0,1,.19-.41,1,1,0,0,0,.11-.48.45.45,0,0,0-.15.22c0-.09,0-.21.22-.33a.8.8,0,0,0,.37-.55c0,.24,0,.42-.07.51a4.65,4.65,0,0,1-.37.74,2.85,2.85,0,0,1-.37.52.29.29,0,0,1,.07-.22c-.1,0-.15,0-.15.07l-.07.15a.6.6,0,0,0-.18.3l-.12.37.08-.08a.47.47,0,0,1,0,.23l0,.14,0,.08,0,.07V79.8c-.35.25-.52.47-.52.66l.52-.59c-.25.55-.48,1-.7,1.44a9.26,9.26,0,0,0-.56,1.3c.1.1.15.12.15.07.59-1,1.13-2,1.63-3-.1-.15-.1-.27,0-.37Zm-.52,0c-.35.1-.52.25-.52.44Zm.07.44s0-.09.08-.29l.07.07C101.67,80,101.62,80.09,101.67,80.09Zm.08-.44a3,3,0,0,1,.15-.26.58.58,0,0,0,.07-.33q.15.07,0,.33C101.87,79.56,101.8,79.65,101.75,79.65Zm.07-.59s0-.08.15-.22Zm.15.59v-.07l.07.07Zm.44-17.91s0,.08,0,.22Zm.3.59c.1-.14.12-.24.07-.29a1.21,1.21,0,0,1-.14-.22A.32.32,0,0,0,102.71,62.33Zm-.07,16.21.44-1.18c.1-.1.12-.12.07,0l-.07.18Zm.88-13.32.08-.07.07-.08a1.44,1.44,0,0,0-.33-.44.5.5,0,0,1-.11-.52,1.07,1.07,0,0,1-.37-.52c.1.3.18.58.26.85A2.23,2.23,0,0,0,103.52,65.22Zm-.07,10.14c.1.39,0,.59-.15.59,0-.1.09-.17.11-.22A.93.93,0,0,0,103.45,75.36Zm.07.37v0Zm.23-.52-.15.44a.88.88,0,0,1,.15-.51Zm-.15,0,.07-.07Zm.07-9.62s.1,0,.15-.15a.15.15,0,0,0-.07-.22Zm.22,9.47a.86.86,0,0,0,.08-.18V75Zm.89-4.44.08-.15.07-.14C104.78,70.47,104.73,70.57,104.78,70.62Zm.67-1.63-.15.08-.15.29.3-.29Zm.15.67c0,.1,0,.14,0,.11s0,.06,0,.26V70l.07-.15c.05,0,.07.07,0,.22s-.06.22-.11.22-.1-.07,0-.22C105.52,69.78,105.5,69.66,105.6,69.66Zm.29-.07,0,.07,0,.07-.08-.07Zm.22.14H106v-.14Zm.3.23.15.07c-.1.4-.08.59.07.59-.1.1-.16.06-.18-.11A3.24,3.24,0,0,1,106.41,70ZM107,61.3l0,.11,0,.11v.07h-.08l-.29-.29a.28.28,0,0,1,.22,0A.43.43,0,0,0,107,61.3Zm.08,2.14a.49.49,0,0,1,0,.34L107,64A1.27,1.27,0,0,1,107.08,63.44Zm0,1.19c0-.2,0-.32.07-.37Zm8.36,3.25.15-.14a.83.83,0,0,1,.37-.15Zm.52-.66v.07h-.23Z" transform="translate(-49.8 -40.5)"/><path d="M133.94,75.28a.69.69,0,0,1-.37.19,1.16,1.16,0,0,0-.37.11c-.4.54-1,1.33-2,2.37s-1.93,2.13-3,3.29-2.23,2.25-3.36,3.26A22.59,22.59,0,0,1,122,86.75l.08.08a6.77,6.77,0,0,1-1.67.89,4.07,4.07,0,0,1-1.89.14l-.18,0a.77.77,0,0,0-.41,0,2.72,2.72,0,0,0-1.41-.29,8.32,8.32,0,0,0-1.81-.37,1.61,1.61,0,0,0-.41-.08c-.49-.09-.72-.24-.7-.44s-.18-.42-.63-.67a6.77,6.77,0,0,1-1.33-2.7,9,9,0,0,1,0-3.66,9.24,9.24,0,0,0,.33-2.7,6.16,6.16,0,0,1,.49-2.55.46.46,0,0,0,.14-.23l-.07-.14c.3-.64.54-1.2.74-1.67s.37-.94.52-1.41.3-.94.48-1.44a17.76,17.76,0,0,1,.7-1.7,3.35,3.35,0,0,0,.33-.7c.08-.23.16-.46.26-.71a1.75,1.75,0,0,0,.26-.29,3.48,3.48,0,0,1,.26-.3,8.3,8.3,0,0,1,.85-1.66,14.23,14.23,0,0,1,1.22-1.52l.48-.63a2.79,2.79,0,0,0,.41-.7.65.65,0,0,1,.81-.52H120a.89.89,0,0,1,.44-.52l.59-.29a1.9,1.9,0,0,1,.37,0,1.82,1.82,0,0,1,.3.11.46.46,0,0,1,.59-.14,1.47,1.47,0,0,1,.67,0h.14l.15-.08.11.15a.45.45,0,0,0,.19.15c.1.1.18.13.26.11s.16,0,.26.11a1.12,1.12,0,0,1,.44.15l.08-.08s0,0,.14,0l-.07.37q.15,0,.15,0l.07,0a.45.45,0,0,1,.19.15s.08.07.18.07v.08a4.2,4.2,0,0,1,1.92,3.18,7.91,7.91,0,0,1-.51,4.14v.15a8.51,8.51,0,0,0-1.08,1.63,6.66,6.66,0,0,1-.92,1.4.8.8,0,0,1-.37.56,1.39,1.39,0,0,0-.45.41,9,9,0,0,0-1.51,1.4,5.38,5.38,0,0,1-1.74,1.33,6.5,6.5,0,0,1-1.15.6,8.28,8.28,0,0,0-1.29.66,4.44,4.44,0,0,1-.56.85,2.22,2.22,0,0,0-.29.37,1.25,1.25,0,0,0-.15.56c0,.24-.09.69-.19,1.33a17,17,0,0,1-.44,2.07,4.32,4.32,0,0,0-.15,1.93,2.28,2.28,0,0,0,1.33,1.77,6.1,6.1,0,0,0,1.93-.77,17.08,17.08,0,0,0,1.7-1.23q.15.08.18,0a.23.23,0,0,1,.19-.07A11.52,11.52,0,0,1,123,82.5a2.85,2.85,0,0,0,1.08-1.07l.22-.23h-.08a2.11,2.11,0,0,1,.67-.44,1.14,1.14,0,0,0,.59-.67v.08l.41-.22a.44.44,0,0,0,.18-.52l.15.07v-.15a5.27,5.27,0,0,0,.45-.48,1.28,1.28,0,0,1,.37-.33A13.53,13.53,0,0,0,128.68,77l1.48-1.7c.5-.57,1-1.16,1.63-1.78a15.8,15.8,0,0,1,2.08-1.81,1.45,1.45,0,0,0,.37-.37,1.9,1.9,0,0,1,.29-.37.67.67,0,0,0,.37-.37,3.4,3.4,0,0,1,.37-.59c.2.34.37.42.52.22a4.33,4.33,0,0,0,.66-.52,6.94,6.94,0,0,0,.52-.59.19.19,0,0,0,.3,0l-.15.15h.22l-.07.18c0,.07-.05.11-.15.11a4.75,4.75,0,0,0-.44.56q-.3.41-.15.33a1.86,1.86,0,0,1-.37.44.57.57,0,0,0-.15.67s0,0,.07-.19.13-.25.23-.25l.44-.45c-.05.1-.06.15,0,.15l.11-.07.12-.08s0,.08,0,.22c.05-.09,0,0-.15.15a3.41,3.41,0,0,1-.37.45l.08-.08-.08.08a4,4,0,0,1-1.4,1.7.93.93,0,0,1-.26.63,1.64,1.64,0,0,0-.33.26c0-.1.06-.16.18-.19s.23-.13.33-.33c-.39.29-.59.47-.59.52a.31.31,0,0,0-.29.14.67.67,0,0,0-.08.3v.15a.47.47,0,0,0-.22.22.47.47,0,0,1-.22.22c.05,0,0,0,0,.08l-.33.44ZM112.41,77.8a1.54,1.54,0,0,1,0,.3,1,1,0,0,0,0,.29.43.43,0,0,0-.15.3,1.18,1.18,0,0,1-.07.37v.07a4.19,4.19,0,0,0-.19,1c0,.35-.06.7-.11,1a.42.42,0,0,1,0,.44,1,1,0,0,0-.11.37l.22.82a6,6,0,0,0,.37,2.07,3.79,3.79,0,0,0,1.41,1.78,1.44,1.44,0,0,1-.26-.37,1.43,1.43,0,0,0-.19-.3c-.24-.54-.48-1-.7-1.48a3.44,3.44,0,0,1-.33-1.55,17.94,17.94,0,0,1,.66-4.67,4.13,4.13,0,0,1,.11-.85,1.61,1.61,0,0,0,0-.77q-.58.15-.63.51C112.42,77.38,112.41,77.6,112.41,77.8Zm6-15.69L118,62s0-.1.22-.3Zm2.51,10,.08.08c.1,0,.15,0,.15-.08a5.2,5.2,0,0,0,1.66-1.44,8.16,8.16,0,0,0,1.07-2,.28.28,0,0,1-.22-.29l.3-.22.52-2.82a.48.48,0,0,1,0-.48.49.49,0,0,0,0-.4l-.41.14a1.52,1.52,0,0,0-.48.45c-.2.29-.42.65-.67,1.07a4.23,4.23,0,0,1-.88,1.07l-.67,1-.59,1.33c-.25.54-.48,1.11-.71,1.7s-.43,1.17-.63,1.74-.37,1.05-.51,1.44a13.19,13.19,0,0,0,1.07-1A4.55,4.55,0,0,0,120.91,72.1ZM135.34,74c.1,0,.08.08-.07.08H135c-.05-.1,0-.13.15-.08S135.34,74,135.34,74Zm.6-.81-.08.18a3,3,0,0,0-.15.26C135.62,73.39,135.69,73.24,135.94,73.14Zm.14-.89s0,0,0,.15a.23.23,0,0,1-.22.15.45.45,0,0,1,.15-.19Zm.74-.59-.14.15ZM137,70.4l-.22.22v-.07Zm.23-.22s-.08.15-.23.29v-.14l.08-.08v.08Zm-.08-.15c.2-.3.27-.42.22-.37Z" transform="translate(-49.8 -40.5)"/><path d="M153.55,85.64a.3.3,0,0,0-.3,0,1.7,1.7,0,0,0-.3.3,1.26,1.26,0,0,1-.25.26c-.08.05-.12,0-.12-.08a.17.17,0,0,0-.18.11c0,.08-.11.11-.26.11a2.38,2.38,0,0,1-.18.3c-.08.1-.11,0-.11-.15a1.43,1.43,0,0,0-.3.22,1.05,1.05,0,0,0-.22.52H151l.3.08a3.16,3.16,0,0,1-1.11.37,2.89,2.89,0,0,0-1.19.44,3.28,3.28,0,0,0-.74.26,1.13,1.13,0,0,1-.74.11,1.12,1.12,0,0,1,.67-.3,1.28,1.28,0,0,0,.59-.14,1.43,1.43,0,0,0-1.22.11,1.58,1.58,0,0,1-1.29.11c.09-.1.17-.14.22-.11l.14,0c.1-.25.12-.31,0-.18s-.08.06,0-.19a1.66,1.66,0,0,1-.62-.26.66.66,0,0,0-.63,0v-.22h-.08a12.83,12.83,0,0,0-.77-1.11A2.81,2.81,0,0,1,144,85a9.35,9.35,0,0,1-.33-3.15,16,16,0,0,1,.48-2.88,26.73,26.73,0,0,1,1-3,31.06,31.06,0,0,0,1.11-3.44,17.42,17.42,0,0,0,1-4.41c0-1-.38-1.32-1.22-1.07a2.32,2.32,0,0,0-.44.33,3.13,3.13,0,0,0-.45.48s-.05,0-.15.08-.19.2-.29.29h-.45a3,3,0,0,0-.29.37c-.1.15-.2.23-.3.23A15.87,15.87,0,0,1,142,70.62c-.52.5-1.07,1.09-1.67,1.78l-.11.11c0,.07-.08.09-.18,0a.82.82,0,0,0-.3.33,4.82,4.82,0,0,1-.37.55v-.07l.08-.15.07-.15c-.15,0-.22.13-.22.23v.29l0-.07,0-.08c0,.25-.17.85-.37,1.82s-.43,2-.7,3a27,27,0,0,1-.89,2.82c-.32.84-.58,1.25-.77,1.25a.71.71,0,0,1-.23.52h-.22c-.1.2-.17.36-.22.48a.42.42,0,0,0,.07.41l-.44-.3c-.1,0-.12,0-.07,0v0c0,.1-.07.1,0,0s0-.12-.11-.08a.4.4,0,0,0,0,.34c.05.12.05.21,0,.26l-.08.07-.07.07c-.1,0-.14,0-.11,0s0-.09-.11-.19l-.37.67c-.1.1-.18,0-.23-.22a.65.65,0,0,1-.37.18,3.81,3.81,0,0,0-.59.19,1,1,0,0,0-.63-.34c-.22,0-.5.16-.85.56l-.07-.08c0-.05-.05-.07-.15-.07s-.07,0-.07.15l-.08.07a.61.61,0,0,1-.22,0,.93.93,0,0,0-.37,0c0-.54,0-1.1,0-1.67a7.84,7.84,0,0,1,.33-1.88q0-.08-.15,0t-.15-.15c.2,0,.3,0,.3-.08l.74-3.55a.3.3,0,0,0,0-.29.66.66,0,0,1-.07-.3l.37-1.48a6.18,6.18,0,0,0,.33-1.3c.07-.46.16-1,.26-1.51l.59-3.48.67-2.66a1.53,1.53,0,0,1,0-.3,1,1,0,0,0,0-.3v-.29l.15-.08a1.51,1.51,0,0,0,.07-.77,2.12,2.12,0,0,1,0-.85c.05,0,.16-.21.34-.63s.3-.63.4-.63a3.33,3.33,0,0,1,.67-1.19,2.35,2.35,0,0,1,.74-.51,5.94,5.94,0,0,1,.78-.26,2.13,2.13,0,0,0,.77-.41.91.91,0,0,1,.41.07c.07.05.23,0,.48-.07a1.84,1.84,0,0,0,.48.18,1.73,1.73,0,0,0,.41,0c.44.3.84.58,1.18.85a.9.9,0,0,1,.37,1l-.22,1.85-.15.89-.59,3.7.89-1.18a5.13,5.13,0,0,1,1.18-1.11,4.1,4.1,0,0,0,1.19-1.26l.77-.41a3.25,3.25,0,0,0,.71-.55c.93-.6,1.75-1.14,2.44-1.63a6.49,6.49,0,0,1,2.44-1,.68.68,0,0,1,.26,0c.07,0,.16,0,.26-.11a.87.87,0,0,0,.74,0c.25-.12.44,0,.59.26a.61.61,0,0,1,.59,0l.59.22-.07.22c0,.1.12.2.37.3l.08.15.07.07v.08l.07-.08h.08a1.15,1.15,0,0,0,.15.74.77.77,0,0,0,.37.22,7.39,7.39,0,0,0,0,.74.88.88,0,0,1,0,.45c0,.2.08.36.11.48a1.22,1.22,0,0,1-.11.55c.09.1.11.32,0,.67a4.66,4.66,0,0,0-.11.89,11.45,11.45,0,0,1-.52,2,18.27,18.27,0,0,1-.74,1.89c-.34,1.18-.65,2.12-.92,2.81s-.53,1.33-.78,1.93-.49,1.22-.74,1.88a21.21,21.21,0,0,0-.74,2.7,6.3,6.3,0,0,0,0,2.37,1,1,0,0,0,.7.59,1.58,1.58,0,0,0,.89-.11,5.38,5.38,0,0,0,1-.48l.85-.52c.2-.14.3-.17.3-.07l.22-.22h.23c.24-.2.5-.4.77-.59a4.88,4.88,0,0,0,.78-.74q.15,0,.15-.12l.07,0a2.07,2.07,0,0,1,.45-.37l.44-.45,1.63-1.33c.29-.34.49-.56.59-.66a2.26,2.26,0,0,1,.26-.23,1.76,1.76,0,0,0,.3-.26,6,6,0,0,0,.62-.85,3.8,3.8,0,0,0,.52-.62,3.51,3.51,0,0,0,.37-.78h.22a1.76,1.76,0,0,1,.37-.59,2,2,0,0,0,.37-.52h.08c.19-.3.33-.43.41-.41s.23-.16.48-.55H163l.44-1.11a1.31,1.31,0,0,1-.14,1,1,1,0,0,0-.15.89,2.09,2.09,0,0,0,.52-.74,1.64,1.64,0,0,1,.74-.81l-.3.37c.1.1.15.07.15-.08l.07.08c0,.1,0,.16,0,.18l0,.11v.15l.15.07c-.4.7-.72,1.25-1,1.67s-.48.8-.7,1.15a8.73,8.73,0,0,1-.78,1l-1.18,1.41a1.11,1.11,0,0,0-.48.48,1.1,1.1,0,0,1-.56.48l0,0,0,.11a2.7,2.7,0,0,0-.52.74,1.3,1.3,0,0,1-.15.33l-.18.26a2.46,2.46,0,0,1-.56.44.77.77,0,0,1-.07.26.74.74,0,0,1-.3.34h-.07l0,.11,0,.11c0-.2,0-.24-.12-.11a.5.5,0,0,0-.18.33c-.3-.2-.49,0-.59.59,0,0-.08,0-.08-.15v-.22c-.1,0-.18.09-.26.26a3.62,3.62,0,0,1-.25.48v.08l-.11.07-.12.07a.23.23,0,0,0-.22.15v-.07l.08-.08v-.07c-.2.15-.25.22-.15.22a1.06,1.06,0,0,0-.41.26l-.33.33v.08h-.15l-.41.26a5.63,5.63,0,0,0-.55.4.75.75,0,0,1,.22-.07l-.15.07h-.07a.52.52,0,0,0-.22.19c0,.07-.1,0-.15-.19v.37l.07.08ZM134.23,66l.08-.07a4.39,4.39,0,0,0-.23.7.91.91,0,0,1-.14.41Zm13.25,21.76c0-.15-.14-.19-.26-.12a1.64,1.64,0,0,1-.56.19.93.93,0,0,1,.52.11C147.28,88,147.38,87.91,147.48,87.72Zm-.15.88s0-.07.15-.07Zm7-3.33a.62.62,0,0,0-.08.23l-.07.14a.31.31,0,0,1,.07-.22Zm10.21-12.8a.59.59,0,0,1-.22.37Z" transform="translate(-49.8 -40.5)"/><path d="M182.7,85.64a.28.28,0,0,0-.29,0,1.7,1.7,0,0,0-.3.3,1.26,1.26,0,0,1-.26.26c-.07.05-.11,0-.11-.08s-.16,0-.18.11-.11.11-.26.11a1.66,1.66,0,0,1-.19.3c-.07.1-.11,0-.11-.15a1.17,1.17,0,0,0-.29.22,1.05,1.05,0,0,0-.23.52h-.29l.29.08a3,3,0,0,1-1.11.37,2.85,2.85,0,0,0-1.18.44,3.12,3.12,0,0,0-.74.26,1.14,1.14,0,0,1-.74.11,1.12,1.12,0,0,1,.67-.3,1.31,1.31,0,0,0,.59-.14,1.43,1.43,0,0,0-1.22.11,1.6,1.6,0,0,1-1.3.11c.1-.1.17-.14.22-.11l.15,0c.1-.25.11-.31,0-.18s-.09.06,0-.19a1.71,1.71,0,0,1-.63-.26.66.66,0,0,0-.63,0v-.22h-.07q-.37-.58-.78-1.11a2.91,2.91,0,0,1-.55-1.18,9.64,9.64,0,0,1-.34-3.15,17,17,0,0,1,.49-2.88,23.1,23.1,0,0,1,1-3,35.93,35.93,0,0,0,1.11-3.44,17.88,17.88,0,0,0,1-4.41c0-1-.39-1.32-1.22-1.07a2.65,2.65,0,0,0-.45.33,3,3,0,0,0-.44.48s-.05,0-.15.08l-.3.29h-.44a3,3,0,0,0-.3.37c-.1.15-.19.23-.29.23a16.92,16.92,0,0,1-1.59,1.77c-.52.5-1.08,1.09-1.67,1.78l-.11.11c0,.07-.09.09-.18,0a.82.82,0,0,0-.3.33,4.82,4.82,0,0,1-.37.55v-.07l.07-.15.08-.15c-.15,0-.22.13-.22.23v.29l0-.07,0-.08c0,.25-.17.85-.37,1.82s-.43,2-.7,3-.57,2-.89,2.82-.58,1.25-.78,1.25a.7.7,0,0,1-.22.52h-.22a4.3,4.3,0,0,0-.22.48.42.42,0,0,0,.07.41l-.44-.3c-.1,0-.13,0-.08,0v0c-.05.1-.06.1,0,0s0-.12-.11-.08a.4.4,0,0,0,0,.34c.05.12.05.21,0,.26l-.07.07-.07.07q-.15,0-.12,0s0-.09-.11-.19l-.37.67c-.1.1-.17,0-.22-.22a.68.68,0,0,1-.37.18,3.5,3.5,0,0,0-.59.19,1.1,1.1,0,0,0-.63-.34c-.22,0-.51.16-.85.56l-.07-.08c0-.05,0-.07-.15-.07s-.08,0-.08.15l-.07.07a.61.61,0,0,1-.22,0,1,1,0,0,0-.37,0c0-.54,0-1.1,0-1.67a7.84,7.84,0,0,1,.33-1.88q0-.08-.15,0t-.15-.15c.2,0,.3,0,.3-.08l.74-3.55a.3.3,0,0,0,0-.29.67.67,0,0,1-.08-.3l.37-1.48a6.85,6.85,0,0,0,.34-1.3c.07-.46.16-1,.26-1.51l.59-3.48.66-2.66a1.54,1.54,0,0,1,0-.3,1,1,0,0,0,0-.3v-.29l.15-.08a1.65,1.65,0,0,0,.07-.77,2.12,2.12,0,0,1,0-.85q.08,0,.33-.63c.17-.42.31-.63.41-.63a3.33,3.33,0,0,1,.67-1.19,2.24,2.24,0,0,1,.74-.51,5.8,5.8,0,0,1,.77-.26,2.26,2.26,0,0,0,.78-.41.94.94,0,0,1,.41.07c.07.05.23,0,.48-.07a1.77,1.77,0,0,0,.89.22c.44.3.83.58,1.18.85a.92.92,0,0,1,.37,1l-.22,1.85-.15.89-.59,3.7.89-1.18a4.93,4.93,0,0,1,1.18-1.11,4.06,4.06,0,0,0,1.18-1.26l.78-.41a3.22,3.22,0,0,0,.7-.55c.94-.6,1.75-1.14,2.45-1.63a6.49,6.49,0,0,1,2.44-1,.71.71,0,0,1,.26,0c.07,0,.16,0,.26-.11a.88.88,0,0,0,.74,0c.24-.12.44,0,.59.26a.61.61,0,0,1,.59,0l.59.22-.07.22c0,.1.12.2.37.3l.07.15.08.07v.08l.07-.08h.07a1.15,1.15,0,0,0,.15.74.81.81,0,0,0,.37.22,5,5,0,0,0,0,.74.86.86,0,0,1,0,.45c0,.2.09.36.11.48a1,1,0,0,1-.11.55c.1.1.11.32,0,.67a4,4,0,0,0-.11.89,11.45,11.45,0,0,1-.52,2c-.25.72-.49,1.35-.74,1.89-.35,1.18-.65,2.12-.92,2.81l-.78,1.93c-.25.59-.5,1.22-.74,1.88a19.65,19.65,0,0,0-.74,2.7,6.3,6.3,0,0,0,0,2.37,1,1,0,0,0,.7.59,1.58,1.58,0,0,0,.89-.11,5.38,5.38,0,0,0,1-.48l.85-.52c.2-.14.3-.17.3-.07l.22-.22h.22c.25-.2.51-.4.78-.59a4.88,4.88,0,0,0,.78-.74c.09,0,.14,0,.14-.12l.08,0a1.86,1.86,0,0,1,.44-.37l.45-.45,1.62-1.33q.45-.51.6-.66a1.64,1.64,0,0,1,.25-.23,1.23,1.23,0,0,0,.3-.26,6.7,6.7,0,0,0,.63-.85,3.8,3.8,0,0,0,.52-.62,3.51,3.51,0,0,0,.37-.78h.22a1.61,1.61,0,0,1,.37-.59,2,2,0,0,0,.37-.52h.07c.2-.3.34-.43.41-.41s.23-.16.48-.55h.08l.44-1.11a1.27,1.27,0,0,1-.15,1,1,1,0,0,0-.15.89,2.09,2.09,0,0,0,.52-.74,1.74,1.74,0,0,1,.74-.81l-.29.37c.09.1.14.07.14-.08l.08.08c0,.1,0,.16,0,.18l0,.11v.15l.15.07c-.39.7-.71,1.25-1,1.67s-.48.8-.7,1.15a10,10,0,0,1-.78,1L190,78.69a1.19,1.19,0,0,0-.49.48,1,1,0,0,1-.55.48l0,0,0,.11a2.7,2.7,0,0,0-.52.74,1.3,1.3,0,0,1-.15.33l-.18.26a2.46,2.46,0,0,1-.56.44,1.13,1.13,0,0,1-.07.26.74.74,0,0,1-.3.34H187l0,.11,0,.11c.05-.2,0-.24-.11-.11a.5.5,0,0,0-.18.33c-.3-.2-.5,0-.6.59-.05,0-.07,0-.07-.15v-.22c-.1,0-.19.09-.26.26a2.77,2.77,0,0,1-.26.48v.08l-.11.07-.11.07a.23.23,0,0,0-.22.15v-.07l.07-.08v-.07c-.2.15-.25.22-.15.22a1.1,1.1,0,0,0-.4.26l-.34.33v.08H184l-.41.26c-.12.07-.31.21-.56.4a.79.79,0,0,1,.23-.07l-.15.07h-.08a.6.6,0,0,0-.22.19c0,.07-.1,0-.15-.19v.37l.08.08ZM163.39,66l.07-.07a4.31,4.31,0,0,0-.22.7,1,1,0,0,1-.15.41Zm13.25,21.76c0-.15-.14-.19-.26-.12a1.72,1.72,0,0,1-.56.19.93.93,0,0,1,.52.11C176.44,88,176.54,87.91,176.64,87.72Zm-.15.88s0-.07.15-.07Zm6.95-3.33a.56.56,0,0,0-.07.23l-.07.14a.31.31,0,0,1,.07-.22Zm10.22-12.8c0,.1-.08.22-.23.37Z" transform="translate(-49.8 -40.5)"/><path d="M96.36,103.63l-.37,0,.37,0m79.51-8.78.12,0-.12,0m-8-.24-.48,0h0l.46-.06m5.56.83h0m-13-.22h0m0,0-.17,0,.17,0m.12,0a2.12,2.12,0,0,0,.29-.11,1,1,0,0,1,.3-.11,1,1,0,0,0-.3.11,2.12,2.12,0,0,1-.29.11m.64-.23h0m.41.14a.46.46,0,0,0-.34-.15.46.46,0,0,1,.34.15m-.4-.14h0m7.09,0c-.07,0-.24-.1-.36-.17a2.42,2.42,0,0,1,.36.17m-16.22-.51c-5.46.08-10.8.32-16.62.56-4.3.16-8.45.2-12.53.47-14.74,1-32.53,4-35.52,5.79-3.62,2.12-.82,3.3-.62,3.35a6,6,0,0,0,1.85.27c.69,0,19.9-2.88,21.36-3.11,2.07-.32,30.55-3.45,40-3.7a57.21,57.21,0,0,0,6.76-.93c.28,0,.57,0,.86,0,.61,0,1.23,0,1.81,0s1.15,0,1.65,0h.11a43.75,43.75,0,0,0,5.27-.5c-1.81.12-3.13.27-5.14.4h-.12c-1.09,0,1.06-.65,1.93-.81h.11a1.5,1.5,0,0,1,.57.16,1.7,1.7,0,0,0,.57.16l.12,0a16.3,16.3,0,0,0,2.48-.39l.1,0a.26.26,0,0,1,.24.17l.16.16h0c1.1-.12,2-.65,2.7-.66l.22,0,1.65.19q.36,0,.75,0h.25l.66-.13a1,1,0,0,1-.31-.5,1,1,0,0,0,.31.5c1.6-.3,3.44-.57,5.16-.8l0,0-.62,0a8.27,8.27,0,0,1-2.29-.24c.31.09.22.21-.24.23l-.4-.23a9.69,9.69,0,0,1,1.4-.16,3.3,3.3,0,0,1,1.24.21l.57-.17c.29.06.28.21.34.34l.59,0a9.92,9.92,0,0,0-1.74-.53h-.91c-2.2,0-4.3,0-6.36,0a.82.82,0,0,1-.42.17h-.12a2.42,2.42,0,0,0-.55-.16h-1l-.35,0h0c-.2.06-.14.14,0,.2a2.64,2.64,0,0,0-.55-.12l-.44,0-.35,0a1.27,1.27,0,0,1-.7-.15l1.95,0,.12,0,.16,0-2.33,0-.48,0a7.47,7.47,0,0,1-.77.08,1.37,1.37,0,0,1-.7-.15h-.42l.08,0-.16,0-1.76,0c-.38.1-.77.23-1.16.31l-.4-.23a1.55,1.55,0,0,1-.65.25,3.54,3.54,0,0,1-.48,0,4,4,0,0,1-1.38-.24,2.85,2.85,0,0,1,.62-.1,3.1,3.1,0,0,1,1.24.29,1.55,1.55,0,0,0,.65-.25l.4.23c.39-.08.78-.21,1.16-.31l-3.5,0c-2,0-4,0-6,0" transform="translate(-49.8 -40.5)"/></svg>