<?xml version="1.0" encoding="utf-8"?>
<!-- Generator: Adobe Illustrator 23.0.2, SVG Export Plug-In . SVG Version: 6.00 Build 0)  -->
<svg version="1.1" id="Layer_1" xmlns="http://www.w3.org/2000/svg" xmlns:xlink="http://www.w3.org/1999/xlink" x="0px" y="0px"
	 viewBox="0 0 160 80" style="enable-background:new 0 0 160 80;" xml:space="preserve">
<style type="text/css">
	.st0{fill:#F1693F;}
	.st1{fill:#47C7EF;}
</style>
<g>
	<path class="st0" d="M26.9,52.4c-6.8,0-12.4-5.4-12.5-12.4c-0.1-7,5.5-12.7,12.5-12.7c7,0,12.4,5.5,12.5,12.2
		C39.6,46.7,33.9,52.4,26.9,52.4z M22.5,31.5C22.4,31.5,22.4,31.5,22.5,31.5c-1,2.1-1.9,4.1-2.8,6.2c0,0.1-0.1,0.2,0,0.3
		c0.1,0.7,0.5,1.3,1.1,1.6c0.6,0.3,1.2,0.3,1.8,0.2c1-0.2,2.1-0.3,3.1-0.1c1.3,0.2,2.3,0.8,3.1,1.8c0,0,0-0.1,0.1-0.1
		c0.9-2,1.8-4.1,2.7-6.1c0.1-0.1,0-0.2,0-0.3c-0.4-0.5-0.8-0.9-1.4-1.2c-1.3-0.7-2.7-0.7-4.1-0.5c-0.5,0.1-1,0.2-1.6,0.1
		c-0.9-0.1-1.6-0.5-1.9-1.4C22.6,31.8,22.5,31.6,22.5,31.5z M33.5,35c-0.2,0-0.4,0.2-0.6,0.5c-1.6,3.6-3.2,7.1-4.9,10.7
		c-0.3,0.8-0.7,1.5-1,2.3c-0.3,0.6,0.1,1.2,0.7,1.1c0.3,0,0.5-0.3,0.6-0.6c1.6-3.5,3.2-7.1,4.8-10.6c0.3-0.8,0.7-1.5,1-2.3
		C34.5,35.5,34.2,35,33.5,35z"/>
	<path class="st1" d="M139.3,44.1c-2,0-4,0-6,0c-0.3,0-0.3,0.1-0.3,0.3c0.1,0.8,0.2,1.6,0.5,2.4c0.8,2,2.2,3.1,4.3,3.4
		c2.3,0.3,4.4-0.3,6.3-1.7c0.1,0,0.1-0.1,0.2-0.1c0.1-0.1,0.1,0,0.1,0.1c0,0.8,0,1.6,0,2.4c0,0.1-0.1,0.2-0.2,0.2
		c-1,0.7-2.2,1.1-3.4,1.3c-1,0.2-2,0.2-3,0.2c-3.5,0-6.3-2-7.3-5.4c-0.5-1.5-0.6-3.1-0.5-4.6c0.1-1.5,0.4-2.9,1.1-4.3
		c1.1-2,2.6-3.5,4.8-4.1c2.2-0.6,4.4-0.5,6.4,0.7c1.4,0.9,2.3,2.2,2.8,3.7c0.4,1.1,0.5,2.3,0.5,3.5c0,0.5,0,1,0,1.6
		c0,0.2-0.1,0.3-0.3,0.3C143.3,44.1,141.3,44.1,139.3,44.1z M137.8,41.6c1.5,0,3,0,4.6,0c0.2,0,0.3-0.1,0.2-0.3
		c-0.1-0.4-0.1-0.9-0.2-1.3c-0.2-1.2-0.7-2.2-1.7-2.9c-1.4-1-3.6-1-5.1,0c-1.5,1-2.3,2.5-2.6,4.2c-0.1,0.3,0,0.3,0.3,0.3
		C134.8,41.6,136.3,41.6,137.8,41.6z"/>
	<path class="st0" d="M70.9,49.6c-0.3,0.5-0.6,1-1,1.4c-1,1-2.1,1.6-3.5,1.7c-1.2,0.1-2.4,0.1-3.6-0.4c-1.8-0.7-2.8-2-3-3.9
		c-0.2-1.3,0-2.5,0.6-3.7c0.7-1.3,1.9-2,3.2-2.5c1-0.3,2-0.5,3-0.6c1-0.1,2-0.3,2.9-0.4c0.4-0.1,0.9-0.1,1.3-0.2
		c0.1,0,0.2,0,0.2-0.2c-0.1-0.8-0.1-1.6-0.4-2.4c-0.5-1.2-1.4-1.8-2.6-1.9c-2.3-0.2-4.4,0.5-6.2,2c-0.1,0.1-0.1,0.1-0.2,0.1
		c0-0.8,0-1.5,0-2.2c0-0.7,0-0.7,0.6-1.1c1.3-0.7,2.6-1.1,4-1.2c1.3-0.1,2.6-0.1,3.9,0.2c2,0.6,3.1,1.9,3.6,3.9
		c0.2,0.8,0.3,1.6,0.3,2.4c0,3.8,0,7.6,0,11.4c0,0.3-0.1,0.3-0.3,0.3c-0.8,0-1.5,0-2.3,0c-0.2,0-0.2-0.1-0.2-0.2c0-0.7,0-1.5,0-2.2
		C70.9,49.8,70.9,49.7,70.9,49.6C70.9,49.6,70.9,49.6,70.9,49.6z M70.9,43.3c-0.2,0-0.3,0-0.5,0.1c-1,0.1-2,0.3-3,0.4
		c-0.9,0.1-1.7,0.2-2.6,0.5c-0.6,0.2-1.3,0.5-1.7,1c-0.4,0.5-0.5,1.2-0.6,1.8c-0.1,1,0.3,1.9,1.1,2.5c0.8,0.6,1.7,0.7,2.6,0.7
		c1.9-0.1,3.3-1.1,4.1-2.8C71.1,46.2,70.9,44.7,70.9,43.3z"/>
	<path class="st0" d="M55.2,41.1c0,3.6,0,7.3,0,10.9c0,0.2-0.1,0.3-0.3,0.3c-0.8,0-1.5,0-2.3,0c-0.3,0-0.3-0.1-0.3-0.3
		c0-6.8,0-13.6,0-20.3c0-0.5,0-0.9,0-1.4c0-0.4,0.1-0.3-0.4-0.3c-2.6,0-5.1,0-7.7,0c-0.3,0-0.3-0.1-0.3-0.3c0-0.7,0-1.4,0-2.1
		c0-0.2,0.1-0.2,0.2-0.2c6.4,0,12.8,0,19.2,0c0.2,0,0.2,0.1,0.2,0.2c0,0.7,0,1.5,0,2.2c0,0.2-0.1,0.3-0.3,0.3c-2.6,0-5.2,0-7.8,0
		c-0.3,0-0.3,0.1-0.3,0.3C55.2,33.9,55.2,37.5,55.2,41.1z"/>
	<path class="st0" d="M94.9,42.7c1-1,1.9-2,2.8-3c1.5-1.7,3.1-3.4,4.6-5.1c0.1-0.1,0.2-0.2,0.3-0.2c1.2,0,2.3,0,3.5,0c0,0,0,0,0.1,0
		c-0.4,0.4-0.7,0.8-1.1,1.1c-2,2.1-4,4.2-6,6.2c-0.3,0.4-0.7,0.7-1,1.1c-0.1,0.1-0.1,0.2,0,0.3c1.3,1.3,2.6,2.7,3.9,4
		c1.6,1.6,3.1,3.2,4.7,4.9c0.1,0.1,0.1,0.1,0.1,0.2c-0.1,0.1-0.1,0-0.2,0c-1.2,0-2.4,0-3.6,0c-0.2,0-0.3,0-0.4-0.2
		c-2.5-2.8-5-5.5-7.6-8.3c0,0-0.1-0.1-0.2-0.1c-0.1,0.1,0,0.2,0,0.3c0,2.7,0,5.3,0,8c0,0.2-0.1,0.3-0.3,0.3c-0.8,0-1.6,0-2.4,0
		c-0.2,0-0.2,0-0.2-0.2c0-5.8,0-11.6,0-17.4c0-0.2,0.1-0.2,0.2-0.2c0.8,0,1.6,0,2.4,0c0.2,0,0.2,0.1,0.2,0.3c0,2.5,0,5.1,0,7.6
		C94.9,42.4,94.9,42.5,94.9,42.7z"/>
	<path class="st1" d="M118.1,49.8c0.1,0,0.2,0,0.3,0c3.3,0,6.5,0,9.8,0c0.2,0,0.3,0,0.3,0.3c0,0.6,0,1.3,0,1.9c0,0.2,0,0.3-0.3,0.3
		c-4.7,0-9.5,0-14.2,0c-0.2,0-0.2-0.1-0.2-0.2c0-0.4,0.1-0.8,0.4-1.2c3.3-4.6,6.7-9.2,10-13.7c0.1-0.1,0.1-0.1,0.1-0.2
		c-0.1-0.1-0.2,0-0.3,0c-3,0-5.9,0-8.9,0c-0.3,0-0.3-0.1-0.3-0.3c0-0.6,0-1.3,0-1.9c0-0.2,0.1-0.3,0.3-0.3c2.8,0,5.6,0,8.4,0
		c1.6,0,3.3,0,4.9,0c0.2,0,0.3,0.1,0.3,0.3c0,0.4-0.1,0.7-0.3,1c-3.4,4.6-6.7,9.3-10.1,13.9C118.3,49.7,118.2,49.7,118.1,49.8z"/>
	<path class="st0" d="M77,48.6c0.4,0.2,0.7,0.4,1,0.6c1.5,0.9,3.2,1.2,5,1c0.6,0,1.2-0.2,1.8-0.5c0.9-0.5,1.2-1.4,1.1-2.3
		c-0.1-0.9-0.7-1.5-1.5-1.9c-0.8-0.5-1.6-0.7-2.4-1.1c-1-0.4-1.9-0.8-2.8-1.3c-1.1-0.7-1.9-1.7-2.1-3.1c-0.3-2,0.4-3.6,2.1-4.8
		c1.1-0.7,2.2-1.1,3.5-1.2c1.8-0.2,3.5,0,5.1,0.6c0.2,0.1,0.2,0.2,0.2,0.4c0,0.9,0,1.7,0,2.6c-0.1,0.1-0.1,0-0.2-0.1
		c-1.1-0.7-2.3-1-3.6-1.1c-0.9-0.1-1.8,0-2.7,0.3c-0.7,0.3-1.3,0.8-1.5,1.6c-0.2,1,0.1,1.9,1,2.5c0.7,0.5,1.6,0.8,2.4,1.1
		c1,0.4,2.1,0.8,3,1.4c1.1,0.7,2,1.5,2.3,2.8c0.5,2.3-0.3,4.2-2.4,5.4c-1.1,0.6-2.2,0.9-3.5,1c-1.4,0.1-2.8,0-4.2-0.3
		c-0.5-0.1-1.1-0.3-1.5-0.6c-0.1,0-0.2-0.1-0.2-0.2C77,50.6,77,49.6,77,48.6z"/>
	<path class="st1" d="M108.7,43.4c0-2.9,0-5.8,0-8.6c0-0.3,0.1-0.3,0.3-0.3c0.8,0,1.5,0,2.3,0c0.2,0,0.3,0,0.3,0.2
		c0,5.8,0,11.6,0,17.4c0,0.2-0.1,0.2-0.2,0.2c-0.8,0-1.6,0-2.4,0c-0.2,0-0.3-0.1-0.3-0.3C108.7,49.1,108.7,46.2,108.7,43.4z"/>
</g>
</svg>
