<?xml version="1.0" encoding="utf-8"?>
<!-- Generator: Adobe Illustrator 23.0.2, SVG Export Plug-In . SVG Version: 6.00 Build 0)  -->
<svg version="1.1" id="Layer_1" xmlns="http://www.w3.org/2000/svg" xmlns:xlink="http://www.w3.org/1999/xlink" x="0px" y="0px"
	 viewBox="0 0 160 80" style="enable-background:new 0 0 160 80;" xml:space="preserve">
<style type="text/css">
	.st0{fill:#3D0029;}
	.st1{fill:#89CDD3;}
	.st2{fill:#88CDD3;}
	.st3{fill:#6F617E;}
	.st4{fill:#592844;}
</style>
<g>
	<path class="st0" d="M129.3,46.3c-1.5-1.5-2.9-3-4.4-4.4c-5.6-5.7-11.1-11.3-16.7-17c-0.1-0.1-0.2-0.2-0.3-0.3
		c0.1-0.2,0.1-0.2,0.2-0.3c2.4-2.3,5-4.2,8-5.8c0.1,0,0.2-0.1,0.3-0.1c0.2,0.1,0.4,0.1,0.6,0.1c0.5,0.1,1,0.2,1.5,0.2
		c0.6,0,1.2,0.1,1.8,0.2c0.7,0.1,1.4,0.1,2.1,0.2c0.7,0.1,1.5,0.1,2.2,0.1c0.8,0,1.7,0.1,2.5,0.1c0.1,0,0.2,0,0.3,0l0,0
		c0,1,0.1,2,0.1,2.9c0,2.4,0,4.8-0.1,7.1c-0.1,0.9-0.1,1.9,0,2.9c0.1,0.8,0,1.6,0.1,2.4c0,0.5,0.1,1,0.1,1.5c0,0.3,0,0.5,0.1,0.8
		c0.1,0.9,0.2,1.7,0.3,2.6c0.1,0.9,0.3,1.9,0.5,2.8c0.2,1.3,0.5,2.5,0.8,3.7C129.4,46.2,129.4,46.3,129.3,46.3z"/>
	<path class="st1" d="M43,44c0.3-0.2,0.4-0.4,0.6-0.5c1.1-0.8,2.3-1.3,3.7-1.5c1.2-0.1,2.4-0.1,3.5,0.3c1.6,0.5,2.7,1.5,3.3,3
		c0.3,0.8,0.5,1.7,0.6,2.5c0,0.5,0.1,0.9,0.1,1.4c0,3.6,0,7.1,0,10.7c0,0.5,0,0.4-0.4,0.4c-1.3,0-2.6,0-3.8,0c-0.1,0-0.2,0-0.2,0
		c-0.1,0-0.2-0.1-0.2-0.2c0-0.1,0-0.2,0-0.3c0-3.4,0-6.8,0-10.3c0-0.6,0-1.1-0.1-1.6c-0.1-0.2-0.1-0.4-0.2-0.6
		c-0.3-0.5-0.7-0.8-1.2-0.9c-1.3-0.2-2.4,0.1-3.5,0.8c-1.1,0.8-1.6,1.9-1.9,3.1c-0.1,0.5-0.1,1-0.1,1.4c0,2.7,0,5.4,0,8.1
		c0,0.4,0,0.4-0.4,0.4c-1.3,0-2.6,0-3.9,0c-0.1,0-0.1,0-0.2,0c-0.2,0-0.2,0-0.2-0.2c0-0.1,0-0.2,0-0.3c0-6.7,0-13.4,0-20.1
		c0-0.1,0-0.2,0-0.2c0-0.3,0-0.3-0.3-0.3c-0.3,0-0.3,0-0.3-0.3c0-0.6,0-1.3,0-1.9c0-0.3,0-0.3,0.3-0.3c1,0,2,0,2.9,0
		c0.2,0,0.3,0.1,0.5,0.2c0.5,0.3,0.9,0.6,1.4,0.8c0.2,0.1,0.3,0.2,0.2,0.4c0,1.8,0,3.6,0,5.4C43,43.7,43,43.8,43,44z"/>
	<path class="st1" d="M72.5,54.1c0.6,0.9,1.1,1.8,1.7,2.8c0.1,0.2,0.2,0.4,0.3,0.6c0.1,0.2,0.1,0.3-0.1,0.4c-0.5,0.5-1.1,1-1.8,1.4
		c-1.1,0.7-2.4,1.2-3.7,1.4c-0.8,0.1-1.5,0.2-2.3,0.1c-1-0.1-1.9-0.2-2.8-0.6c-2.6-0.9-4.4-2.7-5.4-5.2c-0.5-1.2-0.6-2.4-0.6-3.6
		c0-1.4,0.2-2.7,0.8-4c0.4-0.9,0.9-1.8,1.6-2.5c1.3-1.4,2.9-2.3,4.8-2.7c0.9-0.2,1.7-0.2,2.6-0.1c1.9,0.2,3.6,0.8,4.9,2.2
		c1,1,1.6,2.3,1.9,3.6c0.3,1.1,0.3,2.2,0.3,3.3c0,0.4-0.1,0.8-0.1,1.2c0,0.2-0.1,0.2-0.2,0.2c-0.1,0-0.2,0-0.3,0
		c-3.6,0-7.3,0-10.9,0c-0.5,0-0.5,0-0.3,0.5c0.2,0.8,0.6,1.5,1.2,2.1c0.8,0.8,1.8,1.2,3,1.3c2,0.2,3.6-0.6,5-1.9
		c0.1-0.1,0.2-0.2,0.3-0.2C72.3,54.3,72.4,54.2,72.5,54.1z M66.4,48.7c0.7,0,1.5,0,2.2,0c0.3,0,0.7,0,1,0c0.1,0,0.2-0.1,0.2-0.2
		c-0.2-1.1-1-2.1-2.1-2.4C67.3,46,66.9,46,66.4,46c-1.4,0.1-2.4,0.8-3.1,2c-0.1,0.2-0.2,0.3-0.2,0.5c0,0.1,0,0.2,0.1,0.2
		c0.1,0,0.2,0,0.2,0C64.4,48.7,65.4,48.7,66.4,48.7z"/>
	<path class="st1" d="M103.2,51.4c0-1.6,0.3-3.1,1.1-4.5c0.9-1.6,2.1-2.9,3.8-3.8c1-0.6,2.2-0.9,3.3-1.1c2.5-0.3,4.9,0.1,7,1.6
		c2.1,1.4,3.5,3.4,4,6c0.3,1.9,0.1,3.8-0.6,5.5c-0.5,1-1.1,2-1.9,2.8c-1.4,1.4-3.1,2.3-5,2.6c-0.6,0.1-1.3,0.2-2,0.2
		c-2.3,0-4.4-0.7-6.2-2.1c-1.3-1-2.2-2.3-2.8-3.8C103.4,53.7,103.1,52.5,103.2,51.4z M117.6,51.2c0-0.7-0.1-1.5-0.5-2.2
		c-0.4-0.9-1.1-1.6-1.9-2.1c-1-0.6-2.1-0.8-3.3-0.6c-1.7,0.3-2.8,1.2-3.6,2.7c-0.5,1.1-0.6,2.2-0.4,3.4c0.2,1.3,0.9,2.3,1.9,3.1
		c1,0.7,2.1,1,3.4,0.9c1.3-0.1,2.4-0.7,3.2-1.8C117.3,53.7,117.7,52.6,117.6,51.2z"/>
	<path class="st2" d="M25.3,36.8c3.3,0,6.7,0,10,0c0.1,0,0.1,0,0.2,0c0.4,0,0.4,0,0.4,0.4c0,1.6,0,3.2,0,4.8c0,0.4,0.1,0.7,0,1.1
		c0,0.3,0,0.3-0.3,0.3c-1.3,0-2.6,0-3.8,0c-0.3,0-0.3,0-0.3-0.3c0-0.6,0-1.1,0-1.7c0-0.3,0-0.3-0.3-0.3c-1.1,0-2.2,0-3.3,0
		c-0.3,0-0.3,0-0.3,0.3c0,0.1,0,0.2,0,0.3c0,6.1,0,12.2,0,18.2c0,0.5,0,0.5-0.5,0.5c-1.3,0-2.6,0-3.9,0c-0.1,0-0.2,0-0.3,0
		c-0.1,0-0.2-0.1-0.2-0.2c0-0.1,0-0.2,0-0.3c0-6.1,0-12.2,0-18.3c0-0.5,0-0.5-0.5-0.5c-1,0-2,0-3,0c-0.3,0-0.3,0-0.3,0.3
		c0,0.5,0,1,0,1.6c0,0.3,0,0.3-0.3,0.3c-1.3,0-2.6,0-3.8,0c-0.3,0-0.3,0-0.3-0.3c0-0.4,0-0.7,0-1.1c0-1.5,0-3.1,0-4.6
		c0-0.1,0-0.2,0-0.3c0-0.2,0.1-0.2,0.2-0.2c0.1,0,0.2,0,0.3,0C18.5,36.8,21.9,36.8,25.3,36.8z"/>
	<path class="st3" d="M129.3,46.3c0.1-0.1,0.1-0.1,0-0.2c-0.3-1.2-0.6-2.5-0.8-3.7c-0.2-0.9-0.3-1.9-0.5-2.8
		c-0.1-0.9-0.2-1.7-0.3-2.6c0-0.3-0.1-0.6-0.1-0.8c0-0.5-0.1-1-0.1-1.5c-0.1-0.8,0-1.6-0.1-2.4c-0.1-1,0-1.9,0-2.9
		c0.1-2.4,0.1-4.8,0.1-7.1c0-1-0.1-2-0.1-2.9c0.3,0,0.6,0.1,1,0.1c0.9,0,1.7,0,2.6,0c2.3,0,4.6,0,6.8-0.1c0.5,0,1-0.1,1.6-0.1
		c0.4,0,0.8,0,1.2-0.1c0.6-0.1,1.2-0.1,1.8-0.2c0.1,0,0.2,0,0.2,0.1c-2.9,1.9-5.8,3.8-8.8,5.7c-0.4,0.3-0.4,0.3-0.4,0.7
		c0.2,1.6,0.4,3.3,0.5,4.9c0.1,1.4,0.3,2.7,0.4,4.1c0.1,0.9,0.1,1.7,0.1,2.6c0.1,1.8,0.2,3.6,0.3,5.5c0,0.4,0,0.7-0.2,1
		c-0.8,1.9-1.6,3.7-2.4,5.6c0,0.1-0.1,0.2-0.1,0.2c-0.1,0-0.1,0-0.2-0.1C131.2,48.2,130.3,47.3,129.3,46.3
		C129.3,46.3,129.3,46.3,129.3,46.3z"/>
	<path class="st1" d="M80,53.7c0.2,0.2,0.3,0.4,0.5,0.6c0.9,1.1,2.1,1.8,3.5,2.1c0.7,0.2,1.5,0.2,2.2-0.1c0.3-0.1,0.6-0.3,0.7-0.6
		c0.2-0.4,0.2-0.8-0.2-1.1c-0.2-0.2-0.4-0.3-0.6-0.5c-0.7-0.4-1.5-0.7-2.3-1c-1.1-0.4-2.1-0.9-3.1-1.5c-0.8-0.5-1.5-1.1-2-1.9
		c-0.4-0.7-0.6-1.4-0.6-2.1c0-0.7,0-1.4,0.3-2.1c0.3-0.9,0.9-1.7,1.7-2.3c0.9-0.7,2-1.1,3.1-1.2c0.8-0.1,1.7-0.2,2.5-0.1
		c1.2,0.1,2.5,0.3,3.6,1c0.9,0.5,1.6,1.2,1.8,2.3c0.1,0.3,0.1,0.5,0.1,0.8c0,0.6,0,1.2,0,1.9c0,0.4,0,0.4-0.4,0.4
		c-1.2,0-2.5,0-3.7,0c-0.3,0-0.3,0-0.3-0.3c0-0.4,0-0.7,0-1.1c0-0.2-0.1-0.3-0.3-0.4c-0.4-0.2-0.8-0.3-1.2-0.3c-0.5,0-1,0-1.5,0.1
		c-0.3,0.1-0.5,0.2-0.7,0.4c-0.3,0.3-0.3,0.9,0,1.2c0.4,0.4,0.9,0.7,1.5,0.9c0.9,0.4,1.8,0.7,2.8,1.1c1,0.4,2,0.9,2.9,1.7
		c1,0.9,1.6,2,1.6,3.4c0,0.9-0.1,1.8-0.5,2.6c-0.6,1.2-1.6,2.1-2.8,2.6c-0.9,0.4-1.9,0.6-2.8,0.7c-1.8,0.1-3.6-0.2-5.2-1.1
		c-1.1-0.6-2.1-1.3-2.9-2.4c-0.1-0.1-0.1-0.2,0-0.4c0.8-1,1.6-2,2.3-3C79.8,53.8,79.9,53.8,80,53.7z"/>
	<path class="st1" d="M99.9,51.9c0,2.7,0,5.3,0,8c0,0.4,0,0.4-0.4,0.4c-1.2,0-2.5,0-3.7,0c0,0-0.1,0-0.1,0c-0.3,0-0.3,0-0.3-0.3
		c0-0.1,0-0.2,0-0.2c0-4.8,0-9.7,0-14.5c0-0.4,0-0.4-0.4-0.4c-0.2,0-0.3,0-0.3-0.2c0-0.7,0-1.3,0-2c0-0.3,0-0.3,0.3-0.3
		c0.9,0,1.9,0,2.8,0c0.1,0,0.2,0,0.3,0.1c0.5,0.3,1,0.6,1.5,0.9c0.2,0.1,0.3,0.3,0.3,0.5C99.9,46.5,99.9,49.2,99.9,51.9
		C99.9,51.9,99.9,51.9,99.9,51.9z"/>
	<path class="st2" d="M142.7,19c-0.1-0.1-0.1-0.1-0.2-0.1c-0.6,0.1-1.2,0.1-1.8,0.2c-0.4,0-0.8,0.1-1.2,0.1c-0.5,0-1,0.1-1.6,0.1
		c-2.3,0.1-4.6,0.2-6.8,0.1c-0.9,0-1.7,0-2.6,0c-0.3,0-0.6-0.1-1-0.1c0,0,0,0,0,0c0-0.6-0.1-1.3-0.1-1.9c0-0.8-0.1-1.6-0.2-2.4
		c0.7-0.1,1.4-0.2,2-0.2c1.4-0.1,2.7-0.2,4.1-0.1c0.8,0,1.7,0.1,2.5,0.2c1.1,0.1,2.2,0.3,3.3,0.5c2,0.4,4,1,5.9,1.8
		c0.1,0,0.2,0,0.2,0.1c0,0.1-0.1,0.1-0.1,0.1c-0.7,0.5-1.4,0.9-2.1,1.3C143,18.8,142.9,18.9,142.7,19z"/>
	<path class="st4" d="M127.3,15c0.1,0.8,0.1,1.6,0.2,2.4c0,0.6,0.1,1.3,0.1,1.9c-0.1,0-0.2,0-0.3,0c-0.8,0-1.7-0.1-2.5-0.1
		c-0.7,0-1.5-0.1-2.2-0.1c-0.7-0.1-1.4-0.1-2.1-0.2c-0.6-0.1-1.2-0.1-1.8-0.2c-0.5,0-1-0.1-1.5-0.2c-0.2,0-0.4,0-0.6-0.1
		c0.1-0.1,0.2-0.1,0.3-0.2c3.1-1.6,6.4-2.7,9.9-3.2C126.8,15.1,127,15,127.3,15z"/>
	<path class="st1" d="M48.3,65.3C48.3,65.4,48.3,65.4,48.3,65.3C48.3,65.4,48.3,65.4,48.3,65.3C48.2,65.3,48.3,65.3,48.3,65.3
		C48.3,65.3,48.3,65.3,48.3,65.3z"/>
</g>
</svg>
