<?xml version="1.0" encoding="utf-8"?>
<!-- Generator: Adobe Illustrator 23.0.2, SVG Export Plug-In . SVG Version: 6.00 Build 0)  -->
<svg version="1.1" id="Layer_1" xmlns="http://www.w3.org/2000/svg" xmlns:xlink="http://www.w3.org/1999/xlink" x="0px" y="0px"
	 viewBox="0 0 160 80" style="enable-background:new 0 0 160 80;" xml:space="preserve">
<style type="text/css">
	.st0{fill-rule:evenodd;clip-rule:evenodd;fill:#414042;}
	.st1{fill:#414042;}
	.st2{fill-rule:evenodd;clip-rule:evenodd;fill:#92278F;}
	.st3{fill:#92278F;}
</style>
<title>Ticketless_logo</title>
<desc>Created with Sketch.</desc>
<g id="Page-1">
	<g transform="translate(-200.000000, -408.000000)">
		<g id="logos" transform="translate(70.000000, 148.000000)">
			<g id="Ticketless_logo" transform="translate(130.000000, 260.000000)">
				<g id="Group" transform="translate(24.549954, 3.421053)">
					<path id="Path" class="st0" d="M28.4,39.5v-5.8H27v-2.2h1.4v-3h2.6v3h3v2.2h-3v5.4c0,1,0.5,1.4,1.4,1.4c0.6,0,1.1-0.1,1.6-0.4
						v2.1c-0.6,0.4-1.3,0.6-2.3,0.6C29.7,42.8,28.4,42,28.4,39.5z"/>
					<path id="Shape" class="st1" d="M36.2,27.4h2.7v2.4h-2.7V27.4z M36.3,31.5h2.6v11.1h-2.6V31.5z"/>
					<path class="st0" d="M41.1,37.1L41.1,37.1c0-3.2,2.4-5.8,5.8-5.8c2.1,0,3.4,0.8,4.5,1.9l-1.6,1.7c-0.8-0.8-1.6-1.4-2.9-1.4
						c-1.9,0-3.2,1.6-3.2,3.5v0c0,2,1.4,3.5,3.3,3.5c1.2,0,2.1-0.5,2.9-1.4l1.5,1.5c-1.1,1.2-2.4,2.1-4.6,2.1
						C43.6,42.9,41.1,40.3,41.1,37.1z"/>
					<polygon class="st0" points="53.4,27.3 56,27.3 56,36.4 60.6,31.5 63.7,31.5 59.3,36 63.8,42.6 60.9,42.6 57.6,37.8 56,39.4 
						56,42.6 53.4,42.6 53.4,27.3 					"/>
					<path class="st1" d="M64.1,37.1L64.1,37.1c0-3.2,2.3-5.8,5.5-5.8c3.6,0,5.3,2.8,5.3,6c0,0.2,0,0.5,0,0.7h-8.2
						c0.3,1.8,1.6,2.8,3.2,2.8c1.2,0,2.1-0.5,3-1.3l1.5,1.3c-1.1,1.3-2.5,2.1-4.6,2.1C66.6,42.9,64.1,40.5,64.1,37.1z M72.4,36.3
						c-0.2-1.6-1.1-2.9-2.8-2.9c-1.6,0-2.7,1.2-2.9,2.9H72.4z"/>
					<path class="st0" d="M77.6,39.5v-5.8h-1.4v-2.2h1.4v-3h2.6v3h3v2.2h-3v5.4c0,1,0.5,1.4,1.4,1.4c0.6,0,1.1-0.1,1.6-0.4v2.1
						c-0.6,0.4-1.3,0.6-2.3,0.6C79,42.8,77.6,42,77.6,39.5z"/>
					<polygon class="st0" points="85.7,27.3 87.3,27.3 87.3,42.6 85.7,42.6 					"/>
					<path class="st1" d="M90,37.2L90,37.2c0-3.2,2.2-5.7,5.2-5.7c3.2,0,5.1,2.6,5.1,5.7c0,0.2,0,0.3,0,0.5h-8.7
						c0.2,2.4,1.9,3.7,3.8,3.7c1.5,0,2.6-0.6,3.4-1.5l1,0.9c-1.1,1.2-2.4,2-4.5,2C92.5,42.9,90,40.6,90,37.2z M98.7,36.6
						c-0.2-2-1.3-3.7-3.5-3.7c-1.9,0-3.3,1.6-3.6,3.7H98.7z"/>
					<path class="st0" d="M101.9,41.2l0.8-1.2c1.2,0.9,2.5,1.4,3.8,1.4c1.3,0,2.3-0.7,2.3-1.7v0c0-1.1-1.3-1.5-2.7-1.9
						c-1.7-0.5-3.6-1.1-3.6-3.1v0c0-1.9,1.6-3.1,3.7-3.1c1.3,0,2.8,0.5,3.9,1.2l-0.7,1.2c-1-0.7-2.2-1-3.2-1c-1.3,0-2.1,0.7-2.1,1.6
						v0c0,1,1.4,1.4,2.8,1.9c1.7,0.5,3.5,1.2,3.5,3.1v0c0,2.1-1.7,3.2-3.9,3.2C104.9,42.8,103.1,42.2,101.9,41.2z"/>
					<path class="st0" d="M111.8,41.2l0.8-1.2c1.2,0.9,2.5,1.4,3.8,1.4c1.3,0,2.3-0.7,2.3-1.7v0c0-1.1-1.3-1.5-2.7-1.9
						c-1.7-0.5-3.6-1.1-3.6-3.1v0c0-1.9,1.6-3.1,3.7-3.1c1.3,0,2.8,0.5,3.9,1.2l-0.7,1.2c-1-0.7-2.2-1-3.2-1c-1.3,0-2.1,0.7-2.1,1.6
						v0c0,1,1.4,1.4,2.8,1.9c1.7,0.5,3.5,1.2,3.5,3.1v0c0,2.1-1.7,3.2-3.9,3.2C114.8,42.8,113,42.2,111.8,41.2z"/>
				</g>
				<g>
					<path class="st2" d="M20.6,29.4l1.3-1.3v-2.3h-3.4c-1,0-1.9,0.8-1.9,1.9v1.6L20.6,29.4L20.6,29.4z"/>
					<path class="st2" d="M28.1,25.9v2.8c0.3,0.3,0.5,0.7,0.5,1.1c0,0.8-0.6,1.4-1.4,1.4c-0.8,0-1.4-0.6-1.4-1.4
						c0-0.4,0.2-0.8,0.5-1.1v-2.8h-2.7v3l-2.3,2.3h-4.8v1.8h5.6c0.3-0.5,0.9-0.9,1.5-0.9c1,0,1.8,0.8,1.8,1.8s-0.8,1.8-1.8,1.8
						c-0.7,0-1.2-0.4-1.5-0.9h-5.6v2.7h8V40h5.3V25.9H28.1z"/>
					<path class="st2" d="M27.2,51.2v2.9h2.7v-6.3c-2-0.4-3.6-2.2-3.6-4.3h3.6v-1.8h-7.1v-2.7h-6.2v3.5H21v4.9l1.8,1.8v4.8h2.7v-2.9
						c-0.5-0.3-0.9-0.9-0.9-1.5c0-1,0.8-1.8,1.8-1.8s1.8,0.8,1.8,1.8C28.1,50.3,27.8,50.9,27.2,51.2z"/>
					<path class="st3" d="M43.1,25.9H31.7v17.6h3.6c0,2.1-1.5,3.9-3.6,4.3v6.3h11.5c1,0,1.9-0.8,1.9-1.9V27.8
						C45,26.7,44.2,25.9,43.1,25.9z M37.9,35.6c-1,0-1.8-0.8-1.8-1.8s0.8-1.8,1.8-1.8s1.8,0.8,1.8,1.8
						C39.7,34.8,38.9,35.6,37.9,35.6z"/>
					<path class="st2" d="M21,50.1l-1.8-1.8v-3.9h-2.7v7.8c0,1,0.8,1.9,1.9,1.9H21V50.1z"/>
				</g>
			</g>
		</g>
	</g>
</g>
</svg>
