<?xml version="1.0" encoding="utf-8"?>
<!-- Generator: Adobe Illustrator 23.0.2, SVG Export Plug-In . SVG Version: 6.00 Build 0)  -->
<svg version="1.1" id="Layer_1" xmlns="http://www.w3.org/2000/svg" xmlns:xlink="http://www.w3.org/1999/xlink" x="0px" y="0px"
	 viewBox="0 0 160 80" style="enable-background:new 0 0 160 80;" xml:space="preserve">
<style type="text/css">
	.st0{fill:#1D1D1B;}
	.st1{fill:#7F7E7E;}
	.st2{fill:#7CE0C8;}
	.st3{fill:#7E7D7D;}
	.st4{fill:#3DBDA1;}
</style>
<g>
	<path class="st0" d="M68.3,44.3c-0.1-0.1-0.2-0.2-0.3-0.3c-3.6-3.6-7.3-7.3-10.9-10.9c-0.3-0.3-0.3-0.4,0-0.7
		c7.5-7.5,15-15,22.5-22.5c0.3-0.3,0.4-0.3,0.7,0c1.7,1.7,3.4,3.4,5.1,5.1c0.3,0.3,0.3,0.4,0,0.8c-4,4.5-1.9,11.6,3.9,13.2
		c2.9,0.8,5.5,0.2,7.7-1.8c0.3-0.2,0.4-0.2,0.6,0c1.7,1.7,3.4,3.5,5.2,5.2c0.3,0.3,0.3,0.4,0,0.6c-3.7,3.7-7.5,7.5-11.2,11.2
		c-0.2-0.1-0.3-0.2-0.4-0.4c-1.8-1.8-3.6-3.6-5.5-5.4c-1.8-1.8-3.7-3.7-5.5-5.5c-0.2-0.2-0.3-0.1-0.5,0c-1.8,1.8-3.6,3.7-5.5,5.5
		C72.2,40.4,70.3,42.4,68.3,44.3z"/>
	<path class="st1" d="M60.5,61.7c0.9-1,1.7-2,2.6-3c0.2-0.3,0.5-0.4,0.9-0.4c0.9,0,1.7,0,2.7,0c-0.3,0.4-0.5,0.7-0.8,0.9
		c-0.9,1-1.8,2-2.8,3c-0.2,0.2-0.3,0.3,0,0.6c1.5,1.5,2.7,3.2,3.7,5.1c-1.1,0-2,0-3,0c-0.2,0-0.3-0.2-0.4-0.3
		c-0.7-1.2-1.5-2.3-2.4-3.3c-0.2-0.2-0.3-0.3-0.5-0.5c-0.1,0.2-0.1,0.4-0.1,0.5c0,1,0,2.1,0,3.1c0,0.5-0.1,0.6-0.6,0.5
		c-0.6,0-1.1,0-1.7,0c-0.4,0-0.5-0.1-0.5-0.5c0-4,0-8.1,0-12.1c0-1.2,0-1.2,1.2-1.4c0.4-0.1,0.7-0.1,1.1-0.2c0.3-0.1,0.4,0,0.4,0.4
		c0,2.3,0,4.6,0,6.9c0,0.2,0,0.3,0,0.5C60.5,61.6,60.5,61.7,60.5,61.7z"/>
	<path class="st2" d="M74.2,38.5c1.8-1.8,3.6-3.7,5.5-5.5c0.2-0.2,0.3-0.2,0.5,0c1.8,1.8,3.7,3.7,5.5,5.5c0,0.2-0.2,0.3-0.3,0.5
		c-1.5,1.5-3.1,3.1-4.6,4.6c-0.2,0.3-0.5,0.5-0.7,0.8l0,0c0,0,0,0,0,0c-0.1-0.1-0.2-0.3-0.4-0.4c-1.7-1.7-3.3-3.3-5-5
		C74.4,38.8,74.2,38.7,74.2,38.5z"/>
	<path class="st3" d="M120.3,64.1c-0.9,0-1.8,0-2.7,0c-0.4,0-0.4,0.1-0.3,0.5c0.4,0.9,1.1,1.2,2,1.3c1,0.1,1.9,0,2.8-0.3
		c0.2-0.1,0.4-0.1,0.4,0.2c0.1,0.5,0.2,1.1,0.3,1.6c0,0.2-0.1,0.4-0.3,0.4c-1.6,0.5-3.2,0.7-4.8,0.2c-1.8-0.5-2.9-1.7-3.2-3.5
		c-0.3-1.6-0.2-3.1,0.8-4.5c1.1-1.6,3.1-2.3,5.1-1.7c1.7,0.5,2.8,1.9,3,3.9c0,0.5,0.1,1.1,0,1.6c0,0.3-0.1,0.3-0.4,0.3
		C122.1,64.1,121.2,64.1,120.3,64.1z M119,62.2c0.5,0,0.9,0,1.4,0c0.4,0,0.5-0.1,0.4-0.5c-0.2-0.9-0.9-1.4-1.9-1.4
		c-0.8,0-1.5,0.7-1.6,1.5c0,0.2,0.1,0.3,0.3,0.3C118,62.2,118.5,62.2,119,62.2z"/>
	<path class="st3" d="M87.1,63.2c0,1.7-0.5,3.3-2.1,4.3c-1.6,1-3.3,1-4.9,0.2c-1.7-0.8-2.3-2.3-2.5-4.1c-0.1-1.5,0.2-3,1.3-4.1
		c1.4-1.4,3-1.7,4.8-1.2c1.8,0.5,2.8,1.8,3.2,3.6C87,62.3,87.1,62.7,87.1,63.2z M84.2,63.1c0-0.6-0.1-1.1-0.3-1.6
		c-0.3-0.6-0.8-1-1.5-1c-0.7,0-1.3,0.2-1.6,0.9c-0.6,1.2-0.6,2.5,0.1,3.7c0.7,1.2,2.3,1.1,3,0C84.2,64.4,84.3,63.8,84.2,63.1z"/>
	<path class="st1" d="M105.5,64.5c0,0.9,0,1.9,0,2.8c0,0.2,0,0.4-0.3,0.5c-1.7,0.3-3.5,0.5-5.2,0.3c-2-0.3-3.1-1.7-2.7-3.7
		c0.2-1,0.9-1.7,1.8-2c1.1-0.4,2.3-0.4,3.5-0.3c0.3,0.1,0.4-0.1,0.3-0.3c-0.1-0.7-0.5-1.2-1.2-1.3c-0.9-0.2-1.8,0-2.7,0.2
		c-0.3,0.1-0.5,0.1-0.5-0.3c0-0.5-0.1-1-0.2-1.4c0-0.2,0-0.4,0.3-0.4c1.5-0.4,3-0.5,4.5-0.2c1.7,0.4,2.6,1.6,2.6,3.6
		C105.5,62.7,105.5,63.6,105.5,64.5z M102.9,65c0-0.3,0-0.5,0-0.8c0-0.1,0-0.3-0.2-0.3c-0.8-0.1-1.5-0.2-2.2,0.2
		c-0.4,0.2-0.5,0.6-0.5,1c0,0.4,0.2,0.7,0.6,0.8c0.4,0.2,0.8,0.1,1.2,0.1C102.9,66,102.9,66,102.9,65z"/>
	<path class="st3" d="M67.8,63.3c0-1.4,0-2.8,0-4.2c0-0.2-0.1-0.4,0.2-0.5c1.8-0.4,3.6-0.7,5.4-0.3c1.7,0.4,2.6,1.6,2.7,3.6
		c0,1.9,0,3.8,0,5.8c0,0.3-0.1,0.4-0.4,0.4c-0.7,0-1.3,0-2,0c-0.3,0-0.4-0.1-0.4-0.4c0-1.6,0-3.2,0-4.8c0-0.4,0-0.8-0.1-1.2
		c-0.2-0.7-0.6-1-1.3-1.1c-1.3-0.1-1.4,0-1.4,1.3c0,1.9,0,3.8,0,5.7c0,0.5-0.1,0.6-0.6,0.5c-0.6,0-1.1,0-1.7,0
		c-0.4,0-0.5-0.1-0.5-0.5C67.8,66.1,67.8,64.7,67.8,63.3z"/>
	<path class="st1" d="M107.3,60.6c0-1.6,0-2.9,0-4.2c0-0.3,0.1-0.5,0.4-0.5c0.7-0.1,1.4-0.2,2-0.3c0.3-0.1,0.4,0.1,0.4,0.3
		c0,0.7,0,1.3,0,2c0,0.5,0.1,0.5,0.5,0.5c0.8,0,1.5,0,2.3,0c0.3,0,0.4,0.1,0.4,0.4c0,0.5,0,1,0,1.6c0,0.3-0.1,0.4-0.4,0.4
		c-0.8,0-1.7,0-2.5,0c-0.3,0-0.4,0.1-0.4,0.4c0,1.1,0,2.1,0,3.2c0,1.2,0.5,1.6,1.7,1.6c0.4,0,0.8-0.1,1.2-0.2c0.3-0.1,0.4,0,0.4,0.3
		c0.1,0.5,0.2,1,0.3,1.5c0,0.2,0,0.3-0.2,0.4c-1.3,0.4-2.5,0.5-3.8,0.2c-1.4-0.4-2.1-1.4-2.3-3C107.2,63.4,107.3,61.9,107.3,60.6z"
		/>
	<path class="st1" d="M87.3,58.3c0.9,0,1.7,0,2.6,0c0.3,0,0.3,0.2,0.4,0.4c0.5,1.8,1.1,3.6,1.7,5.3c0.1,0.1,0.1,0.3,0.2,0.4
		c0.7-1.9,1.3-3.7,1.8-5.6c0.1-0.4,0.3-0.6,0.8-0.6c0.6,0.1,1.2,0,1.8,0c0.3,0,0.4,0.1,0.3,0.4c-0.9,3.1-2,6.1-3.5,8.9
		c-0.1,0.2-0.3,0.3-0.5,0.3c-0.2,0-0.5,0-0.7,0c-1,0.2-1.4-0.3-1.8-1.1c-1.2-2.7-2.2-5.3-3-8.1C87.3,58.6,87.2,58.5,87.3,58.3z"/>
	<path class="st1" d="M39.4,62.7c0,0.6-0.1,1.3,0.1,2c0.2,0.8,0.5,1.2,1.3,1.2c0.5,0,1,0,1.4-0.2c0.3-0.1,0.5,0,0.5,0.3
		c0.1,0.5,0.2,0.9,0.2,1.4c0,0.2,0,0.3-0.2,0.4c-1.3,0.5-2.7,0.6-4.1,0.1c-1.2-0.4-1.8-1.3-2-2.5c-0.1-0.4-0.1-0.8-0.1-1.3
		c0-2.6,0-5.2,0-7.8c0-0.4,0.1-0.5,0.5-0.5c0.6-0.1,1.3-0.2,1.9-0.3c0.4-0.1,0.4,0.1,0.4,0.4c0,0.6,0,1.3,0,2c0,0.3,0.1,0.4,0.4,0.4
		c0.8,0,1.6,0,2.4,0c0.4,0,0.5,0.1,0.5,0.5c0,0.5,0,0.9,0,1.4c0,0.4-0.1,0.5-0.5,0.5c-0.8,0-1.6,0-2.4,0c-0.3,0-0.4,0.1-0.4,0.4
		C39.4,61.5,39.4,62.1,39.4,62.7z"/>
	<path class="st3" d="M54.3,65.8c0.3,0,0.9-0.1,1.5-0.3c0.2-0.1,0.3,0,0.4,0.2c0.1,0.6,0.2,1.2,0.3,1.7c0,0.2,0,0.2-0.2,0.3
		c-1.8,0.6-4.7,0.7-6.4-1c-0.8-0.8-1.1-1.9-1.2-3c-0.2-2.1,0.4-3.9,2.2-5c1.6-1,3.4-0.9,5.2-0.3c0.2,0.1,0.2,0.2,0.2,0.4
		c-0.1,0.5-0.3,1-0.4,1.6c-0.1,0.3-0.2,0.3-0.4,0.2c-0.4-0.2-0.9-0.2-1.3-0.3c-1.5,0-2.4,0.7-2.5,2.2c-0.1,0.5,0,1.1,0.1,1.6
		C51.8,65.4,52.6,65.9,54.3,65.8z"/>
	<path class="st4" d="M79.9,44.3c0.2-0.3,0.5-0.5,0.7-0.8c1.5-1.5,3.1-3.1,4.6-4.6c0.1-0.1,0.3-0.2,0.3-0.5c1.8,1.8,3.6,3.6,5.5,5.4
		c0.1,0.1,0.3,0.3,0.4,0.4c-0.1,0-0.1,0.1-0.2,0.1C87.5,44.4,83.7,44.3,79.9,44.3z"/>
	<path class="st4" d="M74.2,38.5c0,0.2,0.2,0.3,0.3,0.5c1.7,1.7,3.3,3.3,5,5c0.1,0.1,0.2,0.3,0.4,0.4c-3.8,0-7.6,0-11.3,0
		c-0.1,0-0.1,0-0.2,0C70.3,42.4,72.2,40.4,74.2,38.5z"/>
	<path class="st1" d="M44.3,63.2c0-1.4,0-2.9,0-4.3c0-0.4,0.1-0.6,0.6-0.5c0.6,0,1.3,0,1.9,0c0.2,0,0.3,0.1,0.3,0.3c0,3,0,6,0,9
		c0,0.3-0.1,0.4-0.4,0.4c-0.7,0-1.4,0-2,0c-0.3,0-0.4-0.1-0.4-0.4C44.3,66.1,44.3,64.6,44.3,63.2z"/>
	<path class="st1" d="M132.2,57.1c-0.3,0.6-0.6,1.2-0.9,1.8c-0.1,0.2-0.2,0.4-0.5,0.4c-0.3,0-0.4-0.1-0.5-0.4
		c-0.3-0.6-0.6-1.2-1-1.9c-0.2,0.8-0.1,1.5-0.2,2.1c0,0.6-0.1,0.7-0.7,0.6c-0.2,0-0.3-0.1-0.3-0.3c0.1-1.3,0.2-2.6,0.3-3.9
		c0-0.2,0.1-0.3,0.3-0.3c0.3,0,0.6-0.1,0.8,0.2c0.3,0.7,0.6,1.3,1,2c0.1,0.1,0.1,0.3,0.3,0.4c0.4-0.8,0.8-1.5,1.1-2.3
		c0.2-0.5,0.6-0.3,0.9-0.3c0.3,0,0.2,0.3,0.2,0.5c0.1,1.1,0.2,2.3,0.3,3.4c0,0.3,0,0.5-0.4,0.4c-0.3,0-0.6,0.1-0.6-0.4
		c0-0.7-0.1-1.5-0.1-2.2C132.2,57.1,132.2,57.1,132.2,57.1z"/>
	<path class="st1" d="M47.3,55.6c0,0.9-0.7,1.6-1.6,1.6c-1,0-1.6-0.7-1.6-1.6c0-1,0.7-1.7,1.6-1.7C46.7,53.9,47.3,54.6,47.3,55.6z"
		/>
	<path class="st1" d="M126.1,55.4c0.5,0,1,0,1.5,0c0.3,0,0.3,0.2,0.3,0.4c0,0.2,0.1,0.5-0.3,0.5c0,0-0.1,0-0.1,0c-1,0-1,0-1,1
		c0,0.7,0,1.5,0,2.2c0,0.4-0.2,0.4-0.4,0.4c-0.3,0-0.5,0.1-0.5-0.4c0-0.9,0-1.9,0-2.8c0-0.3-0.1-0.4-0.4-0.4c-0.2,0-0.3,0-0.5,0
		c-0.3,0-0.5,0-0.5-0.4c0-0.5,0.2-0.5,0.5-0.4C125.2,55.4,125.7,55.4,126.1,55.4z"/>
</g>
</svg>
