<?xml version="1.0" encoding="utf-8"?>
<!-- Generator: Adobe Illustrator 23.0.2, SVG Export Plug-In . SVG Version: 6.00 Build 0)  -->
<svg version="1.1" id="Layer_1" xmlns="http://www.w3.org/2000/svg" xmlns:xlink="http://www.w3.org/1999/xlink" x="0px" y="0px"
	 viewBox="0 0 160 80" style="enable-background:new 0 0 160 80;" xml:space="preserve">
<style type="text/css">
	.st0{fill:#F69220;}
	.st1{fill:#1C2B39;}
	.st2{fill:#717F89;}
	.st3{fill:#1E2D3B;}
	.st4{fill:#78858F;}
</style>
<g>
	<path class="st0" d="M44.4,21.4c0,1.6-0.5,3.1-1.8,4.1c-0.7,0.5-1.5,0.8-2.4,0.9c-0.3,0-0.7,0.1-1,0.2c-0.3,0-0.3,0.1-0.2,0.4
		c0.7,1.3,1.2,2.6,1.5,4c0.3,1.7,0.1,3.3-0.3,4.9c-0.6,2.3-1.5,4.4-2.7,6.5c-0.4,0.6-0.5,1.2-0.2,1.9c0.2,0.4,0.3,0.8,0.4,1.1
		c0.1,0.2,0,0.4-0.1,0.6c-0.4,0.3-0.8,0.5-1.3,0.4c-0.5-0.1-1-0.3-1.4-0.6c-0.1-0.1-0.2-0.2-0.2-0.4c-0.1-0.5-0.1-0.9,0-1.4
		c0.1-0.4-0.1-0.8-0.3-1.2c-0.1-0.1-0.1-0.2-0.2-0.2c-0.1-0.2-0.1-0.4-0.3-0.5c-0.2,0-0.3,0.1-0.5,0.2c-1.3,0.5-2.6,0.4-3.8-0.1
		c-0.2-0.1-0.3-0.1-0.4,0.1c-0.1,0.2-0.2,0.3-0.3,0.5c-0.3,0.4-0.4,0.8-0.3,1.2c0,0.3,0,0.7,0,1c0,0.5-0.3,0.8-0.7,1
		c-0.5,0.2-1,0.4-1.6,0.3c-0.3-0.1-0.5-0.2-0.7-0.4c-0.2-0.2-0.3-0.3-0.1-0.6c0.2-0.4,0.3-0.8,0.5-1.3c0.2-0.6,0.1-1.1-0.2-1.6
		c-1.2-2-2.1-4.1-2.7-6.3c-0.6-2.3-0.8-4.5,0-6.8c0.3-0.8,0.6-1.7,1.1-2.4c0.2-0.4,0.2-0.3-0.2-0.4c-0.6-0.1-1.2-0.2-1.8-0.3
		c-1.9-0.5-2.9-1.8-3.2-3.7c-0.2-1.1-0.1-2.1,0.2-3.2c0-0.2,0.1-0.4,0.3-0.4c0.3,0,0.3,0.2,0.3,0.4c0.1,0.9,0.2,1.8,0.4,2.7
		c0.2,0.7,0.6,1.1,1.2,1.4c1.1,0.5,2.3,0.8,3.6,1c0.3,0.1,0.6,0.2,0.9,0.1c0.3-0.1,0.3-0.5,0.5-0.8c0.8-1.3,1.8-2.4,3.1-3.1
		c1.6-0.9,3.1-0.8,4.7,0.1c1.4,0.8,2.4,2,3.1,3.4c0.2,0.3,0.3,0.4,0.7,0.3c1.1-0.2,2.2-0.5,3.3-0.8c1.3-0.4,2-1.3,2.2-2.7
		c0.1-0.6,0.1-1.2,0.2-1.8c0-0.2,0-0.4,0.3-0.4c0.3,0,0.3,0.2,0.4,0.4C44.3,20.1,44.4,20.7,44.4,21.4z M28.8,33.4
		C28.8,33.4,28.8,33.4,28.8,33.4c0,0.5,0,0.9,0,1.4c0,0.5,0,1,0,1.4c0.1,1.5,0.8,2.3,2.3,2.6c1.9,0.3,3.3-0.9,3.3-2.6
		c0-0.9,0-1.9,0-2.8c0,0,0,0,0,0c0.1,0.9,0.3,1.8,0.4,2.8c0.8-0.7,1.5-1.4,1.8-2.3c0.3-1,0.4-2.1,0.5-3.1c0-0.4,0.2-0.5,0.5-0.5
		c0.6-0.1,1.3-0.2,1.8-0.6c0.5-0.3,0.5-0.9,0.1-1.3C39.3,28.2,39,28,38.7,28c-0.4-0.1-0.9-0.1-1.3,0c-0.3,0-0.4,0-0.4-0.3
		c-0.1-0.3-0.2-0.3-0.5-0.3c-1.1,0.2-1.4-0.6-1.3-1.2c0.1-0.4,0.3-0.8,0.7-1.1c0.1-0.1,0.2-0.1,0.1-0.3c-0.7-0.9-1.5-1.7-2.6-2.2
		c-1.2-0.7-2.3-0.6-3.5,0c-0.9,0.5-1.7,1.3-2.4,2.1c-0.2,0.2-0.2,0.3,0.1,0.6c0.5,0.4,0.7,1.1,0.4,1.7c-0.2,0.4-0.6,0.6-1.2,0.5
		c-0.3-0.1-0.4,0-0.4,0.3c-0.1,0.2-0.2,0.3-0.5,0.3c-0.6-0.1-1.2-0.1-1.7,0.2c-0.3,0.2-0.6,0.5-0.6,0.8c0,0.4,0.2,0.6,0.5,0.8
		c0.2,0.1,0.5,0.2,0.7,0.3c0.4,0.1,0.7,0.2,1.1,0.3c0.2,0,0.3,0.1,0.3,0.3c0.1,0.7,0.1,1.3,0.2,2c0.2,1.3,0.6,2.5,1.7,3.4
		c0.1,0.1,0.2,0.2,0.4,0.2C28.6,35.2,28.7,34.3,28.8,33.4z"/>
	<path class="st1" d="M28.3,46.7c0.8-0.3,1.1-1,1.1-1.9c0.1,0.2,0.2,0.3,0.3,0.5c0.5,0.6,1.1,0.4,1.4-0.3c0.2-0.6,0.8-0.8,1.2-1.1
		c0,0,0,0,0.1,0c0.7-0.1,0.7-0.1,0.6-0.7c0.6-0.1,0.8,0,0.7,0.7c0,0.1,0,0.2,0,0.2c-0.2,0-0.5,0-0.5,0.3c0,0.3,0.3,0.3,0.5,0.4
		c0,0,0,0,0.1,0c0.1,0.5,0,1,0.3,1.3c0.5,0.5,1.1,0.8,1.8,1c0.6,0.1,1.1,0.1,1.6-0.2c0.4,0.3,0.7,0.6,1.2,0.7c0.1,0,0.3,0.1,0.2,0.3
		c0,0.2-0.2,0.3-0.3,0.3c-0.1,0-0.2,0-0.3,0c-0.2,0-0.3-0.1-0.4,0.1c-0.1,0.2-0.2,0.4,0,0.6c0.1,0.1,0.1,0.3,0.1,0.4
		c0,0.4,0.2,0.5,0.6,0.5c0.3,0,0.6-0.1,0.9-0.3c0.3-0.1,0.4-0.3,0.3-0.6c-0.2-0.5,0-0.9,0.3-1.4c0.1-0.1,0.2-0.2,0.3-0.1
		c0.4,0.2,0.8,0.1,1.2,0.2c0.2,0.1,0.5,0.5,0.4,0.7c-0.2,0.3,0.1,0.2,0.2,0.3c0.3,0,0.3-0.2,0.3-0.5c-0.2-0.6-0.6-0.7-1.1-0.9
		c-0.2,0-0.3-0.1-0.5-0.2c-0.1-0.1-0.2-0.1-0.1-0.2c0-0.1,0.2-0.1,0.2,0c0.5,0.3,1.2,0.2,1.6,0.9c0.1,0.1,0.2,0.2,0.3,0.2
		c0.2,0,0.1-0.2,0.2-0.3c0.2,0.2,0.4,0.3,0.6-0.1c0.1-0.2,0.2-0.2,0.4-0.1c0.1,0.1,0.3,0.2,0.4,0.4c0.2,0.3,0.2,0.7,0,1
		C44,49.2,43.8,49,43.5,49c-0.4-0.1-0.4-0.1-0.3,0.3c0.1,0.2,0,0.3-0.2,0.4c-0.1,0.1-0.3,0.1-0.4,0c-0.2-0.1-0.3-0.1-0.5-0.1
		c-0.2,0-0.4,0-0.5-0.3c-0.1-0.3-0.2-0.3-0.4-0.2c-0.5,0.1-0.9,0.3-1.2,0.8c-0.1,0.2-0.2,0.3-0.4,0.3c-0.7,0.2-1.1,0.8-1,1.5
		c0,0.2,0,0.4-0.2,0.5c-0.3,0.1-0.4,0.3-0.4,0.5c-0.1,0.3-0.2,0.6-0.3,0.9c-0.2,0.7,0,1.3,0.7,1.8c0.2,0.1,0.4,0.3,0.5,0.5
		c0.1,0.2,0.2,0.3,0.4,0.4c0.1,0.1,0.4,0.1,0.3,0.3c-2.9,0.8-5.9,1.3-8.9,1.6c-2.4,0.2-4.7,0.2-7.1-0.1c0-0.5-0.2-0.9-0.7-1.3
		c-0.4-0.3-0.9-0.6-1.3-1c-0.2-0.3-0.4-0.5-0.2-0.9c0.1-0.1,0-0.2-0.1-0.2c-0.2-0.1-0.4,0-0.6,0c-0.2,0-0.4-0.1-0.5-0.3
		c0-0.3,0.2-0.2,0.4-0.2c0.2,0,0.3-0.1,0.3-0.3c0-0.2-0.1-0.3-0.3-0.4c-0.2-0.1-0.4-0.1-0.6,0.1c-0.2,0.2-0.4,0.4-0.6,0.2
		c-0.3-0.2-0.6-0.5-0.6-0.9c0-0.5,0.5-1.3,1-1.5c0.2-0.1,0.3,0,0.4,0.2c0.1,0.5,0.2,0.5,0.6,0.2c0.3-0.2,0.5-0.1,0.8,0
		c0.2,0.2,0.2,0.4,0.1,0.6c0,0,0,0.1,0,0.1c0,0.3,0,0.5,0.3,0.7c0.1,0.1,0.2,0,0.3,0c0.2-0.2,0.1-0.5,0-0.7c-0.1-0.3-0.1-0.5,0-0.8
		c0.2-0.3,0.5-0.5,0.8-0.7c0.5-0.2,0.8-0.5,1-1c0.1-0.3,0.3-0.5,0.6-0.5c0.4-0.1,0.8-0.1,1.1-0.4c0.1-0.1,0.2,0,0.3,0
		c0.4,0.1,0.8,0,1.2-0.2c0.1,0,0.2-0.1,0.1-0.2c0-0.1-0.1-0.1-0.2-0.1c-0.2,0-0.3,0-0.5-0.1c-0.1,0-0.3-0.1-0.3-0.3
		c0-0.2,0.1-0.2,0.2-0.3c0.4-0.2,0.8-0.2,1.3-0.2c0,0.2-0.2,0.2-0.3,0.3c-0.1,0.2-0.1,0.3,0.1,0.4c0.3,0.1,0.6,0.2,0.9,0.2
		c0.3-0.1,0.4-0.3,0.4-0.6c0-0.3-0.2-0.3-0.4-0.3c-0.1,0-0.3,0-0.2-0.2C28.7,47.1,28.4,46.9,28.3,46.7z M21.9,53.9
		c0.1,0,0.2,0,0.3-0.2c0-0.2-0.4-0.4-0.6-0.4c-0.1,0-0.2,0-0.2,0.1C21.4,53.7,21.6,53.9,21.9,53.9z M40.7,48.3c0,0.3,0,0.4,0.2,0.5
		c0.1,0,0.2,0,0.2-0.1C41.1,48.5,40.9,48.4,40.7,48.3z"/>
	<path class="st2" d="M39.5,56.4c0.1-0.3-0.2-0.3-0.3-0.3C39,56,38.9,56,38.8,55.8c-0.1-0.2-0.3-0.3-0.5-0.5c-0.6-0.4-0.9-1-0.7-1.8
		c0.1-0.3,0.2-0.6,0.3-0.9c0.1-0.2,0.2-0.4,0.4-0.5c0.2-0.1,0.3-0.2,0.2-0.5c-0.1-0.7,0.3-1.3,1-1.5c0.2,0,0.3-0.1,0.4-0.3
		c0.3-0.5,0.7-0.6,1.2-0.8c0.2-0.1,0.4,0,0.4,0.2c0.1,0.3,0.3,0.2,0.5,0.3c0.2,0,0.4,0,0.5,0.1c0.1,0.1,0.2,0.2,0.4,0
		c0.1-0.1,0.2-0.2,0.2-0.4c-0.1-0.4-0.1-0.4,0.3-0.3c0.2,0.1,0.5,0.2,0.7-0.1c0.2-0.3,0.2-0.7,0-1c-0.1-0.1-0.2-0.3-0.4-0.4
		c-0.2-0.1-0.3-0.1-0.4,0.1C43.4,48,43.2,48,43,47.7c-0.1,0.1,0,0.3-0.2,0.3c-0.2,0-0.3-0.1-0.3-0.2c-0.3-0.6-1-0.6-1.6-0.9
		c-0.1,0-0.2,0-0.2,0c-0.1,0.1,0,0.2,0.1,0.2c0.1,0.1,0.3,0.2,0.5,0.2c0.5,0.1,0.9,0.3,1.1,0.9c0.1,0.3,0,0.5-0.3,0.5
		c-0.1,0-0.4,0-0.2-0.3c0.1-0.2-0.2-0.6-0.4-0.7c-0.4-0.1-0.8,0-1.2-0.2c-0.1-0.1-0.3,0-0.3,0.1c-0.2,0.4-0.4,0.9-0.3,1.4
		c0.1,0.3,0,0.5-0.3,0.6c-0.3,0.1-0.6,0.3-0.9,0.3c-0.4,0-0.6-0.2-0.6-0.5c0-0.2,0-0.3-0.1-0.4c-0.1-0.2-0.1-0.4,0-0.6
		c0.1-0.2,0.3-0.2,0.4-0.1c0.1,0,0.2,0,0.3,0c0.2,0,0.3-0.1,0.3-0.3c0-0.2-0.1-0.3-0.2-0.3c-0.5-0.2-0.8-0.5-1.2-0.7
		c0.4-0.3,0.7-0.5,1-0.9c0.1-0.2,0.1-0.4,0.1-0.6c-0.2-0.5-0.4-1.1-0.6-1.6c-0.1-0.3-0.1-0.6,0.1-0.9c0.1-0.1,0.1-0.2,0.1-0.2
		c0.4-0.6,0.4-0.6,0.9-0.2c1.3,0.8,2.5,1.7,3.4,2.9c-0.3,0.1-0.3,0.5-0.6,0.5c0,0,0,0.1,0,0.1c0,0.2,0.1,0.4,0.2,0.5
		c0.1,0.2,0.4,0.2,0.5,0.1c0.1-0.2,0.4-0.3,0.5-0.5c0.8,1,1.5,2.1,1.9,3.4c-0.2,0-0.3-0.2-0.5-0.2c0.1,0.5,0.4,0.6,0.8,0.8
		c0.4,1,0.6,2,0.7,3c0,0,0,0.1,0,0.1c0.1,1,0.1,1-0.8,1.3C43.4,55.3,41.5,56,39.5,56.4z M42.6,47.2C42.5,47.1,42.5,47.1,42.6,47.2
		C42.4,47.1,42.5,47.2,42.6,47.2c0,0.2,0.1,0.3,0.2,0.4c0,0,0,0,0,0c0,0,0-0.1,0-0.1C42.8,47.4,42.7,47.2,42.6,47.2z M39.8,44.8
		c0-0.1,0-0.3-0.2-0.4c-0.2-0.1-0.3-0.2-0.4-0.4c0-0.1-0.1-0.1-0.2-0.1c-0.1,0-0.1,0.1-0.1,0.2c0,0.2,0,0.5,0,0.7
		c0,0.3,0.1,0.5,0.4,0.5C39.5,45.5,39.8,45.2,39.8,44.8z"/>
	<path class="st2" d="M28.3,46.7c0.1,0.2,0.3,0.4,0.1,0.6c-0.1,0.1,0.1,0.2,0.2,0.2c0.2,0,0.4,0,0.4,0.3c0,0.3-0.1,0.5-0.4,0.6
		c-0.3,0.1-0.6,0-0.9-0.2c-0.2-0.1-0.2-0.2-0.1-0.4c0.1-0.1,0.2-0.2,0.3-0.3c-0.4,0-0.9,0-1.3,0.2c-0.1,0.1-0.2,0.1-0.2,0.3
		c0,0.2,0.1,0.2,0.3,0.3c0.1,0,0.3,0.1,0.5,0.1c0.1,0,0.2,0,0.2,0.1c0,0.1,0,0.2-0.1,0.2c-0.4,0.3-0.8,0.3-1.2,0.2
		c-0.1,0-0.2-0.1-0.3,0c-0.3,0.3-0.7,0.3-1.1,0.4c-0.3,0.1-0.5,0.3-0.6,0.5c-0.1,0.5-0.5,0.8-1,1c-0.3,0.2-0.6,0.3-0.8,0.7
		c-0.2,0.3-0.1,0.5,0,0.8c0.1,0.2,0.2,0.5,0,0.7c-0.1,0.1-0.2,0.1-0.3,0c-0.2-0.2-0.2-0.5-0.3-0.7c0,0,0-0.1,0-0.1
		c0.1-0.2,0.1-0.4-0.1-0.6c-0.2-0.2-0.5-0.2-0.8,0c-0.5,0.3-0.5,0.3-0.6-0.2c-0.1-0.2-0.2-0.3-0.4-0.2c-0.5,0.2-1.1,1-1,1.5
		c0,0.4,0.3,0.7,0.6,0.9c0.2,0.2,0.5,0,0.6-0.2c0.2-0.2,0.4-0.2,0.6-0.1c0.2,0.1,0.3,0.2,0.3,0.4c0,0.2,0,0.3-0.3,0.3
		c-0.2,0-0.4-0.1-0.4,0.2c0,0.2,0.3,0.3,0.5,0.3c0.2,0,0.4,0,0.6,0c0.1,0,0.2,0.1,0.1,0.2c-0.2,0.4,0,0.6,0.2,0.9
		c0.3,0.5,0.8,0.7,1.3,1c0.4,0.3,0.7,0.7,0.7,1.3c-1.1-0.1-2.1-0.3-3.1-0.6c-1-0.3-2-0.7-3-1.2c-0.1,0-0.1-0.1-0.2-0.1
		c0.1-0.6,0.3-1.3,0.5-1.9c0.1-0.3,0.2-0.6,0-0.9c-0.2-0.4-0.1-0.7,0.2-1c0.1-0.1,0.3-0.3,0.1-0.5C18,51.5,18,51.3,18,51.1
		c0-0.3,0-0.5-0.1-0.8c-0.1,0.1-0.1,0.2-0.1,0.3c-0.1,0.3-0.1,0.6-0.2,0.8c-0.1,0.2-0.2,0.2-0.3,0c0.2-1.2,0.7-2.3,1.2-3.3
		c1.4-2.6,3.3-4.6,5.8-6c0.2-0.1,0.3-0.1,0.5,0.1c0.5,0.7,0.6,1.4,0.2,2.2c-0.2,0.3-0.2,0.6-0.3,0.9c-0.1,0.2-0.1,0.3,0,0.5
		c0,0.1,0,0.2,0,0.3c0,0.2-0.1,0.4,0.1,0.4c0.2,0.1,0.2-0.2,0.3-0.3c0.4,0.3,0.8,0.6,1.4,0.7c0.6,0.1,1.1,0,1.7-0.3
		C28.1,46.8,28.2,46.8,28.3,46.7z M22.4,48.9C22.5,48.8,22.5,48.8,22.4,48.9c0.3-0.3,0.4-0.6,0.6-0.9c0.1-0.1,0-0.1-0.1-0.1
		c-0.3,0-0.7,0.4-0.7,0.6C22.2,48.6,22.2,48.8,22.4,48.9z M23.5,47.9c-0.1,0.1-0.3,0.1-0.3,0.3c0,0.2,0.1,0.4,0.2,0.4
		c0.2-0.1,0.2-0.3,0.3-0.5C23.8,47.9,23.7,47.9,23.5,47.9z M23.2,47.2c0-0.1-0.1-0.2-0.2-0.2c-0.1,0-0.2,0.1-0.1,0.2
		c0,0.1,0.1,0.3,0.2,0.3C23.2,47.5,23.2,47.3,23.2,47.2z"/>
	<path class="st0" d="M93.5,38.8C93.6,38.8,93.6,38.8,93.5,38.8c0.3,0,0.7-0.1,1,0c0.3,0.1,0.1,0.6,0.2,0.8c0.2,0.8,0.8,1.3,1.5,1.6
		c0.9,0.3,1.8,0.3,2.8,0.1c1.1-0.3,1.6-1.2,1.4-2.2c-0.1-0.6-0.5-0.9-1.1-1.1c-0.7-0.2-1.4-0.4-2.1-0.6c-0.7-0.2-1.4-0.4-2.1-0.6
		c-1.5-0.5-2.2-1.5-2.3-3c0-1.6,0.8-2.7,2.2-3.3c1.7-0.8,3.5-0.7,5.2,0.1c1.2,0.6,1.9,1.7,2.1,3.1c0,0.3,0,0.4-0.3,0.4
		c-0.6,0-1.1,0-1.7,0c-0.1,0-0.2,0-0.3-0.2c-0.2-1.6-1.4-2.1-2.7-2.1c-0.5,0-1,0.1-1.4,0.3c-0.5,0.2-0.8,0.6-0.9,1.2
		c0,0.6,0.2,1.1,0.7,1.4c0.4,0.3,0.9,0.4,1.4,0.5c0.9,0.3,1.9,0.5,2.8,0.7c1.6,0.4,2.5,1.5,2.6,3.1c0.1,1.4-0.5,2.8-1.9,3.5
		c-2,1-4,1-6,0.1c-1.5-0.7-2.2-2-2.3-3.6c0-0.2,0-0.3,0.2-0.3C92.9,38.8,93.2,38.8,93.5,38.8z"/>
	<path class="st0" d="M24.4,61c-2.5,0-5-0.2-7.5-1c-1.2-0.4-2.4-0.9-3.3-1.9c-1.2-1.2-1.4-2.7-1-4.3c0.4-1.7,1.3-3.1,2.4-4.5
		c0.2-0.3,0.5-0.6,0.7-0.9c0.1-0.1,0.2-0.3,0.3-0.1c0.1,0.1,0,0.2-0.1,0.3c-0.8,1-1.5,2.1-1.8,3.4c-0.6,2.1,0.1,3.7,1.8,4.9
		c1.3,0.9,2.7,1.3,4.2,1.6c2.9,0.6,5.7,0.8,8.6,0.7c5.7-0.2,11.1-1.5,16.3-3.5c0.7-0.3,1.4-0.6,2.1-0.9c0.1,0,0.3-0.2,0.4,0
		c0.1,0.2-0.1,0.2-0.3,0.3c-3.9,1.9-7.9,3.4-12,4.5c-2.8,0.7-5.6,1.2-8.4,1.4C26.1,61,25.3,61,24.4,61z"/>
	<path class="st3" d="M79.2,41.8c-0.8,1.2-1.8,1.5-3,1.5c-2.7-0.1-3.8-2-4-4.1c-0.1-1.2,0-2.5,0.6-3.6c1.3-2.3,4.5-2.7,6.3-0.7
		c0,0,0.1,0,0.1,0.1c0-0.9,0-1.7,0-2.5c0-0.6,0-1.2,0-1.8c0-0.2,0.1-0.3,0.3-0.3c0.5,0,1,0,1.5,0c0.2,0,0.3,0.1,0.3,0.3
		c0,0.6,0,1.1,0,1.7c0,3.4,0,6.8,0,10.2c0,0.5,0,0.5-0.5,0.5c-0.4,0-0.7,0-1.1,0c-0.3,0-0.3-0.1-0.3-0.3
		C79.2,42.4,79.2,42.2,79.2,41.8z M74.1,38.6c0,0.6,0.1,1.3,0.5,1.9c0.9,1.5,3,1.6,4,0.1c0.9-1.4,0.9-2.8,0.1-4.3
		c-0.8-1.6-3.1-1.5-4,0C74.2,37,74.1,37.7,74.1,38.6z"/>
	<path class="st0" d="M132.3,41.9c0,1.3,0,2.5,0,3.7c0,0.8,0,0.8-0.8,0.8c-0.3,0-0.7,0-1,0c-0.2,0-0.2,0-0.2-0.2c0,0,0-0.1,0-0.1
		c0-3.9,0-7.8,0-11.8c0-0.3,0.1-0.4,0.4-0.4c0.4,0,0.9,0,1.3,0c0.2,0,0.2,0.1,0.2,0.2c0,0.3,0,0.6,0,0.8c0.1,0,0.1,0,0.1,0
		c0.8-1.1,1.9-1.3,3.1-1.2c2.4,0.2,3.5,1.8,3.8,3.7c0.2,1.1,0.1,2.1-0.2,3.1C138.1,43.5,134.6,44.3,132.3,41.9z M137.3,38.7
		c0-1.1-0.2-1.9-0.7-2.5c-1-1.3-3.1-1.3-3.9,0.1c-0.8,1.4-0.8,2.9,0.1,4.3c1,1.6,3.2,1.4,4.1-0.2C137.2,39.8,137.3,39.2,137.3,38.7z
		"/>
	<path class="st3" d="M68.6,42.2c-1.3,0.9-2.6,1.3-4.2,0.9c-2.1-0.5-2.5-2.3-1.9-3.8c0.3-0.7,0.8-1.1,1.5-1.3
		c0.9-0.3,1.9-0.4,2.9-0.5c0.3-0.1,0.7-0.1,1-0.2c0.3-0.1,0.6-0.3,0.6-0.7c0.1-0.4,0-0.8-0.4-1.1c-0.7-0.5-2.2-0.5-2.9,0
		c-0.3,0.2-0.5,0.5-0.5,0.8c0,0.2-0.1,0.2-0.3,0.2c-0.5,0-1,0-1.6,0c-0.2,0-0.3-0.1-0.2-0.3c0.1-1,0.6-1.7,1.4-2.2
		c1.6-0.8,3.3-0.9,5-0.1c0.9,0.4,1.4,1.2,1.4,2.2c0,1.5,0,3,0,4.5c0,0.7,0.1,0.8,0.8,0.7c0.2,0,0.2,0,0.2,0.2c0,0.2,0,0.4,0,0.6
		c0,0.6,0,0.6-0.6,0.7c-0.2,0-0.5,0.1-0.8,0.1C69.4,43.3,68.8,43,68.6,42.2z M68.5,38.5c-0.7,0.4-1.5,0.4-2.2,0.5
		c-0.4,0.1-0.9,0.1-1.3,0.4c-0.5,0.3-0.7,0.7-0.6,1.2c0,0.5,0.4,0.8,0.8,0.9c0.8,0.3,1.6,0.2,2.4-0.1c0.6-0.3,0.9-0.8,0.9-1.4
		C68.5,39.5,68.5,39,68.5,38.5z"/>
	<path class="st0" d="M146.7,42.2c-1.4,1-2.9,1.3-4.5,0.8c-1-0.3-1.7-1-1.8-2c-0.1-1,0-1.8,0.8-2.5c0.6-0.5,1.4-0.6,2.2-0.7
		c0.7-0.1,1.4-0.2,2.1-0.3c0.8-0.1,1.2-0.5,1.1-1.2c-0.1-0.5-0.4-0.8-0.8-0.9c-0.7-0.2-1.4-0.2-2,0c-0.5,0.2-0.8,0.5-0.9,1
		c-0.1,0.3-0.2,0.3-0.4,0.3c-0.4,0-0.9,0-1.3,0c-0.3,0-0.4-0.1-0.3-0.4c0.2-1,0.7-1.8,1.7-2.2c1.4-0.6,2.9-0.7,4.4-0.1
		c1.2,0.4,1.8,1.2,1.8,2.5c0,1.5,0,3,0,4.5c0,0.6,0.1,0.7,0.7,0.6c0.2,0,0.3,0.1,0.3,0.3c0,0.2,0,0.3,0,0.5c0,0.6,0,0.6-0.6,0.8
		c-0.2,0-0.4,0.1-0.6,0.1C147.5,43.3,146.9,43.1,146.7,42.2z M146.5,38.5c-0.6,0.3-1.2,0.3-1.8,0.4c-0.5,0.1-1.1,0.1-1.6,0.4
		c-0.5,0.3-0.7,0.7-0.7,1.2c0,0.5,0.3,0.8,0.8,0.9c0.9,0.3,1.7,0.3,2.5-0.2c0.5-0.3,0.8-0.6,0.8-1.2
		C146.5,39.6,146.5,39.1,146.5,38.5z"/>
	<path class="st0" d="M106.3,35.1c0.7-0.9,1.5-1.4,2.5-1.4c1.9-0.1,3.5,0.8,3.5,3c0,2,0,4,0,6c0,0.3-0.1,0.4-0.3,0.3
		c-0.4,0-0.9,0-1.3,0c-0.3,0-0.4-0.1-0.4-0.4c0-1.8,0-3.5,0-5.3c0-0.4,0-0.8-0.2-1.2c-0.3-0.8-1.2-1.1-2.2-0.8
		c-1,0.3-1.6,1.1-1.6,2.3c0,1.7,0,3.4,0,5.1c0,0.3-0.1,0.4-0.4,0.4c-0.4,0-0.9,0-1.3,0c-0.3,0-0.3-0.1-0.3-0.3c0-2.3,0-4.7,0-7
		c0-1.6,0-3.3,0-4.9c0-0.3,0.1-0.4,0.3-0.3c0.4,0,0.9,0,1.3,0c0.3,0,0.4,0.1,0.4,0.4C106.3,32.2,106.3,33.6,106.3,35.1z"/>
	<path class="st3" d="M88,39c-1,0-2,0-3,0c-0.3,0-0.3,0.1-0.3,0.3c0.2,1.8,1.5,2.7,3.2,2.3c0.6-0.2,1.1-0.6,1.3-1.1
		c0.1-0.2,0.2-0.3,0.4-0.3c0.4,0,0.9,0,1.3,0c0.3,0,0.3,0.1,0.2,0.3c-0.5,1.6-1.7,2.5-3.3,2.7c-1.1,0.2-2.1,0-3.1-0.5
		c-1.3-0.7-1.9-1.9-2.1-3.3c-0.2-1.5,0-2.9,0.9-4.1c1.1-1.4,2.5-1.9,4.3-1.6c1.7,0.3,2.8,1.4,3.3,3.1c0.2,0.6,0.2,1.2,0.2,1.8
		c0,0.3-0.1,0.4-0.4,0.4C90.1,39,89,39,88,39z M87,37.6c0.6,0,1.2,0,1.8,0c0.6,0,0.6,0,0.4-0.6c-0.3-1.1-1.3-1.9-2.3-1.8
		c-1.2,0.1-2.1,1-2.2,2.1c0,0.2,0,0.3,0.3,0.3C85.6,37.6,86.3,37.6,87,37.6z"/>
	<path class="st0" d="M119.2,39c-1,0-2,0-3,0c-0.3,0-0.3,0.1-0.3,0.3c0.1,1.7,1.5,2.7,3.2,2.3c0.6-0.2,1.1-0.5,1.3-1.1
		c0.1-0.3,0.3-0.3,0.5-0.3c0.4,0,0.8,0,1.2,0c0.4,0,0.4,0,0.3,0.4c-0.4,1.3-1.3,2.2-2.7,2.5c-1.7,0.4-3.3,0.2-4.6-1.1
		c-0.9-0.9-1.2-2.2-1.2-3.4c0-1.6,0.5-3,1.8-4c2.1-1.6,5.8-1.1,6.8,2.4c0.2,0.6,0.2,1.2,0.2,1.8c0,0.2-0.1,0.3-0.3,0.3
		C121.3,39,120.2,39,119.2,39z M118.2,37.6c0.7,0,1.4,0,2.1,0c0.2,0,0.3-0.1,0.3-0.3c-0.1-0.8-0.6-1.6-1.4-1.9
		c-1.6-0.6-2.9,0.4-3.2,1.9c0,0.2,0,0.3,0.3,0.3C116.8,37.6,117.5,37.6,118.2,37.6z"/>
	<path class="st1" d="M50.8,37.7c0-1.7,0-3.3,0-5c0-0.3-0.1-0.4-0.4-0.4c-1.1,0-2.2,0-3.3,0c-0.2,0-0.3,0-0.3-0.3c0-0.4,0-0.8,0-1.3
		c0-0.3,0.1-0.4,0.4-0.4c1.7,0,3.5,0,5.2,0c1.4,0,2.9,0,4.3,0c0.3,0,0.4,0,0.3,0.3c0,0.4,0,0.9,0,1.3c0,0.2-0.1,0.3-0.3,0.3
		c-1.1,0-2.2,0-3.4,0c-0.3,0-0.4,0.1-0.4,0.4c0,3.3,0,6.6,0,9.9c0,0.3,0,0.4-0.4,0.4c-0.5,0-1,0-1.5,0c-0.3,0-0.4-0.1-0.4-0.4
		C50.8,41,50.8,39.3,50.8,37.7z"/>
	<path class="st0" d="M125.9,35.6c0.4-0.8,0.9-1.4,1.6-1.7c0.5-0.2,1-0.3,1.5-0.2c0.2,0,0.3,0.1,0.3,0.4c0,0.4,0,0.8,0,1.3
		c0,0.3-0.1,0.4-0.4,0.3c-0.9-0.2-1.7,0.1-2.3,0.9c-0.4,0.6-0.6,1.3-0.6,2c0,1.4,0,2.7,0,4.1c0,0.3-0.1,0.4-0.4,0.4
		c-0.5,0-1,0-1.4,0c-0.2,0-0.3-0.1-0.3-0.3c0-2.9,0-5.7,0-8.6c0-0.2,0.1-0.3,0.3-0.3c0.5,0,0.9,0,1.4,0c0.2,0,0.3,0.1,0.3,0.3
		C125.9,34.6,125.9,35,125.9,35.6z"/>
	<path class="st1" d="M58.4,35.6c0.2-0.5,0.4-0.8,0.7-1.1c0.7-0.6,1.5-0.9,2.5-0.8c0.2,0,0.2,0.1,0.2,0.3c0,0.5,0,1,0,1.5
		c0,0.2,0,0.3-0.2,0.2c-1.7-0.4-3,0.8-3.1,2.8c0,1.4,0,2.8,0,4.3c0,0.3-0.1,0.4-0.4,0.4c-0.4,0-0.9,0-1.3,0c-0.3,0-0.3-0.1-0.3-0.3
		c0-2.2,0-4.3,0-6.5c0-0.7,0-1.4,0-2.1c0-0.2,0.1-0.3,0.3-0.3c0.5,0,0.9,0,1.4,0c0.2,0,0.2,0,0.2,0.2C58.4,34.6,58.4,35,58.4,35.6z"
		/>
	<path class="st3" d="M17.3,51.5c0.1,0.2,0.2,0.2,0.3,0c0.1-0.3,0.1-0.6,0.2-0.8c0-0.1,0-0.2,0.1-0.3c0.1,0.3,0.1,0.5,0.1,0.8
		c0,0.2,0,0.3,0.1,0.5c0.1,0.2,0,0.4-0.1,0.5c-0.3,0.3-0.4,0.6-0.2,1c0.1,0.3,0.1,0.6,0,0.9c-0.2,0.6-0.4,1.2-0.5,1.9
		c-2-1.2-2.8-3.1-1.9-5.3c0.7-1.7,1.8-3,3.1-4.3c0.1-0.1,0.2-0.2,0.3-0.1c0.1,0.1,0,0.2-0.1,0.3c-0.8,0.7-1.4,1.5-1.8,2.5
		c-0.4,1-0.5,2.1,0.2,3.1c0,0.1,0.1,0.1,0.1,0.2C17.1,52,17.2,51.8,17.3,51.5z"/>
	<path class="st4" d="M93.2,49c0,1.2,0,2.4,0,3.6c0,0.3-0.1,0.4-0.3,0.4c-0.3,0-0.3-0.1-0.3-0.3c0-1.5,0-2.9,0-4.4
		c0-0.3,0.1-0.3,0.3-0.3c0.6,0,0.6,0,0.8,0.6c0.4,1.1,0.8,2.1,1.2,3.2c0,0.1,0.1,0.2,0.2,0.4c0.3-0.8,0.6-1.5,0.8-2.2
		c0.2-0.5,0.4-1,0.5-1.5c0.1-0.4,0.3-0.5,0.7-0.5c0.3,0,0.5,0.1,0.5,0.5c0,1.4,0,2.8,0,4.2c0,0.3,0,0.4-0.3,0.4
		c-0.3,0-0.3-0.1-0.3-0.4c0-1.2,0-2.4-0.1-3.6c-0.2,0.6-0.5,1.3-0.7,1.9c-0.2,0.6-0.5,1.2-0.7,1.8c-0.1,0.2-0.2,0.3-0.4,0.3
		c-0.2,0-0.3-0.1-0.4-0.3c-0.4-1.1-0.8-2.2-1.2-3.3C93.4,49.3,93.4,49.1,93.2,49z"/>
	<path class="st4" d="M50.4,50.4c0-0.7,0-1.5,0-2.2c0-0.2,0.1-0.3,0.3-0.3c1,0,1.9,0,2.9,0c0.2,0,0.3,0.1,0.3,0.3
		c0,0.2,0,0.3-0.3,0.3c-0.7,0-1.4,0-2.1,0c-0.3,0-0.4,0.1-0.4,0.3c0,0.3,0,0.6,0,0.9c0,0.2,0.1,0.3,0.3,0.3c0.7,0,1.3,0,2,0
		c0.3,0,0.3,0.1,0.3,0.3c0,0.2-0.1,0.3-0.3,0.3c-0.7,0-1.3,0-2,0c-0.2,0-0.3,0.1-0.3,0.3c0,0.4,0,0.7,0,1.1c0,0.2,0.1,0.3,0.3,0.3
		c0.7,0,1.4,0,2.2,0c0.2,0,0.3,0,0.3,0.3c0,0.2-0.1,0.3-0.3,0.3c-1,0-1.9,0-2.9,0c-0.2,0-0.3-0.1-0.3-0.3
		C50.4,51.9,50.4,51.2,50.4,50.4z"/>
	<path class="st4" d="M142.7,53c-0.4,0-0.8-0.1-1.2-0.3c-0.4-0.2-0.7-0.6-0.8-1c0-0.2-0.2-0.4,0.1-0.5c0.2,0,0.5-0.1,0.5,0.3
		c0,0.4,0.3,0.6,0.6,0.7c0.5,0.2,1,0.2,1.5,0c0.3-0.1,0.5-0.3,0.5-0.7c0-0.4-0.2-0.6-0.5-0.7c-0.4-0.2-0.8-0.2-1.2-0.3
		c-0.2-0.1-0.5-0.1-0.7-0.2c-0.5-0.2-0.8-0.5-0.8-1c0-0.5,0.1-0.9,0.6-1.2c0.6-0.5,1.8-0.5,2.5,0c0.3,0.2,0.5,0.6,0.6,1
		c0,0.1,0.1,0.3-0.1,0.3c-0.2,0-0.4,0.1-0.5-0.1c-0.4-0.8-0.9-1-1.7-0.8c-0.3,0.1-0.5,0.3-0.6,0.7c0,0.4,0.2,0.5,0.5,0.6
		c0.4,0.2,0.8,0.2,1.2,0.3c0.3,0.1,0.5,0.1,0.8,0.3c0.8,0.5,0.9,1.6,0.2,2.2C143.7,53,143.2,53.1,142.7,53z"/>
	<path class="st4" d="M139.9,49.9c0,0.5,0.1,1.1,0,1.7c-0.2,0.8-0.7,1.3-1.5,1.4c-0.3,0-0.6,0-0.9,0c-1-0.1-1.5-0.8-1.6-1.8
		c0-1,0-2,0-3c0-0.3,0.1-0.3,0.4-0.3c0.2,0,0.4,0,0.4,0.3c0,1,0,1.9,0,2.9c0,1.1,0.9,1.7,1.9,1.3c0.5-0.2,0.7-0.6,0.7-1c0-1,0-2,0-3
		c0-0.4,0.2-0.5,0.6-0.4c0.2,0.1,0.1,0.2,0.1,0.3C139.9,48.7,139.9,49.3,139.9,49.9z"/>
	<path class="st4" d="M147.2,47.9c0.2-0.1,0.3,0.1,0.4,0.3c0.5,1.4,1.1,2.9,1.7,4.3c0,0.1,0.2,0.2,0,0.4c-0.2,0.1-0.6,0-0.7-0.2
		c-0.1-0.4-0.3-0.7-0.4-1.1c-0.1-0.2-0.1-0.3-0.3-0.2c-0.5,0-1.1,0-1.6,0c-0.2,0-0.3,0.1-0.3,0.2c-0.1,0.4-0.3,0.7-0.4,1.1
		c-0.1,0.2-0.6,0.3-0.7,0.2c-0.1-0.1,0-0.1,0-0.2c0.6-1.5,1.2-3.1,1.8-4.6C146.8,47.9,147,48,147.2,47.9z M147.2,48.6
		c-0.3,0.8-0.5,1.5-0.8,2.1c-0.1,0.2,0.1,0.1,0.2,0.1c0.4,0,0.8,0,1.2,0c0.2,0,0.2-0.1,0.2-0.2C147.7,50,147.4,49.3,147.2,48.6z"/>
	<path class="st4" d="M58.8,52.5c0,0.5,0,1,0,1.5c0,0.2-0.1,0.3-0.3,0.3c-0.2,0-0.3-0.1-0.3-0.3c0-1.5,0-2.9,0-4.4
		c0-0.2,0-0.4,0.2-0.3c0.2,0,0.5-0.1,0.4,0.4c0.4-0.4,0.9-0.5,1.4-0.5c1.1,0.2,1.6,1.1,1.4,2.4c-0.2,1.1-1,1.6-2,1.4
		C59.3,52.9,59,52.8,58.8,52.5z M58.8,51.1c0,0.2,0,0.5,0.1,0.7c0.2,0.5,0.5,0.7,1,0.7c0.5,0,0.8-0.3,1-0.7c0.1-0.4,0.1-0.9,0-1.3
		c-0.3-0.6-0.9-0.8-1.5-0.5C58.9,50.2,58.8,50.6,58.8,51.1z"/>
	<path class="st4" d="M72.5,52.6c-0.7,0.5-1.4,0.6-2,0.2c-0.7-0.5-0.9-1.2-0.8-2c0.2-1.5,1.4-2.1,2.7-1.2c0,0,0,0,0.1,0
		c0-0.4,0-0.9,0-1.4c0-0.2,0.1-0.3,0.3-0.3c0.3,0,0.3,0.1,0.3,0.3c0,1.4,0,2.9,0,4.3c0,0.1,0.1,0.4-0.2,0.4
		C72.7,53,72.4,53,72.5,52.6z M71.4,49.8c-0.5,0-0.8,0.2-1,0.6c-0.1,0.2-0.1,0.4-0.1,0.7c0,0.9,0.5,1.5,1.2,1.4c0.6,0,0.9-0.5,1-1.2
		C72.5,50.4,72.2,49.8,71.4,49.8z"/>
	<path class="st4" d="M101.4,51.2c0,0.2,0,0.5,0,0.7c0,0.2-0.1,0.5,0.3,0.6c0.1,0,0.1,0.4-0.1,0.5c-0.3,0.1-0.6,0.1-0.8-0.2
		c-0.1-0.2-0.2-0.2-0.3-0.1c-0.4,0.3-0.9,0.4-1.5,0.3c-0.5-0.1-0.7-0.4-0.8-0.9c0-0.4,0.2-0.8,0.6-1c0.4-0.2,0.8-0.2,1.2-0.3
		c0.3-0.1,0.7,0,0.7-0.5c0-0.3-0.3-0.5-0.8-0.5c-0.4,0-0.8,0.1-0.9,0.6c-0.1,0.2-0.3,0.1-0.5,0.1c-0.2,0-0.1-0.2-0.1-0.3
		c0-0.2,0.2-0.4,0.4-0.6c0.5-0.4,1.6-0.4,2.1-0.1c0.3,0.2,0.4,0.5,0.4,0.8C101.4,50.6,101.4,50.9,101.4,51.2z M100.7,51.1
		c-0.5,0.1-0.9,0.1-1.3,0.3C99.1,51.5,99,51.7,99,52c0,0.3,0.3,0.4,0.5,0.4C100.4,52.6,100.8,52.1,100.7,51.1z"/>
	<path class="st4" d="M132,51.3c-0.4,0-0.7,0-1.1,0c-0.2,0-0.2,0-0.2,0.2c0.1,0.5,0.4,0.8,0.8,0.9c0.5,0.1,0.9-0.1,1.1-0.5
		c0.1-0.3,0.4-0.2,0.6-0.1c0.2,0,0,0.2,0,0.3c-0.2,0.6-0.7,0.9-1.4,0.9c-0.7,0-1.2-0.2-1.5-0.8c-0.3-0.6-0.4-1.3-0.1-1.9
		c0.3-0.7,1-1.1,1.7-1.1c0.7,0.1,1.3,0.6,1.5,1.4c0.2,0.7,0.1,0.7-0.5,0.7C132.5,51.3,132.2,51.3,132,51.3z M131.6,50.8
		c0.3,0,0.5,0,0.8,0c0.2,0,0.3-0.1,0.2-0.3c-0.1-0.4-0.5-0.7-1-0.7c-0.4,0-0.8,0.3-0.9,0.7c0,0.2,0,0.3,0.2,0.3
		C131.1,50.8,131.4,50.8,131.6,50.8z"/>
	<path class="st4" d="M64.5,52.6c-0.5,0.4-1,0.6-1.6,0.4c-0.5-0.1-0.7-0.4-0.8-0.9c0-0.5,0.2-0.9,0.6-1c0.4-0.1,0.7-0.2,1.1-0.2
		c0.5-0.1,0.7-0.2,0.7-0.5c0-0.3-0.3-0.5-0.7-0.5c-0.4,0-0.8,0.1-0.9,0.6c-0.1,0.2-0.3,0.1-0.5,0.1c-0.2,0-0.1-0.2-0.1-0.3
		c0-0.2,0.2-0.4,0.4-0.6c0.5-0.4,1.6-0.5,2.1-0.1c0.2,0.2,0.4,0.4,0.4,0.7c0,0.6,0,1.3,0,1.9c0,0.2,0,0.4,0.3,0.4
		c0.1,0,0.1,0.1,0.1,0.2c0,0.1,0,0.3-0.2,0.3C64.9,53.1,64.7,53,64.5,52.6z M64.5,51.5c-0.1-0.1,0.1-0.3-0.1-0.3
		c-0.4,0.1-0.9,0.1-1.3,0.3c-0.2,0.1-0.3,0.3-0.3,0.5c0,0.2,0.1,0.4,0.2,0.4c0.4,0.2,0.7,0.1,1.1-0.1C64.4,52.1,64.5,51.9,64.5,51.5
		z"/>
	<path class="st4" d="M105.2,50.9c0.5-0.4,0.9-0.8,1.2-1.2c0.3-0.4,0.7-0.4,1.2-0.3c-0.4,0.4-0.8,0.8-1.2,1.1
		c-0.2,0.2-0.2,0.3-0.1,0.4c0.5,0.7,0.9,1.3,1.3,2c-0.7,0.1-0.7,0.1-1.1-0.4c-0.3-0.4-0.5-0.8-0.8-1.2c-0.1-0.2-0.2-0.2-0.4,0
		c-0.2,0.2-0.4,0.4-0.3,0.7c0,0.2,0,0.4,0,0.6c0,0.3-0.1,0.4-0.4,0.4c-0.2,0-0.2-0.1-0.2-0.3c0-1.5,0-3,0-4.5c0-0.3,0.1-0.2,0.3-0.2
		c0.2,0,0.3,0,0.3,0.3C105.2,49,105.2,49.9,105.2,50.9z"/>
	<path class="st4" d="M110,51.3c-0.4,0-0.7,0-1.1,0c-0.2,0-0.2,0.1-0.2,0.3c0.1,0.4,0.4,0.8,0.8,0.9c0.5,0.1,0.9-0.1,1.1-0.5
		c0.1-0.2,0.4-0.3,0.6-0.2c0.1,0.1,0,0.2,0,0.3c-0.2,0.6-0.9,1-1.6,1c-1.2-0.1-1.9-1.1-1.6-2.4c0.2-1,1-1.6,2-1.4
		c0.8,0.2,1.4,1.1,1.3,1.9c0,0.2-0.1,0.2-0.2,0.2C110.7,51.3,110.4,51.3,110,51.3z M109.7,50.8c0.2,0,0.5,0,0.7,0
		c0.3,0,0.3-0.1,0.2-0.4c-0.2-0.4-0.6-0.7-1-0.6c-0.4,0-0.7,0.3-0.9,0.7c-0.1,0.2,0,0.3,0.2,0.3C109.1,50.8,109.4,50.8,109.7,50.8z"
		/>
	<path class="st4" d="M126.9,49.8c0.4-0.5,0.9-0.6,1.4-0.5c0.6,0.1,0.9,0.5,0.9,1.1c0,0.8,0,1.6,0,2.4c0,0.2-0.1,0.2-0.3,0.2
		c-0.2,0-0.3,0-0.3-0.2c0-0.6,0-1.3,0-1.9c0-0.7-0.2-0.9-0.7-1c-0.6-0.1-1,0.3-1.1,0.9c-0.1,0.6,0,1.3,0,1.9c0,0.2,0,0.4-0.3,0.4
		c-0.3,0-0.3-0.1-0.3-0.4c0-1.4,0-2.9,0-4.3c0-0.3,0-0.4,0.3-0.4c0.3,0,0.3,0.2,0.3,0.4C126.9,48.8,126.9,49.2,126.9,49.8z"/>
	<path class="st4" d="M83.7,50.9c0,1.6-1.1,2.4-2.4,2c-0.7-0.2-1.1-1-1.1-1.9c0-0.7,0.3-1.3,1-1.6c0.7-0.3,1.3-0.2,1.9,0.2
		C83.6,50,83.7,50.5,83.7,50.9z M83.1,51.1c0-0.9-0.5-1.4-1.2-1.3c-0.6,0.1-0.9,0.5-1,1.3c-0.1,0.8,0.5,1.5,1.2,1.4
		C82.7,52.4,83.1,51.9,83.1,51.1z"/>
	<path class="st4" d="M118,51.1c0-1.8,1.6-2.2,2.6-1.7c0.7,0.4,0.9,1,0.9,1.7c0,1.3-0.9,2.1-2.2,1.8C118.5,52.8,118,52.1,118,51.1z
		 M118.7,51.1c0,0.8,0.5,1.4,1.1,1.3c0.6,0,1.1-0.5,1.1-1.3c0-0.8-0.4-1.3-1-1.4C119.1,49.8,118.7,50.3,118.7,51.1z"/>
	<path class="st4" d="M75.5,48c0.7-0.1,0.7-0.1,1.1,0.4c0.4,0.6,0.8,1.2,1.2,1.9c0.2-0.4,0.5-0.7,0.7-1.1c0.2-0.3,0.4-0.5,0.5-0.8
		c0.2-0.5,0.6-0.6,1-0.5c0,0.1-0.1,0.2-0.1,0.3c-0.5,0.8-1,1.6-1.5,2.4c-0.1,0.2-0.2,0.3-0.2,0.5c0,0.5,0,1,0,1.5
		c0,0.2-0.1,0.3-0.3,0.3c-0.2,0-0.4,0.1-0.4-0.3c0-0.3,0-0.5,0-0.8c0.1-0.7-0.1-1.3-0.6-1.9C76.3,49.4,75.9,48.7,75.5,48z"/>
	<path class="st4" d="M86.8,52.4c-0.4,0.5-0.9,0.7-1.5,0.6c-0.5-0.1-0.8-0.3-0.9-0.9c-0.1-0.6,0-1.2-0.1-1.8c0-0.2,0-0.4,0-0.6
		c0-0.2,0-0.4,0.3-0.4c0.3,0,0.3,0.2,0.3,0.4c0,0.6,0,1.3,0,1.9c0,0.5,0.2,0.8,0.5,0.8c0.4,0.1,0.9-0.1,1.1-0.5
		c0.1-0.2,0.1-0.4,0.1-0.6c0-0.6,0-1.2,0-1.8c0-0.3,0.1-0.3,0.3-0.3c0.3,0,0.3,0.1,0.3,0.3c0,1,0,1.9,0,2.9c0,0.2,0.1,0.4-0.3,0.4
		C86.7,53,86.8,52.7,86.8,52.4z"/>
	<path class="st2" d="M33.1,43.2c0.1,0.6,0.1,0.7-0.6,0.7c0,0-0.1,0-0.1,0c-0.4,0.3-1,0.5-1.2,1.1c-0.3,0.7-0.8,0.8-1.4,0.3
		c-0.1-0.1-0.2-0.3-0.3-0.5c0-0.4-0.1-0.7-0.1-1.1c0-0.5,0.2-0.7,0.7-0.6C31.1,43.4,32.1,43.4,33.1,43.2z"/>
	<path class="st4" d="M54.2,52.9c0.4-0.5,0.7-1.1,1.1-1.6c0.2-0.3,0.2-0.4,0-0.6c-0.3-0.4-0.6-0.8-0.8-1.1c0-0.1-0.1-0.1-0.1-0.2
		c0-0.1,0.2,0,0.2,0c0.3-0.1,0.6,0.1,0.7,0.4c0.2,0.3,0.4,0.6,0.6,0.9c0.2-0.3,0.4-0.6,0.6-0.9c0.2-0.4,0.6-0.4,1-0.4
		c-0.4,0.5-0.7,0.9-1,1.4c-0.2,0.2-0.2,0.3,0,0.5c0.4,0.5,0.8,1.1,1.2,1.6c-0.6,0.1-0.7,0.1-1-0.4c-0.2-0.3-0.4-0.5-0.5-0.8
		c-0.1-0.2-0.2-0.3-0.4,0c-0.2,0.3-0.3,0.5-0.5,0.8C54.8,53,54.8,53,54.2,52.9z"/>
	<path class="st4" d="M66.6,49.8c0.4-0.5,0.9-0.6,1.5-0.5c0.6,0.1,0.9,0.5,0.9,1c0,0.8,0,1.6,0,2.4c0,0.2-0.1,0.2-0.3,0.2
		c-0.2,0-0.3,0-0.3-0.3c0-0.7,0-1.3,0-2c0-0.6-0.2-0.9-0.6-0.9c-0.5-0.1-1,0.2-1.1,0.7c-0.1,0.7-0.1,1.4-0.1,2.1
		c0,0.3-0.1,0.4-0.4,0.4c-0.1,0-0.2-0.1-0.2-0.2c0-1.1,0-2.1,0-3.2c0-0.2,0.1-0.2,0.2-0.2c0.1,0,0.3-0.1,0.3,0.2
		C66.6,49.6,66.6,49.7,66.6,49.8z"/>
	<path class="st4" d="M112.1,51.2c0-0.3,0-0.6,0-1c0-0.2,0-0.4-0.3-0.3c-0.2,0-0.3,0-0.3-0.3c0-0.2,0.1-0.3,0.3-0.3
		c0.2,0,0.3-0.1,0.3-0.3c0-0.1,0-0.3,0-0.4c-0.1-0.3,0.1-0.4,0.4-0.4c0.2,0,0.2,0.1,0.2,0.2c0,0.1,0,0.2,0,0.3c0,0.5,0,0.5,0.5,0.5
		c0.2,0,0.2,0.1,0.2,0.3c0,0.1,0,0.3-0.2,0.3c-0.5,0-0.5,0-0.5,0.5c0,0.5,0,1,0,1.5c0,0.3,0.1,0.5,0.4,0.5c0.3,0,0.3,0.1,0.3,0.3
		c0,0.3-0.1,0.3-0.3,0.3c-0.1,0-0.2,0-0.3,0c-0.5,0-0.7-0.2-0.7-0.8C112.1,51.8,112.1,51.5,112.1,51.2z"/>
	<path class="st4" d="M116.2,51.2c0-0.3,0-0.7,0-1c0-0.2,0-0.3-0.3-0.3c-0.2,0-0.3,0-0.3-0.3c0-0.3,0.1-0.3,0.3-0.3
		c0.2,0,0.3-0.1,0.3-0.3c0-0.1,0-0.3,0-0.4c0-0.2,0-0.4,0.3-0.4c0.3,0,0.3,0.2,0.3,0.4c0,0.1,0,0.1,0,0.2c-0.1,0.4,0,0.6,0.5,0.5
		c0.2,0,0.3,0.1,0.3,0.3c0,0.2-0.1,0.3-0.3,0.2c-0.4-0.1-0.5,0.1-0.5,0.5c0,0.5,0,1.1,0,1.6c0,0.3,0.1,0.5,0.4,0.4
		c0.2,0,0.3,0,0.3,0.3c0,0.2-0.1,0.3-0.3,0.3c-0.1,0-0.2,0-0.4,0c-0.5-0.1-0.7-0.2-0.7-0.7C116.2,51.9,116.2,51.5,116.2,51.2z"/>
	<path class="st4" d="M124.3,51.2c0-0.4,0-0.7,0-1c0-0.2,0-0.3-0.3-0.3c-0.2,0-0.3,0-0.3-0.3c0-0.3,0.1-0.3,0.3-0.3
		c0.2,0,0.3-0.1,0.3-0.3c0-0.1,0-0.3,0-0.4c-0.1-0.3,0.1-0.4,0.4-0.4c0.2,0,0.2,0.1,0.2,0.2c0,0.1,0,0.1,0,0.2c0,0.2,0,0.4,0,0.6
		c0.1,0.2,0.3,0.1,0.5,0.1c0.2,0,0.2,0.2,0.2,0.3c0,0.1,0,0.2-0.2,0.3c-0.5,0-0.5,0-0.5,0.6c0,0.5,0,1,0,1.5c0,0.3,0.1,0.5,0.4,0.4
		c0.2,0,0.3,0,0.3,0.3c0,0.3-0.1,0.3-0.3,0.3c-0.2,0-0.3,0-0.5,0c-0.3,0-0.5-0.2-0.5-0.5C124.3,52,124.4,51.6,124.3,51.2z"/>
	<path class="st4" d="M88.9,49.9c0.3-0.4,0.6-0.6,1-0.6c0.1,0,0.3-0.1,0.3,0.2c0,0.2,0.2,0.5-0.2,0.5c-0.9,0-1.1,0.7-1.1,1.5
		c0,0.5,0,0.9,0,1.4c0,0.2-0.1,0.2-0.3,0.2c-0.2,0-0.3,0.1-0.3-0.2c0-1.1,0-2.1,0-3.2c0-0.2,0.1-0.2,0.3-0.2c0.2,0,0.3,0,0.3,0.3
		C88.8,49.7,88.8,49.8,88.9,49.9z"/>
	<path class="st4" d="M102.9,49.9c0.3-0.3,0.6-0.6,1-0.6c0.1,0,0.3,0,0.3,0.2c0,0.2,0.2,0.5-0.2,0.5c-0.8,0.1-1.1,0.6-1.1,1.4
		c0,0.5,0,0.9,0,1.4c0,0.3-0.1,0.2-0.3,0.3c-0.2,0-0.3,0-0.3-0.3c0-1,0-2.1,0-3.1c0-0.2,0.1-0.3,0.3-0.3c0.2,0,0.4,0,0.3,0.3
		C102.8,49.7,102.8,49.8,102.9,49.9z"/>
	<path class="st3" d="M43.2,46.1c-0.1,0.2-0.3,0.3-0.5,0.5c-0.1,0.2-0.4,0.2-0.5-0.1c-0.1-0.2-0.1-0.3-0.2-0.5c0,0,0-0.1,0-0.1
		c0.3,0,0.3-0.4,0.6-0.5C42.8,45.6,43,45.9,43.2,46.1z"/>
	<path class="st3" d="M45.4,50.1c-0.3-0.2-0.7-0.4-0.8-0.8c0.2,0,0.3,0.2,0.5,0.2C45.3,49.7,45.3,49.9,45.4,50.1z"/>
	<path class="st2" d="M33.8,44.8C33.8,44.8,33.7,44.8,33.8,44.8c-0.3-0.1-0.6-0.1-0.5-0.4c0-0.3,0.3-0.3,0.5-0.3
		C33.8,44.4,33.8,44.6,33.8,44.8z"/>
	<path class="st3" d="M25,46.4c-0.1,0.1-0.1,0.4-0.3,0.3c-0.2-0.1-0.1-0.3-0.1-0.4c0-0.1,0-0.2,0-0.3C24.7,46.1,24.8,46.2,25,46.4z"
		/>
	<path class="st2" d="M21.9,53.9c-0.3,0-0.5-0.2-0.5-0.4c0-0.1,0.1-0.1,0.2-0.1c0.2,0,0.6,0.2,0.6,0.4C22.1,53.9,22,53.9,21.9,53.9z
		"/>
	<path class="st2" d="M40.7,48.3c0.2,0.1,0.4,0.2,0.4,0.4c0,0.1-0.1,0.1-0.2,0.1C40.8,48.7,40.7,48.5,40.7,48.3z"/>
	<path class="st3" d="M39.8,44.8c0,0.3-0.3,0.6-0.5,0.6c-0.3,0-0.4-0.3-0.4-0.5c0-0.2,0-0.5,0-0.7c0-0.1,0-0.2,0.1-0.2
		c0.1,0,0.2,0,0.2,0.1c0.1,0.2,0.2,0.3,0.4,0.4C39.7,44.5,39.8,44.7,39.8,44.8z"/>
	<path class="st1" d="M42.6,47.2c0.2,0.1,0.2,0.2,0.3,0.4c0,0,0,0,0,0C42.6,47.5,42.6,47.4,42.6,47.2C42.5,47.2,42.5,47.2,42.6,47.2
		z"/>
	<path class="st1" d="M42.5,47.2c0,0-0.1-0.1,0-0.1C42.5,47.1,42.5,47.1,42.5,47.2C42.5,47.2,42.5,47.2,42.5,47.2z"/>
	<path class="st1" d="M42.8,47.5C42.9,47.6,42.9,47.6,42.8,47.5C42.8,47.6,42.8,47.6,42.8,47.5C42.8,47.6,42.8,47.6,42.8,47.5z"/>
	<path class="st3" d="M22.4,48.9c-0.2-0.1-0.2-0.2-0.2-0.4c0-0.3,0.4-0.7,0.7-0.6c0.1,0,0.2,0,0.1,0.1
		C22.9,48.3,22.7,48.5,22.4,48.9C22.5,48.8,22.5,48.8,22.4,48.9z"/>
	<path class="st3" d="M23.5,47.9c0.1,0,0.2,0.1,0.2,0.2c-0.1,0.2-0.1,0.5-0.3,0.5c-0.1,0-0.2-0.2-0.2-0.4
		C23.2,48,23.4,47.9,23.5,47.9z"/>
	<path class="st3" d="M23.2,47.2c0,0.1,0,0.2-0.2,0.2c-0.1,0-0.2-0.2-0.2-0.3c0-0.1,0.1-0.2,0.1-0.2C23.1,47,23.2,47.1,23.2,47.2z"
		/>
	<path class="st0" d="M27.5,28.7c0-0.2,0-0.5,0.3-0.6c0.3-0.1,0.5,0.1,0.7,0.3c0.4,0.5,0.8,1,1,1.6c0.1,0.4,0,0.5-0.4,0.5
		C27.9,30.3,27.5,29.9,27.5,28.7z"/>
	<path class="st0" d="M35.8,28.8c0,0.2-0.1,0.4-0.1,0.6c-0.1,0.7-1,1.2-1.7,1c-0.2,0-0.2-0.2-0.2-0.3c0-0.3,0.1-0.6,0.3-0.8
		c0.2-0.3,0.4-0.7,0.7-1c0.2-0.2,0.4-0.4,0.7-0.3C35.7,28.2,35.8,28.5,35.8,28.8z"/>
	<path class="st0" d="M29.8,35.6c0.1,0,0.2,0.1,0.2,0.1c0.4,0.3,0.7,0.6,0.8,1.1c0,0.1,0.1,0.2,0,0.3c-0.1,0.1-0.2,0-0.3,0
		c-0.5-0.3-0.8-0.6-0.9-1.1C29.5,35.8,29.5,35.6,29.8,35.6z"/>
	<path class="st0" d="M32.5,37.1c-0.2,0-0.2-0.1-0.2-0.3c0.2-0.5,0.5-0.9,1-1.2c0.2-0.1,0.4,0,0.3,0.2c-0.2,0.5-0.5,0.9-1,1.2
		C32.6,37.1,32.6,37.1,32.5,37.1z"/>
</g>
</svg>
