<?xml version="1.0" encoding="UTF-8"?>
<svg width="171px" height="36px" viewBox="0 0 171 36" version="1.1" xmlns="http://www.w3.org/2000/svg" xmlns:xlink="http://www.w3.org/1999/xlink">
    <!-- Generator: Sketch 62 (91390) - https://sketch.com -->
    <title>Group 9</title>
    <desc>Created with Sketch.</desc>
    <g id="01-Home-+" stroke="none" stroke-width="1" fill="none" fill-rule="evenodd">
        <g id="1_1440_Home" transform="translate(-919.000000, -8397.000000)" fill-rule="nonzero">
            <g id="Group-3" transform="translate(98.000000, 8059.000000)">
                <g id="Logos" transform="translate(61.000000, 83.000000)">
                    <g id="Ukrainian-moment" transform="translate(760.000000, 255.000000)">
                        <g id="Group-9">
                            <polygon id="SvgjsPath1007" fill="#000000" points="42.5373134 20.4179104 42.5373134 19.5671642 171 19.5671642 171 20.4179104"></polygon>
                            <polygon id="SvgjsPath1008" fill="#1F5F89" points="7.65671642 10.2089552 7.65671642 7.65671642 10.2089552 7.65671642 10.2089552 10.2089552"></polygon>
                            <polygon id="SvgjsPath1009" fill="#1F5F89" points="24.6716418 10.2089552 24.6716418 7.65671642 27.2238806 7.65671642 27.2238806 10.2089552"></polygon>
                            <polygon id="SvgjsPath1010" fill="#1F5F89" points="7.65671642 27.2238806 7.65671642 24.6716418 10.2089552 24.6716418 10.2089552 27.2238806"></polygon>
                            <polygon id="SvgjsPath1011" fill="#1F5F89" points="24.6716418 27.2238806 24.6716418 24.6716418 27.2238806 24.6716418 27.2238806 27.2238806"></polygon>
                            <polygon id="SvgjsPath1012" fill="#1E5F88" points="16.1641791 18.7164179 16.1641791 16.1641791 18.7164179 16.1641791 18.7164179 18.7164179"></polygon>
                            <polygon id="SvgjsPath1013" fill="#F5B432" points="16.1641791 16.1641791 16.1641791 13.6119403 18.7164179 13.6119403 18.7164179 16.1641791"></polygon>
                            <polygon id="SvgjsPath1014" fill="#FFDE00" points="16.1641791 13.6119403 16.1641791 11.0597015 18.7164179 11.0597015 18.7164179 13.6119403"></polygon>
                            <polygon id="SvgjsPath1015" fill="#F5B432" points="13.6119403 18.7164179 13.6119403 16.1641791 16.1641791 16.1641791 16.1641791 18.7164179"></polygon>
                            <polygon id="SvgjsPath1016" fill="#FFDE00" points="13.6119403 16.1641791 13.6119403 13.6119403 16.1641791 13.6119403 16.1641791 16.1641791"></polygon>
                            <polygon id="SvgjsPath1017" fill="#FFDE00" points="11.0597015 18.7164179 11.0597015 16.1641791 13.6119403 16.1641791 13.6119403 18.7164179"></polygon>
                            <polygon id="SvgjsPath1018" fill="#2381BA" points="18.7164179 18.7164179 18.7164179 16.1641791 21.2686567 16.1641791 21.2686567 18.7164179"></polygon>
                            <polygon id="SvgjsPath1019" fill="#2381BA" points="16.1641791 21.2686567 16.1641791 18.7164179 18.7164179 18.7164179 18.7164179 21.2686567"></polygon>
                            <polygon id="SvgjsPath1020" fill="#6EBDEA" points="16.1641791 23.8208955 16.1641791 21.2686567 18.7164179 21.2686567 18.7164179 23.8208955"></polygon>
                            <polygon id="SvgjsPath1021" fill="#6EBDEA" points="13.6119403 21.2686567 13.6119403 18.7164179 16.1641791 18.7164179 16.1641791 21.2686567"></polygon>
                            <polygon id="SvgjsPath1022" fill="#6EBDEA" points="18.7164179 21.2686567 18.7164179 18.7164179 21.2686567 18.7164179 21.2686567 21.2686567"></polygon>
                            <polygon id="SvgjsPath1023" fill="#6EBDEA" points="18.7164179 16.1641791 18.7164179 13.6119403 21.2686567 13.6119403 21.2686567 16.1641791"></polygon>
                            <polygon id="SvgjsPath1024" fill="#6EBDEA" points="21.2686567 18.7164179 21.2686567 16.1641791 23.8208955 16.1641791 23.8208955 18.7164179"></polygon>
                            <polygon id="SvgjsPath1025" fill="#6EBDEA" points="17.1680597 -1.73194792e-13 11.0597015 6.1338806 12.0891045 7.16328358 17.1680597 2.05880597 22.2470149 7.13776119 23.2764179 6.10835821"></polygon>
                            <polygon id="SvgjsPath1026" fill="#6EBDEA" points="7.13776119 12.0891045 6.10835821 11.0597015 1.65201186e-12 17.1680597 6.1338806 23.2764179 7.16328358 22.2470149 2.05880597 17.1680597"></polygon>
                            <polygon id="SvgjsPath1027" fill="#FFDE00" points="17.1680597 33.1791045 12.0891045 28.1001493 11.0597015 29.1295522 17.1680597 35.2379104 23.2764179 29.1040299 22.2470149 28.0746269"></polygon>
                            <polygon id="SvgjsPath1028" fill="#FFDE00" points="29.1040299 11.0597015 28.0746269 12.0891045 33.1791045 17.1680597 28.1001493 22.2470149 29.1295522 23.2764179 35.2379104 17.1680597"></polygon>
                            <path d="M50.6364179,12.8292537 L50.6364179,12.8292537 C50.6789552,12.5144776 50.6789552,12.2337313 50.6789552,11.97 L50.6789552,5.95522388 L49.1986567,5.95522388 L49.1986567,12.0635821 C49.1986567,12.1316418 49.1986567,12.2337313 49.1731343,12.3698507 C49.1731343,12.5144776 49.1476119,12.6591045 49.0965672,12.8292537 C49.0795522,12.999403 49.0029851,13.1610448 48.9604478,13.3567164 C48.8838806,13.5268657 48.7902985,13.6885075 48.671194,13.8076119 C48.5520896,13.9522388 48.3819403,14.0713433 48.1862687,14.1734328 C47.9991045,14.2670149 47.7608955,14.3095522 47.4716418,14.3095522 C47.1823881,14.3095522 46.9441791,14.2670149 46.7570149,14.1734328 C46.5613433,14.0713433 46.391194,13.9522388 46.2720896,13.8076119 C46.1529851,13.6629851 46.0338806,13.5268657 45.9658209,13.331194 C45.8892537,13.1610448 45.8467164,12.999403 45.821194,12.8292537 C45.7956716,12.6591045 45.7701493,12.4974627 45.7701493,12.3698507 C45.7701493,12.2337313 45.7446269,12.1316418 45.7446269,12.0635821 L45.7446269,5.95522388 L44.238806,5.95522388 L44.238806,11.97 C44.238806,12.2337313 44.2643284,12.54 44.2898507,12.8292537 C44.3323881,13.1440299 44.4089552,13.4502985 44.5280597,13.7395522 C44.6471642,14.028806 44.8173134,14.3350746 45.0555224,14.598806 C45.2937313,14.8880597 45.5829851,15.1262687 45.9658209,15.3219403 C46.2040299,15.4410448 46.4422388,15.5346269 46.7059701,15.6026866 C46.9697015,15.6537313 47.2079104,15.7047761 47.4716418,15.7047761 C47.9991045,15.7047761 48.5265672,15.5856716 48.9774627,15.3219403 C49.3602985,15.1262687 49.6750746,14.8625373 49.9132836,14.598806 C50.1344776,14.3350746 50.3216418,14.028806 50.4407463,13.7395522 C50.5343284,13.4247761 50.6108955,13.1440299 50.6364179,12.8292537 L50.6364179,12.8292537 Z" id="SvgjsPath1029" fill="#000000"></path>
                            <path d="M57.4764179,8.73716418 C57.3573134,9.00089552 57.238209,9.21358209 57.0935821,9.38373134 C56.9744776,9.51985075 56.8298507,9.66447761 56.7107463,9.74104478 C56.5916418,9.83462687 56.4470149,9.88567164 56.3023881,9.90268657 C56.1577612,9.92820896 55.9961194,9.95373134 55.8259701,9.95373134 L55.1028358,9.95373134 L55.1028358,6.00626866 L53.5970149,6.00626866 L53.5970149,15.628209 L55.1028358,15.628209 L55.1028358,11.3659701 L56.8298507,11.3659701 C57.1871642,11.3659701 57.4764179,11.4425373 57.6891045,11.5616418 C57.8847761,11.6807463 58.0549254,11.8253731 58.1485075,12.0125373 C58.2420896,12.208209 58.3186567,12.3953731 58.3356716,12.5910448 C58.361194,12.8037313 58.361194,12.9738806 58.361194,13.1185075 L58.361194,15.628209 L59.8755224,15.628209 L59.8755224,13.1185075 C59.8755224,12.5910448 59.7989552,12.1316418 59.6798507,11.7743284 C59.5607463,11.4170149 59.390597,11.1277612 59.2034328,10.9150746 C59.0077612,10.6938806 58.7950746,10.5322388 58.5568657,10.4131343 C58.4122388,10.3365672 58.2931343,10.2940299 58.1485075,10.2429851 C58.2165672,10.1919403 58.2931343,10.1238806 58.3356716,10.0473134 C58.4547761,9.92820896 58.5568657,9.80910448 58.6504478,9.64746269 C58.7440299,9.50283582 58.8461194,9.33268657 58.9397015,9.12 C59.0332836,8.92432836 59.1523881,8.6861194 59.2714925,8.42238806 L60.3944776,5.95522388 L58.7185075,5.95522388 L57.4764179,8.73716418 Z" id="SvgjsPath1030" fill="#000000"></path>
                            <path d="M65.311791,10.8640299 L63.9250746,10.8640299 L63.9250746,12.2762687 L65.1501493,12.2762687 C65.4053731,12.2762687 65.6946269,12.2762687 65.9838806,12.2507463 C66.2731343,12.2337313 66.5623881,12.1571642 66.8261194,12.0635821 C67.1068657,11.97 67.370597,11.7998507 67.608806,11.6041791 C67.8725373,11.4170149 68.0937313,11.1277612 68.2808955,10.7704478 C68.4,10.5322388 68.5020896,10.2685075 68.5701493,10.0302985 C68.621194,9.76656716 68.6467164,9.50283582 68.6467164,9.23910448 C68.6467164,8.80522388 68.5701493,8.37134328 68.4255224,7.98850746 C68.2808955,7.58014925 68.0937313,7.24835821 67.8044776,6.93358209 C67.5407463,6.62731343 67.1834328,6.38910448 66.7750746,6.21895522 C66.3667164,6.04880597 65.8902985,5.95522388 65.3628358,5.95522388 C64.8864179,5.95522388 64.4525373,6.02328358 64.0441791,6.19343284 C63.6613433,6.3380597 63.3040299,6.57626866 63.0147761,6.86552239 C62.7255224,7.15477612 62.5128358,7.53761194 62.3426866,7.96298507 C62.1725373,8.39686567 62.1044776,8.87328358 62.1044776,9.42626866 L62.1044776,15.7047761 L63.6102985,15.7047761 L63.6102985,9.35820896 C63.6102985,8.77970149 63.7549254,8.27776119 64.0697015,7.92044776 C64.3759701,7.53761194 64.7843284,7.36746269 65.3373134,7.36746269 C65.6265672,7.36746269 65.8902985,7.41850746 66.1029851,7.51208955 C66.3156716,7.60567164 66.4858209,7.75029851 66.6304478,7.92044776 C66.7750746,8.09059701 66.8686567,8.27776119 66.9452239,8.51597015 C67.0132836,8.73716418 67.0643284,8.97537313 67.0643284,9.21358209 C67.0643284,9.71552239 66.9197015,10.0983582 66.579403,10.4131343 C66.341194,10.719403 65.9158209,10.8640299 65.311791,10.8640299 Z" id="SvgjsPath1031" fill="#000000"></path>
                            <path d="M78.1665672,15.7302985 L78.1665672,9.54537313 C78.1665672,9.09447761 78.0985075,8.63507463 77.9283582,8.20970149 C77.7837313,7.7758209 77.5455224,7.39298507 77.2562687,7.05268657 C76.9670149,6.72089552 76.6097015,6.45716418 76.2013433,6.27 C75.8014925,6.07432836 75.3165672,5.95522388 74.8146269,5.95522388 C74.2871642,5.95522388 73.8362687,6.04880597 73.4279104,6.27 C73.0195522,6.45716418 72.6622388,6.74641791 72.3729851,7.05268657 C72.0837313,7.39298507 71.8710448,7.7758209 71.7008955,8.20970149 C71.5562687,8.63507463 71.4626866,9.09447761 71.4626866,9.54537313 L71.4626866,15.7302985 L72.9685075,15.7302985 L72.9685075,9.57089552 C72.9685075,9.21358209 73.0195522,8.87328358 73.1386567,8.60955224 C73.2322388,8.35432836 73.3768657,8.10761194 73.5470149,7.92044776 C73.7171642,7.75029851 73.9043284,7.60567164 74.1170149,7.51208955 C74.6274627,7.31641791 75.1549254,7.3419403 75.5377612,7.56313433 C75.7504478,7.68223881 75.9376119,7.82686567 76.1077612,8.01402985 C76.2779104,8.20970149 76.3970149,8.44791045 76.4650746,8.71164179 C76.5671642,8.97537313 76.6097015,9.2561194 76.6097015,9.57089552 L76.6097015,10.0473134 L73.2152239,10.0473134 L73.2152239,11.4595522 L76.6097015,11.4595522 L76.6097015,15.7302985 L78.1665672,15.7302985 Z" id="SvgjsPath1032" fill="#000000"></path>
                            <path d="M83.3986567,4.26223881 C83.3986567,4.02402985 83.2965672,3.81134328 83.1604478,3.64119403 L83.1604478,3.64119403 C82.9902985,3.47104478 82.7691045,3.40298507 82.5308955,3.40298507 C82.2926866,3.40298507 82.08,3.49656716 81.9098507,3.64119403 C81.7397015,3.7858209 81.6716418,4.02402985 81.6716418,4.26223881 C81.6716418,4.50044776 81.7652239,4.72164179 81.9098507,4.89179104 C82.08,5.05343284 82.2926866,5.13 82.5308955,5.13 C82.7691045,5.13 82.9902985,5.02791045 83.1604478,4.89179104 C83.3220896,4.74716418 83.3986567,4.52597015 83.3986567,4.26223881 Z" id="SvgjsPath1033" fill="#000000"></path>
                            <path d="M79.9786567,5.98074627 C80.2168657,5.98074627 80.4380597,5.87865672 80.608209,5.74253731 C80.7698507,5.59791045 80.8464179,5.35119403 80.8464179,5.11298507 C80.8464179,4.87477612 80.7443284,4.66208955 80.608209,4.4919403 C80.4380597,4.32179104 80.2168657,4.25373134 79.9786567,4.25373134 C79.7404478,4.25373134 79.5277612,4.34731343 79.3576119,4.4919403 C79.1874627,4.66208955 79.119403,4.87477612 79.119403,5.11298507 C79.119403,5.35119403 79.2129851,5.57238806 79.3576119,5.74253731 C79.5277612,5.87865672 79.7404478,5.98074627 79.9786567,5.98074627 Z" id="SvgjsPath1034" fill="#000000"></path>
                            <polygon id="SvgjsPath1035" fill="#000000" points="80.8208955 15.3134328 80.8208955 5.95522388 82.5223881 5.95522388 82.5223881 15.3134328"></polygon>
                            <polygon id="SvgjsPath1036" fill="#000000" points="85.7297015 11.3234328 89.5665672 11.3234328 89.5665672 15.5856716 91.0723881 15.5856716 91.0723881 5.95522388 89.5665672 5.95522388 89.5665672 9.90268657 85.7297015 9.90268657 85.7297015 5.95522388 84.2238806 5.95522388 84.2238806 15.5856716 85.7297015 15.5856716"></polygon>
                            <path d="M97.2913433,6.16791045 C96.7638806,6.31253731 96.2619403,6.50820896 95.8365672,6.79746269 C95.5728358,6.95910448 95.2835821,7.18029851 95.0198507,7.41850746 C94.7561194,7.68223881 94.5179104,7.96298507 94.2967164,8.27776119 C94.0840299,8.60955224 93.9138806,9.00089552 93.7777612,9.40074627 C93.6501493,9.80910448 93.5820896,10.2940299 93.5820896,10.7704478 C93.5820896,11.2213433 93.6331343,11.6552239 93.7522388,12.0891045 C93.8458209,12.5144776 94.0329851,12.9483582 94.2797015,13.331194 C94.5859701,13.8331343 94.9432836,14.2414925 95.3091045,14.5562687 C95.6919403,14.8370149 96.0747761,15.0837313 96.4831343,15.2198507 C96.8829851,15.3644776 97.2743284,15.4665672 97.6741791,15.5091045 C98.0570149,15.5601493 98.4228358,15.5856716 98.7291045,15.5856716 L99.7159701,15.5856716 L99.7159701,14.1734328 L98.5674627,14.1734328 C98.3462687,14.1734328 98.1080597,14.1479104 97.8698507,14.1223881 C97.6316418,14.0968657 97.3679104,14.028806 97.1297015,13.9267164 C96.8659701,13.8331343 96.6277612,13.6885075 96.3810448,13.5268657 C96.1428358,13.3567164 95.9301493,13.0929851 95.7174627,12.778209 C95.521791,12.4974627 95.3771642,12.1826866 95.2835821,11.8253731 C95.19,11.4850746 95.1389552,11.1277612 95.1389552,10.7704478 C95.1389552,10.1919403 95.2580597,9.66447761 95.521791,9.16253731 C95.6408955,8.94985075 95.7855224,8.73716418 95.981194,8.51597015 C96.1683582,8.30328358 96.4065672,8.10761194 96.6702985,7.94597015 C96.9340299,7.7758209 97.248806,7.63119403 97.580597,7.53761194 C97.9208955,7.44402985 98.3037313,7.36746269 98.7291045,7.36746269 L99.7329851,7.36746269 L99.7329851,5.95522388 L98.8992537,5.95522388 C98.3462687,5.95522388 97.818806,6.02328358 97.2913433,6.16791045 L97.2913433,6.16791045 Z" id="SvgjsPath1037" fill="#000000"></path>
                            <path d="M108.172388,9.92820896 L108.172388,9.92820896 C107.883134,9.6219403 107.525821,9.35820896 107.117463,9.1880597 C106.69209,9.00089552 106.181642,8.89880597 105.611642,8.89880597 C105.441493,8.89880597 105.296866,8.89880597 105.152239,8.92432836 C105.007612,8.94985075 104.888507,8.94985075 104.769403,9.00089552 C104.650299,9.01791045 104.505672,9.06895522 104.386567,9.12 C104.267463,9.16253731 104.122836,9.21358209 103.935672,9.28164179 L103.859104,9.30716418 L103.859104,10.8640299 L104.029254,10.7704478 C104.292985,10.6513433 104.531194,10.5322388 104.794925,10.4556716 C105.322388,10.2940299 105.900896,10.2940299 106.351791,10.481194 C106.59,10.5747761 106.785672,10.719403 106.947313,10.8895522 C107.117463,11.0597015 107.236567,11.2723881 107.338657,11.510597 C107.432239,11.748806 107.474776,12.0380597 107.474776,12.3273134 C107.474776,12.5910448 107.457761,12.8292537 107.381194,13.0164179 C107.313134,13.2120896 107.236567,13.3822388 107.142985,13.5268657 C107.049403,13.6629851 106.930299,13.790597 106.828209,13.8586567 C106.709104,13.9522388 106.59,14.028806 106.470896,14.0968657 C106.300746,14.1734328 106.139104,14.2159701 105.968955,14.2670149 C105.560597,14.3350746 105.135224,14.3350746 104.743881,14.1904478 C104.488657,14.0968657 104.267463,13.9777612 104.097313,13.8076119 C103.961194,13.6459701 103.84209,13.4758209 103.765522,13.2801493 C103.697463,13.0929851 103.646418,12.8973134 103.620896,12.7101493 C103.595373,12.5144776 103.595373,12.3273134 103.595373,12.1571642 L103.595373,5.95522388 L102.089552,5.95522388 L102.089552,12.1826866 C102.089552,12.3698507 102.115075,12.6335821 102.140597,12.9483582 C102.157612,13.2631343 102.259701,13.5949254 102.378806,13.9097015 C102.523433,14.2414925 102.710597,14.5562687 102.999851,14.8370149 C103.289104,15.1262687 103.67194,15.3644776 104.148358,15.5346269 C104.361045,15.6026866 104.556716,15.6537313 104.769403,15.6792537 C104.990597,15.7047761 105.203284,15.7047761 105.390448,15.7047761 C105.637164,15.7047761 105.900896,15.6792537 106.139104,15.6537313 C106.377313,15.6026866 106.615522,15.5601493 106.853731,15.4665672 C107.525821,15.2028358 108.053284,14.7944776 108.410597,14.1904478 C108.76791,13.6204478 108.963582,12.9483582 108.963582,12.2337313 C108.963582,11.8253731 108.887015,11.4170149 108.750896,11.0086567 C108.648806,10.6002985 108.436119,10.2429851 108.172388,9.92820896 L108.172388,9.92820896 Z" id="SvgjsPath1038" fill="#000000"></path>
                            <path d="M114.476418,8.73716418 C114.357313,9.00089552 114.238209,9.21358209 114.093582,9.38373134 C113.974478,9.51985075 113.829851,9.66447761 113.710746,9.74104478 C113.591642,9.83462687 113.447015,9.88567164 113.302388,9.90268657 C113.157761,9.92820896 112.996119,9.95373134 112.82597,9.95373134 L112.102836,9.95373134 L112.102836,6.00626866 L110.597015,6.00626866 L110.597015,15.628209 L112.102836,15.628209 L112.102836,11.3659701 L113.829851,11.3659701 C114.187164,11.3659701 114.476418,11.4425373 114.689104,11.5616418 C114.884776,11.6807463 115.054925,11.8253731 115.148507,12.0125373 C115.24209,12.208209 115.318657,12.3953731 115.335672,12.5910448 C115.361194,12.8037313 115.361194,12.9738806 115.361194,13.1185075 L115.361194,15.628209 L116.875522,15.628209 L116.875522,13.1185075 C116.875522,12.5910448 116.798955,12.1316418 116.679851,11.7743284 C116.560746,11.4170149 116.390597,11.1277612 116.203433,10.9150746 C116.007761,10.6938806 115.795075,10.5322388 115.556866,10.4131343 C115.412239,10.3365672 115.293134,10.2940299 115.148507,10.2429851 C115.216567,10.1919403 115.293134,10.1238806 115.335672,10.0473134 C115.454776,9.92820896 115.556866,9.80910448 115.650448,9.64746269 C115.74403,9.50283582 115.846119,9.33268657 115.939701,9.12 C116.033284,8.92432836 116.152388,8.6861194 116.271493,8.42238806 L117.394478,5.95522388 L115.718507,5.95522388 L114.476418,8.73716418 Z" id="SvgjsPath1039" fill="#000000"></path>
                            <path d="M121.750299,10.0473134 L121.750299,11.4595522 L125.153284,11.4595522 L125.153284,15.7302985 L126.659104,15.7302985 L126.659104,9.54537313 C126.659104,9.09447761 126.591045,8.63507463 126.420896,8.20970149 C126.276269,7.7758209 126.03806,7.39298507 125.748806,7.05268657 C125.459552,6.72089552 125.102239,6.45716418 124.693881,6.27 C124.29403,6.07432836 123.809104,5.95522388 123.307164,5.95522388 C122.779701,5.95522388 122.328806,6.04880597 121.920448,6.27 C121.51209,6.45716418 121.154776,6.74641791 120.865522,7.05268657 C120.576269,7.39298507 120.363582,7.7758209 120.193433,8.20970149 C120.048806,8.63507463 119.955224,9.09447761 119.955224,9.54537313 L119.955224,15.7302985 L121.461045,15.7302985 L121.461045,9.57089552 C121.461045,9.21358209 121.51209,8.87328358 121.631194,8.60955224 C121.724776,8.35432836 121.869403,8.10761194 122.039552,7.92044776 C122.209701,7.75029851 122.396866,7.60567164 122.609552,7.51208955 C123.12,7.31641791 123.62194,7.3419403 124.030299,7.56313433 C124.242985,7.68223881 124.430149,7.82686567 124.600299,8.01402985 C124.770448,8.20970149 124.889552,8.44791045 124.957612,8.71164179 C125.059701,8.97537313 125.102239,9.2561194 125.102239,9.57089552 L125.102239,10.0473134 L121.750299,10.0473134 Z" id="SvgjsPath1040" fill="#000000"></path>
                            <path d="M142.270299,6.95910448 C142.244776,6.79746269 142.176716,6.62731343 142.083134,6.48268657 C141.981045,6.3380597 141.86194,6.21895522 141.717313,6.09985075 C141.555672,6.00626866 141.36,5.95522388 141.121791,5.95522388 C140.909104,5.95522388 140.738955,6.00626866 140.594328,6.07432836 C140.449701,6.16791045 140.330597,6.27 140.237015,6.4061194 C140.143433,6.55074627 140.066866,6.69537313 139.998806,6.86552239 C139.947761,7.03567164 139.879701,7.18029851 139.828657,7.3419403 L138.059104,13.1865672 L136.281045,7.3419403 C136.238507,7.18029851 136.187463,7.03567164 136.119403,6.86552239 C136.042836,6.69537313 135.974776,6.55074627 135.881194,6.4061194 C135.779104,6.27 135.66,6.16791045 135.515373,6.07432836 C135.370746,5.98074627 135.183582,5.95522388 134.98791,5.95522388 C134.749701,5.95522388 134.537015,6.00626866 134.392388,6.09985075 C134.247761,6.19343284 134.103134,6.31253731 134.035075,6.48268657 C133.941493,6.62731343 133.890448,6.79746269 133.839403,6.95910448 C133.813881,7.12925373 133.796866,7.2738806 133.771343,7.39298507 L132.716418,15.7302985 L134.273284,15.7302985 L135.132537,8.56701493 L136.978657,14.6753731 C137.029701,14.82 137.072239,14.9816418 137.123284,15.1007463 C137.174328,15.2453731 137.242388,15.3644776 137.318955,15.4835821 C137.387015,15.6026866 137.506119,15.6792537 137.625224,15.7473134 C137.744328,15.8238806 137.888955,15.849403 138.059104,15.849403 C138.220746,15.849403 138.365373,15.8238806 138.484478,15.7473134 C138.61209,15.6792537 138.705672,15.5856716 138.799254,15.4835821 C138.867313,15.39 138.943881,15.2453731 138.994925,15.1007463 C139.037463,14.9561194 139.088507,14.82 139.131045,14.6753731 L140.977164,8.56701493 L141.844925,15.7302985 L143.401791,15.7302985 L142.346866,7.39298507 C142.346866,7.2738806 142.321343,7.12925373 142.270299,6.95910448 L142.270299,6.95910448 Z" id="SvgjsPath1041" fill="#000000"></path>
                            <path d="M150.063134,8.35432836 C150.114179,8.27776119 150.131194,8.22671642 150.182239,8.15865672 L150.182239,8.15865672 L150.182239,15.7047761 L151.68806,15.7047761 L151.68806,7.51208955 C151.68806,7.31641791 151.671045,7.10373134 151.645522,6.93358209 C151.62,6.74641791 151.568955,6.57626866 151.500896,6.43164179 C151.424328,6.28701493 151.305224,6.15089552 151.169104,6.07432836 C151.024478,5.98074627 150.828806,5.95522388 150.616119,5.95522388 C150.275821,5.95522388 149.995075,6.07432836 149.773881,6.28701493 C149.561194,6.50820896 149.365522,6.81447761 149.152836,7.2738806 L146.396418,13.0674627 C146.302836,13.2801493 146.234776,13.4502985 146.158209,13.569403 C146.132687,13.5949254 146.132687,13.6204478 146.115672,13.6459701 C146.115672,13.6204478 146.115672,13.569403 146.115672,13.5438806 L146.132687,6.07432836 L144.626866,6.07432836 L144.626866,14.2670149 C144.626866,14.4541791 144.626866,14.6753731 144.652388,14.8370149 C144.67791,15.0326866 144.720448,15.2028358 144.797015,15.3474627 C144.865075,15.4835821 144.984179,15.628209 145.128806,15.7047761 C145.273433,15.7983582 145.469104,15.849403 145.681791,15.849403 C145.868955,15.849403 146.039104,15.8238806 146.183731,15.7473134 C146.328358,15.6792537 146.447463,15.5856716 146.566567,15.4665672 C146.660149,15.3474627 146.779254,15.2028358 146.855821,15.058209 C146.949403,14.9135821 147.02597,14.7434328 147.119552,14.5562687 L149.87597,8.77970149 C149.892985,8.73716418 149.918507,8.6861194 149.94403,8.60955224 C149.995075,8.49044776 150.037612,8.42238806 150.063134,8.35432836 L150.063134,8.35432836 Z" id="SvgjsPath1042" fill="#000000"></path>
                            <polygon id="SvgjsPath1043" fill="#000000" points="153.985075 7.39298507 156.333134 7.39298507 156.333134 15.5856716 157.813433 15.5856716 157.813433 7.39298507 160.161493 7.39298507 160.161493 5.95522388 153.985075 5.95522388"></polygon>
                            <path d="M166.457015,15.4665672 C167.129104,15.2028358 167.656567,14.7944776 168.013881,14.1904478 C168.371194,13.6204478 168.566866,12.9483582 168.566866,12.2337313 C168.566866,11.8253731 168.490299,11.4170149 168.345672,11.0086567 C168.201045,10.6002985 167.988358,10.2429851 167.724627,9.92820896 C167.435373,9.6219403 167.07806,9.35820896 166.669701,9.1880597 C166.244328,9.00089552 165.733881,8.89880597 165.163881,8.89880597 C164.993731,8.89880597 164.849104,8.89880597 164.704478,8.92432836 C164.559851,8.94985075 164.440746,8.94985075 164.321642,9.00089552 C164.202537,9.01791045 164.05791,9.06895522 163.938806,9.12 C163.819701,9.16253731 163.675075,9.21358209 163.48791,9.28164179 L163.411343,9.30716418 L163.411343,10.8640299 L163.581493,10.7704478 C163.845224,10.6513433 164.083433,10.5322388 164.347164,10.4556716 C164.874627,10.2940299 165.453134,10.2940299 165.90403,10.481194 C166.142239,10.5747761 166.33791,10.719403 166.499552,10.8895522 C166.669701,11.0597015 166.788806,11.2723881 166.890896,11.510597 C166.984478,11.748806 167.027015,12.0380597 167.027015,12.3273134 C167.027015,12.5910448 167.01,12.8292537 166.933433,13.0164179 C166.865373,13.2120896 166.788806,13.3822388 166.695224,13.5268657 C166.601642,13.6629851 166.482537,13.790597 166.380448,13.8586567 C166.261343,13.9522388 166.142239,14.028806 166.023134,14.0968657 C165.852985,14.1734328 165.691343,14.2159701 165.521194,14.2670149 C165.112836,14.3350746 164.687463,14.3350746 164.296119,14.1904478 C164.040896,14.0968657 163.819701,13.9777612 163.649552,13.8076119 C163.513433,13.6459701 163.394328,13.4758209 163.317761,13.2801493 C163.249701,13.0929851 163.198657,12.8973134 163.173134,12.7101493 C163.147612,12.5144776 163.147612,12.3273134 163.147612,12.1571642 L163.147612,5.95522388 L161.641791,5.95522388 L161.641791,12.1826866 C161.641791,12.3698507 161.667313,12.6335821 161.692836,12.9483582 C161.709851,13.2631343 161.81194,13.5949254 161.931045,13.9097015 C162.075672,14.2414925 162.262836,14.5562687 162.55209,14.8370149 C162.841343,15.1262687 163.224179,15.3644776 163.700597,15.5346269 C163.913284,15.6026866 164.108955,15.6537313 164.321642,15.6792537 C164.542836,15.7047761 164.755522,15.7047761 164.942687,15.7047761 C165.189403,15.7047761 165.453134,15.6792537 165.691343,15.6537313 C165.997612,15.628209 166.244328,15.5601493 166.457015,15.4665672 L166.457015,15.4665672 Z" id="SvgjsPath1044" fill="#000000"></path>
                            <polygon id="SvgjsPath1045" fill="#000000" points="47.7949254 25.8116418 45.948806 25.8116418 45.948806 23.8208955 45.0895522 23.8208955 45.0895522 28.8232836 45.948806 28.8232836 45.948806 26.6708955 47.7949254 26.6708955 47.7949254 28.8232836 48.6797015 28.8232836 48.6797015 23.8208955 47.7949254 23.8208955"></polygon>
                            <path d="M53.2141791,24.4164179 C53.0695522,24.2462687 52.8738806,24.1016418 52.661194,23.9825373 C52.2273134,23.7698507 51.631791,23.7698507 51.1979104,23.9825373 C50.9852239,24.0761194 50.7895522,24.2207463 50.6449254,24.4164179 C50.508806,24.5780597 50.3897015,24.7992537 50.3131343,25.0119403 C50.2450746,25.2246269 50.1940299,25.4713433 50.1940299,25.7095522 L50.1940299,28.9168657 L51.078806,28.9168657 L51.078806,25.7350746 C51.078806,25.539403 51.1043284,25.3947761 51.1553731,25.2501493 C51.1979104,25.1055224 51.2744776,25.0119403 51.3425373,24.9183582 C51.4191045,24.8247761 51.5126866,24.7737313 51.6062687,24.7226866 C51.8444776,24.6291045 52.0826866,24.6546269 52.2783582,24.748209 C52.3719403,24.7992537 52.4655224,24.8673134 52.5420896,24.9608955 C52.6101493,25.0629851 52.6867164,25.1820896 52.7122388,25.301194 C52.7547761,25.4202985 52.7802985,25.5649254 52.7802985,25.7350746 L52.7802985,25.9222388 L51.0532836,25.9222388 L51.0532836,26.7644776 L52.7802985,26.7644776 L52.7802985,28.9423881 L53.6650746,28.9423881 L53.6650746,25.7350746 C53.6650746,25.4883582 53.6225373,25.2501493 53.5459701,25.0374627 C53.4779104,24.7992537 53.358806,24.5780597 53.2141791,24.4164179 L53.2141791,24.4164179 Z" id="SvgjsPath1046" fill="#000000"></path>
                            <path d="M57.7997015,27.9895522 L57.7997015,27.9895522 C57.7316418,27.9895522 57.6550746,27.9895522 57.5870149,27.9640299 C57.5104478,27.9385075 57.4679104,27.9129851 57.3913433,27.8959701 C57.348806,27.8704478 57.2722388,27.819403 57.2297015,27.7683582 C57.1786567,27.7258209 57.1276119,27.6492537 57.110597,27.6067164 C57.0850746,27.5301493 57.0595522,27.4620896 57.0595522,27.3855224 C57.0340299,27.3174627 57.0340299,27.249403 57.0340299,27.1728358 C57.0340299,27.1047761 57.0340299,27.028209 57.0340299,26.9856716 L57.0340299,23.8208955 L56.1492537,23.8208955 L56.1492537,27.0792537 C56.1492537,27.3174627 56.1747761,27.5556716 56.2173134,27.7938806 C56.2683582,28.0320896 56.4129851,28.2532836 56.6256716,28.4404478 C56.7277612,28.5425373 56.8468657,28.610597 56.9659701,28.6786567 C57.0850746,28.7297015 57.2041791,28.7807463 57.2977612,28.8062687 C57.4168657,28.8232836 57.5359701,28.848806 57.6380597,28.848806 C57.7571642,28.848806 57.8507463,28.848806 57.9698507,28.848806 L59.501194,28.848806 L59.501194,29.8101493 L60.3434328,29.8101493 L60.3434328,27.9895522 L58.0379104,27.9895522 C57.9698507,27.9895522 57.8762687,27.9895522 57.7997015,27.9895522 L57.7997015,27.9895522 Z" id="SvgjsPath1047" fill="#000000"></path>
                            <polygon id="SvgjsPath1048" fill="#000000" points="58.7014925 28.0746269 58.7014925 23.8208955 59.5522388 23.8208955 59.5522388 28.0746269"></polygon>
                            <polygon id="SvgjsPath1049" fill="#000000" points="62.1044776 28.9253731 62.1044776 23.8208955 62.9552239 23.8208955 62.9552239 28.9253731"></polygon>
                            <path d="M69.1146269,24.5695522 C68.8679104,24.3313433 68.5871642,24.161194 68.2723881,24.0165672 C67.6513433,23.7528358 66.911194,23.7528358 66.2816418,24.0165672 C65.9753731,24.161194 65.6861194,24.3313433 65.4479104,24.5695522 C65.2097015,24.8077612 65.0140299,25.0714925 64.869403,25.3862687 C64.7247761,25.6925373 64.6567164,26.0328358 64.6567164,26.3901493 C64.6567164,26.7474627 64.7247761,27.0877612 64.869403,27.3940299 C65.0140299,27.708806 65.2097015,27.9725373 65.4479104,28.2107463 C65.6861194,28.4489552 65.9753731,28.6191045 66.2816418,28.7637313 C66.5964179,28.9083582 66.928209,28.9508955 67.2940299,28.9508955 C67.6513433,28.9508955 67.9576119,28.8828358 68.2979104,28.7637313 C68.6041791,28.6191045 68.8934328,28.4489552 69.1316418,28.2107463 C69.3783582,27.9725373 69.5655224,27.708806 69.7101493,27.3940299 C69.8547761,27.0877612 69.9228358,26.7474627 69.9228358,26.3901493 C69.9228358,26.0328358 69.8547761,25.6925373 69.7101493,25.3862687 C69.54,25.0714925 69.3528358,24.8077612 69.1146269,24.5695522 Z M68.9955224,26.3901493 C68.9955224,26.6283582 68.9444776,26.8410448 68.8679104,27.0622388 C68.7743284,27.2749254 68.6552239,27.470597 68.510597,27.6067164 C68.3659701,27.7768657 68.178806,27.8959701 67.9576119,27.9980597 C67.5577612,28.1852239 67.0302985,28.1852239 66.6219403,27.9980597 C66.4092537,27.8959701 66.2391045,27.7768657 66.0689552,27.6067164 C65.9243284,27.4450746 65.8052239,27.2749254 65.7116418,27.0622388 C65.6180597,26.8410448 65.5925373,26.6283582 65.5925373,26.3901493 C65.5925373,26.1519403 65.6350746,25.9307463 65.7116418,25.7180597 C65.8052239,25.5053731 65.9243284,25.3097015 66.0689552,25.1650746 C66.2135821,25.0034328 66.4092537,24.8843284 66.6219403,24.7822388 C66.8346269,24.6886567 67.0558209,24.6376119 67.2940299,24.6376119 C67.5322388,24.6376119 67.7449254,24.6886567 67.9576119,24.7822388 C68.178806,24.8843284 68.3489552,25.0034328 68.510597,25.1650746 C68.6552239,25.3352239 68.7743284,25.5053731 68.8679104,25.7180597 C68.9444776,25.9307463 68.9955224,26.1774627 68.9955224,26.3901493 Z" id="SvgjsPath1050" fill="#000000"></path>
                            <polygon id="SvgjsPath1051" fill="#000000" points="75.0443284 25.8116418 73.198209 25.8116418 73.198209 23.8208955 72.3134328 23.8208955 72.3134328 28.8232836 73.198209 28.8232836 73.198209 26.6708955 75.0443284 26.6708955 75.0443284 28.8232836 75.9291045 28.8232836 75.9291045 23.8208955 75.0443284 23.8208955"></polygon>
                            <path d="M80.4380597,24.4164179 C80.2934328,24.2462687 80.0977612,24.1016418 79.8850746,23.9825373 C79.451194,23.7698507 78.8556716,23.7698507 78.421791,23.9825373 C78.2091045,24.0761194 78.0134328,24.2207463 77.868806,24.4164179 C77.7326866,24.5780597 77.6135821,24.7992537 77.5370149,25.0119403 C77.4689552,25.2246269 77.4179104,25.4713433 77.4179104,25.7095522 L77.4179104,28.9168657 L78.3026866,28.9168657 L78.3026866,25.7350746 C78.3026866,25.539403 78.328209,25.3947761 78.3792537,25.2501493 C78.421791,25.1055224 78.4983582,25.0119403 78.5664179,24.9183582 C78.6429851,24.8247761 78.7365672,24.7737313 78.8301493,24.7226866 C79.0683582,24.6291045 79.3065672,24.6546269 79.5022388,24.748209 C79.5958209,24.7992537 79.689403,24.8673134 79.7659701,24.9608955 C79.8340299,25.0629851 79.910597,25.1820896 79.9361194,25.301194 C79.9786567,25.4202985 80.0041791,25.5649254 80.0041791,25.7350746 L80.0041791,25.9222388 L78.2771642,25.9222388 L78.2771642,26.7644776 L80.0041791,26.7644776 L80.0041791,28.9423881 L80.8889552,28.9423881 L80.8889552,25.7350746 C80.8889552,25.4883582 80.8464179,25.2501493 80.7698507,25.0374627 C80.701791,24.7992537 80.5826866,24.5780597 80.4380597,24.4164179 L80.4380597,24.4164179 Z" id="SvgjsPath1052" fill="#000000"></path>
                            <path d="M85.0150746,23.8464179 C84.8449254,23.8719403 84.7002985,23.8889552 84.5301493,23.94 C84.3685075,23.9910448 84.1983582,24.0591045 84.0537313,24.1526866 C83.8835821,24.2547761 83.7474627,24.3738806 83.6028358,24.5355224 C83.4837313,24.6801493 83.3816418,24.7992537 83.3135821,24.9438806 C83.2370149,25.0885075 83.1944776,25.2331343 83.1434328,25.3777612 C83.1008955,25.5223881 83.0753731,25.6670149 83.0753731,25.8286567 C83.0753731,25.9732836 83.0498507,26.1434328 83.0498507,26.2880597 L83.0498507,28.0150746 L82.5223881,28.0150746 L82.5223881,28.848806 L83.9346269,28.848806 L83.9346269,26.2880597 C83.9346269,26.0923881 83.9601493,25.8797015 83.9856716,25.6925373 C84.011194,25.4968657 84.1047761,25.3097015 84.2238806,25.1395522 C84.3174627,25.0204478 84.4110448,24.9438806 84.5131343,24.8758209 C84.6067164,24.7992537 84.7258209,24.7567164 84.8449254,24.731194 C84.9640299,24.7056716 85.0576119,24.6801493 85.1767164,24.6801493 C85.3043284,24.6801493 85.3979104,24.6801493 85.4914925,24.6801493 L85.6871642,24.6801493 L85.6871642,28.848806 L86.5719403,28.848806 L86.5719403,23.8208955 L85.4659701,23.8208955 C85.3213433,23.8464179 85.1767164,23.8464179 85.0150746,23.8464179 L85.0150746,23.8464179 Z" id="SvgjsPath1053" fill="#000000"></path>
                            <path d="M91.6849254,25.9052239 C91.5402985,25.7350746 91.3531343,25.6159701 91.1319403,25.4968657 C90.9192537,25.4032836 90.6555224,25.3522388 90.3492537,25.3522388 C90.2471642,25.3522388 90.1791045,25.3522388 90.1025373,25.3522388 C90.0344776,25.3522388 89.9664179,25.3777612 89.8898507,25.3777612 C89.821791,25.4032836 89.7452239,25.4032836 89.7026866,25.428806 L89.3879104,25.5479104 L89.3879104,26.4752239 L89.5580597,26.3816418 C89.6771642,26.3135821 89.821791,26.2625373 89.9408955,26.22 C90.1791045,26.1434328 90.4683582,26.1434328 90.6810448,26.22 C90.8001493,26.2625373 90.8937313,26.3391045 90.9702985,26.4071642 C91.0383582,26.4752239 91.1149254,26.6028358 91.1574627,26.6964179 C91.2085075,26.8155224 91.2340299,26.9346269 91.2340299,27.0792537 C91.2340299,27.1983582 91.2085075,27.3174627 91.1829851,27.4110448 C91.1574627,27.5131343 91.1149254,27.581194 91.0638806,27.6492537 C91.0128358,27.7258209 90.9702985,27.7683582 90.9192537,27.819403 C90.8767164,27.8704478 90.8001493,27.8959701 90.7491045,27.9385075 C90.6810448,27.9895522 90.5874627,28.0150746 90.5108955,28.0150746 C90.3237313,28.0576119 90.1025373,28.0320896 89.9153731,27.9895522 C89.7962687,27.9385075 89.6771642,27.8959701 89.600597,27.819403 C89.5325373,27.7513433 89.4814925,27.6492537 89.4389552,27.5556716 C89.3879104,27.4620896 89.3879104,27.3685075 89.3623881,27.2919403 C89.3623881,27.1983582 89.3623881,27.1047761 89.3623881,27.028209 L89.3623881,23.8208955 L88.4776119,23.8208955 L88.4776119,27.0537313 C88.4776119,27.1473134 88.4776119,27.2919403 88.5031343,27.4365672 C88.5286567,27.6067164 88.571194,27.7683582 88.6222388,27.9385075 C88.6902985,28.1086567 88.809403,28.278806 88.9540299,28.4404478 C89.0986567,28.610597 89.3198507,28.7297015 89.5580597,28.8062687 C89.6771642,28.848806 89.7707463,28.8743284 89.8898507,28.8743284 C90.0089552,28.8743284 90.1025373,28.8998507 90.2301493,28.8998507 C90.3492537,28.8998507 90.4853731,28.8998507 90.6129851,28.8743284 C90.7320896,28.848806 90.8767164,28.8232836 90.9958209,28.7807463 C91.3531343,28.6361194 91.6168657,28.4234328 91.8040299,28.1086567 C91.9997015,27.7938806 92.0932836,27.4620896 92.0932836,27.0792537 C92.0932836,26.8665672 92.0422388,26.6453731 91.9741791,26.4326866 C91.9486567,26.2370149 91.8295522,26.0498507 91.6849254,25.9052239 L91.6849254,25.9052239 Z" id="SvgjsPath1054" fill="#000000"></path>
                            <polygon id="SvgjsPath1055" fill="#000000" points="97.1637313 25.8116418 95.3176119 25.8116418 95.3176119 23.8208955 94.4328358 23.8208955 94.4328358 28.8232836 95.3176119 28.8232836 95.3176119 26.6708955 97.1637313 26.6708955 97.1637313 28.8232836 98.0485075 28.8232836 98.0485075 23.8208955 97.1637313 23.8208955"></polygon>
                            <path d="M103.408209,24.4164179 C103.263582,24.2462687 103.06791,24.1016418 102.855224,23.9825373 C102.421343,23.7698507 101.825821,23.7698507 101.39194,23.9825373 C101.179254,24.0761194 100.983582,24.2207463 100.838955,24.4164179 C100.702836,24.5780597 100.583731,24.7992537 100.507164,25.0119403 C100.439104,25.2246269 100.38806,25.4713433 100.38806,25.7095522 L100.38806,28.9168657 L101.272836,28.9168657 L101.272836,25.7350746 C101.272836,25.539403 101.298358,25.3947761 101.349403,25.2501493 C101.39194,25.1055224 101.468507,25.0119403 101.536567,24.9183582 C101.613134,24.8247761 101.706716,24.7737313 101.800299,24.7226866 C102.038507,24.6291045 102.276716,24.6546269 102.472388,24.748209 C102.56597,24.7992537 102.659552,24.8673134 102.736119,24.9608955 C102.804179,25.0629851 102.880746,25.1820896 102.906269,25.301194 C102.948806,25.4202985 102.974328,25.5649254 102.974328,25.7350746 L102.974328,25.9222388 L101.247313,25.9222388 L101.247313,26.7644776 L102.974328,26.7644776 L102.974328,28.9423881 L103.859104,28.9423881 L103.859104,25.7350746 C103.859104,25.4883582 103.816567,25.2501493 103.74,25.0374627 C103.67194,24.7992537 103.552836,24.5780597 103.408209,24.4164179 L103.408209,24.4164179 Z" id="SvgjsPath1056" fill="#000000"></path>
                            <path d="M110.835224,23.9144776 C110.54597,23.9910448 110.307761,24.0846269 110.069552,24.2292537 C109.924925,24.3228358 109.780299,24.4164179 109.635672,24.5610448 C109.491045,24.6801493 109.37194,24.8502985 109.252836,25.0204478 C109.133731,25.1820896 109.065672,25.3777612 108.989104,25.5904478 C108.921045,25.8116418 108.895522,26.0498507 108.895522,26.3135821 C108.895522,26.551791 108.921045,26.7644776 108.963582,27.0026866 C109.014627,27.249403 109.108209,27.4620896 109.227313,27.6492537 C109.397463,27.9129851 109.567612,28.1341791 109.780299,28.2958209 C109.97597,28.4404478 110.188657,28.5595522 110.401343,28.6616418 C110.622537,28.7297015 110.809701,28.7807463 111.030896,28.8062687 C111.21806,28.8232836 111.413731,28.8232836 111.575373,28.8232836 L112.153881,28.8232836 L112.153881,27.9895522 L111.507313,27.9895522 C111.388209,27.9895522 111.294627,27.9895522 111.15,27.9640299 C111.030896,27.9385075 110.903284,27.9129851 110.784179,27.8704478 C110.665075,27.819403 110.54597,27.7513433 110.426866,27.6747761 C110.307761,27.581194 110.214179,27.4620896 110.095075,27.3174627 C109.992985,27.1728358 109.924925,27.028209 109.873881,26.8665672 C109.831343,26.6964179 109.805821,26.5262687 109.805821,26.3391045 C109.805821,26.0498507 109.873881,25.7861194 109.992985,25.5479104 C110.04403,25.4458209 110.120597,25.3267164 110.214179,25.2331343 C110.307761,25.1395522 110.426866,25.0459701 110.54597,24.9438806 C110.665075,24.8758209 110.835224,24.7992537 111.005373,24.731194 C111.167015,24.6801493 111.362687,24.6631343 111.549851,24.6631343 L112.128358,24.6631343 L112.128358,23.8208955 L111.65194,23.8208955 C111.388209,23.8208955 111.124478,23.8464179 110.835224,23.9144776 L110.835224,23.9144776 Z" id="SvgjsPath1057" fill="#000000"></path>
                            <path d="M117.207313,26.4752239 C117.113731,26.3816418 117.045672,26.2880597 116.943582,26.2370149 C116.943582,26.2370149 116.91806,26.2370149 116.91806,26.22 C116.969104,26.1689552 117.020149,26.1434328 117.045672,26.0923881 C117.113731,25.998806 117.164776,25.9307463 117.207313,25.8286567 C117.258358,25.7350746 117.283881,25.6414925 117.283881,25.5479104 C117.300896,25.4458209 117.300896,25.3777612 117.300896,25.2841791 C117.300896,25.1140299 117.283881,24.9183582 117.207313,24.7567164 C117.139254,24.5865672 117.045672,24.4164179 116.901045,24.271791 C116.756418,24.1356716 116.586269,24.0165672 116.373582,23.94 C116.152388,23.8464179 115.914179,23.8208955 115.624925,23.8208955 C115.386716,23.8208955 115.17403,23.8719403 114.978358,23.94 C114.791194,24.0165672 114.595522,24.1356716 114.450896,24.2973134 C114.314776,24.4419403 114.195672,24.6376119 114.119104,24.8502985 C114.051045,25.0629851 114,25.2841791 114,25.5479104 L114,28.9253731 L114.884776,28.9253731 L114.884776,25.5734328 C114.884776,25.4032836 114.910299,25.2841791 114.961343,25.1650746 C115.003881,25.0459701 115.080448,24.969403 115.148507,24.9013433 C115.225075,24.8247761 115.318657,24.7822388 115.412239,24.731194 C115.60791,24.6631343 115.820597,24.6631343 115.990746,24.731194 C116.084328,24.7567164 116.152388,24.7992537 116.228955,24.8758209 C116.297015,24.9183582 116.34806,24.9949254 116.373582,25.0629851 C116.416119,25.1395522 116.416119,25.2331343 116.416119,25.3267164 C116.416119,25.428806 116.399104,25.5223881 116.373582,25.5734328 C116.322537,25.6414925 116.271493,25.7095522 116.203433,25.760597 C116.135373,25.8116418 116.058806,25.8541791 115.965224,25.8797015 C115.871642,25.9052239 115.769552,25.9307463 115.650448,25.9307463 L114.884776,25.9307463 L114.884776,26.7644776 L115.888657,26.7644776 C116.135373,26.7644776 116.297015,26.8155224 116.441642,26.9601493 C116.586269,27.0792537 116.637313,27.249403 116.637313,27.4365672 C116.637313,27.6067164 116.611791,27.7513433 116.535224,27.819403 C116.467164,27.9129851 116.399104,27.9640299 116.322537,28.0150746 C116.228955,28.0576119 116.152388,28.0831343 116.058806,28.0831343 C115.965224,28.0831343 115.871642,28.0831343 115.820597,28.0831343 L114.884776,28.0831343 L114.884776,28.9253731 L115.871642,28.9253731 C116.17791,28.9253731 116.416119,28.8743284 116.637313,28.8062687 C116.85,28.7297015 117.020149,28.610597 117.164776,28.4659701 C117.300896,28.3213433 117.402985,28.1597015 117.445522,27.9895522 C117.496567,27.819403 117.547612,27.6322388 117.547612,27.4620896 C117.547612,27.249403 117.52209,27.0537313 117.445522,26.8835821 C117.377463,26.7219403 117.283881,26.5773134 117.207313,26.4752239 L117.207313,26.4752239 Z" id="SvgjsPath1058" fill="#000000"></path>
                            <polygon id="SvgjsPath1059" fill="#000000" points="119.104478 28.9253731 119.104478 23.8208955 119.955224 23.8208955 119.955224 28.9253731"></polygon>
                            <polygon id="SvgjsPath1060" fill="#000000" points="121.656716 24.6631343 122.830746 24.6631343 122.830746 28.8232836 123.715522 28.8232836 123.715522 24.6631343 124.915075 24.6631343 124.915075 23.8208955 121.656716 23.8208955"></polygon>
                            <path d="M128.403134,23.8464179 C128.232985,23.8719403 128.088358,23.8889552 127.918209,23.94 C127.756567,23.9910448 127.586418,24.0591045 127.441791,24.1526866 C127.271642,24.2547761 127.135522,24.3738806 126.990896,24.5355224 C126.871791,24.6801493 126.769701,24.7992537 126.701642,24.9438806 C126.625075,25.0885075 126.582537,25.2331343 126.531493,25.3777612 C126.488955,25.5223881 126.463433,25.6670149 126.463433,25.8286567 C126.463433,25.9732836 126.43791,26.1179104 126.43791,26.2880597 L126.43791,28.0150746 L125.910448,28.0150746 L125.910448,28.848806 L127.322687,28.848806 L127.322687,26.2880597 C127.322687,26.0923881 127.348209,25.8797015 127.373731,25.6925373 C127.399254,25.4968657 127.492836,25.3097015 127.61194,25.1395522 C127.705522,25.0204478 127.799104,24.9438806 127.901194,24.8758209 C127.994776,24.7992537 128.113881,24.7567164 128.232985,24.731194 C128.35209,24.7056716 128.445672,24.6801493 128.564776,24.6801493 C128.692388,24.6801493 128.78597,24.6801493 128.879552,24.6801493 L129.075224,24.6801493 L129.075224,28.848806 L129.96,28.848806 L129.96,23.8208955 L128.879552,23.8208955 C128.709403,23.8464179 128.564776,23.8464179 128.403134,23.8464179 L128.403134,23.8464179 Z" id="SvgjsPath1061" fill="#000000"></path>
                            <path d="M135.481343,24.1101493 C135.430299,24.0165672 135.362239,23.94 135.294179,23.8889552 C135.217612,23.8464179 135.098507,23.8208955 134.979403,23.8208955 C134.783731,23.8208955 134.647612,23.8889552 134.502985,24.0165672 C134.383881,24.1356716 134.281791,24.2973134 134.162687,24.5185075 L132.77597,27.4620896 C132.77597,27.4876119 132.750448,27.5131343 132.750448,27.5301493 L132.750448,23.8719403 L131.865672,23.8719403 L131.865672,28.0831343 C131.865672,28.1767164 131.865672,28.2958209 131.891194,28.3979104 C131.916716,28.4914925 131.933731,28.5850746 131.959254,28.6786567 C132.010299,28.7807463 132.061343,28.848806 132.154925,28.8998507 C132.222985,28.9423881 132.34209,28.9679104 132.461194,28.9679104 C132.563284,28.9679104 132.656866,28.9423881 132.750448,28.9253731 C132.827015,28.8743284 132.895075,28.8232836 132.963134,28.7552239 C133.014179,28.6786567 133.090746,28.610597 133.133284,28.5425373 C133.184328,28.4659701 133.226866,28.3723881 133.252388,28.278806 L134.647612,25.3267164 C134.647612,25.3097015 134.664627,25.2841791 134.690149,25.2331343 L134.690149,25.2331343 L134.690149,28.8998507 L135.574925,28.8998507 L135.574925,24.6801493 C135.574925,24.5865672 135.574925,24.4674627 135.55791,24.3738806 C135.55791,24.271791 135.506866,24.178209 135.481343,24.1101493 L135.481343,24.1101493 Z" id="SvgjsPath1062" fill="#000000"></path>
                            <polygon id="SvgjsPath1063" fill="#000000" points="140.551791 25.8116418 138.705672 25.8116418 138.705672 23.8208955 137.820896 23.8208955 137.820896 28.8232836 138.705672 28.8232836 138.705672 26.6708955 140.551791 26.6708955 140.551791 28.8232836 141.436567 28.8232836 141.436567 23.8208955 140.551791 23.8208955"></polygon>
                            <path d="M148.23403,24.5695522 C147.987313,24.3313433 147.706567,24.161194 147.391791,24.0165672 C146.770746,23.7528358 146.030597,23.7528358 145.401045,24.0165672 C145.094776,24.161194 144.805522,24.3313433 144.567313,24.5695522 C144.329104,24.8077612 144.133433,25.0714925 143.988806,25.3862687 C143.844179,25.6925373 143.776119,26.0328358 143.776119,26.3901493 C143.776119,26.7474627 143.844179,27.0877612 143.988806,27.3940299 C144.133433,27.708806 144.329104,27.9725373 144.567313,28.2107463 C144.805522,28.4489552 145.094776,28.6191045 145.401045,28.7637313 C145.715821,28.9083582 146.047612,28.9508955 146.413433,28.9508955 C146.770746,28.9508955 147.077015,28.8828358 147.417313,28.7637313 C147.723582,28.6191045 148.012836,28.4489552 148.251045,28.2107463 C148.497761,27.9725373 148.684925,27.708806 148.829552,27.3940299 C148.974179,27.0877612 149.042239,26.7474627 149.042239,26.3901493 C149.042239,26.0328358 148.974179,25.6925373 148.829552,25.3862687 C148.659403,25.0714925 148.472239,24.8077612 148.23403,24.5695522 Z M148.114925,26.3901493 C148.114925,26.6283582 148.063881,26.8410448 147.987313,27.0622388 C147.919254,27.2749254 147.774627,27.470597 147.63,27.6067164 C147.485373,27.7768657 147.298209,27.8959701 147.077015,27.9980597 C146.677164,28.1852239 146.149701,28.1852239 145.741343,27.9980597 C145.528657,27.8959701 145.358507,27.7768657 145.188358,27.6067164 C145.043731,27.4450746 144.924627,27.2749254 144.831045,27.0622388 C144.737463,26.8410448 144.71194,26.6283582 144.71194,26.3901493 C144.71194,26.1519403 144.754478,25.9307463 144.831045,25.7180597 C144.924627,25.5053731 145.043731,25.3097015 145.188358,25.1650746 C145.332985,25.0034328 145.528657,24.8843284 145.741343,24.7822388 C145.95403,24.6886567 146.175224,24.6376119 146.413433,24.6376119 C146.651642,24.6376119 146.864328,24.6886567 147.077015,24.7822388 C147.298209,24.8843284 147.468358,25.0034328 147.63,25.1650746 C147.774627,25.3352239 147.893731,25.5053731 147.987313,25.7180597 C148.089403,25.9307463 148.114925,26.1774627 148.114925,26.3901493 Z" id="SvgjsPath1064" fill="#000000"></path>
                            <polygon id="SvgjsPath1065" fill="#000000" points="150.58209 24.6631343 151.781642 24.6631343 151.781642 28.8232836 152.666418 28.8232836 152.666418 24.6631343 153.840448 24.6631343 153.840448 23.8208955 150.58209 23.8208955"></polygon>
                            <path d="M156.273582,23.8208955 L156.273582,23.8208955 C156.154478,23.8208955 156.060896,23.8464179 155.933284,23.8719403 C155.839701,23.8889552 155.720597,23.94 155.627015,23.9655224 C155.533433,24.0165672 155.431343,24.0846269 155.337761,24.1526866 C155.244179,24.2292537 155.167612,24.3483582 155.099552,24.4929851 C155.031493,24.6376119 154.980448,24.8247761 154.980448,25.0459701 C154.980448,25.3097015 155.048507,25.5479104 155.167612,25.7350746 C155.244179,25.8797015 155.363284,25.998806 155.482388,26.0923881 L155.482388,26.0923881 C155.388806,26.1434328 155.286716,26.22 155.193134,26.3391045 C155.099552,26.4326866 155.031493,26.5773134 154.954925,26.7219403 C154.886866,26.8835821 154.835821,27.0792537 154.835821,27.3174627 C154.835821,27.4876119 154.861343,27.6492537 154.903881,27.819403 C154.954925,27.9895522 155.048507,28.1341791 155.167612,28.278806 C155.269701,28.3979104 155.388806,28.4914925 155.50791,28.5595522 C155.627015,28.6361194 155.720597,28.6786567 155.839701,28.7041791 C155.958806,28.7297015 156.07791,28.7807463 156.18,28.7807463 C156.299104,28.7807463 156.392687,28.8062687 156.486269,28.8062687 L157.92403,28.8062687 L157.92403,27.9640299 L156.537313,27.9640299 C156.486269,27.9640299 156.418209,27.9640299 156.341642,27.9640299 C156.273582,27.9640299 156.197015,27.9385075 156.128955,27.9129851 C156.060896,27.8959701 155.984328,27.8704478 155.933284,27.7938806 C155.865224,27.7513433 155.814179,27.6747761 155.771642,27.6067164 C155.720597,27.5131343 155.695075,27.3855224 155.695075,27.2664179 C155.695075,27.121791 155.720597,27.0026866 155.771642,26.9346269 C155.814179,26.8410448 155.890746,26.79 155.933284,26.7389552 C156.060896,26.6453731 156.18,26.6028358 156.324627,26.6028358 C156.460746,26.5773134 156.630896,26.5773134 156.775522,26.5773134 L157.949552,26.5773134 L157.949552,25.7350746 L156.724478,25.7350746 C156.656418,25.7350746 156.588358,25.7350746 156.486269,25.7350746 C156.418209,25.7350746 156.341642,25.7095522 156.273582,25.7095522 C156.197015,25.6925373 156.128955,25.6670149 156.07791,25.6159701 C156.035373,25.5734328 155.958806,25.4968657 155.933284,25.428806 C155.890746,25.3522388 155.890746,25.2841791 155.890746,25.1820896 C155.890746,25.0885075 155.916269,25.0204478 155.933284,24.969403 C155.958806,24.9183582 155.984328,24.8758209 156.035373,24.8247761 C156.07791,24.7822388 156.128955,24.7567164 156.18,24.731194 C156.222537,24.7056716 156.299104,24.6801493 156.341642,24.6801493 C156.418209,24.6801493 156.460746,24.6631343 156.537313,24.6631343 L157.975075,24.6631343 L157.975075,23.8208955 L156.605373,23.8208955 C156.486269,23.8208955 156.367164,23.8208955 156.273582,23.8208955 L156.273582,23.8208955 Z" id="SvgjsPath1066" fill="#000000"></path>
                            <path d="M162.671194,25.8116418 C162.722239,25.7350746 162.764776,25.6414925 162.815821,25.5479104 C162.858358,25.4458209 162.909403,25.3267164 162.98597,25.1820896 L163.581493,23.8464179 L162.594627,23.8464179 L161.94806,25.2586567 C161.905522,25.3777612 161.828955,25.4968657 161.760896,25.5734328 C161.709851,25.6414925 161.641791,25.7095522 161.565224,25.7350746 C161.522687,25.7861194 161.446119,25.8116418 161.37806,25.8116418 C161.301493,25.8286567 161.233433,25.8286567 161.139851,25.8286567 L160.825075,25.8286567 L160.825075,23.8208955 L159.940299,23.8208955 L159.940299,28.848806 L160.825075,28.848806 L160.825075,26.6708955 L161.641791,26.6708955 C161.81194,26.6708955 161.94806,26.6964179 162.050149,26.7644776 C162.143731,26.8155224 162.211791,26.8835821 162.262836,26.9856716 C162.313881,27.0792537 162.339403,27.1473134 162.356418,27.249403 C162.356418,27.3429851 162.38194,27.4365672 162.38194,27.5131343 L162.38194,28.848806 L163.266716,28.848806 L163.266716,27.5131343 C163.266716,27.2238806 163.241194,27.0026866 163.173134,26.8155224 C163.105075,26.6198507 163.028507,26.4752239 162.909403,26.3561194 C162.815821,26.2370149 162.696716,26.1434328 162.55209,26.0923881 C162.501045,26.0753731 162.475522,26.0753731 162.432985,26.0498507 L162.458507,26.0243284 C162.577612,25.9732836 162.620149,25.9052239 162.671194,25.8116418 L162.671194,25.8116418 Z" id="SvgjsPath1067" fill="#000000"></path>
                            <path d="M169.247463,25.0119403 C169.179403,24.7992537 169.060299,24.5780597 168.915672,24.4164179 C168.771045,24.2462687 168.575373,24.1016418 168.362687,23.9825373 C167.928806,23.7698507 167.333284,23.7698507 166.899403,23.9825373 C166.686716,24.0761194 166.491045,24.2207463 166.346418,24.4164179 C166.210299,24.5780597 166.091194,24.7992537 166.014627,25.0119403 C165.946567,25.2246269 165.895522,25.4713433 165.895522,25.7095522 L165.895522,28.9168657 L166.780299,28.9168657 L166.780299,25.7350746 C166.780299,25.539403 166.805821,25.3947761 166.856866,25.2501493 C166.899403,25.1055224 166.97597,25.0119403 167.04403,24.9183582 C167.120597,24.8247761 167.214179,24.7737313 167.307761,24.7226866 C167.54597,24.6291045 167.784179,24.6546269 167.979851,24.748209 C168.073433,24.7992537 168.167015,24.8673134 168.243582,24.9608955 C168.311642,25.0629851 168.388209,25.1820896 168.413731,25.301194 C168.456269,25.4202985 168.481791,25.5649254 168.481791,25.7350746 L168.481791,25.9222388 L166.754776,25.9222388 L166.754776,26.7644776 L168.481791,26.7644776 L168.481791,28.9423881 L169.366567,28.9423881 L169.366567,25.7350746 C169.366567,25.4713433 169.341045,25.2501493 169.247463,25.0119403 L169.247463,25.0119403 Z" id="SvgjsPath1068" fill="#000000"></path>
                        </g>
                    </g>
                </g>
            </g>
        </g>
    </g>
</svg>