<?xml version="1.0" encoding="utf-8"?>
<!-- Generator: Adobe Illustrator 23.0.2, SVG Export Plug-In . SVG Version: 6.00 Build 0)  -->
<svg version="1.1" id="Layer_1" xmlns="http://www.w3.org/2000/svg" xmlns:xlink="http://www.w3.org/1999/xlink" x="0px" y="0px"
	 viewBox="0 0 160 80" style="enable-background:new 0 0 160 80;" xml:space="preserve">
<style type="text/css">
	.st0{fill:#D25B48;}
	.st1{fill:#ACDDE2;}
	.st2{fill:#F3CF3B;}
</style>
<g id="Grid">
	<g>
		<path d="M23.4,31.2c-0.2-0.3,0-0.7,0.5-0.7h2.8c0.3,0,0.4,0.2,0.5,0.3l5.2,11.7h0.2l5.2-11.7c0-0.2,0.2-0.3,0.5-0.3H41
			c0.4,0,0.6,0.3,0.5,0.7L33,49.5c-0.1,0.2-0.2,0.3-0.5,0.3h-0.3c-0.3,0-0.4-0.2-0.5-0.3L23.4,31.2 M43.7,31v18
			c0,0.3,0.2,0.5,0.5,0.5h2.5c0.3,0,0.5-0.2,0.5-0.5V31c0-0.3-0.3-0.5-0.5-0.5h-2.5C43.9,30.5,43.7,30.7,43.7,31 M52.6,31v18
			c0,0.3,0.2,0.5,0.5,0.5h6.5c5.2,0,9.6-4.3,9.6-9.6c0-5.2-4.3-9.5-9.6-9.5h-6.5C52.8,30.5,52.6,30.7,52.6,31 M56.1,46.2V33.8h3.1
			c3.5,0,6.1,2.7,6.1,6.2c0,3.6-2.6,6.2-6.1,6.2H56.1z M72.7,31v18c0,0.3,0.2,0.5,0.5,0.5h10c0.3,0,0.5-0.2,0.5-0.5v-2.2
			c0-0.3-0.2-0.5-0.5-0.5h-7V31c0-0.3-0.2-0.5-0.5-0.5h-2.5C72.9,30.5,72.7,30.7,72.7,31 M86.8,31v18c0,0.3,0.2,0.5,0.5,0.5h11.1
			c0.3,0,0.5-0.2,0.5-0.5v-2.2c0-0.3-0.2-0.5-0.5-0.5h-8.1v-4.8h6.7c0.3,0,0.5-0.2,0.5-0.5v-2.3c0-0.3-0.3-0.5-0.5-0.5h-6.7v-4.5
			h8.1c0.3,0,0.5-0.2,0.5-0.5V31c0-0.3-0.2-0.5-0.5-0.5H87.3C87,30.5,86.8,30.7,86.8,31 M124.2,46.9c-0.3,0.5-0.1,0.6,0.2,0.8
			c0.5,0.5,2.6,2.1,6,2.1c3.9,0,6.3-2.6,6.3-5.4c0-3.5-3.1-5.1-5.7-6.2c-2.2-0.9-3.2-1.8-3.2-3.1c0-0.9,0.8-1.9,2.4-1.9
			c1.5,0,3.6,1.4,3.8,1.5c0.3,0.2,0.7,0,0.9-0.3l1-1.5c0.2-0.3,0.1-0.8-0.2-0.9c-0.5-0.4-2.7-1.8-5.4-1.8c-4.3,0-6.1,2.8-6.1,5.2
			c0,3.2,2.6,4.9,5.1,5.9c2.3,0.9,3.5,1.9,3.5,3.3c0,1.2-1.1,2.1-2.5,2.1c-1.8,0-4-1.6-4.1-1.7c-0.2-0.2-0.7-0.2-0.9,0.2L124.2,46.9
			"/>
		<g>
			<path class="st0" d="M111.9,46.6L111.9,46.6c-0.5,0.3-0.8,0.8-0.8,1.4c-0.1,1,0.6,1.9,1.7,2c0.1,0,0.2,0,0.3,0c0.1,0,0.2,0,0.3,0
				c4.4-0.7,8-4.3,8.4-9l0,0L111.9,46.6"/>
			<path class="st1" d="M105.9,36.8c0-0.5-0.3-1.1-0.8-1.4c-0.8-0.6-2-0.4-2.6,0.5c-0.1,0.1-0.1,0.2-0.2,0.3c0,0.1-0.1,0.2-0.1,0.3
				c-1.5,4.2-0.2,9.1,3.7,11.8l0,0L105.9,36.8L105.9,36.8"/>
			<path class="st2" d="M117.3,36.6c0.5,0.2,1.1,0.3,1.6,0c0.9-0.4,1.3-1.5,0.9-2.4c0-0.1-0.1-0.2-0.2-0.3c0-0.1-0.1-0.2-0.2-0.2
				c-2.8-3.5-7.7-4.8-12-2.8l0,0L117.3,36.6L117.3,36.6"/>
		</g>
	</g>
</g>
</svg>
