<?xml version="1.0" encoding="iso-8859-1"?>
<!-- Generator: Adobe Illustrator 23.0.2, SVG Export Plug-In . SVG Version: 6.00 Build 0)  -->
<svg version="1.2" baseProfile="tiny" id="Layer_1" xmlns="http://www.w3.org/2000/svg" xmlns:xlink="http://www.w3.org/1999/xlink"
	 x="0px" y="0px" viewBox="0 0 160 80" xml:space="preserve">
<g>
	<rect x="5.7" y="45.3" fill="#FFF201" width="148.7" height="6.4"/>
	<g>
		<path d="M15.2,44.2l-3-12.6h3l1,5.2c0.3,1.5,0.5,3.1,0.7,4.4h0c0.2-1.4,0.5-2.9,0.8-4.4l1.1-5.1h3l1,5.3c0.3,1.5,0.5,2.8,0.7,4.2
			h0c0.2-1.4,0.5-2.9,0.7-4.4l1-5.1h2.9L25,44.2h-3.1l-1.1-5.4c-0.2-1.3-0.4-2.4-0.6-3.9h0c-0.2,1.4-0.4,2.6-0.7,3.9l-1.2,5.4H15.2z
			"/>
		<path d="M30.5,40.5c0.1,1.2,1.2,1.7,2.6,1.7c1,0,1.8-0.1,2.5-0.4l0.4,1.9c-0.9,0.4-2.1,0.6-3.3,0.6c-3.1,0-4.9-1.8-4.9-4.6
			c0-2.3,1.4-4.9,4.6-4.9c2.9,0,4.1,2.3,4.1,4.6c0,0.5-0.1,0.9-0.1,1.1H30.5z M33.8,38.6c0-0.7-0.3-1.8-1.6-1.8
			c-1.2,0-1.7,1.1-1.8,1.8H33.8z"/>
		<path d="M41,32.5c0,0.8-0.6,1.4-1.5,1.4c-0.9,0-1.5-0.6-1.5-1.4c0-0.8,0.6-1.4,1.5-1.4C40.4,31.1,41,31.7,41,32.5z M38.1,44.2
			v-9.1h2.8v9.1H38.1z"/>
		<path d="M49.9,44c-0.5,0.2-1.5,0.4-2.5,0.4c-2.9,0-4.8-1.8-4.8-4.7c0-2.7,1.8-4.8,5.2-4.8c0.7,0,1.6,0.1,2.2,0.4l-0.4,2.1
			c-0.3-0.1-0.8-0.3-1.6-0.3c-1.5,0-2.5,1.1-2.4,2.6c0,1.7,1.1,2.6,2.5,2.6c0.7,0,1.2-0.1,1.6-0.3L49.9,44z"/>
		<path d="M51.5,30.9h2.8v5.2h0c0.3-0.4,0.7-0.7,1.1-0.9c0.4-0.2,1-0.4,1.5-0.4c1.8,0,3.2,1.2,3.2,4v5.3h-2.8v-5c0-1.2-0.4-2-1.5-2
			c-0.7,0-1.2,0.5-1.4,1c-0.1,0.2-0.1,0.4-0.1,0.6v5.4h-2.8V30.9z"/>
		<path d="M63.9,40.5c0.1,1.2,1.2,1.7,2.6,1.7c1,0,1.8-0.1,2.5-0.4l0.4,1.9c-0.9,0.4-2.1,0.6-3.3,0.6c-3.1,0-4.9-1.8-4.9-4.6
			c0-2.3,1.4-4.9,4.6-4.9c2.9,0,4.1,2.3,4.1,4.6c0,0.5-0.1,0.9-0.1,1.1H63.9z M67.3,38.6c0-0.7-0.3-1.8-1.6-1.8
			c-1.2,0-1.7,1.1-1.8,1.8H67.3z"/>
		<path d="M71,38.1c0-1.3,0-2.2-0.1-3h2.4l0.1,1.7h0.1c0.5-1.3,1.6-1.9,2.5-1.9c0.3,0,0.4,0,0.6,0v2.7c-0.2,0-0.4-0.1-0.8-0.1
			c-1,0-1.8,0.6-1.9,1.4c0,0.2-0.1,0.4-0.1,0.6v4.6H71V38.1z"/>
		<path d="M81.2,32.4v2.6h2v2.1h-2v3.3c0,1.1,0.3,1.6,1.1,1.6c0.4,0,0.6,0,0.8-0.1l0,2.1c-0.4,0.1-1,0.2-1.8,0.2
			c-0.9,0-1.7-0.3-2.1-0.8c-0.5-0.5-0.8-1.4-0.8-2.7v-3.7h-1.2v-2.1h1.2v-2L81.2,32.4z"/>
	</g>
	<path fill="#6A6A6A" d="M94.4,34c0,0-0.6-0.3-1.8,0.9s-6.2,8.1-5.5,9.3s8.5-4.6,8.5-4.6S95.2,43,97.6,43s5-1.8,6.4-3.3
		c1.5-1.6,4.2-5.7,3.1-8.8c-1.1-3.1-3.5-1.9-3.5-1.9s-1.2,1.1-0.5,1.9c0.6,0.7,0.5-1.1,1.7-0.8c1.2,0.2,3,4.4-2,8.9
		s-7.1,4.7-5.6-2.2c0,0-0.3-1-0.9-0.1c-0.6,0.8-4,5.2-7.2,6.5c0,0,1.2-3.2,4.8-7.2C93.8,35.9,95.4,35,94.4,34z"/>
	<g>
		<path fill="#6A6A6A" d="M117,37.2c0,0-3.4-1.5-7.4,0.6c0,0-3.5,1.6-3.3,3.5c0.2,2,2.3,2.3,5.4,2.2c3.1,0,6.9-2.1,7-3.7
			C118.8,38.4,117,37.2,117,37.2z M111.9,42.4c-2,0-3.4-0.2-3.6-1.5c-0.1-1.3,2.2-2.3,2.2-2.3c2.6-1.4,4.9-0.4,4.9-0.4
			s1.2,0.8,1.1,1.8S113.9,42.4,111.9,42.4z"/>
	</g>
	<path fill="#6A6A6A" d="M122,35.5l-1.1,0.6c0,0,1.2,3.2-2.5,7.5v0.5h1.8c0,0,1-3.6,3-5.7c0,0,2-0.6,3.5,1l0.9-1c0,0-0.9-2-4.6-1.3
		L122,35.5z"/>
	<polygon fill="#6A6A6A" points="134.4,28.3 126.8,42.7 127.9,43.6 129.6,41.2 132.5,47.1 134,45.3 130.6,40.2 131.2,39.2 
		138.7,35.2 138.3,33.9 131.2,37.9 135.4,29.6 	"/>
	<path fill="#6A6A6A" d="M148.6,33.8c0,0-9,2.3-8.9,3.6c0.1,1.3,3.7,1.2,3.7,1.2s2.6,0.4,2.5,1.9c-0.1,1.5-2.8,3-5.5,2.7
		c-2.7-0.3-3-3-3-3l-0.9,0.6c0,0,0.6,3.8,4.6,3.6s6.5-2.7,6.4-3.9c-0.1-1.2-0.2-2.6-4.1-2.8c-4.9-0.3,5.3-3.1,5.3-3.1V33.8z"/>
</g>
</svg>
